<svg id="Layer_1" data-name="Layer 1" xmlns="http://www.w3.org/2000/svg" viewBox="0 0 153.59 67.49"><defs><style>.cls-1,.cls-4{fill:none;}.cls-1,.cls-5{stroke:#003f72;}.cls-1,.cls-4,.cls-5{stroke-miterlimit:10;}.cls-2{fill:#003f72;}.cls-3{fill:#ed1c24;}.cls-4{stroke:#174170;}.cls-5{fill:#fff;}</style></defs><title>Modeling to Learn</title><line class="cls-1" x1="79.06" y1="24.89" x2="79.06" y2="39.83"/><path class="cls-2" d="M66.21,35.63c0-.94-.11-2.08-.11-2.91h0c-.24.78-.51,1.63-.85,2.56L64,38.55h-.66l-1.1-3.21c-.32-1-.58-1.82-.77-2.62h0c0,.84-.07,2-.13,3l-.18,2.89h-.83l.47-6.74h1.11l1.15,3.26c.28.83.5,1.57.68,2.27h0c.18-.68.42-1.42.72-2.27l1.2-3.26h1.11l.42,6.74h-.86Z" transform="translate(-52.2 -27.83)"/><path class="cls-2" d="M72.54,36.13a2.37,2.37,0,0,1-2.41,2.57,2.31,2.31,0,0,1-2.32-2.49,2.36,2.36,0,0,1,2.4-2.56A2.29,2.29,0,0,1,72.54,36.13Zm-3.83,0c0,1.06.6,1.86,1.46,1.86s1.47-.79,1.47-1.88c0-.82-.41-1.85-1.45-1.85S68.72,35.27,68.72,36.18Z" transform="translate(-52.2 -27.83)"/><path class="cls-2" d="M77.39,31.49v5.85c0,.43,0,.92,0,1.25h-.78l0-.84h0a1.75,1.75,0,0,1-1.63.95,2.21,2.21,0,0,1-2.08-2.46A2.31,2.31,0,0,1,75,33.65a1.62,1.62,0,0,1,1.46.73h0V31.49Zm-.87,4.23a1.56,1.56,0,0,0,0-.37,1.3,1.3,0,0,0-1.27-1c-.91,0-1.45.8-1.45,1.86S74.25,38,75.19,38a1.33,1.33,0,0,0,1.29-1,1.54,1.54,0,0,0,0-.38Z" transform="translate(-52.2 -27.83)"/><path class="cls-2" d="M78.91,36.33A1.55,1.55,0,0,0,80.57,38a3.14,3.14,0,0,0,1.34-.25l.16.63a4,4,0,0,1-1.62.31,2.25,2.25,0,0,1-2.38-2.45,2.34,2.34,0,0,1,2.27-2.6,2,2,0,0,1,2,2.27,2.15,2.15,0,0,1,0,.41Zm2.58-.63a1.25,1.25,0,0,0-1.22-1.42,1.44,1.44,0,0,0-1.35,1.42Z" transform="translate(-52.2 -27.83)"/><path class="cls-2" d="M83,31.49h.88v7.1H83Z" transform="translate(-52.2 -27.83)"/><path class="cls-2" d="M85.89,32.39a.53.53,0,0,1-.56.54.52.52,0,0,1-.53-.54.54.54,0,0,1,.55-.55A.53.53,0,0,1,85.89,32.39Zm-1,6.2V33.75h.88v4.84Z" transform="translate(-52.2 -27.83)"/><path class="cls-2" d="M86.81,35.06c0-.51,0-.91,0-1.31h.78l0,.8h0a1.79,1.79,0,0,1,1.6-.9c.67,0,1.71.4,1.71,2.06v2.88H90V35.8c0-.78-.29-1.43-1.12-1.43a1.29,1.29,0,0,0-1.24,1.31v2.91h-.88Z" transform="translate(-52.2 -27.83)"/><path class="cls-2" d="M96.05,37.88a2.84,2.84,0,0,1-.69,2.22,2.66,2.66,0,0,1-1.77.58,3.12,3.12,0,0,1-1.61-.4l.22-.68a2.63,2.63,0,0,0,1.42.39c.9,0,1.56-.47,1.56-1.7v-.53h0a1.72,1.72,0,0,1-1.54.81,2.16,2.16,0,0,1-2.06-2.36,2.31,2.31,0,0,1,2.19-2.56,1.62,1.62,0,0,1,1.51.83h0l0-.73h.78c0,.34,0,.74,0,1.32Zm-.88-2.22a1.16,1.16,0,0,0,0-.39,1.26,1.26,0,0,0-1.23-.94c-.84,0-1.44.71-1.44,1.83,0,.95.49,1.74,1.43,1.74a1.27,1.27,0,0,0,1.22-.9,1.53,1.53,0,0,0,.07-.47Z" transform="translate(-52.2 -27.83)"/><rect class="cls-1" x="5.97" y="0.5" width="39.79" height="14.67"/><path class="cls-3" d="M58,83.6h1.4l-1.31,6.86h3.18L61,91.69H56.44Z" transform="translate(-52.2 -27.83)"/><path class="cls-3" d="M66.87,88.09H64l-.46,2.41h3.26l-.23,1.19H61.88l1.54-8.08H67.9l-.23,1.19H64.59l-.41,2.12H67.1Z" transform="translate(-52.2 -27.83)"/><path class="cls-3" d="M69.65,89.38l-1.1,2.3H67.06l4.05-8.08h1.75l1,8.08H72.42l-.23-2.3Zm2.46-1.08-.23-2c0-.43-.08-1.05-.12-1.54h0c-.22.48-.43,1.06-.66,1.54l-1,2Z" transform="translate(-52.2 -27.83)"/><path class="cls-3" d="M76.2,83.74a9.56,9.56,0,0,1,2-.19,3.48,3.48,0,0,1,2,.53A1.71,1.71,0,0,1,81,85.53a2.44,2.44,0,0,1-1.87,2.31v0c.53.2.76.77.83,1.54a13.62,13.62,0,0,0,.29,2.27H78.78a15.27,15.27,0,0,1-.22-1.93c-.06-1-.43-1.4-1.18-1.4H76.7l-.64,3.33H74.69Zm.71,3.55h.79a1.64,1.64,0,0,0,1.82-1.55c0-.74-.59-1.08-1.38-1.08a2.79,2.79,0,0,0-.74.07Z" transform="translate(-52.2 -27.83)"/><path class="cls-3" d="M81.19,91.69l1.54-8.08h1.61l1.42,3.75a20.76,20.76,0,0,1,.73,2.53h0a21.16,21.16,0,0,1,.36-2.73l.67-3.55h1.32l-1.54,8.08H85.89l-1.45-3.83a19.57,19.57,0,0,1-.77-2.6h0c-.08.77-.25,1.76-.47,3l-.66,3.45Z" transform="translate(-52.2 -27.83)"/><rect class="cls-1" x="0.5" y="52.25" width="39.18" height="14.73"/><polygon class="cls-4" points="23.83 49.86 8.13 34.17 23.98 18.32 23.83 49.86"/><line class="cls-1" x1="34.17" y1="16.35" x2="34.17" y2="34.33"/><line class="cls-1" x1="40.22" y1="16.38" x2="40.22" y2="34.5"/><circle class="cls-5" cx="34.17" cy="15.5" r="1.37"/><circle class="cls-5" cx="40.16" cy="15.5" r="1.37"/><line class="cls-1" x1="34.17" y1="26.72" x2="21.31" y2="26.72"/><circle class="cls-5" cx="34.17" cy="26.72" r="1.37"/><circle class="cls-5" cx="21.34" cy="26.72" r="1.37"/><line class="cls-1" x1="32.59" y1="41.64" x2="21.26" y2="41.64"/><circle class="cls-5" cx="21.26" cy="41.67" r="1.37"/><path class="cls-2" d="M87.93,63.9l-.23,1.17h1l-.12.59h-1l-.41,2.12a3.82,3.82,0,0,0-.08.7.37.37,0,0,0,.41.41,2.05,2.05,0,0,0,.35,0l0,.59a1.73,1.73,0,0,1-.58.08.81.81,0,0,1-.92-.85,4.05,4.05,0,0,1,.09-.82l.43-2.21h-.63l.12-.59H87l.19-1Z" transform="translate(-52.2 -27.83)"/><path class="cls-2" d="M92.71,66.79a2.61,2.61,0,0,1-2.41,2.74,1.66,1.66,0,0,1-1.7-1.79A2.61,2.61,0,0,1,91,65,1.66,1.66,0,0,1,92.71,66.79Zm-3.34.92c0,.71.39,1.22,1,1.22.88,0,1.55-1.13,1.55-2.15a1.08,1.08,0,0,0-1-1.22C90,65.56,89.37,66.71,89.37,67.71Z" transform="translate(-52.2 -27.83)"/><rect class="cls-1" x="32.17" y="34.46" width="9.88" height="9.25"/><polyline class="cls-1" points="10.63 34.25 3.55 34.25 3.55 52.08"/><circle class="cls-5" cx="3.42" cy="52.14" r="1.37"/><circle class="cls-5" cx="11.97" cy="34.25" r="1.37"/><path class="cls-2" d="M124,37.8c0-.94-.11-2.08-.11-2.91h0c-.24.78-.51,1.63-.85,2.56l-1.19,3.27h-.66l-1.1-3.21c-.32-1-.58-1.82-.77-2.62h0c0,.84-.07,2-.13,3L119,40.76h-.83l.47-6.74h1.11l1.15,3.26c.28.83.5,1.57.68,2.27h0c.18-.68.42-1.42.72-2.27l1.2-3.26h1.11l.42,6.74h-.86Z" transform="translate(-52.2 -27.83)"/><path class="cls-2" d="M130.38,38.3A2.37,2.37,0,0,1,128,40.87a2.31,2.31,0,0,1-2.32-2.49,2.36,2.36,0,0,1,2.4-2.56A2.29,2.29,0,0,1,130.38,38.3Zm-3.83,0c0,1.06.6,1.86,1.46,1.86s1.47-.79,1.47-1.88c0-.82-.41-1.85-1.45-1.85S126.55,37.44,126.55,38.35Z" transform="translate(-52.2 -27.83)"/><path class="cls-2" d="M135.22,33.66v5.85c0,.43,0,.92,0,1.25h-.78l0-.84h0a1.75,1.75,0,0,1-1.63.95,2.21,2.21,0,0,1-2.08-2.46,2.31,2.31,0,0,1,2.17-2.59,1.62,1.62,0,0,1,1.46.73h0V33.66Zm-.87,4.23a1.56,1.56,0,0,0,0-.37,1.3,1.3,0,0,0-1.27-1c-.91,0-1.45.8-1.45,1.86s.49,1.79,1.43,1.79a1.33,1.33,0,0,0,1.29-1,1.54,1.54,0,0,0,0-.38Z" transform="translate(-52.2 -27.83)"/><path class="cls-2" d="M136.74,38.5a1.55,1.55,0,0,0,1.66,1.68,3.14,3.14,0,0,0,1.34-.25l.16.63a4,4,0,0,1-1.62.31,2.25,2.25,0,0,1-2.38-2.45,2.34,2.34,0,0,1,2.27-2.6,2,2,0,0,1,2,2.27,2.15,2.15,0,0,1,0,.41Zm2.58-.63a1.25,1.25,0,0,0-1.22-1.42,1.44,1.44,0,0,0-1.35,1.42Z" transform="translate(-52.2 -27.83)"/><path class="cls-2" d="M140.82,33.66h.88v7.1h-.88Z" transform="translate(-52.2 -27.83)"/><path class="cls-2" d="M143.72,34.56a.53.53,0,0,1-.56.54.52.52,0,0,1-.53-.54.54.54,0,0,1,.55-.55A.53.53,0,0,1,143.72,34.56Zm-1,6.2V35.92h.88v4.84Z" transform="translate(-52.2 -27.83)"/><path class="cls-2" d="M144.64,37.23c0-.51,0-.91,0-1.31h.78l0,.8h0a1.79,1.79,0,0,1,1.6-.9c.67,0,1.71.4,1.71,2.06v2.88h-.88V38c0-.78-.29-1.43-1.12-1.43a1.29,1.29,0,0,0-1.24,1.31v2.91h-.88Z" transform="translate(-52.2 -27.83)"/><path class="cls-2" d="M153.89,40a2.84,2.84,0,0,1-.69,2.22,2.66,2.66,0,0,1-1.77.58,3.12,3.12,0,0,1-1.61-.4l.22-.68a2.63,2.63,0,0,0,1.42.39c.9,0,1.56-.47,1.56-1.7v-.53h0a1.72,1.72,0,0,1-1.54.81,2.16,2.16,0,0,1-2.06-2.36,2.31,2.31,0,0,1,2.19-2.56,1.62,1.62,0,0,1,1.51.83h0l0-.73h.78c0,.34,0,.74,0,1.32ZM153,37.83a1.16,1.16,0,0,0,0-.39,1.26,1.26,0,0,0-1.23-.94c-.84,0-1.44.71-1.44,1.83,0,.95.49,1.74,1.43,1.74a1.27,1.27,0,0,0,1.22-.9,1.54,1.54,0,0,0,.07-.47Z" transform="translate(-52.2 -27.83)"/><rect class="cls-1" x="63.8" y="2.67" width="39.79" height="14.67"/><path class="cls-3" d="M121.81,76.77h1.4l-1.31,6.86h3.18l-.23,1.22h-4.58Z" transform="translate(-52.2 -27.83)"/><path class="cls-3" d="M130.71,81.25h-2.9l-.46,2.41h3.26l-.23,1.19h-4.67l1.54-8.08h4.49L131.51,78h-3.08L128,80.08h2.91Z" transform="translate(-52.2 -27.83)"/><path class="cls-3" d="M133.48,82.55l-1.1,2.3h-1.49l4.05-8.08h1.75l1,8.08h-1.46l-.23-2.3Zm2.46-1.08-.23-2c0-.43-.08-1.05-.12-1.54h0c-.22.48-.43,1.06-.66,1.54l-1,2Z" transform="translate(-52.2 -27.83)"/><path class="cls-3" d="M140,76.9a9.56,9.56,0,0,1,2-.19,3.48,3.48,0,0,1,2,.53,1.71,1.71,0,0,1,.77,1.46A2.44,2.44,0,0,1,143,81v0c.53.2.76.77.83,1.54a13.62,13.62,0,0,0,.29,2.27h-1.44a15.27,15.27,0,0,1-.22-1.93c-.06-1-.43-1.4-1.18-1.4h-.68l-.64,3.33h-1.38Zm.71,3.55h.79a1.64,1.64,0,0,0,1.82-1.55c0-.74-.59-1.08-1.38-1.08a2.79,2.79,0,0,0-.74.07Z" transform="translate(-52.2 -27.83)"/><path class="cls-3" d="M145,84.85l1.54-8.08h1.61l1.42,3.75a20.75,20.75,0,0,1,.73,2.53h0a21.23,21.23,0,0,1,.36-2.73l.67-3.55h1.32l-1.54,8.08h-1.43L148.28,81a19.72,19.72,0,0,1-.77-2.6h0c-.08.77-.25,1.76-.47,3l-.66,3.45Z" transform="translate(-52.2 -27.83)"/><rect class="cls-1" x="64.34" y="45.42" width="39.18" height="14.73"/><line class="cls-1" x1="92.01" y1="18.93" x2="92.01" y2="32.5"/><line class="cls-1" x1="98.06" y1="18.55" x2="98.06" y2="32.67"/><circle class="cls-5" cx="91.97" cy="17.48" r="1.37"/><circle class="cls-5" cx="97.96" cy="17.48" r="1.37"/><line class="cls-1" x1="92.01" y1="24.89" x2="79.14" y2="24.89"/><circle class="cls-5" cx="92.01" cy="24.89" r="1.37"/><circle class="cls-5" cx="79.06" cy="24.89" r="1.37"/><line class="cls-1" x1="90.42" y1="39.8" x2="79.1" y2="39.8"/><circle class="cls-5" cx="79.06" cy="39.83" r="1.37"/><path class="cls-2" d="M145.77,62.07l-.22,1.17h1l-.12.59h-1L145,65.94a3.82,3.82,0,0,0-.08.7.37.37,0,0,0,.41.41,2.06,2.06,0,0,0,.35,0l0,.59a1.73,1.73,0,0,1-.58.08.81.81,0,0,1-.92-.85,4.05,4.05,0,0,1,.09-.82l.43-2.21h-.63l.12-.59h.62l.19-1Z" transform="translate(-52.2 -27.83)"/><path class="cls-2" d="M150.55,65a2.61,2.61,0,0,1-2.41,2.74,1.66,1.66,0,0,1-1.7-1.79,2.61,2.61,0,0,1,2.41-2.76A1.66,1.66,0,0,1,150.55,65Zm-3.34.92c0,.71.39,1.22,1,1.22.88,0,1.55-1.13,1.55-2.15a1.08,1.08,0,0,0-1-1.22C147.83,63.73,147.2,64.88,147.21,65.87Z" transform="translate(-52.2 -27.83)"/><rect class="cls-1" x="90" y="32.63" width="9.88" height="9.25"/><polyline class="cls-1" points="79.23 32.32 67.26 32.32 67.26 48.69"/><circle class="cls-5" cx="67.27" cy="48.14" r="1.37"/><circle class="cls-5" cx="79.06" cy="32.42" r="1.37"/><path class="cls-2" d="M173.55,37.3c0-.94-.11-2.08-.11-2.91h0c-.24.78-.51,1.63-.85,2.56l-1.19,3.27h-.66L169.62,37c-.32-1-.58-1.82-.77-2.62h0c0,.84-.07,2-.13,3l-.18,2.89h-.83l.47-6.74h1.11l1.15,3.26c.28.83.5,1.57.68,2.27h0c.18-.68.42-1.42.72-2.27l1.2-3.26h1.11l.42,6.74h-.86Z" transform="translate(-52.2 -27.83)"/><path class="cls-2" d="M179.88,37.8a2.37,2.37,0,0,1-2.41,2.57,2.31,2.31,0,0,1-2.32-2.49,2.36,2.36,0,0,1,2.4-2.56A2.29,2.29,0,0,1,179.88,37.8Zm-3.83,0c0,1.06.6,1.86,1.46,1.86s1.47-.79,1.47-1.88c0-.82-.41-1.85-1.45-1.85S176,36.94,176,37.85Z" transform="translate(-52.2 -27.83)"/><path class="cls-2" d="M184.72,33.16V39c0,.43,0,.92,0,1.25H184l0-.84h0a1.75,1.75,0,0,1-1.63.95,2.21,2.21,0,0,1-2.08-2.46,2.31,2.31,0,0,1,2.17-2.59,1.62,1.62,0,0,1,1.46.73h0V33.16Zm-.87,4.23a1.54,1.54,0,0,0,0-.37,1.29,1.29,0,0,0-1.27-1c-.91,0-1.45.8-1.45,1.86s.49,1.79,1.43,1.79a1.33,1.33,0,0,0,1.29-1,1.52,1.52,0,0,0,0-.38Z" transform="translate(-52.2 -27.83)"/><path class="cls-2" d="M186.24,38a1.54,1.54,0,0,0,1.66,1.68,3.14,3.14,0,0,0,1.34-.25l.16.63a4,4,0,0,1-1.62.31,2.25,2.25,0,0,1-2.38-2.45,2.34,2.34,0,0,1,2.27-2.6,2,2,0,0,1,2,2.27,2.19,2.19,0,0,1,0,.41Zm2.58-.63a1.25,1.25,0,0,0-1.22-1.42,1.44,1.44,0,0,0-1.35,1.42Z" transform="translate(-52.2 -27.83)"/><path class="cls-2" d="M190.32,33.16h.88v7.1h-.88Z" transform="translate(-52.2 -27.83)"/><path class="cls-2" d="M193.22,34.06a.53.53,0,0,1-.56.54.52.52,0,0,1-.53-.54.54.54,0,0,1,.55-.55A.53.53,0,0,1,193.22,34.06Zm-1,6.2V35.42h.88v4.84Z" transform="translate(-52.2 -27.83)"/><path class="cls-2" d="M194.14,36.73c0-.51,0-.91,0-1.31h.78l0,.8h0a1.79,1.79,0,0,1,1.6-.9c.67,0,1.71.4,1.71,2.06v2.88h-.88V37.47c0-.78-.29-1.43-1.12-1.43A1.29,1.29,0,0,0,195,37.35v2.91h-.88Z" transform="translate(-52.2 -27.83)"/><path class="cls-2" d="M203.39,39.55a2.84,2.84,0,0,1-.69,2.22,2.66,2.66,0,0,1-1.77.58,3.12,3.12,0,0,1-1.61-.4l.22-.68a2.63,2.63,0,0,0,1.42.39c.9,0,1.56-.47,1.56-1.7v-.53h0a1.72,1.72,0,0,1-1.54.81,2.16,2.16,0,0,1-2.06-2.36,2.31,2.31,0,0,1,2.19-2.56,1.62,1.62,0,0,1,1.51.83h0l0-.73h.78c0,.34,0,.74,0,1.32Zm-.88-2.22a1.16,1.16,0,0,0,0-.39,1.26,1.26,0,0,0-1.23-.94c-.84,0-1.44.71-1.44,1.83,0,.95.49,1.74,1.43,1.74a1.27,1.27,0,0,0,1.22-.9,1.54,1.54,0,0,0,.07-.47Z" transform="translate(-52.2 -27.83)"/><rect class="cls-1" x="113.3" y="2.17" width="39.79" height="14.67"/><path class="cls-3" d="M171.31,67.26h1.4l-1.31,6.86h3.18l-.23,1.22h-4.58Z" transform="translate(-52.2 -27.83)"/><path class="cls-3" d="M180.21,71.74h-2.9l-.46,2.41h3.26l-.23,1.19h-4.67l1.54-8.08h4.49L181,68.45h-3.08l-.41,2.12h2.91Z" transform="translate(-52.2 -27.83)"/><path class="cls-3" d="M183,73l-1.1,2.3h-1.49l4.05-8.08h1.75l1,8.08h-1.46l-.23-2.3ZM185.44,72l-.23-2c0-.43-.08-1.05-.12-1.54h0c-.22.48-.43,1.06-.66,1.54l-1,2Z" transform="translate(-52.2 -27.83)"/><path class="cls-3" d="M189.54,67.39a9.56,9.56,0,0,1,2-.19,3.48,3.48,0,0,1,2,.53,1.71,1.71,0,0,1,.77,1.46,2.44,2.44,0,0,1-1.87,2.31v0c.53.2.76.77.83,1.54a13.63,13.63,0,0,0,.29,2.27h-1.44a15.08,15.08,0,0,1-.22-1.93c-.06-1-.43-1.4-1.18-1.4H190l-.64,3.33H188Zm.71,3.55H191a1.64,1.64,0,0,0,1.82-1.55c0-.74-.59-1.08-1.38-1.08a2.79,2.79,0,0,0-.74.07Z" transform="translate(-52.2 -27.83)"/><path class="cls-3" d="M194.53,75.34l1.54-8.08h1.61L199.09,71a20.75,20.75,0,0,1,.73,2.53h0a21.23,21.23,0,0,1,.36-2.73l.67-3.55h1.32l-1.54,8.08h-1.43l-1.45-3.83a19.72,19.72,0,0,1-.77-2.6h0c-.08.77-.25,1.76-.47,3l-.66,3.45Z" transform="translate(-52.2 -27.83)"/><rect class="cls-1" x="113.84" y="35.91" width="39.18" height="14.73"/><line class="cls-1" x1="141.51" y1="18.27" x2="141.51" y2="25.95"/><line class="cls-1" x1="147.56" y1="18.05" x2="147.56" y2="26.04"/><circle class="cls-5" cx="141.47" cy="16.98" r="1.37"/><circle class="cls-5" cx="147.46" cy="16.98" r="1.37"/><line class="cls-1" x1="139.92" y1="30.3" x2="128.6" y2="30.3"/><circle class="cls-5" cx="128.56" cy="30.33" r="1.37"/><rect class="cls-5" x="139.34" y="23.3" width="9.88" height="9.25"/><polyline class="cls-1" points="139.1 27.32 116.76 27.32 116.76 35.18"/><circle class="cls-5" cx="116.77" cy="35.63" r="1.37"/><path class="cls-2" d="M195.18,52.87,195,54h1l-.12.59h-1l-.41,2.12a3.82,3.82,0,0,0-.08.7.37.37,0,0,0,.41.41,2,2,0,0,0,.35,0l0,.59a1.73,1.73,0,0,1-.58.08.81.81,0,0,1-.92-.85,4.09,4.09,0,0,1,.09-.82l.43-2.21h-.63l.12-.59h.62l.19-1Z" transform="translate(-52.2 -27.83)"/><path class="cls-2" d="M200,55.76a2.61,2.61,0,0,1-2.41,2.74,1.66,1.66,0,0,1-1.7-1.79,2.61,2.61,0,0,1,2.41-2.76A1.66,1.66,0,0,1,200,55.76Zm-3.34.92c0,.71.39,1.22,1,1.22.88,0,1.55-1.13,1.55-2.15a1.08,1.08,0,0,0-1-1.22C197.24,54.54,196.61,55.68,196.62,56.68Z" transform="translate(-52.2 -27.83)"/></svg>