<svg xmlns="http://www.w3.org/2000/svg" xmlns:xlink="http://www.w3.org/1999/xlink" xmlns:lucid="lucid" width="1760" height="2656"><g transform="translate(0 0)" lucid:page-tab-id="0_0"><path d="M928 180c17.67 0 32 17.9 32 40s-14.33 40-32 40h-96c-17.67 0-32-17.9-32-40s14.33-40 32-40z" stroke="#000" stroke-width="2" fill="#fff"/><use xlink:href="#a" transform="matrix(1,0,0,1,805,185) translate(13.915555555555557 37.395833333333336)"/><use xlink:href="#b" transform="matrix(1,0,0,1,805,185) translate(58.217777777777776 37.395833333333336)"/><use xlink:href="#c" transform="matrix(1,0,0,1,805,185) translate(100.63555555555556 37.395833333333336)"/><path d="M880 262v58.5" stroke="#000" stroke-width="2" fill="none"/><path d="M881 262.03h-2V261h2z"/><path d="M880 335.76l-4.64-14.26h9.28z" stroke="#000" stroke-width="2"/><path d="M800 340h160v120H800z" stroke="#000" stroke-width="2" fill="#fff"/><use xlink:href="#d" transform="matrix(1,0,0,1,805,345) translate(53.91555555555556 47)"/><use xlink:href="#e" transform="matrix(1,0,0,1,805,345) translate(78.32444444444445 47)"/><use xlink:href="#f" transform="matrix(1,0,0,1,805,345) translate(-5.61333333333333 68.33333333333333)"/><path d="M880 462v58.25" stroke="#000" stroke-width="2" fill="none"/><path d="M881 462.03h-2V461h2z"/><path d="M880 535.5l-4.64-14.25h9.28z" stroke="#000" stroke-width="2"/><path d="M880 540l80 60-80 60-80-60z" stroke="#000" stroke-width="2" fill="#fff"/><use xlink:href="#g" transform="matrix(1,0,0,1,805,545) translate(64.35611111111112 15.343333333333334)"/><use xlink:href="#h" transform="matrix(1,0,0,1,805,545) translate(35.53833333333331 37.34333333333333)"/><use xlink:href="#i" transform="matrix(1,0,0,1,805,545) translate(16.071666666666665 58.67666666666666)"/><use xlink:href="#j" transform="matrix(1,0,0,1,805,545) translate(48.676111111111105 58.67666666666666)"/><use xlink:href="#k" transform="matrix(1,0,0,1,805,545) translate(91.0761111111111 58.67666666666666)"/><use xlink:href="#l" transform="matrix(1,0,0,1,805,545) translate(52.729444444444425 80.00999999999999)"/><path d="M989.68 601h-27v-2h27zm30.82 0h-9.5v-2h9.5z"/><path d="M962.7 601h-2.37l1.34-1-1.34-1h2.36zM1035.76 600l-14.26 4.64v-9.28z"/><path d="M1039 600l-18.5 6v-12zm-16.5 3.26l10.03-3.26-10.03-3.26z"/><use xlink:href="#m" transform="matrix(1,0,0,1,989.6755555555554,589.3333333333334) translate(0 13.333333333333334)"/><path d="M1040 540h160v120h-160z" stroke="#000" stroke-width="2" fill="#fff"/><use xlink:href="#n" transform="matrix(1,0,0,1,1045,545) translate(8.831111111111113 47.708333333333336)"/><use xlink:href="#h" transform="matrix(1,0,0,1,1045,545) translate(62.23555555555556 47.708333333333336)"/><use xlink:href="#o" transform="matrix(1,0,0,1,1045,545) translate(6.831111111111113 69.04166666666667)"/><use xlink:href="#p" transform="matrix(1,0,0,1,1045,545) translate(45.586666666666666 69.04166666666667)"/><use xlink:href="#j" transform="matrix(1,0,0,1,1045,545) translate(65.32 69.04166666666667)"/><use xlink:href="#c" transform="matrix(1,0,0,1,1045,545) translate(107.72 69.04166666666667)"/><path d="M881 720.36h-2v-9.64h2zm0-30.97h-2v-27.15h2z"/><path d="M881 662.28h-2v-1.78l1 .75 1-.75zM880 735.62l-4.64-14.26h9.28z"/><path d="M880 738.86l-6-18.5h12zm-3.26-16.5L880 732.4l3.26-10.04z"/><use xlink:href="#q" transform="matrix(1,0,0,1,867.6088888888889,689.388789511236) translate(0 13.333333333333334)"/><path d="M880 740l110 60-110 60-110-60z" stroke="#000" stroke-width="2" fill="#fff"/><use xlink:href="#r" transform="matrix(1,0,0,1,775,745) translate(86.1072222222222 27.083333333333336)"/><use xlink:href="#s" transform="matrix(1,0,0,1,775,745) translate(51.05833333333333 48.41666666666667)"/><use xlink:href="#h" transform="matrix(1,0,0,1,775,745) translate(80.01833333333333 48.41666666666667)"/><use xlink:href="#t" transform="matrix(1,0,0,1,775,745) translate(37.60944444444443 69.75)"/><use xlink:href="#u" transform="matrix(1,0,0,1,775,745) translate(79.61833333333331 69.75)"/><use xlink:href="#v" transform="matrix(1,0,0,1,775,745) translate(92.13388888888886 69.75)"/><use xlink:href="#w" transform="matrix(1,0,0,1,775,745) translate(128.52499999999998 69.75)"/><use xlink:href="#x" transform="matrix(1,0,0,1,775,745) translate(146.7472222222222 69.75)"/><use xlink:href="#y" transform="matrix(1,0,0,1,775,745) translate(83.48500000000001 91.08333333333333)"/><path d="M1120 662v138h-111.5" stroke="#000" stroke-width="2" fill="none"/><path d="M1121 662.03h-2V661h2z"/><path d="M993.24 800l14.26-4.64v9.28z" stroke="#000" stroke-width="2"/><path d="M881 920.5h-2v-9.76h2zm0-31.1h-2v-27.26h2z"/><path d="M881 862.16h-2v-1.57l1 .54 1-.55zM880 935.76l-4.64-14.26h9.28z"/><path d="M880 939l-6-18.5h12zm-3.26-16.5l3.26 10.03 3.26-10.03z"/><use xlink:href="#q" transform="matrix(1,0,0,1,867.6088888888889,889.4028771554307) translate(0 13.333333333333334)"/><path d="M800 940h160v120H800z" stroke="#000" stroke-width="2" fill="#fff"/><use xlink:href="#z" transform="matrix(1,0,0,1,805,945) translate(4.555555555555557 27.083333333333336)"/><use xlink:href="#A" transform="matrix(1,0,0,1,805,945) translate(22.208888888888893 27.083333333333336)"/><use xlink:href="#B" transform="matrix(1,0,0,1,805,945) translate(66.51111111111112 27.083333333333336)"/><use xlink:href="#C" transform="matrix(1,0,0,1,805,945) translate(5.097777777777779 48.41666666666667)"/><use xlink:href="#A" transform="matrix(1,0,0,1,805,945) translate(22.751111111111115 48.41666666666667)"/><use xlink:href="#j" transform="matrix(1,0,0,1,805,945) translate(67.05333333333334 48.41666666666667)"/><use xlink:href="#D" transform="matrix(1,0,0,1,805,945) translate(109.45333333333333 48.41666666666667)"/><use xlink:href="#E" transform="matrix(1,0,0,1,805,945) translate(17.257777777777783 69.75)"/><use xlink:href="#F" transform="matrix(1,0,0,1,805,945) translate(34.91111111111112 69.75)"/><use xlink:href="#u" transform="matrix(1,0,0,1,805,945) translate(88.31555555555556 69.75)"/><use xlink:href="#G" transform="matrix(1,0,0,1,805,945) translate(100.83111111111111 69.75)"/><use xlink:href="#H" transform="matrix(1,0,0,1,805,945) translate(48.38666666666667 91.08333333333333)"/><path d="M723.8 802h-4.3v-2h4.3zm43.1-1h-21.8v-2h21.8z"/><path d="M767.9 800l1.85 1h-2.86v-2h2.85zM718.5 805.64L704.24 801l14.26-4.64z"/><path d="M719.5 807l-18.5-6 18.5-6zm-12.03-6l10.03 3.26v-6.52z"/><use xlink:href="#m" transform="matrix(1,0,0,1,723.7980585483771,789.8333333333334) translate(0 13.333333333333334)"/><path d="M540 712.5h160v177H540z" stroke="#000" stroke-width="2" fill="#fff"/><use xlink:href="#I" transform="matrix(1,0,0,1,545,717.5) translate(13.231111111111105 44.645833333333336)"/><use xlink:href="#J" transform="matrix(1,0,0,1,545,717.5) translate(98.01333333333334 44.645833333333336)"/><use xlink:href="#K" transform="matrix(1,0,0,1,545,717.5) translate(7.817777777777792 65.97916666666667)"/><use xlink:href="#L" transform="matrix(1,0,0,1,545,717.5) translate(90.05777777777779 65.97916666666667)"/><use xlink:href="#M" transform="matrix(1,0,0,1,545,717.5) translate(19.08888888888889 87.3125)"/><use xlink:href="#N" transform="matrix(1,0,0,1,545,717.5) translate(41.56 87.3125)"/><use xlink:href="#O" transform="matrix(1,0,0,1,545,717.5) translate(93.04444444444444 87.3125)"/><use xlink:href="#P" transform="matrix(1,0,0,1,545,717.5) translate(18.528888888888893 108.64583333333333)"/><use xlink:href="#Q" transform="matrix(1,0,0,1,545,717.5) translate(60.093333333333334 108.64583333333333)"/><use xlink:href="#R" transform="matrix(1,0,0,1,545,717.5) translate(79.61333333333334 108.64583333333333)"/><use xlink:href="#S" transform="matrix(1,0,0,1,545,717.5) translate(109.03555555555556 108.64583333333333)"/><use xlink:href="#T" transform="matrix(1,0,0,1,545,717.5) translate(55.29333333333334 129.97916666666669)"/><path d="M880 1062v16.3" stroke="#000" stroke-width="2" fill="none"/><path d="M881 1062.03h-2V1061h2z"/><path d="M880 1093.56l-4.64-14.26h9.28z" stroke="#000" stroke-width="2"/><path d="M800 1097.8h160v204.4H800z" stroke="#000" stroke-width="2" fill="#fff"/><g><use xlink:href="#U" transform="matrix(1,0,0,1,805,1102.8) translate(11.213333333333338 19.427083333333336)"/><use xlink:href="#V" transform="matrix(1,0,0,1,805,1102.8) translate(56.24444444444445 19.427083333333336)"/><use xlink:href="#W" transform="matrix(1,0,0,1,805,1102.8) translate(122.57333333333332 19.427083333333336)"/><use xlink:href="#s" transform="matrix(1,0,0,1,805,1102.8) translate(21.05333333333334 40.76041666666667)"/><use xlink:href="#h" transform="matrix(1,0,0,1,805,1102.8) translate(50.01333333333334 40.76041666666667)"/><use xlink:href="#X" transform="matrix(1,0,0,1,805,1102.8) translate(18.77777777777777 62.09375000000001)"/><use xlink:href="#w" transform="matrix(1,0,0,1,805,1102.8) translate(87.34666666666666 62.09375000000001)"/><use xlink:href="#x" transform="matrix(1,0,0,1,805,1102.8) translate(105.56888888888889 62.09375000000001)"/><use xlink:href="#b" transform="matrix(1,0,0,1,805,1102.8) translate(33.72 83.42708333333333)"/><use xlink:href="#Y" transform="matrix(1,0,0,1,805,1102.8) translate(76.13777777777779 83.42708333333333)"/><use xlink:href="#Z" transform="matrix(1,0,0,1,805,1102.8) translate(75 104.76041666666667)"/><use xlink:href="#aa" transform="matrix(1,0,0,1,805,1102.8) translate(16.79555555555556 126.09375000000001)"/><use xlink:href="#ab" transform="matrix(1,0,0,1,805,1102.8) translate(61.82666666666667 126.09375000000001)"/><use xlink:href="#S" transform="matrix(1,0,0,1,805,1102.8) translate(110.76888888888888 126.09375000000001)"/><use xlink:href="#ac" transform="matrix(1,0,0,1,805,1102.8) translate(11.995555555555555 147.42708333333337)"/><use xlink:href="#ad" transform="matrix(1,0,0,1,805,1102.8) translate(123.08888888888889 147.42708333333337)"/><use xlink:href="#ae" transform="matrix(1,0,0,1,805,1102.8) translate(1.204444444444448 168.7604166666667)"/><use xlink:href="#s" transform="matrix(1,0,0,1,805,1102.8) translate(40.90222222222222 168.7604166666667)"/><use xlink:href="#h" transform="matrix(1,0,0,1,805,1102.8) translate(69.86222222222221 168.7604166666667)"/><use xlink:href="#i" transform="matrix(1,0,0,1,805,1102.8) translate(16.066666666666677 190.09375000000006)"/><use xlink:href="#j" transform="matrix(1,0,0,1,805,1102.8) translate(48.67111111111112 190.09375000000006)"/><use xlink:href="#af" transform="matrix(1,0,0,1,805,1102.8) translate(91.07111111111111 190.09375000000006)"/></g><path d="M780 1580h200v224.13H780z" stroke="#000" stroke-width="2" fill="#fff"/><g><use xlink:href="#n" transform="matrix(1,0,0,1,785,1585) translate(20.50222222222223 33.489583333333336)"/><use xlink:href="#ag" transform="matrix(1,0,0,1,785,1585) translate(73.90666666666667 33.489583333333336)"/><use xlink:href="#ah" transform="matrix(1,0,0,1,785,1585) translate(106.97333333333333 33.489583333333336)"/><use xlink:href="#Z" transform="matrix(1,0,0,1,785,1585) translate(95 54.82291666666667)"/><use xlink:href="#ai" transform="matrix(1,0,0,1,785,1585) translate(67.30222222222223 76.15625)"/><use xlink:href="#aj" transform="matrix(1,0,0,1,785,1585) translate(56.342222222222226 97.48958333333333)"/><use xlink:href="#ak" transform="matrix(1,0,0,1,785,1585) translate(52.528888888888886 118.82291666666667)"/><use xlink:href="#al" transform="matrix(1,0,0,1,785,1585) translate(19.08888888888889 140.15625000000003)"/><use xlink:href="#am" transform="matrix(1,0,0,1,785,1585) translate(78.82222222222222 140.15625000000003)"/><use xlink:href="#an" transform="matrix(1,0,0,1,785,1585) translate(104.56444444444445 140.15625000000003)"/><use xlink:href="#ao" transform="matrix(1,0,0,1,785,1585) translate(133.95111111111112 140.15625000000003)"/><use xlink:href="#ap" transform="matrix(1,0,0,1,785,1585) translate(49.897777777777776 161.48958333333337)"/><use xlink:href="#aq" transform="matrix(1,0,0,1,785,1585) translate(72.10222222222222 182.8229166666667)"/></g><path d="M880 1806.13v54.12" stroke="#000" stroke-width="2" fill="none"/><path d="M881 1806.16h-2v-1.03h2z"/><path d="M880 1875.5l-4.64-14.25h9.28z" stroke="#000" stroke-width="2"/><path d="M880 1880l80 60-80 60-80-60z" stroke="#000" stroke-width="2" fill="#fff"/><g><use xlink:href="#ar" transform="matrix(1,0,0,1,805,1885) translate(41.716111111111104 58.020833333333336)"/></g><path d="M881 2080.5h-2v-19.7h2zm0-41.04h-2v-37.2h2z"/><path d="M881 2002.28h-2v-1.78l1 .75 1-.75zM880 2095.76l-4.64-14.26h9.28z"/><path d="M880 2099l-6-18.5h12zm-3.26-16.5l3.26 10.03 3.26-10.03z"/><g><use xlink:href="#q" transform="matrix(1,0,0,1,867.6088888888889,2039.4583333333333) translate(0 13.333333333333334)"/></g><path d="M1002.67 1941h-40v-2h38v-358.67h2zm0-382h-2v-358H979.5v-2h23.17z"/><path d="M962.7 1941h-2.37l1.34-1-1.34-1h2.36zM978.5 1204.64l-14.26-4.64 14.26-4.64z"/><path d="M979.5 1206l-18.5-6 18.5-6zm-12.03-6l10.03 3.26v-6.52z"/><g><use xlink:href="#m" transform="matrix(1,0,0,1,991.0088888888888,1559) translate(0 13.333333333333334)"/></g><path d="M800 2100h160v120H800z" stroke="#000" stroke-width="2" fill="#fff"/><g><use xlink:href="#as" transform="matrix(1,0,0,1,805,2105) translate(10.120000000000005 37.395833333333336)"/><use xlink:href="#at" transform="matrix(1,0,0,1,805,2105) translate(59.062222222222225 37.395833333333336)"/><use xlink:href="#au" transform="matrix(1,0,0,1,805,2105) translate(84.44888888888889 37.395833333333336)"/><use xlink:href="#av" transform="matrix(1,0,0,1,805,2105) translate(21.897777777777783 58.72916666666667)"/><use xlink:href="#ad" transform="matrix(1,0,0,1,805,2105) translate(113.18666666666667 58.72916666666667)"/><use xlink:href="#K" transform="matrix(1,0,0,1,805,2105) translate(16.15555555555556 80.0625)"/><use xlink:href="#c" transform="matrix(1,0,0,1,805,2105) translate(98.39555555555555 80.0625)"/></g><path d="M880 2222v58.5" stroke="#000" stroke-width="2" fill="none"/><path d="M881 2222.03h-2V2221h2z"/><path d="M880 2295.76l-4.64-14.26h9.28z" stroke="#000" stroke-width="2"/><path d="M928 2300c17.67 0 32 17.9 32 40s-14.33 40-32 40h-96c-17.67 0-32-17.9-32-40s14.33-40 32-40z" stroke="#000" stroke-width="2" fill="#fff"/><g><use xlink:href="#aw" transform="matrix(1,0,0,1,805,2305) translate(52.36888888888889 37.395833333333336)"/></g><path d="M700 60h360v74H700z" stroke="#000" stroke-opacity="0" stroke-width="2" fill="#fff" fill-opacity="0"/><g><use xlink:href="#ax" transform="matrix(1,0,0,1,705,65) translate(49.8 36)"/><use xlink:href="#ay" transform="matrix(1,0,0,1,705,65) translate(163.02666666666667 36)"/><use xlink:href="#az" transform="matrix(1,0,0,1,705,65) translate(181.8 36)"/></g><path d="M880 1304.2v28.9" stroke="#000" stroke-width="2" fill="none"/><path d="M881 1304.23h-2v-1.03h2z"/><path d="M880 1348.36l-4.64-14.26h9.28z" stroke="#000" stroke-width="2"/><path d="M800 1352.6h160v134.8H800z" stroke="#000" stroke-width="2" fill="#fff"/><g><use xlink:href="#aA" transform="matrix(1,0,0,1,805,1357.6) translate(8.616000000000014 13.5)"/><use xlink:href="#aB" transform="matrix(1,0,0,1,805,1357.6) translate(69.024 13.5)"/><use xlink:href="#aC" transform="matrix(1,0,0,1,805,1357.6) translate(98.346 13.5)"/><use xlink:href="#aD" transform="matrix(1,0,0,1,805,1357.6) translate(10.659000000000006 35.1)"/><use xlink:href="#aE" transform="matrix(1,0,0,1,805,1357.6) translate(68.83500000000001 35.1)"/><use xlink:href="#aF" transform="matrix(1,0,0,1,805,1357.6) translate(88.599 35.1)"/><use xlink:href="#aG" transform="matrix(1,0,0,1,805,1357.6) translate(40.728 56.7)"/><use xlink:href="#aH" transform="matrix(1,0,0,1,805,1357.6) translate(75 78.30000000000001)"/><use xlink:href="#aI" transform="matrix(1,0,0,1,805,1357.6) translate(17.616 98.4)"/><use xlink:href="#aJ" transform="matrix(1,0,0,1,805,1357.6) translate(45.936 98.4)"/><use xlink:href="#aK" transform="matrix(1,0,0,1,805,1357.6) translate(93.568 98.4)"/><use xlink:href="#aL" transform="matrix(1,0,0,1,805,1357.6) translate(113.52 98.4)"/><use xlink:href="#aM" transform="matrix(1,0,0,1,805,1357.6) translate(32.824000000000005 117.60000000000001)"/></g><path d="M880 1489.4v71.1" stroke="#000" stroke-width="2" fill="none"/><path d="M881 1489.43h-2v-1.03h2z"/><path d="M880 1575.76l-4.64-14.26h9.28z" stroke="#000" stroke-width="2"/><defs><path d="M629-346c0 228-119 356-305 356C127 10 30-153 30-335c0-188 111-349 304-349 207 0 295 173 295 338zm-417 8c0 125 44 209 119 208 75 0 116-83 116-210 0-116-41-204-117-204-74 0-118 88-118 206" id="aN"/><path d="M52 196c-2-227 4-469-4-688h148c4 19 3 44 10 60 31-44 80-70 143-70 106 0 188 102 188 252C537-73 432 10 332 10c-50 0-89-22-106-46h-2v232H52zm237-561c-71 0-65 85-65 161 0 46 23 80 63 80 48 0 76-50 76-120 0-76-26-121-74-121" id="aO"/><path d="M478-183H195c9 78 168 73 242 46l21 118C406 1 344 9 286 9 122 9 30-84 30-239c0-130 80-263 241-263 168 0 234 148 207 319zM193-300h133c0-34-12-86-63-86-49 0-68 51-70 86" id="aP"/><path d="M283-362c-44 0-59 32-59 78V0H51c-1-160 3-340-4-492h149l8 61h3c21-30 67-71 140-71 111 0 165 80 165 206V0H339v-279c0-50-16-83-56-83" id="aQ"/><g id="a"><use transform="matrix(0.017777777777777778,0,0,0.017777777777777778,0,0)" xlink:href="#aN"/><use transform="matrix(0.017777777777777778,0,0,0.017777777777777778,11.822222222222221,0)" xlink:href="#aO"/><use transform="matrix(0.017777777777777778,0,0,0.017777777777777778,21.90222222222222,0)" xlink:href="#aP"/><use transform="matrix(0.017777777777777778,0,0,0.017777777777777778,30.98666666666666,0)" xlink:href="#aQ"/></g><path d="M61-674h173V0H61v-674" id="aR"/><path d="M26-24l29-122c26 16 82 34 123 34 36 0 51-9 51-28s-12-28-61-46C66-224 37-282 37-334c0-96 78-168 201-168 55 0 103 12 133 26l-27 120c-22-11-61-25-97-25-30 0-47 10-47 29 0 17 14 27 68 48 92 35 124 86 124 151C392-57 319 9 179 9 119 9 60-5 26-24" id="aS"/><path d="M279-130c39 0 56-28 56-66v-296h173c1 158-3 344 4 492H363l-8-61h-3c-20 30-63 71-140 71C106 10 49-61 49-201v-291h173v266c0 62 18 96 57 96" id="aT"/><g id="b"><use transform="matrix(0.017777777777777778,0,0,0.017777777777777778,0,0)" xlink:href="#aR"/><use transform="matrix(0.017777777777777778,0,0,0.017777777777777778,5.226666666666667,0)" xlink:href="#aS"/><use transform="matrix(0.017777777777777778,0,0,0.017777777777777778,12.64,0)" xlink:href="#aS"/><use transform="matrix(0.017777777777777778,0,0,0.017777777777777778,20.053333333333335,0)" xlink:href="#aT"/><use transform="matrix(0.017777777777777778,0,0,0.017777777777777778,30.026666666666667,0)" xlink:href="#aP"/></g><path d="M493-153l21 138C491-4 435 9 365 9 131 9 31-148 31-326c0-242 165-357 348-357 69 0 123 13 146 26l-31 138c-136-54-281-6-281 182 0 171 133 233 280 184" id="aU"/><path d="M250-502c293 1 193 263 224 502H319l-9-45h-3c-32 40-79 55-130 55C84 10 23-60 23-144c0-132 119-188 270-189 2-29-15-50-77-50-49 0-97 16-129 35L57-459c31-16 98-43 193-43zm-60 341c0 79 116 57 109-14v-52c-66 0-109 20-109 66" id="aV"/><path d="M361-335c-74-15-137 10-137 93V0H51c-1-155 3-348-4-492h148l7 83h4c37-80 85-101 155-90v164" id="aW"/><path d="M343-705h172c2 231-4 482 4 705H367c-4-20-2-46-9-63-28 50-82 73-134 73C109 10 30-97 30-244c0-166 95-258 202-258 55-1 90 20 111 47v-250zm-63 577c70 0 63-83 63-158 0-47-22-81-62-81-54 0-77 55-77 122 0 79 33 117 76 117" id="aX"/><g id="c"><use transform="matrix(0.017777777777777778,0,0,0.017777777777777778,0,0)" xlink:href="#aU"/><use transform="matrix(0.017777777777777778,0,0,0.017777777777777778,9.564444444444446,0)" xlink:href="#aV"/><use transform="matrix(0.017777777777777778,0,0,0.017777777777777778,18.773333333333333,0)" xlink:href="#aW"/><use transform="matrix(0.017777777777777778,0,0,0.017777777777777778,25.36888888888889,0)" xlink:href="#aX"/></g><path d="M380 7C147 7 30-120 30-330c0-236 166-351 366-351 80 0 141 15 172 29l-33 142c-33-15-72-25-135-25-106 0-189 59-189 203 0 148 89 218 212 194v-123h-78v-136h242v370C543-12 457 7 380 7" id="aY"/><path d="M518-250C518-62 391 10 273 10 131 10 30-85 30-243c0-162 102-259 250-259 146 0 238 104 238 252zm-312 4c0 77 21 132 71 132 86 0 90-264-1-264-53 0-70 67-70 132" id="aZ"/><g id="d"><use transform="matrix(0.017777777777777778,0,0,0.017777777777777778,0,0)" xlink:href="#aY"/><use transform="matrix(0.017777777777777778,0,0,0.017777777777777778,11.36,0)" xlink:href="#aZ"/></g><path d="M173 0v-525H18v-149h486v149H346V0H173" id="ba"/><g id="e"><use transform="matrix(0.017777777777777778,0,0,0.017777777777777778,0,0)" xlink:href="#ba"/><use transform="matrix(0.017777777777777778,0,0,0.017777777777777778,8.017777777777777,0)" xlink:href="#aZ"/></g><path d="M592 0c-6-170-13-298-13-485h-3c-38 176-80 308-122 471H322c-38-161-71-294-103-471-8 178-14 316-21 485H42l45-674h218c32 143 69 286 94 436h3c30-152 67-293 103-436h215L756 0H592" id="bb"/><path d="M61 0v-674h173v529h231V0H61" id="bc"/><path d="M245-93c0 61-40 103-100 103-55 0-97-42-97-103s43-104 99-104 98 41 98 104" id="bd"/><path d="M282-362c-41 1-58 29-58 69V0H51v-705h173c1 87-3 180 2 264 27-34 69-61 126-61 108 0 160 82 160 217V0H339v-273c0-54-15-89-57-89" id="be"/><path d="M5-492h179c15 117 31 227 46 345h2c21-122 46-228 69-345h135c23 112 47 232 68 345 12-117 32-232 49-345h169L581 0H422c-22-103-44-181-58-297h-2c-13 119-40 194-63 297H140" id="bf"/><path d="M116 40H6l203-724h110" id="bg"/><path d="M620-350C620-89 480 7 222 7 148 7 93 1 61-3v-662c50-8 120-14 193-14 242 1 366 96 366 329zM233-542v411c125 14 205-47 205-217 0-149-78-215-205-194" id="bh"/><path d="M385-138L402-9C378 1 332 9 282 9 128 9 30-83 30-241c0-146 96-260 274-260 34 0 73 5 101 15l-23 129c-85-33-177 6-177 109 0 109 91 144 180 110" id="bi"/><path d="M275-362c-39 0-55 31-55 73V0H51c-1-160 3-340-4-492h146l8 60h3c20-28 63-70 138-70 63-1 105 31 127 74 33-42 75-73 145-74 103 0 156 78 156 208V0H601v-268c0-58-14-94-51-94-37 1-55 30-55 73V0H326v-278c0-46-12-84-51-84" id="bj"/><path d="M237 9C120 9 74-50 74-184v-183H15v-125h59v-91l170-47v138h101v125H244v157c-3 77 36 85 95 75V-3C319 3 281 9 237 9" id="bk"/><g id="f"><use transform="matrix(0.017777777777777778,0,0,0.017777777777777778,0,0)" xlink:href="#bb"/><use transform="matrix(0.017777777777777778,0,0,0.017777777777777778,13.973333333333333,0)" xlink:href="#ba"/><use transform="matrix(0.017777777777777778,0,0,0.017777777777777778,23.25333333333333,0)" xlink:href="#bc"/><use transform="matrix(0.017777777777777778,0,0,0.017777777777777778,31.928888888888885,0)" xlink:href="#bd"/><use transform="matrix(0.017777777777777778,0,0,0.017777777777777778,36.78222222222222,0)" xlink:href="#be"/><use transform="matrix(0.017777777777777778,0,0,0.017777777777777778,46.7911111111111,0)" xlink:href="#aZ"/><use transform="matrix(0.017777777777777778,0,0,0.017777777777777778,56.355555555555554,0)" xlink:href="#bf"/><use transform="matrix(0.017777777777777778,0,0,0.017777777777777778,69.33333333333333,0)" xlink:href="#bg"/><use transform="matrix(0.017777777777777778,0,0,0.017777777777777778,74.88,0)" xlink:href="#bh"/><use transform="matrix(0.017777777777777778,0,0,0.017777777777777778,86.43555555555555,0)" xlink:href="#aZ"/><use transform="matrix(0.017777777777777778,0,0,0.017777777777777778,96.17777777777778,0)" xlink:href="#bi"/><use transform="matrix(0.017777777777777778,0,0,0.017777777777777778,103.68,0)" xlink:href="#aT"/><use transform="matrix(0.017777777777777778,0,0,0.017777777777777778,113.65333333333334,0)" xlink:href="#bj"/><use transform="matrix(0.017777777777777778,0,0,0.017777777777777778,128.2488888888889,0)" xlink:href="#aP"/><use transform="matrix(0.017777777777777778,0,0,0.017777777777777778,137.33333333333334,0)" xlink:href="#aQ"/><use transform="matrix(0.017777777777777778,0,0,0.017777777777777778,147.25333333333333,0)" xlink:href="#bk"/><use transform="matrix(0.017777777777777778,0,0,0.017777777777777778,153.81333333333333,0)" xlink:href="#aS"/></g><g id="g"><use transform="matrix(0.017777777777777778,0,0,0.017777777777777778,0,0)" xlink:href="#bh"/><use transform="matrix(0.017777777777777778,0,0,0.017777777777777778,11.555555555555555,0)" xlink:href="#aZ"/></g><g id="h"><use transform="matrix(0.017777777777777778,0,0,0.017777777777777778,0,0)" xlink:href="#bh"/><use transform="matrix(0.017777777777777778,0,0,0.017777777777777778,11.555555555555555,0)" xlink:href="#aZ"/><use transform="matrix(0.017777777777777778,0,0,0.017777777777777778,21.297777777777778,0)" xlink:href="#bi"/><use transform="matrix(0.017777777777777778,0,0,0.017777777777777778,28.799999999999997,0)" xlink:href="#aT"/><use transform="matrix(0.017777777777777778,0,0,0.017777777777777778,38.773333333333326,0)" xlink:href="#bj"/><use transform="matrix(0.017777777777777778,0,0,0.017777777777777778,53.36888888888888,0)" xlink:href="#aP"/><use transform="matrix(0.017777777777777778,0,0,0.017777777777777778,62.453333333333326,0)" xlink:href="#aQ"/><use transform="matrix(0.017777777777777778,0,0,0.017777777777777778,72.37333333333332,0)" xlink:href="#bk"/></g><g id="i"><use transform="matrix(0.017777777777777778,0,0,0.017777777777777778,0,0)" xlink:href="#aV"/><use transform="matrix(0.017777777777777778,0,0,0.017777777777777778,9.20888888888889,0)" xlink:href="#aQ"/><use transform="matrix(0.017777777777777778,0,0,0.017777777777777778,19.217777777777776,0)" xlink:href="#aX"/></g><g id="j"><use transform="matrix(0.017777777777777778,0,0,0.017777777777777778,0,0)" xlink:href="#bb"/><use transform="matrix(0.017777777777777778,0,0,0.017777777777777778,14.24,0)" xlink:href="#aP"/><use transform="matrix(0.017777777777777778,0,0,0.017777777777777778,23.324444444444445,0)" xlink:href="#bk"/><use transform="matrix(0.017777777777777778,0,0,0.017777777777777778,29.884444444444444,0)" xlink:href="#aV"/></g><g id="k"><use transform="matrix(0.017777777777777778,0,0,0.017777777777777778,0,0)" xlink:href="#aU"/><use transform="matrix(0.017777777777777778,0,0,0.017777777777777778,9.564444444444446,0)" xlink:href="#aV"/><use transform="matrix(0.017777777777777778,0,0,0.017777777777777778,18.773333333333333,0)" xlink:href="#aW"/><use transform="matrix(0.017777777777777778,0,0,0.017777777777777778,25.36888888888889,0)" xlink:href="#aX"/><use transform="matrix(0.017777777777777778,0,0,0.017777777777777778,35.44888888888889,0)" xlink:href="#aS"/></g><path d="M448-417v141H234v133h239V0H61v-674h399v143H234v114h214" id="bl"/><path d="M4-492h191c22 47 46 102 65 149h3c17-51 38-101 58-149h183L359-256 505 0H312c-21-50-47-99-64-152h-3C225-99 207-51 186 0H2l146-249" id="bm"/><path d="M224 0H51v-492h173V0zm0-627c0 48-35 84-88 84-51 0-86-36-86-84 0-49 36-84 87-84 52 0 87 35 87 84" id="bn"/><path d="M398-526c2 136-138 165-130 298H120c-7-72 10-117 56-177 27-34 48-63 48-92 0-65-110-58-151-25L40-648c33-18 90-38 161-38 141 0 197 80 197 160zM289-90c0 58-37 100-97 100-57 0-97-42-97-100 0-59 42-100 97-100 58 0 97 41 97 100" id="bo"/><g id="l"><use transform="matrix(0.017777777777777778,0,0,0.017777777777777778,0,0)" xlink:href="#bl"/><use transform="matrix(0.017777777777777778,0,0,0.017777777777777778,9.066666666666666,0)" xlink:href="#bm"/><use transform="matrix(0.017777777777777778,0,0,0.017777777777777778,18.08,0)" xlink:href="#bn"/><use transform="matrix(0.017777777777777778,0,0,0.017777777777777778,22.98666666666666,0)" xlink:href="#aS"/><use transform="matrix(0.017777777777777778,0,0,0.017777777777777778,30.4,0)" xlink:href="#bk"/><use transform="matrix(0.017777777777777778,0,0,0.017777777777777778,36.96,0)" xlink:href="#bo"/></g><path d="M217 0H61v-674h191c67 146 140 276 197 437h3c-13-115-15-293-14-437h156V0H418c-69-149-146-293-205-453h-3c7 117 8 309 7 453" id="bp"/><g id="m"><use transform="matrix(0.017777777777777778,0,0,0.017777777777777778,0,0)" xlink:href="#bp"/><use transform="matrix(0.017777777777777778,0,0,0.017777777777777778,11.573333333333334,0)" xlink:href="#aZ"/></g><g id="n"><use transform="matrix(0.017777777777777778,0,0,0.017777777777777778,0,0)" xlink:href="#aU"/><use transform="matrix(0.017777777777777778,0,0,0.017777777777777778,9.653333333333334,0)" xlink:href="#aW"/><use transform="matrix(0.017777777777777778,0,0,0.017777777777777778,16.248888888888892,0)" xlink:href="#aP"/><use transform="matrix(0.017777777777777778,0,0,0.017777777777777778,25.333333333333336,0)" xlink:href="#aV"/><use transform="matrix(0.017777777777777778,0,0,0.017777777777777778,34.54222222222222,0)" xlink:href="#bk"/><use transform="matrix(0.017777777777777778,0,0,0.017777777777777778,41.013333333333335,0)" xlink:href="#aP"/></g><g id="o"><use transform="matrix(0.017777777777777778,0,0,0.017777777777777778,0,0)" xlink:href="#aU"/><use transform="matrix(0.017777777777777778,0,0,0.017777777777777778,9.564444444444446,0)" xlink:href="#aV"/><use transform="matrix(0.017777777777777778,0,0,0.017777777777777778,18.773333333333333,0)" xlink:href="#aW"/><use transform="matrix(0.017777777777777778,0,0,0.017777777777777778,25.36888888888889,0)" xlink:href="#aX"/></g><g id="p"><use transform="matrix(0.017777777777777778,0,0,0.017777777777777778,0,0)" xlink:href="#aZ"/><use transform="matrix(0.017777777777777778,0,0,0.017777777777777778,9.742222222222223,0)" xlink:href="#aW"/></g><path d="M363 0H190v-264L-3-674h194c31 92 65 191 95 282 24-91 58-191 86-282h190L363-271V0" id="bq"/><g id="q"><use transform="matrix(0.017777777777777778,0,0,0.017777777777777778,0,0)" xlink:href="#bq"/><use transform="matrix(0.017777777777777778,0,0,0.017777777777777778,8.284444444444444,0)" xlink:href="#aP"/><use transform="matrix(0.017777777777777778,0,0,0.017777777777777778,17.36888888888889,0)" xlink:href="#aS"/></g><g id="r"><use transform="matrix(0.017777777777777778,0,0,0.017777777777777778,0,0)" xlink:href="#bh"/><use transform="matrix(0.017777777777777778,0,0,0.017777777777777778,11.555555555555555,0)" xlink:href="#aZ"/><use transform="matrix(0.017777777777777778,0,0,0.017777777777777778,21.297777777777778,0)" xlink:href="#aP"/><use transform="matrix(0.017777777777777778,0,0,0.017777777777777778,30.382222222222225,0)" xlink:href="#aS"/></g><g id="s"><use transform="matrix(0.017777777777777778,0,0,0.017777777777777778,0,0)" xlink:href="#bk"/><use transform="matrix(0.017777777777777778,0,0,0.017777777777777778,6.56,0)" xlink:href="#be"/><use transform="matrix(0.017777777777777778,0,0,0.017777777777777778,16.56888888888889,0)" xlink:href="#aP"/></g><path d="M61-674h173v254h187v-254h173V0H421v-267H234V0H61v-674" id="br"/><path d="M6-492h187c23 109 51 215 67 330h3c15-114 42-221 64-330h178L340 0H170" id="bs"/><g id="t"><use transform="matrix(0.017777777777777778,0,0,0.017777777777777778,0,0)" xlink:href="#br"/><use transform="matrix(0.017777777777777778,0,0,0.017777777777777778,11.644444444444444,0)" xlink:href="#aV"/><use transform="matrix(0.017777777777777778,0,0,0.017777777777777778,20.85333333333333,0)" xlink:href="#bs"/><use transform="matrix(0.017777777777777778,0,0,0.017777777777777778,29.617777777777775,0)" xlink:href="#aP"/></g><use transform="matrix(0.017777777777777778,0,0,0.017777777777777778,0,0)" xlink:href="#aV" id="u"/><path d="M224-705c1 138-3 281 2 416 32-73 67-134 101-203h201L374-291 546 0H339l-84-188-31 46V0H52v-705h172" id="bt"/><g id="v"><use transform="matrix(0.017777777777777778,0,0,0.017777777777777778,0,0)" xlink:href="#bc"/><use transform="matrix(0.017777777777777778,0,0,0.017777777777777778,8.675555555555556,0)" xlink:href="#bn"/><use transform="matrix(0.017777777777777778,0,0,0.017777777777777778,13.582222222222223,0)" xlink:href="#aQ"/><use transform="matrix(0.017777777777777778,0,0,0.017777777777777778,23.59111111111111,0)" xlink:href="#bt"/></g><g id="w"><use transform="matrix(0.017777777777777778,0,0,0.017777777777777778,0,0)" xlink:href="#bn"/><use transform="matrix(0.017777777777777778,0,0,0.017777777777777778,4.906666666666666,0)" xlink:href="#aQ"/></g><g id="x"><use transform="matrix(0.017777777777777778,0,0,0.017777777777777778,0,0)" xlink:href="#bk"/><use transform="matrix(0.017777777777777778,0,0,0.017777777777777778,6.56,0)" xlink:href="#be"/><use transform="matrix(0.017777777777777778,0,0,0.017777777777777778,16.56888888888889,0)" xlink:href="#aP"/></g><g id="y"><use transform="matrix(0.017777777777777778,0,0,0.017777777777777778,0,0)" xlink:href="#aU"/><use transform="matrix(0.017777777777777778,0,0,0.017777777777777778,9.564444444444446,0)" xlink:href="#aV"/><use transform="matrix(0.017777777777777778,0,0,0.017777777777777778,18.773333333333333,0)" xlink:href="#aW"/><use transform="matrix(0.017777777777777778,0,0,0.017777777777777778,25.36888888888889,0)" xlink:href="#aX"/><use transform="matrix(0.017777777777777778,0,0,0.017777777777777778,35.44888888888889,0)" xlink:href="#bo"/></g><path d="M217 0c-1-165 3-335-2-496L92-439 64-570l177-80h144V0H217" id="bu"/><g id="z"><use transform="matrix(0.017777777777777778,0,0,0.017777777777777778,0,0)" xlink:href="#bu"/><use transform="matrix(0.017777777777777778,0,0,0.017777777777777778,9.493333333333334,0)" xlink:href="#bd"/></g><g id="A"><use transform="matrix(0.017777777777777778,0,0,0.017777777777777778,0,0)" xlink:href="#aN"/><use transform="matrix(0.017777777777777778,0,0,0.017777777777777778,11.822222222222221,0)" xlink:href="#aO"/><use transform="matrix(0.017777777777777778,0,0,0.017777777777777778,21.90222222222222,0)" xlink:href="#aP"/><use transform="matrix(0.017777777777777778,0,0,0.017777777777777778,30.98666666666666,0)" xlink:href="#aQ"/></g><g id="B"><use transform="matrix(0.017777777777777778,0,0,0.017777777777777778,0,0)" xlink:href="#bh"/><use transform="matrix(0.017777777777777778,0,0,0.017777777777777778,11.555555555555555,0)" xlink:href="#aZ"/><use transform="matrix(0.017777777777777778,0,0,0.017777777777777778,21.297777777777778,0)" xlink:href="#bi"/><use transform="matrix(0.017777777777777778,0,0,0.017777777777777778,28.799999999999997,0)" xlink:href="#aT"/><use transform="matrix(0.017777777777777778,0,0,0.017777777777777778,38.773333333333326,0)" xlink:href="#bj"/><use transform="matrix(0.017777777777777778,0,0,0.017777777777777778,53.36888888888888,0)" xlink:href="#aP"/><use transform="matrix(0.017777777777777778,0,0,0.017777777777777778,62.453333333333326,0)" xlink:href="#aQ"/><use transform="matrix(0.017777777777777778,0,0,0.017777777777777778,72.37333333333332,0)" xlink:href="#bk"/></g><path d="M484 0H36v-107l83-81c119-113 183-183 184-253 0-46-30-80-92-80-49 0-94 23-127 46L42-601c45-32 121-59 203-59 153 0 229 88 229 205 0 139-117 235-205 311h215V0" id="bv"/><g id="C"><use transform="matrix(0.017777777777777778,0,0,0.017777777777777778,0,0)" xlink:href="#bv"/><use transform="matrix(0.017777777777777778,0,0,0.017777777777777778,9.493333333333334,0)" xlink:href="#bd"/></g><g id="D"><use transform="matrix(0.017777777777777778,0,0,0.017777777777777778,0,0)" xlink:href="#aU"/><use transform="matrix(0.017777777777777778,0,0,0.017777777777777778,9.564444444444446,0)" xlink:href="#aV"/><use transform="matrix(0.017777777777777778,0,0,0.017777777777777778,18.773333333333333,0)" xlink:href="#aW"/><use transform="matrix(0.017777777777777778,0,0,0.017777777777777778,25.36888888888889,0)" xlink:href="#aX"/></g><path d="M33-31l29-131c49 37 244 64 240-37-3-75-86-86-169-81v-123c69 2 149 1 152-63 4-85-164-57-204-25L52-616c37-23 112-44 192-44 138 0 215 73 215 163 0 69-41 121-110 151 73 16 130 74 130 156C479-77 379 10 215 10 136 10 70-9 33-31" id="bw"/><g id="E"><use transform="matrix(0.017777777777777778,0,0,0.017777777777777778,0,0)" xlink:href="#bw"/><use transform="matrix(0.017777777777777778,0,0,0.017777777777777778,9.493333333333334,0)" xlink:href="#bd"/></g><g id="F"><use transform="matrix(0.017777777777777778,0,0,0.017777777777777778,0,0)" xlink:href="#aU"/><use transform="matrix(0.017777777777777778,0,0,0.017777777777777778,9.653333333333334,0)" xlink:href="#aW"/><use transform="matrix(0.017777777777777778,0,0,0.017777777777777778,16.248888888888892,0)" xlink:href="#aP"/><use transform="matrix(0.017777777777777778,0,0,0.017777777777777778,25.333333333333336,0)" xlink:href="#aV"/><use transform="matrix(0.017777777777777778,0,0,0.017777777777777778,34.54222222222222,0)" xlink:href="#bk"/><use transform="matrix(0.017777777777777778,0,0,0.017777777777777778,41.013333333333335,0)" xlink:href="#aP"/></g><g id="G"><use transform="matrix(0.017777777777777778,0,0,0.017777777777777778,0,0)" xlink:href="#aQ"/><use transform="matrix(0.017777777777777778,0,0,0.017777777777777778,10.008888888888889,0)" xlink:href="#aP"/><use transform="matrix(0.017777777777777778,0,0,0.017777777777777778,18.933333333333334,0)" xlink:href="#bf"/></g><path d="M48 0c8-222 2-475 4-705h172c1 87-3 179 2 262 27-34 69-59 129-59 112 0 183 102 183 245 0 175-99 267-208 267-48 0-95-19-129-71l-7 61H48zm239-366c-70-1-63 89-63 164 0 44 26 76 63 76 48 0 77-40 77-122 0-71-24-118-77-118" id="bx"/><g id="H"><use transform="matrix(0.017777777777777778,0,0,0.017777777777777778,0,0)" xlink:href="#bx"/><use transform="matrix(0.017777777777777778,0,0,0.017777777777777778,10.08,0)" xlink:href="#aW"/><use transform="matrix(0.017777777777777778,0,0,0.017777777777777778,16.604444444444447,0)" xlink:href="#aV"/><use transform="matrix(0.017777777777777778,0,0,0.017777777777777778,25.813333333333336,0)" xlink:href="#aQ"/><use transform="matrix(0.017777777777777778,0,0,0.017777777777777778,35.82222222222222,0)" xlink:href="#bi"/><use transform="matrix(0.017777777777777778,0,0,0.017777777777777778,43.217777777777776,0)" xlink:href="#be"/></g><g id="I"><use transform="matrix(0.017777777777777778,0,0,0.017777777777777778,0,0)" xlink:href="#bh"/><use transform="matrix(0.017777777777777778,0,0,0.017777777777777778,11.555555555555555,0)" xlink:href="#aP"/><use transform="matrix(0.017777777777777778,0,0,0.017777777777777778,20.64,0)" xlink:href="#bk"/><use transform="matrix(0.017777777777777778,0,0,0.017777777777777778,27.11111111111111,0)" xlink:href="#aP"/><use transform="matrix(0.017777777777777778,0,0,0.017777777777777778,36.19555555555556,0)" xlink:href="#aW"/><use transform="matrix(0.017777777777777778,0,0,0.017777777777777778,42.88,0)" xlink:href="#bj"/><use transform="matrix(0.017777777777777778,0,0,0.017777777777777778,57.47555555555556,0)" xlink:href="#bn"/><use transform="matrix(0.017777777777777778,0,0,0.017777777777777778,62.382222222222225,0)" xlink:href="#aQ"/><use transform="matrix(0.017777777777777778,0,0,0.017777777777777778,72.39111111111112,0)" xlink:href="#aP"/></g><g id="J"><use transform="matrix(0.017777777777777778,0,0,0.017777777777777778,0,0)" xlink:href="#bf"/><use transform="matrix(0.017777777777777778,0,0,0.017777777777777778,12.977777777777778,0)" xlink:href="#be"/><use transform="matrix(0.017777777777777778,0,0,0.017777777777777778,22.98666666666666,0)" xlink:href="#aV"/><use transform="matrix(0.017777777777777778,0,0,0.017777777777777778,32.19555555555556,0)" xlink:href="#bk"/></g><g id="K"><use transform="matrix(0.017777777777777778,0,0,0.017777777777777778,0,0)" xlink:href="#bh"/><use transform="matrix(0.017777777777777778,0,0,0.017777777777777778,11.555555555555555,0)" xlink:href="#aZ"/><use transform="matrix(0.017777777777777778,0,0,0.017777777777777778,21.297777777777778,0)" xlink:href="#bi"/><use transform="matrix(0.017777777777777778,0,0,0.017777777777777778,28.799999999999997,0)" xlink:href="#aT"/><use transform="matrix(0.017777777777777778,0,0,0.017777777777777778,38.773333333333326,0)" xlink:href="#bj"/><use transform="matrix(0.017777777777777778,0,0,0.017777777777777778,53.36888888888888,0)" xlink:href="#aP"/><use transform="matrix(0.017777777777777778,0,0,0.017777777777777778,62.453333333333326,0)" xlink:href="#aQ"/><use transform="matrix(0.017777777777777778,0,0,0.017777777777777778,72.37333333333332,0)" xlink:href="#bk"/></g><path d="M51 0v-705h173V0H51" id="by"/><g id="L"><use transform="matrix(0.017777777777777778,0,0,0.017777777777777778,0,0)" xlink:href="#aS"/><use transform="matrix(0.017777777777777778,0,0,0.017777777777777778,7.413333333333333,0)" xlink:href="#be"/><use transform="matrix(0.017777777777777778,0,0,0.017777777777777778,17.42222222222222,0)" xlink:href="#aZ"/><use transform="matrix(0.017777777777777778,0,0,0.017777777777777778,27.16444444444444,0)" xlink:href="#aT"/><use transform="matrix(0.017777777777777778,0,0,0.017777777777777778,37.13777777777777,0)" xlink:href="#by"/><use transform="matrix(0.017777777777777778,0,0,0.017777777777777778,42.04444444444444,0)" xlink:href="#aX"/></g><g id="M"><use transform="matrix(0.017777777777777778,0,0,0.017777777777777778,0,0)" xlink:href="#bx"/><use transform="matrix(0.017777777777777778,0,0,0.017777777777777778,10.08,0)" xlink:href="#aP"/></g><g id="N"><use transform="matrix(0.017777777777777778,0,0,0.017777777777777778,0,0)" xlink:href="#by"/><use transform="matrix(0.017777777777777778,0,0,0.017777777777777778,4.906666666666666,0)" xlink:href="#bn"/><use transform="matrix(0.017777777777777778,0,0,0.017777777777777778,9.813333333333333,0)" xlink:href="#aQ"/><use transform="matrix(0.017777777777777778,0,0,0.017777777777777778,19.822222222222223,0)" xlink:href="#bt"/><use transform="matrix(0.017777777777777778,0,0,0.017777777777777778,29.01333333333334,0)" xlink:href="#aP"/><use transform="matrix(0.017777777777777778,0,0,0.017777777777777778,38.09777777777778,0)" xlink:href="#aX"/></g><path d="M156-691h118c-52 90-95 223-95 404 0 178 43 311 95 403H156C104 40 46-95 46-287c0-194 58-328 110-404" id="bz"/><path d="M55 73c51-12 109-40 123-90C124-180 61-333 4-492h190c24 104 50 206 72 312h3c19-104 37-208 56-312h180C445-305 348 58 245 145c-56 47-113 70-151 74" id="bA"/><g id="O"><use transform="matrix(0.017777777777777778,0,0,0.017777777777777778,0,0)" xlink:href="#bz"/><use transform="matrix(0.017777777777777778,0,0,0.017777777777777778,5.457777777777777,0)" xlink:href="#bb"/><use transform="matrix(0.017777777777777778,0,0,0.017777777777777778,19.697777777777777,0)" xlink:href="#aV"/><use transform="matrix(0.017777777777777778,0,0,0.017777777777777778,28.906666666666666,0)" xlink:href="#bA"/></g><g id="P"><use transform="matrix(0.017777777777777778,0,0,0.017777777777777778,0,0)" xlink:href="#aQ"/><use transform="matrix(0.017777777777777778,0,0,0.017777777777777778,10.008888888888889,0)" xlink:href="#aP"/><use transform="matrix(0.017777777777777778,0,0,0.017777777777777778,19.093333333333334,0)" xlink:href="#aP"/><use transform="matrix(0.017777777777777778,0,0,0.017777777777777778,28.177777777777777,0)" xlink:href="#aX"/></g><g id="Q"><use transform="matrix(0.017777777777777778,0,0,0.017777777777777778,0,0)" xlink:href="#bk"/><use transform="matrix(0.017777777777777778,0,0,0.017777777777777778,6.471111111111111,0)" xlink:href="#aZ"/></g><g id="R"><use transform="matrix(0.017777777777777778,0,0,0.017777777777777778,0,0)" xlink:href="#aV"/><use transform="matrix(0.017777777777777778,0,0,0.017777777777777778,9.20888888888889,0)" xlink:href="#aS"/><use transform="matrix(0.017777777777777778,0,0,0.017777777777777778,16.622222222222224,0)" xlink:href="#bt"/></g><path d="M247 0H74v-367H9v-125h65c-14-118 79-223 199-223 35 0 62 4 84 10l-7 132c-51-17-110 5-104 58v23h88v125h-87V0" id="bB"/><g id="S"><use transform="matrix(0.017777777777777778,0,0,0.017777777777777778,0,0)" xlink:href="#bB"/><use transform="matrix(0.017777777777777778,0,0,0.017777777777777778,6.0088888888888885,0)" xlink:href="#aZ"/><use transform="matrix(0.017777777777777778,0,0,0.017777777777777778,15.751111111111111,0)" xlink:href="#aW"/></g><path d="M151 116H33c52-91 95-227 95-405S85-600 33-691h118c52 74 110 207 110 403 0 194-58 327-110 404" id="bC"/><g id="T"><use transform="matrix(0.017777777777777778,0,0,0.017777777777777778,0,0)" xlink:href="#be"/><use transform="matrix(0.017777777777777778,0,0,0.017777777777777778,10.008888888888889,0)" xlink:href="#aP"/><use transform="matrix(0.017777777777777778,0,0,0.017777777777777778,19.093333333333334,0)" xlink:href="#by"/><use transform="matrix(0.017777777777777778,0,0,0.017777777777777778,24,0)" xlink:href="#aO"/><use transform="matrix(0.017777777777777778,0,0,0.017777777777777778,33.955555555555556,0)" xlink:href="#bC"/></g><g id="U"><use transform="matrix(0.017777777777777778,0,0,0.017777777777777778,0,0)" xlink:href="#bb"/><use transform="matrix(0.017777777777777778,0,0,0.017777777777777778,14.24,0)" xlink:href="#aV"/><use transform="matrix(0.017777777777777778,0,0,0.017777777777777778,23.448888888888888,0)" xlink:href="#bt"/><use transform="matrix(0.017777777777777778,0,0,0.017777777777777778,32.64,0)" xlink:href="#aP"/></g><path d="M510-492c-7 115-3 297-4 426 0 89-19 163-73 213-82 75-258 73-363 27l31-131c29 15 77 31 128 31 72 0 114-47 107-131h-2C308-22 266-5 222-5 101-5 30-111 30-243c0-155 91-259 207-259 53-1 90 23 118 61l7-51h148zM276-133c71 0 57-88 58-161 1-43-23-74-57-74-44 0-74 47-74 122 0 67 27 113 73 113" id="bD"/><g id="V"><use transform="matrix(0.017777777777777778,0,0,0.017777777777777778,0,0)" xlink:href="#bi"/><use transform="matrix(0.017777777777777778,0,0,0.017777777777777778,7.395555555555555,0)" xlink:href="#be"/><use transform="matrix(0.017777777777777778,0,0,0.017777777777777778,17.404444444444444,0)" xlink:href="#aV"/><use transform="matrix(0.017777777777777778,0,0,0.017777777777777778,26.613333333333333,0)" xlink:href="#aQ"/><use transform="matrix(0.017777777777777778,0,0,0.017777777777777778,36.62222222222222,0)" xlink:href="#bD"/><use transform="matrix(0.017777777777777778,0,0,0.017777777777777778,46.52444444444444,0)" xlink:href="#aP"/><use transform="matrix(0.017777777777777778,0,0,0.017777777777777778,55.60888888888888,0)" xlink:href="#aS"/></g><g id="W"><use transform="matrix(0.017777777777777778,0,0,0.017777777777777778,0,0)" xlink:href="#bk"/><use transform="matrix(0.017777777777777778,0,0,0.017777777777777778,6.471111111111111,0)" xlink:href="#aZ"/></g><g id="X"><use transform="matrix(0.017777777777777778,0,0,0.017777777777777778,0,0)" xlink:href="#aZ"/><use transform="matrix(0.017777777777777778,0,0,0.017777777777777778,9.742222222222223,0)" xlink:href="#aT"/><use transform="matrix(0.017777777777777778,0,0,0.017777777777777778,19.715555555555557,0)" xlink:href="#bk"/><use transform="matrix(0.017777777777777778,0,0,0.017777777777777778,26.275555555555552,0)" xlink:href="#by"/><use transform="matrix(0.017777777777777778,0,0,0.017777777777777778,31.18222222222222,0)" xlink:href="#bn"/><use transform="matrix(0.017777777777777778,0,0,0.017777777777777778,36.08888888888889,0)" xlink:href="#aQ"/><use transform="matrix(0.017777777777777778,0,0,0.017777777777777778,46.09777777777778,0)" xlink:href="#aP"/><use transform="matrix(0.017777777777777778,0,0,0.017777777777777778,55.18222222222222,0)" xlink:href="#aX"/></g><g id="Y"><use transform="matrix(0.017777777777777778,0,0,0.017777777777777778,0,0)" xlink:href="#aU"/><use transform="matrix(0.017777777777777778,0,0,0.017777777777777778,9.564444444444446,0)" xlink:href="#aV"/><use transform="matrix(0.017777777777777778,0,0,0.017777777777777778,18.773333333333333,0)" xlink:href="#aW"/><use transform="matrix(0.017777777777777778,0,0,0.017777777777777778,25.36888888888889,0)" xlink:href="#aX"/><use transform="matrix(0.017777777777777778,0,0,0.017777777777777778,35.28888888888889,0)" xlink:href="#bd"/></g><path d="M244-401c0 59-38 101-98 101-56 0-96-42-96-101 0-58 41-101 97-101 57 0 97 41 97 101zm0 310c0 59-38 101-98 101-56 0-96-42-96-101 0-58 41-101 97-101 57 0 97 41 97 101" id="bE"/><g id="aa"><use transform="matrix(0.017777777777777778,0,0,0.017777777777777778,0,0)" xlink:href="#bp"/><use transform="matrix(0.017777777777777778,0,0,0.017777777777777778,11.573333333333334,0)" xlink:href="#aZ"/><use transform="matrix(0.017777777777777778,0,0,0.017777777777777778,21.315555555555555,0)" xlink:href="#bk"/><use transform="matrix(0.017777777777777778,0,0,0.017777777777777778,27.786666666666665,0)" xlink:href="#aP"/><use transform="matrix(0.017777777777777778,0,0,0.017777777777777778,36.87111111111111,0)" xlink:href="#bE"/></g><g id="ab"><use transform="matrix(0.017777777777777778,0,0,0.017777777777777778,0,0)" xlink:href="#aU"/><use transform="matrix(0.017777777777777778,0,0,0.017777777777777778,9.653333333333334,0)" xlink:href="#be"/><use transform="matrix(0.017777777777777778,0,0,0.017777777777777778,19.662222222222223,0)" xlink:href="#aP"/><use transform="matrix(0.017777777777777778,0,0,0.017777777777777778,28.74666666666667,0)" xlink:href="#bi"/><use transform="matrix(0.017777777777777778,0,0,0.017777777777777778,36.14222222222222,0)" xlink:href="#bt"/></g><g id="ac"><use transform="matrix(0.017777777777777778,0,0,0.017777777777777778,0,0)" xlink:href="#bh"/><use transform="matrix(0.017777777777777778,0,0,0.017777777777777778,11.555555555555555,0)" xlink:href="#aP"/><use transform="matrix(0.017777777777777778,0,0,0.017777777777777778,20.64,0)" xlink:href="#aO"/><use transform="matrix(0.017777777777777778,0,0,0.017777777777777778,30.72,0)" xlink:href="#aP"/><use transform="matrix(0.017777777777777778,0,0,0.017777777777777778,39.80444444444444,0)" xlink:href="#aQ"/><use transform="matrix(0.017777777777777778,0,0,0.017777777777777778,49.81333333333333,0)" xlink:href="#aX"/><use transform="matrix(0.017777777777777778,0,0,0.017777777777777778,59.89333333333333,0)" xlink:href="#aP"/><use transform="matrix(0.017777777777777778,0,0,0.017777777777777778,68.97777777777777,0)" xlink:href="#aQ"/><use transform="matrix(0.017777777777777778,0,0,0.017777777777777778,78.98666666666666,0)" xlink:href="#bi"/><use transform="matrix(0.017777777777777778,0,0,0.017777777777777778,86.38222222222223,0)" xlink:href="#bn"/><use transform="matrix(0.017777777777777778,0,0,0.017777777777777778,91.28888888888889,0)" xlink:href="#aP"/><use transform="matrix(0.017777777777777778,0,0,0.017777777777777778,100.37333333333333,0)" xlink:href="#aS"/></g><g id="ad"><use transform="matrix(0.017777777777777778,0,0,0.017777777777777778,0,0)" xlink:href="#bn"/><use transform="matrix(0.017777777777777778,0,0,0.017777777777777778,4.906666666666666,0)" xlink:href="#aQ"/></g><g id="ae"><use transform="matrix(0.017777777777777778,0,0,0.017777777777777778,0,0)" xlink:href="#bx"/><use transform="matrix(0.017777777777777778,0,0,0.017777777777777778,10.08,0)" xlink:href="#aZ"/><use transform="matrix(0.017777777777777778,0,0,0.017777777777777778,19.822222222222223,0)" xlink:href="#bk"/><use transform="matrix(0.017777777777777778,0,0,0.017777777777777778,26.38222222222222,0)" xlink:href="#be"/></g><g id="af"><use transform="matrix(0.017777777777777778,0,0,0.017777777777777778,0,0)" xlink:href="#aU"/><use transform="matrix(0.017777777777777778,0,0,0.017777777777777778,9.564444444444446,0)" xlink:href="#aV"/><use transform="matrix(0.017777777777777778,0,0,0.017777777777777778,18.773333333333333,0)" xlink:href="#aW"/><use transform="matrix(0.017777777777777778,0,0,0.017777777777777778,25.36888888888889,0)" xlink:href="#aX"/><use transform="matrix(0.017777777777777778,0,0,0.017777777777777778,35.44888888888889,0)" xlink:href="#aS"/></g><path d="M542-467c5 171-138 250-310 234V0H61v-665c46-8 112-14 200-14 169 0 277 62 281 212zm-310-76v176c80 13 139-26 139-93 0-68-66-101-139-83" id="bF"/><g id="ag"><use transform="matrix(0.017777777777777778,0,0,0.017777777777777778,0,0)" xlink:href="#bF"/><use transform="matrix(0.017777777777777778,0,0,0.017777777777777778,9.973333333333334,0)" xlink:href="#aT"/><use transform="matrix(0.017777777777777778,0,0,0.017777777777777778,19.946666666666665,0)" xlink:href="#by"/><use transform="matrix(0.017777777777777778,0,0,0.017777777777777778,24.85333333333333,0)" xlink:href="#by"/></g><path d="M260-679c163 0 280 46 281 198 0 79-54 141-111 164v3c44 19 68 61 83 122 18 69 40 166 53 192H388c-9-19-26-77-43-157-20-92-41-100-113-98V0H61v-665c49-8 120-14 199-14zm-28 133v165c81 9 137-23 137-87 0-50-29-81-86-82-27 0-43 1-51 4" id="bG"/><path d="M232-502c51-1 93 19 121 61l5-51h161c-6 225-2 459-3 688H344c-1-81 3-168-2-246-29 40-71 60-126 60C114 10 30-90 30-237c0-170 98-265 202-265zm48 376c75-1 65-89 64-165-1-42-24-74-63-74-52 0-77 48-77 120 0 77 32 119 76 119" id="bH"/><g id="ah"><use transform="matrix(0.017777777777777778,0,0,0.017777777777777778,0,0)" xlink:href="#bG"/><use transform="matrix(0.017777777777777778,0,0,0.017777777777777778,10.328888888888889,0)" xlink:href="#aP"/><use transform="matrix(0.017777777777777778,0,0,0.017777777777777778,19.413333333333334,0)" xlink:href="#bH"/><use transform="matrix(0.017777777777777778,0,0,0.017777777777777778,29.493333333333332,0)" xlink:href="#aT"/><use transform="matrix(0.017777777777777778,0,0,0.017777777777777778,39.46666666666667,0)" xlink:href="#aP"/><use transform="matrix(0.017777777777777778,0,0,0.017777777777777778,48.55111111111111,0)" xlink:href="#aS"/><use transform="matrix(0.017777777777777778,0,0,0.017777777777777778,55.964444444444446,0)" xlink:href="#bk"/></g><path d="M374-149H219L186 0H10l180-674h224L592 0H411zM240-278h113c-20-86-36-176-58-262-19 91-35 176-55 262" id="bI"/><g id="ai"><use transform="matrix(0.017777777777777778,0,0,0.017777777777777778,0,0)" xlink:href="#bI"/><use transform="matrix(0.017777777777777778,0,0,0.017777777777777778,10.897777777777778,0)" xlink:href="#aS"/><use transform="matrix(0.017777777777777778,0,0,0.017777777777777778,18.31111111111111,0)" xlink:href="#aS"/><use transform="matrix(0.017777777777777778,0,0,0.017777777777777778,25.724444444444444,0)" xlink:href="#bn"/><use transform="matrix(0.017777777777777778,0,0,0.017777777777777778,30.63111111111111,0)" xlink:href="#bD"/><use transform="matrix(0.017777777777777778,0,0,0.017777777777777778,40.53333333333333,0)" xlink:href="#aQ"/><use transform="matrix(0.017777777777777778,0,0,0.017777777777777778,50.54222222222222,0)" xlink:href="#bE"/></g><g id="aj"><use transform="matrix(0.017777777777777778,0,0,0.017777777777777778,0,0)" xlink:href="#bu"/><use transform="matrix(0.017777777777777778,0,0,0.017777777777777778,9.493333333333334,0)" xlink:href="#bd"/><use transform="matrix(0.017777777777777778,0,0,0.017777777777777778,14.346666666666666,0)" xlink:href="#bF"/><use transform="matrix(0.017777777777777778,0,0,0.017777777777777778,24.33777777777778,0)" xlink:href="#bn"/><use transform="matrix(0.017777777777777778,0,0,0.017777777777777778,29.244444444444447,0)" xlink:href="#aO"/><use transform="matrix(0.017777777777777778,0,0,0.017777777777777778,39.324444444444445,0)" xlink:href="#aP"/><use transform="matrix(0.017777777777777778,0,0,0.017777777777777778,48.40888888888889,0)" xlink:href="#by"/><use transform="matrix(0.017777777777777778,0,0,0.017777777777777778,53.315555555555555,0)" xlink:href="#bn"/><use transform="matrix(0.017777777777777778,0,0,0.017777777777777778,58.22222222222222,0)" xlink:href="#aQ"/><use transform="matrix(0.017777777777777778,0,0,0.017777777777777778,68.2311111111111,0)" xlink:href="#aP"/></g><g id="ak"><use transform="matrix(0.017777777777777778,0,0,0.017777777777777778,0,0)" xlink:href="#bv"/><use transform="matrix(0.017777777777777778,0,0,0.017777777777777778,9.493333333333334,0)" xlink:href="#bd"/><use transform="matrix(0.017777777777777778,0,0,0.017777777777777778,14.346666666666666,0)" xlink:href="#bG"/><use transform="matrix(0.017777777777777778,0,0,0.017777777777777778,24.675555555555555,0)" xlink:href="#aP"/><use transform="matrix(0.017777777777777778,0,0,0.017777777777777778,33.6,0)" xlink:href="#bs"/><use transform="matrix(0.017777777777777778,0,0,0.017777777777777778,42.66666666666667,0)" xlink:href="#bn"/><use transform="matrix(0.017777777777777778,0,0,0.017777777777777778,47.573333333333345,0)" xlink:href="#aP"/><use transform="matrix(0.017777777777777778,0,0,0.017777777777777778,56.497777777777785,0)" xlink:href="#bf"/><use transform="matrix(0.017777777777777778,0,0,0.017777777777777778,69.17333333333335,0)" xlink:href="#aP"/><use transform="matrix(0.017777777777777778,0,0,0.017777777777777778,78.25777777777779,0)" xlink:href="#aW"/></g><g id="al"><use transform="matrix(0.017777777777777778,0,0,0.017777777777777778,0,0)" xlink:href="#bw"/><use transform="matrix(0.017777777777777778,0,0,0.017777777777777778,9.493333333333334,0)" xlink:href="#bd"/><use transform="matrix(0.017777777777777778,0,0,0.017777777777777778,14.346666666666666,0)" xlink:href="#bc"/><use transform="matrix(0.017777777777777778,0,0,0.017777777777777778,23.14666666666667,0)" xlink:href="#aV"/><use transform="matrix(0.017777777777777778,0,0,0.017777777777777778,32.355555555555554,0)" xlink:href="#bx"/><use transform="matrix(0.017777777777777778,0,0,0.017777777777777778,42.43555555555555,0)" xlink:href="#aP"/><use transform="matrix(0.017777777777777778,0,0,0.017777777777777778,51.52,0)" xlink:href="#by"/></g><g id="am"><use transform="matrix(0.017777777777777778,0,0,0.017777777777777778,0,0)" xlink:href="#bB"/><use transform="matrix(0.017777777777777778,0,0,0.017777777777777778,6.0088888888888885,0)" xlink:href="#aZ"/><use transform="matrix(0.017777777777777778,0,0,0.017777777777777778,15.751111111111111,0)" xlink:href="#aW"/></g><path d="M341 0H155L14-674h184c24 158 42 328 66 484 22-160 54-326 81-484h173c26 159 50 319 72 481 18-160 43-323 64-481h174L678 0H491c-25-155-50-274-68-445h-2c-21 170-50 290-80 445" id="bJ"/><g id="an"><use transform="matrix(0.017777777777777778,0,0,0.017777777777777778,0,0)" xlink:href="#bJ"/><use transform="matrix(0.017777777777777778,0,0,0.017777777777777778,14.80888888888889,0)" xlink:href="#aY"/></g><g id="ao"><use transform="matrix(0.017777777777777778,0,0,0.017777777777777778,0,0)" xlink:href="#bc"/><use transform="matrix(0.017777777777777778,0,0,0.017777777777777778,8.586666666666668,0)" xlink:href="#aP"/><use transform="matrix(0.017777777777777778,0,0,0.017777777777777778,17.671111111111113,0)" xlink:href="#aV"/><use transform="matrix(0.017777777777777778,0,0,0.017777777777777778,26.880000000000003,0)" xlink:href="#aX"/></g><path d="M446 0H286v-146H21v-113l222-391h203v374h69v130h-69V0zM174-276h112c0-82-1-154 6-231h-4c-33 76-77 156-114 231" id="bK"/><g id="ap"><use transform="matrix(0.017777777777777778,0,0,0.017777777777777778,0,0)" xlink:href="#bK"/><use transform="matrix(0.017777777777777778,0,0,0.017777777777777778,9.493333333333334,0)" xlink:href="#bd"/><use transform="matrix(0.017777777777777778,0,0,0.017777777777777778,14.346666666666666,0)" xlink:href="#bb"/><use transform="matrix(0.017777777777777778,0,0,0.017777777777777778,28.586666666666666,0)" xlink:href="#bn"/><use transform="matrix(0.017777777777777778,0,0,0.017777777777777778,33.49333333333333,0)" xlink:href="#by"/><use transform="matrix(0.017777777777777778,0,0,0.017777777777777778,38.4,0)" xlink:href="#aP"/><use transform="matrix(0.017777777777777778,0,0,0.017777777777777778,47.48444444444444,0)" xlink:href="#aS"/><use transform="matrix(0.017777777777777778,0,0,0.017777777777777778,54.897777777777776,0)" xlink:href="#bk"/><use transform="matrix(0.017777777777777778,0,0,0.017777777777777778,61.36888888888889,0)" xlink:href="#aZ"/><use transform="matrix(0.017777777777777778,0,0,0.017777777777777778,71.11111111111111,0)" xlink:href="#aQ"/><use transform="matrix(0.017777777777777778,0,0,0.017777777777777778,81.12,0)" xlink:href="#aP"/></g><path d="M460-650v143H231l-10 77c139-12 266 60 266 209 0 121-99 231-278 231C137 10 73-6 38-22l28-131c66 34 247 56 246-57 0-66-56-96-168-96-30 0-51 1-74 5l40-349h350" id="bL"/><g id="aq"><use transform="matrix(0.017777777777777778,0,0,0.017777777777777778,0,0)" xlink:href="#bL"/><use transform="matrix(0.017777777777777778,0,0,0.017777777777777778,9.493333333333334,0)" xlink:href="#bd"/><use transform="matrix(0.017777777777777778,0,0,0.017777777777777778,14.346666666666666,0)" xlink:href="#bl"/><use transform="matrix(0.017777777777777778,0,0,0.017777777777777778,23.413333333333334,0)" xlink:href="#aO"/><use transform="matrix(0.017777777777777778,0,0,0.017777777777777778,33.49333333333333,0)" xlink:href="#bn"/><use transform="matrix(0.017777777777777778,0,0,0.017777777777777778,38.4,0)" xlink:href="#bi"/></g><g id="ar"><use transform="matrix(0.017777777777777778,0,0,0.017777777777777778,0,0)" xlink:href="#bb"/><use transform="matrix(0.017777777777777778,0,0,0.017777777777777778,14.24,0)" xlink:href="#aP"/><use transform="matrix(0.017777777777777778,0,0,0.017777777777777778,23.324444444444445,0)" xlink:href="#aW"/><use transform="matrix(0.017777777777777778,0,0,0.017777777777777778,29.92,0)" xlink:href="#bD"/><use transform="matrix(0.017777777777777778,0,0,0.017777777777777778,39.82222222222222,0)" xlink:href="#aP"/><use transform="matrix(0.017777777777777778,0,0,0.017777777777777778,48.906666666666666,0)" xlink:href="#aX"/><use transform="matrix(0.017777777777777778,0,0,0.017777777777777778,58.986666666666665,0)" xlink:href="#bo"/></g><g id="as"><use transform="matrix(0.017777777777777778,0,0,0.017777777777777778,0,0)" xlink:href="#aU"/><use transform="matrix(0.017777777777777778,0,0,0.017777777777777778,9.653333333333334,0)" xlink:href="#be"/><use transform="matrix(0.017777777777777778,0,0,0.017777777777777778,19.662222222222223,0)" xlink:href="#aP"/><use transform="matrix(0.017777777777777778,0,0,0.017777777777777778,28.74666666666667,0)" xlink:href="#bi"/><use transform="matrix(0.017777777777777778,0,0,0.017777777777777778,36.14222222222222,0)" xlink:href="#bt"/></g><g id="at"><use transform="matrix(0.017777777777777778,0,0,0.017777777777777778,0,0)" xlink:href="#aZ"/><use transform="matrix(0.017777777777777778,0,0,0.017777777777777778,9.742222222222223,0)" xlink:href="#bB"/><use transform="matrix(0.017777777777777778,0,0,0.017777777777777778,15.911111111111111,0)" xlink:href="#bB"/></g><g id="au"><use transform="matrix(0.017777777777777778,0,0,0.017777777777777778,0,0)" xlink:href="#aW"/><use transform="matrix(0.017777777777777778,0,0,0.017777777777777778,6.595555555555556,0)" xlink:href="#aP"/><use transform="matrix(0.017777777777777778,0,0,0.017777777777777778,15.680000000000001,0)" xlink:href="#by"/><use transform="matrix(0.017777777777777778,0,0,0.017777777777777778,20.586666666666666,0)" xlink:href="#aV"/><use transform="matrix(0.017777777777777778,0,0,0.017777777777777778,29.795555555555556,0)" xlink:href="#bk"/><use transform="matrix(0.017777777777777778,0,0,0.017777777777777778,36.266666666666666,0)" xlink:href="#aP"/><use transform="matrix(0.017777777777777778,0,0,0.017777777777777778,45.35111111111111,0)" xlink:href="#aX"/></g><g id="av"><use transform="matrix(0.017777777777777778,0,0,0.017777777777777778,0,0)" xlink:href="#bi"/><use transform="matrix(0.017777777777777778,0,0,0.017777777777777778,7.395555555555555,0)" xlink:href="#be"/><use transform="matrix(0.017777777777777778,0,0,0.017777777777777778,17.404444444444444,0)" xlink:href="#aP"/><use transform="matrix(0.017777777777777778,0,0,0.017777777777777778,26.488888888888887,0)" xlink:href="#bi"/><use transform="matrix(0.017777777777777778,0,0,0.017777777777777778,33.88444444444444,0)" xlink:href="#bt"/><use transform="matrix(0.017777777777777778,0,0,0.017777777777777778,43.46666666666666,0)" xlink:href="#bx"/><use transform="matrix(0.017777777777777778,0,0,0.017777777777777778,53.54666666666666,0)" xlink:href="#aZ"/><use transform="matrix(0.017777777777777778,0,0,0.017777777777777778,62.862222222222215,0)" xlink:href="#bm"/><use transform="matrix(0.017777777777777778,0,0,0.017777777777777778,71.48444444444443,0)" xlink:href="#aP"/><use transform="matrix(0.017777777777777778,0,0,0.017777777777777778,80.56888888888888,0)" xlink:href="#aS"/></g><path d="M203-233H70L46-674h181zm31 143c0 58-38 100-98 100-56 0-97-42-97-100 0-59 42-100 98-100 57 0 97 41 97 100" id="bM"/><g id="aw"><use transform="matrix(0.017777777777777778,0,0,0.017777777777777778,0,0)" xlink:href="#bh"/><use transform="matrix(0.017777777777777778,0,0,0.017777777777777778,11.555555555555555,0)" xlink:href="#aZ"/><use transform="matrix(0.017777777777777778,0,0,0.017777777777777778,21.297777777777778,0)" xlink:href="#aQ"/><use transform="matrix(0.017777777777777778,0,0,0.017777777777777778,31.306666666666665,0)" xlink:href="#aP"/><use transform="matrix(0.017777777777777778,0,0,0.017777777777777778,40.39111111111111,0)" xlink:href="#bM"/></g><path d="M58-674h173v397c0 98 32 146 91 146s90-42 90-146v-397h173v381c0 198-91 303-267 303C141 10 58-94 58-296v-378" id="bN"/><g id="ax"><use transform="matrix(0.02666666666666667,0,0,0.02666666666666667,0,0)" xlink:href="#bN"/><use transform="matrix(0.02666666666666667,0,0,0.02666666666666667,17.14666666666667,0)" xlink:href="#aO"/><use transform="matrix(0.02666666666666667,0,0,0.02666666666666667,32.266666666666666,0)" xlink:href="#aX"/><use transform="matrix(0.02666666666666667,0,0,0.02666666666666667,47.38666666666667,0)" xlink:href="#aV"/><use transform="matrix(0.02666666666666667,0,0,0.02666666666666667,61.2,0)" xlink:href="#bk"/><use transform="matrix(0.02666666666666667,0,0,0.02666666666666667,71.04,0)" xlink:href="#bn"/><use transform="matrix(0.02666666666666667,0,0,0.02666666666666667,78.4,0)" xlink:href="#aQ"/><use transform="matrix(0.02666666666666667,0,0,0.02666666666666667,93.41333333333334,0)" xlink:href="#bD"/></g><use transform="matrix(0.02666666666666667,0,0,0.02666666666666667,0,0)" xlink:href="#aV" id="ay"/><g id="az"><use transform="matrix(0.02666666666666667,0,0,0.02666666666666667,0,0)" xlink:href="#bh"/><use transform="matrix(0.02666666666666667,0,0,0.02666666666666667,17.333333333333336,0)" xlink:href="#aZ"/><use transform="matrix(0.02666666666666667,0,0,0.02666666666666667,31.946666666666676,0)" xlink:href="#bi"/><use transform="matrix(0.02666666666666667,0,0,0.02666666666666667,43.2,0)" xlink:href="#aT"/><use transform="matrix(0.02666666666666667,0,0,0.02666666666666667,58.160000000000004,0)" xlink:href="#bj"/><use transform="matrix(0.02666666666666667,0,0,0.02666666666666667,80.05333333333334,0)" xlink:href="#aP"/><use transform="matrix(0.02666666666666667,0,0,0.02666666666666667,93.68,0)" xlink:href="#aQ"/><use transform="matrix(0.02666666666666667,0,0,0.02666666666666667,108.56,0)" xlink:href="#bk"/></g><g id="aA"><use transform="matrix(0.018,0,0,0.018,0,0)" xlink:href="#bN"/><use transform="matrix(0.018,0,0,0.018,11.574,0)" xlink:href="#aO"/><use transform="matrix(0.018,0,0,0.018,21.78,0)" xlink:href="#aX"/><use transform="matrix(0.018,0,0,0.018,31.986,0)" xlink:href="#aV"/><use transform="matrix(0.018,0,0,0.018,41.31,0)" xlink:href="#bk"/><use transform="matrix(0.018,0,0,0.018,47.861999999999995,0)" xlink:href="#aP"/></g><g id="aB"><use transform="matrix(0.018,0,0,0.018,0,0)" xlink:href="#bk"/><use transform="matrix(0.018,0,0,0.018,6.6419999999999995,0)" xlink:href="#be"/><use transform="matrix(0.018,0,0,0.018,16.775999999999996,0)" xlink:href="#aP"/></g><g id="aC"><use transform="matrix(0.018,0,0,0.018,0,0)" xlink:href="#bq"/><use transform="matrix(0.018,0,0,0.018,8.802,0)" xlink:href="#bI"/><use transform="matrix(0.018,0,0,0.018,19.836,0)" xlink:href="#bb"/><use transform="matrix(0.018,0,0,0.018,34.254,0)" xlink:href="#bc"/></g><g id="aD"><use transform="matrix(0.018,0,0,0.018,0,0)" xlink:href="#be"/><use transform="matrix(0.018,0,0,0.018,10.133999999999999,0)" xlink:href="#aP"/><use transform="matrix(0.018,0,0,0.018,19.331999999999997,0)" xlink:href="#aV"/><use transform="matrix(0.018,0,0,0.018,28.656,0)" xlink:href="#aX"/><use transform="matrix(0.018,0,0,0.018,38.861999999999995,0)" xlink:href="#aP"/><use transform="matrix(0.018,0,0,0.018,48.059999999999995,0)" xlink:href="#aW"/></g><g id="aE"><use transform="matrix(0.018,0,0,0.018,0,0)" xlink:href="#bk"/><use transform="matrix(0.018,0,0,0.018,6.552,0)" xlink:href="#aZ"/></g><g id="aF"><use transform="matrix(0.018,0,0,0.018,0,0)" xlink:href="#aW"/><use transform="matrix(0.018,0,0,0.018,6.678,0)" xlink:href="#aP"/><use transform="matrix(0.018,0,0,0.018,15.875999999999996,0)" xlink:href="#bB"/><use transform="matrix(0.018,0,0,0.018,22.122,0)" xlink:href="#by"/><use transform="matrix(0.018,0,0,0.018,27.089999999999996,0)" xlink:href="#aP"/><use transform="matrix(0.018,0,0,0.018,36.288,0)" xlink:href="#bi"/><use transform="matrix(0.018,0,0,0.018,44.099999999999994,0)" xlink:href="#bk"/></g><g id="aG"><use transform="matrix(0.018,0,0,0.018,0,0)" xlink:href="#bi"/><use transform="matrix(0.018,0,0,0.018,7.4879999999999995,0)" xlink:href="#be"/><use transform="matrix(0.018,0,0,0.018,17.622,0)" xlink:href="#aV"/><use transform="matrix(0.018,0,0,0.018,26.945999999999998,0)" xlink:href="#aQ"/><use transform="matrix(0.018,0,0,0.018,37.08,0)" xlink:href="#bD"/><use transform="matrix(0.018,0,0,0.018,47.105999999999995,0)" xlink:href="#aP"/><use transform="matrix(0.018,0,0,0.018,56.303999999999995,0)" xlink:href="#aS"/><use transform="matrix(0.018,0,0,0.018,63.629999999999995,0)" xlink:href="#bd"/></g><g id="aI"><use transform="matrix(0.016,0,0,0.016,0,0)" xlink:href="#aP"/><use transform="matrix(0.016,0,0,0.016,7.936,0)" xlink:href="#bd"/><use transform="matrix(0.016,0,0,0.016,12.304,0)" xlink:href="#bD"/><use transform="matrix(0.016,0,0,0.016,20.976,0)" xlink:href="#bd"/></g><g id="aJ"><use transform="matrix(0.016,0,0,0.016,0,0)" xlink:href="#bl"/><use transform="matrix(0.016,0,0,0.016,8.096,0)" xlink:href="#aX"/><use transform="matrix(0.016,0,0,0.016,17.168,0)" xlink:href="#bn"/><use transform="matrix(0.016,0,0,0.016,21.584,0)" xlink:href="#bk"/><use transform="matrix(0.016,0,0,0.016,27.408,0)" xlink:href="#aP"/><use transform="matrix(0.016,0,0,0.016,35.584,0)" xlink:href="#aX"/></g><g id="aK"><use transform="matrix(0.016,0,0,0.016,0,0)" xlink:href="#bx"/><use transform="matrix(0.016,0,0,0.016,8.912,0)" xlink:href="#bA"/></g><g id="aL"><use transform="matrix(0.016,0,0,0.016,0,0)" xlink:href="#bI"/><use transform="matrix(0.016,0,0,0.016,9.808,0)" xlink:href="#bF"/></g><path d="M506-327c0 204-83 337-239 337C89 10 28-159 28-323c0-175 68-337 241-337 184 0 237 178 237 333zm-306 2c0 145 24 201 69 201 42 0 65-59 65-201 0-136-22-200-65-200s-69 58-69 200" id="bO"/><path d="M0 75h500v50H0V75" id="bP"/><g id="aM"><use transform="matrix(0.016,0,0,0.016,0,0)" xlink:href="#bv"/><use transform="matrix(0.016,0,0,0.016,8.544,0)" xlink:href="#bO"/><use transform="matrix(0.016,0,0,0.016,17.088,0)" xlink:href="#bv"/><use transform="matrix(0.016,0,0,0.016,25.632,0)" xlink:href="#bO"/><use transform="matrix(0.016,0,0,0.016,34.176,0)" xlink:href="#bP"/><use transform="matrix(0.016,0,0,0.016,42.176,0)" xlink:href="#bO"/><use transform="matrix(0.016,0,0,0.016,50.72,0)" xlink:href="#bv"/><use transform="matrix(0.016,0,0,0.016,59.263999999999996,0)" xlink:href="#bP"/><use transform="matrix(0.016,0,0,0.016,67.264,0)" xlink:href="#bv"/><use transform="matrix(0.016,0,0,0.016,75.80799999999999,0)" xlink:href="#bK"/></g></defs></g></svg>