<?xml version="1.0" encoding="UTF-8"?>
<svg fill="#003F72" width="100pt" height="100pt" version="1.1" viewBox="0 0 100 100" xmlns="http://www.w3.org/2000/svg">
 <g>
  <path d="m50 18.234c-18.609 0-33.75 15.141-33.75 33.75s15.141 33.75 33.75 33.75 33.75-15.141 33.75-33.75-15.141-33.75-33.75-33.75zm0 65.5c-17.508 0-31.75-14.242-31.75-31.75s14.242-31.75 31.75-31.75 31.75 14.242 31.75 31.75c0 17.504-14.242 31.75-31.75 31.75z"/>
  <path d="m63.66 35.68c-2.8828-4.5117-7.9219-7.5156-13.656-7.5156-5.7383 0-10.777 3.0039-13.656 7.5156-7.6602 1.2852-13.523 7.9492-13.523 15.969 0 8.1016 5.9766 14.812 13.746 16.004 2.918 4.3086 7.8516 7.1484 13.434 7.1484 5.5859 0 10.52-2.8398 13.434-7.1484 7.7695-1.1953 13.746-7.9062 13.746-16.004-0.003906-8.0195-5.8633-14.68-13.523-15.969zm0.55078 8.6992c0 1.75-0.33203 3.418-0.91406 4.9648-2.4844-3.5625-6.3594-6.0703-10.836-6.7578-0.33203-0.48828-0.69531-0.95313-1.0742-1.4023 2.5312-2.3164 5.8867-3.7422 9.5781-3.7422 0.49609 0 0.98438 0.027344 1.4688 0.074219 1.1328 2.0352 1.7773 4.375 1.7773 6.8633zm0 14.211c0 2.6328-0.73047 5.0938-1.9844 7.2109-0.41406 0.035157-0.83203 0.0625-1.2578 0.0625-3.6914 0-7.0508-1.4297-9.5781-3.7461 0.47266-0.55859 0.90234-1.1484 1.3008-1.7695 4.3789-0.73438 8.168-3.2227 10.609-6.7266 0.57812 1.5508 0.91016 3.2188 0.91016 4.9688zm-26.438 7.207c-1.2539-2.1172-1.9844-4.5742-1.9844-7.2109 0-1.75 0.33203-3.418 0.91406-4.9648 2.4414 3.5039 6.2305 5.9883 10.609 6.7266 0.39453 0.61719 0.82422 1.2109 1.3008 1.7695-2.5312 2.3164-5.8867 3.7461-9.5781 3.7461-0.42969-0.003906-0.84766-0.027343-1.2617-0.066406zm-1.9844-21.418c0-2.4883 0.64844-4.8281 1.7773-6.8633 0.48047-0.050781 0.97266-0.074219 1.4648-0.074219 3.6914 0 7.0508 1.4297 9.5781 3.7422-0.38281 0.44922-0.74609 0.91406-1.0742 1.4023-4.4727 0.6875-8.3477 3.1953-10.832 6.7578-0.58203-1.5469-0.91406-3.2148-0.91406-4.9648zm17.961 0.51562c3.6367 0.99609 6.6875 3.3984 8.5391 6.5898-1.8203 3.1367-4.8008 5.5156-8.3594 6.5391 0.83984-1.957 1.3125-4.1133 1.3125-6.375 0-2.4141-0.54297-4.6953-1.4922-6.7539zm-0.50781 6.7539c0 2.4883-0.64844 4.8281-1.7773 6.8633-0.48047 0.050781-0.97266 0.074219-1.4648 0.074219-0.49609 0-0.98438-0.027344-1.4688-0.074219-1.1289-2.0352-1.7773-4.375-1.7773-6.8633 0-2.6328 0.73047-5.0938 1.9844-7.207 0.41406-0.035156 0.83203-0.0625 1.2578-0.0625 0.42578 0 0.84375 0.027344 1.2578 0.0625 1.2578 2.1172 1.9883 4.5742 1.9883 7.207zm-7.1758 6.375c-3.5547-1.0273-6.5352-3.4023-8.3555-6.5391 1.8516-3.1914 4.9023-5.5898 8.5391-6.5898-0.94922 2.0586-1.4922 4.3398-1.4922 6.7539 0 2.2617 0.46875 4.418 1.3086 6.375zm3.8672 2.5625c0.023437 0 0.042968 0.003906 0.066406 0.003906s0.042969-0.003906 0.066406-0.003906c-0.023437 0.027343-0.042968 0.058593-0.066406 0.089843-0.023438-0.03125-0.042969-0.0625-0.066406-0.089843zm0.066406-30.422c4.4531 0 8.4297 2.0625 11.035 5.2734-0.023437 0-0.042968-0.003906-0.066406-0.003906-4.2305 0-8.0781 1.6445-10.969 4.3086-2.8906-2.6641-6.7383-4.3086-10.969-4.3086-0.023438 0-0.042969 0.003906-0.066406 0.003906 2.6055-3.2109 6.5859-5.2734 11.035-5.2734zm-25.18 21.484c0-6.4727 4.3516-11.934 10.281-13.645-0.83984 1.957-1.3086 4.1133-1.3086 6.375 0 2.5508 0.60938 4.957 1.6641 7.1055-1.0547 2.1484-1.6641 4.5547-1.6641 7.1055 0 2.4102 0.54297 4.6953 1.4922 6.7539-6.0234-1.6523-10.465-7.1562-10.465-13.695zm25.18 21.152c-4.2969 0-8.1484-1.9258-10.758-4.9492 4.1484-0.054687 7.9141-1.6797 10.758-4.3008 2.8398 2.6211 6.6094 4.2461 10.758 4.3008-2.6094 3.0234-6.457 4.9492-10.758 4.9492zm14.719-7.457c0.94922-2.0586 1.4922-4.3438 1.4922-6.7539 0-2.5508-0.60938-4.957-1.6641-7.1055 1.0547-2.1484 1.6641-4.5547 1.6641-7.1055 0-2.2617-0.46875-4.418-1.3086-6.375 5.9258 1.7109 10.277 7.1758 10.277 13.645 0 6.5391-4.4414 12.043-10.461 13.695z"/>
 </g>
</svg>
