<?xml version="1.0" encoding="UTF-8"?>
<svg fill="#0083BE" width="100pt" height="100pt" version="1.1" viewBox="0 0 100 100" xmlns="http://www.w3.org/2000/svg">
 <g>
  <path d="m28.125 79.688h-9.375c-4.375 0-7.8125-3.4375-7.8125-7.8125v-15.625h-7.8125v-1.25l7.8125-20.312v-0.3125c0-17.188 14.062-31.25 31.25-31.25v-3.125c-18.906 0-34.219 15.312-34.375 34.062l-7.8125 20.312v5h7.8125v12.5c0 6.0938 4.8438 10.938 10.938 10.938h7.8125v17.188h3.125v-17.188h3.125v-3.125z"/>
  <path d="m92.188 34.062c-0.15625-18.75-15.469-34.062-34.375-34.062s-34.375 15.469-34.375 34.375c0 4.5312 1.25 9.0625 3.4375 12.969 3.4375 6.25 9.2188 10.625 15.938 12.5 6.875 1.875 14.062 1.0938 20.156-2.5l-1.5625-2.6562c-5.4688 3.125-11.719 3.9062-17.812 2.1875s-11.094-5.625-14.062-11.094c-1.875-3.4375-2.9688-7.3438-2.9688-11.406 0-17.188 14.062-31.25 31.25-31.25s31.25 14.062 31.25 31.25v0.3125l7.8125 20.312v1.25h-7.8125v15.625c0 4.375-3.4375 7.8125-7.8125 7.8125h-14.062v3.125h3.125v17.188h3.125v-17.188h7.8125c6.0938 0 10.938-4.8438 10.938-10.938v-12.5h7.8125v-5z"/>
  <path d="m76.562 37.5v-3.125c0-14.688-11.875-26.562-26.562-26.562v3.125c12.969 0 23.438 10.469 23.438 23.438v3.125c0 9.0625-3.2812 16.094-6.4062 22.969-3.125 6.5625-6.0938 12.969-6.0938 20.781v18.75h3.125v-18.75c0-7.1875 2.8125-13.125 5.7812-19.531 3.2812-7.1875 6.7188-14.531 6.7188-24.219z"/>
  <path d="m32.344 44.688c0.625 1.0938 2.0312 2.1875 5.1562 2.1875 0.9375 0 2.1875-0.15625 3.5938-0.46875 0.78125-0.15625 1.7188-0.3125 2.5-0.625 1.0938 5.3125 3.2812 8.9062 6.4062 8.9062s5.3125-3.5938 6.5625-8.75c2.1875 0.625 4.2188 1.0938 5.9375 1.0938 2.3438 0 4.2188-0.625 5.1562-2.1875 0.78125-1.4062 1.0938-4.0625-2.6562-8.4375-0.46875-0.625-1.0938-1.25-1.7188-1.875 3.9062-3.5938 5.9375-7.5 4.375-10.156-0.78125-1.4062-2.9688-2.9688-8.5938-1.875-0.78125 0.15625-1.5625 0.3125-2.3438 0.625-1.4062-5.1562-3.5938-9.0625-6.7188-9.0625s-5.3125 3.9062-6.5625 9.0625c-0.78125-0.15625-1.5625-0.46875-2.3438-0.625-5.625-1.0938-7.8125 0.3125-8.5938 1.875-1.5625 2.6562 0.625 6.4062 4.375 10.156-3.9062 3.75-6.0938 7.5-4.5312 10.156zm17.656 6.875c-0.9375 0-2.5-2.3438-3.5938-6.7188 1.0938-0.46875 2.3438-0.9375 3.5938-1.5625 1.25 0.625 2.3438 1.0938 3.5938 1.5625-1.0938 4.375-2.6562 6.7188-3.5938 6.7188zm-4.6875-17.188v-2.5c0.78125-0.46875 1.4062-0.9375 2.1875-1.4062s1.5625-0.9375 2.3438-1.25c0.78125 0.46875 1.5625 0.78125 2.3438 1.25s1.5625 0.9375 2.1875 1.4062v2.5 2.8125l-2.3438 1.4062c-0.78125 0.46875-1.5625 0.78125-2.3438 1.25-0.78125-0.3125-1.5625-0.78125-2.3438-1.25l-2.3438-1.4062c0.3125-0.9375 0.3125-1.875 0.3125-2.8125zm-3.125 0.625c-0.15625-0.15625-0.46875-0.3125-0.625-0.46875 0.15625-0.15625 0.46875-0.3125 0.625-0.46875v0.3125 0.625zm3.4375-7.0312c0-0.3125 0-0.46875 0.15625-0.78125 0.15625 0.15625 0.46875 0.15625 0.625 0.3125-0.15625 0.15625-0.3125 0.15625-0.46875 0.3125 0 0-0.15625 0.15625-0.3125 0.15625zm7.8125-0.3125c0.3125-0.15625 0.46875-0.15625 0.78125-0.3125 0 0.3125 0 0.46875 0.15625 0.78125-0.15625 0-0.3125-0.15625-0.3125-0.15625-0.3125-0.15625-0.46875-0.3125-0.625-0.3125zm4.375 6.4062c0.15625 0.15625 0.3125 0.3125 0.625 0.46875-0.15625 0.15625-0.3125 0.3125-0.625 0.46875v-0.625-0.3125zm-3.5938 7.0312c0 0.3125 0 0.46875-0.15625 0.78125-0.15625-0.15625-0.46875-0.15625-0.625-0.3125 0.15625 0 0.15625-0.15625 0.3125-0.15625 0.15625-0.15625 0.3125-0.15625 0.46875-0.3125zm-8.125 0.3125c0.15625 0 0.15625 0.15625 0.3125 0.15625-0.15625 0.15625-0.46875 0.15625-0.625 0.3125 0-0.15625 0-0.46875-0.15625-0.625 0.3125 0 0.3125 0 0.46875 0.15625zm16.406-2.9688c2.5 2.8125 2.6562 4.375 2.3438 4.6875-0.46875 0.9375-3.2812 1.0938-7.8125-0.3125 0.15625-1.25 0.3125-2.6562 0.46875-3.9062 1.0938-0.78125 2.1875-1.5625 3.125-2.3438 0.78125 0.625 1.4062 1.25 1.875 1.875zm-2.9688-12.812c1.25-0.3125 2.1875-0.3125 2.9688-0.3125 1.5625 0 2.1875 0.3125 2.3438 0.625 0.46875 0.78125-0.78125 3.4375-4.0625 6.5625-0.9375-0.78125-2.0312-1.5625-3.125-2.3438-0.15625-1.4062-0.3125-2.6562-0.46875-3.9062 0.78125-0.3125 1.5625-0.46875 2.3438-0.625zm-9.5312-8.4375c0.9375 0 2.6562 2.3438 3.5938 7.0312-1.25 0.46875-2.5 0.9375-3.5938 1.5625-1.25-0.625-2.5-1.0938-3.5938-1.5625 0.9375-4.6875 2.6562-7.0312 3.5938-7.0312zm-14.844 8.75c0.15625-0.3125 0.9375-0.625 2.3438-0.625 0.78125 0 1.7188 0.15625 2.9688 0.3125 0.78125 0.15625 1.5625 0.3125 2.3438 0.625-0.15625 1.25-0.3125 2.5-0.46875 3.9062-1.0938 0.78125-2.1875 1.5625-3.125 2.3438-3.2812-3.125-4.5312-5.625-4.0625-6.5625zm7.1875 12.969c0.15625 1.25 0.3125 2.6562 0.46875 3.9062-0.9375 0.3125-1.7188 0.46875-2.5 0.625-3.5938 0.78125-5 0.15625-5.3125-0.3125s-0.15625-2.0312 2.3438-4.6875c0.46875-0.625 1.0938-1.25 1.7188-1.875 1.0938 0.78125 2.1875 1.7188 3.2812 2.3438z"/>
 </g>
</svg>
