<?xml version="1.0" encoding="UTF-8"?>
<svg fill="#772432" width="100pt" height="100pt" version="1.1" viewBox="0 0 100 100" xmlns="http://www.w3.org/2000/svg">
 <g>
  <path d="m89.078 82.727h-71.535v-71.539c0-1.2539-1.0156-2.2734-2.2734-2.2734-1.2539 0-2.2734 1.0156-2.2734 2.2734v73.801 0.007813c0 1.2539 1.0156 2.2734 2.2734 2.2734h73.812c1.2539 0 2.2734-1.0156 2.2734-2.2734-0.003907-1.2539-1.0195-2.2695-2.2773-2.2695z"/>
  <path d="m70.328 78.41h10.91c1.5039 0 2.7266-1.2227 2.7266-2.7266v-17.273c0-1.5039-1.2227-2.7266-2.7266-2.7266h-10.91c-1.5039 0-2.7266 1.2227-2.7266 2.7266v17.273c0 1.5039 1.2227 2.7266 2.7266 2.7266z"/>
  <path d="m24.887 78.41h10.91c1.5078 0 2.7266-1.2227 2.7266-2.7266v-49.09c0-1.5078-1.2227-2.7266-2.7266-2.7266h-10.91c-1.5078 0-2.7266 1.2227-2.7266 2.7266v49.09c0 1.5039 1.2227 2.7266 2.7266 2.7266z"/>
  <path d="m47.609 78.41h10.91c1.5039 0 2.7266-1.2227 2.7266-2.7266v-30.91c0-1.5078-1.2227-2.7266-2.7266-2.7266h-10.91c-1.5039 0-2.7266 1.2227-2.7266 2.7266v30.91c0 1.5039 1.2188 2.7266 2.7266 2.7266z"/>
 </g>
</svg>
