<?xml version="1.0" encoding="UTF-8"?>
<svg fill="#0083BE" width="100pt" height="100pt" version="1.1" viewBox="0 0 100 100" xmlns="http://www.w3.org/2000/svg">
 <g>
  <path d="m50 29.219c-0.78125 0.46875-1.5625 0.78125-2.3438 1.25s-1.5625 0.9375-2.1875 1.4062v2.5c0 0.9375 0 1.875 0.15625 2.8125l2.3438 1.4062c0.78125 0.46875 1.5625 0.78125 2.3438 1.25 0.78125-0.46875 1.5625-0.78125 2.3438-1.25l2.3438-1.4062v-2.8125-2.5c-0.78125-0.46875-1.4062-0.9375-2.1875-1.4062-1.25-0.46875-2.0312-0.78125-2.8125-1.25z"/>
  <path d="m46.406 44.844c1.0938 4.375 2.6562 6.7188 3.5938 6.7188s2.5-2.3438 3.5938-6.7188c-1.25-0.46875-2.3438-0.9375-3.5938-1.5625-1.25 0.625-2.3438 1.25-3.5938 1.5625z"/>
  <path d="m39.219 36.562c-0.625 0.625-1.25 1.25-1.7188 1.875-2.5 2.8125-2.6562 4.375-2.3438 4.6875 0.3125 0.46875 1.7188 1.0938 5.3125 0.3125 0.78125-0.15625 1.7188-0.3125 2.5-0.625-0.15625-1.25-0.3125-2.5-0.46875-3.9062-1.25-0.625-2.3438-1.5625-3.2812-2.3438z"/>
  <path d="m64.844 43.125c0.3125-0.46875 0.15625-2.0312-2.3438-4.6875-0.46875-0.625-1.0938-1.25-1.7188-1.875-0.9375 0.78125-2.0312 1.5625-3.125 2.3438-0.15625 1.4062-0.3125 2.6562-0.46875 3.9062 4.375 1.4062 7.1875 1.25 7.6562 0.3125z"/>
  <path d="m46.406 24.219c1.25 0.46875 2.3438 0.9375 3.5938 1.5625 1.25-0.625 2.5-1.0938 3.5938-1.5625-0.9375-4.6875-2.6562-7.0312-3.5938-7.0312s-2.6562 2.3438-3.5938 7.0312z"/>
  <path d="m39.219 32.5c0.9375-0.78125 2.0312-1.5625 3.125-2.3438 0.15625-1.25 0.3125-2.6562 0.46875-3.9062-0.78125-0.3125-1.5625-0.46875-2.3438-0.625-1.25-0.3125-2.1875-0.3125-2.9688-0.3125-1.5625 0-2.1875 0.3125-2.3438 0.625-0.46875 0.9375 0.78125 3.4375 4.0625 6.5625z"/>
  <path d="m60.781 32.5c3.2812-3.125 4.5312-5.625 4.0625-6.5625-0.15625-0.3125-0.9375-0.625-2.3438-0.625-0.78125 0-1.7188 0.15625-2.9688 0.3125-0.78125 0.15625-1.5625 0.3125-2.3438 0.625 0.15625 1.25 0.3125 2.5 0.46875 3.9062 1.0938 0.78125 2.1875 1.5625 3.125 2.3438z"/>
  <path d="m92.188 34.062c-0.15625-18.75-15.469-30.938-34.375-30.938v0.3125-0.3125c-17.188 0-31.25 14.062-31.25 31.25 0 4.0625 1.0938 7.9688 2.9688 11.562 3.125 5.4688 8.125 9.375 14.062 11.094 6.0938 1.7188 12.344 0.9375 17.812-2.1875l1.5625 2.6562c-6.25 3.4375-13.281 4.375-20.156 2.5s-12.5-6.4062-15.938-12.5c-2.1875-4.0625-3.4375-8.5938-3.4375-13.125 0-18.906 15.469-34.375 34.375-34.375h-15.625c-18.906 0-34.219 15.312-34.375 34.062l-7.8125 20.312v5h7.8125v12.5c0 6.0938 4.8438 10.938 10.938 10.938h7.8125v17.188h34.375v-18.75c0-7.8125 2.9688-14.219 6.0938-20.781 3.125-6.875 6.4062-13.906 6.4062-22.969v-3.125c0-12.969-10.469-23.438-23.438-23.438v-3.125c14.688 0 26.562 11.875 26.562 26.562v3.125c0 9.6875-3.4375 17.031-6.7188 24.219-2.9688 6.4062-5.7812 12.344-5.7812 19.531v18.75h9.375v-17.188h7.8125c6.0938 0 10.938-4.8438 10.938-10.938v-12.5h7.8125v-5zm-35.625-10.938c0.78125-0.15625 1.5625-0.46875 2.3438-0.625 5.625-1.0938 7.8125 0.3125 8.5938 1.875 1.5625 2.6562-0.625 6.4062-4.375 10.156 0.625 0.625 1.25 1.25 1.7188 1.875 3.75 4.2188 3.5938 6.875 2.6562 8.4375s-2.6562 2.1875-5.1562 2.1875c-1.7188 0-3.75-0.3125-5.9375-1.0938-1.0938 5.1562-3.2812 8.75-6.4062 8.75s-5.3125-3.5938-6.5625-8.75c-0.9375 0.3125-1.7188 0.46875-2.5 0.625-1.4062 0.3125-2.5 0.46875-3.5938 0.46875-2.9688 0-4.375-1.0938-5.1562-2.1875-1.5625-2.6562 0.625-6.5625 4.5312-10.156-3.9062-3.5938-5.9375-7.5-4.375-10.156 0.78125-1.4062 2.9688-2.9688 8.5938-1.875 0.78125 0.15625 1.5625 0.3125 2.3438 0.625 1.4062-5.3125 3.5938-9.2188 6.7188-9.2188s5.3125 3.9062 6.5625 9.0625z"/>
 </g>
</svg>
