<?xml version="1.0" encoding="UTF-8"?>
<svg fill="#498527" width="100pt" height="100pt" version="1.1" viewBox="0 0 100 100" xmlns="http://www.w3.org/2000/svg">
 <g>
  <path d="m50 95c24.812 0 45-20.188 45-45s-20.188-45-45-45-45 20.188-45 45 20.188 45 45 45zm0-85.938c22.57 0 40.938 18.363 40.938 40.938 0 22.57-18.367 40.938-40.938 40.938s-40.938-18.367-40.938-40.938 18.367-40.938 40.938-40.938z"/>
  <path d="m41.359 67.469c2.3633 0 4.4844 1.3203 5.5352 3.4492 0.32031 0.65234 0.98438 1.0625 1.7109 1.0625h0.83984c0.19141 0 0.375-0.035157 0.55078-0.089844 0.17578 0.054687 0.35938 0.089844 0.55078 0.089844h0.83984c0.72656 0 1.3906-0.41016 1.7109-1.0625 1.0508-2.1289 3.1719-3.4492 5.5352-3.4492h19.863c1.0547 0 1.9102-0.85547 1.9102-1.9102v-35.629c0-1.0547-0.85547-1.9102-1.9102-1.9102l-19.855-0.003906c-3.6875 0-6.9062 2.0117-8.6406 4.9922-1.7344-2.9805-4.9531-4.9922-8.6406-4.9922h-19.867c-1.0547 0-1.9102 0.85547-1.9102 1.9102v35.629c0 1.0547 0.85547 1.9102 1.9102 1.9102zm11.102-29.453c0-3.4062 2.7734-6.1797 6.1797-6.1797h17.957v31.809l-17.957 0.003907c-2.3008 0-4.4531 0.76953-6.1797 2.1328zm-29.059-6.1797h17.957c3.4062 0 6.1797 2.7734 6.1797 6.1797v27.766c-1.7227-1.3594-3.8828-2.1328-6.1797-2.1328h-17.957z"/>
 </g>
</svg>
