<?xml version="1.0" encoding="UTF-8"?>
<svg fill="#0083BE" width="100pt" height="100pt" version="1.1" viewBox="0 0 100 100" xmlns="http://www.w3.org/2000/svg">
 <g fill-rule="evenodd">
  <path d="m29.215 16.668c0 2.2969-1.8672 4.1641-4.168 4.1641s-4.168-1.8672-4.168-4.1641c0-2.3008 1.8672-4.168 4.168-4.168s4.168 1.8672 4.168 4.168"/>
  <path d="m33.379 33.332h-16.664c-2.3047 0-4.168-1.8633-4.168-4.1641v-16.668c0-2.3047 1.8633-4.168 4.168-4.168h16.664c2.3047 0 4.168 1.8633 4.168 4.168v16.668c0 2.3008-1.8633 4.1641-4.168 4.1641zm0 8.3359c6.9062 0 12.5-5.5977 12.5-12.5v-16.668c0-6.9062-5.5938-12.5-12.5-12.5h-16.664c-6.9062 0-12.5 5.5938-12.5 12.5v16.668c0 6.9023 5.5938 12.5 12.5 12.5z"/>
  <path d="m23.828 69.613c1.625-1.6289 1.625-4.2656 0-5.8945l-4.168-4.1641 1.2188 2.9453v-4.168l-1.2188 2.9453 4.168-4.1641c1.625-1.6289 1.625-4.2656 0-5.8945l-2.9492-2.9453v-6.6094h8.3359v38.875c0 3.4805-0.80859 6.9062-2.3633 10.012-0.74609 1.4883-2.8633 1.4883-3.6055 0-1.5586-3.1055-2.3672-6.5312-2.3672-10.012v-7.9805zm-10.062-14.227c-0.78125 0.78125-1.2188 1.8398-1.2188 2.9453v4.168c0 1.1055 0.4375 2.1641 1.2188 2.9453l1.2227 1.2188-1.2227 1.2227c-0.78125 0.78125-1.2188 1.8398-1.2188 2.9453v9.707c0 4.7734 1.1094 9.4766 3.2461 13.742 3.8125 7.6289 14.695 7.6289 18.508-0.003906 2.1367-4.2617 3.2461-8.9648 3.2461-13.738v-43.039c0-2.3008-1.8672-4.168-4.168-4.168h-16.664c-2.3008 0-4.168 1.8672-4.168 4.168v12.5c0 1.1055 0.4375 2.1641 1.2188 2.9453l1.2227 1.2188z"/>
  <path d="m55.207 18.328c0.99219 2.0742 0.11328 4.5625-1.9609 5.5547-2.0781 0.99219-4.5664 0.11328-5.5586-1.9609s-0.11328-4.5625 1.9648-5.5547c2.0781-0.99219 4.5625-0.11328 5.5547 1.9609"/>
  <path d="m73.168 68.426c0.76953-2.168-0.37109-4.5508-2.543-5.3164l-5.5547-1.9648-1.3906 3.9297 3.7617-1.7969-1.7969-3.7578-3.7578 1.7969 3.9258 1.3906 1.9688-5.5586c0.76562-2.1719-0.37109-4.5508-2.543-5.3203l-3.9297-1.3867-2.8477-5.9609 7.5234-3.5898 18.551 38.836c1.4961 3.1367 2.2422 6.5781 2.1797 10.051-0.03125 1.6602-1.9414 2.5742-3.2539 1.5547-2.7422-2.1328-4.9492-4.8789-6.4492-8.0156l-5.2344-10.957zm-15.211-8.5c-0.36719 1.043-0.30859 2.1914 0.16797 3.1875l1.7969 3.7578c0.47656 0.99609 1.3281 1.7656 2.3711 2.1328l1.6289 0.57422-0.57812 1.6289c-0.36719 1.043-0.30859 2.1875 0.16797 3.1836l5.9805 12.52c2.0586 4.3047 5.0859 8.0703 8.8516 11 6.7305 5.2344 16.551 0.54297 16.703-7.9805 0.085937-4.7656-0.9375-9.4883-2.9922-13.793l-20.348-42.598c-0.99219-2.0781-3.4766-2.957-5.5547-1.9648l-15.043 7.1836c-2.0742 0.99219-2.9531 3.4766-1.9648 5.5547l5.3906 11.277c0.47656 1 1.3281 1.7656 2.3711 2.1367l1.6289 0.57422z"/>
  <path d="m68.453 7.3867c-2.9766-6.2305-10.438-8.8672-16.668-5.8945l-12.02 5.7422c-1.6914 0.8125-2.6367 2.6523-2.3047 4.4961 0.058593 0.32812 0.085937 0.57031 0.085937 0.76953v16.668c0 0.9375-0.33594 1.8359-0.96484 2.6016-1.0234 1.25-1.2344 2.9805-0.53906 4.4375l1.9922 4.1758c2.9766 6.2305 10.438 8.8672 16.668 5.8945l15.039-7.1836c6.2305-2.9766 8.8672-10.438 5.8945-16.668zm-22.574 21.781v-15.617l9.4961-4.5352c2.0781-0.99219 4.5664-0.11328 5.5586 1.9648l7.1836 15.035c0.99219 2.0781 0.10937 4.5664-1.9648 5.5586l-15.039 7.1836c-2.0781 0.99219-4.5664 0.11328-5.5586-1.9648l-0.99609-2.0898c0.85547-1.6992 1.3203-3.582 1.3203-5.5352z"/>
 </g>
</svg>
