<?xml version="1.0" encoding="UTF-8"?>
<svg fill="#772432" width="100pt" height="100pt" version="1.1" viewBox="0 0 100 100" xmlns="http://www.w3.org/2000/svg">
 <g>
  <path d="m50 92.973c0.30078 0 0.60547-0.078125 0.875-0.23438l35.699-20.609c0.54297-0.3125 0.875-0.89062 0.875-1.5195v-41.219c0-0.625-0.33594-1.2031-0.875-1.5195l-35.699-20.605c-0.54297-0.3125-1.2109-0.3125-1.7539 0l-35.695 20.605c-0.54297 0.3125-0.875 0.89062-0.875 1.5195v41.219c0 0.625 0.33594 1.2031 0.875 1.5195l35.699 20.609c0.26953 0.15625 0.57031 0.23438 0.875 0.23438zm-33.945-62.57l33.945-19.598 33.945 19.598v39.195l-33.945 19.598-33.945-19.598z"/>
  <path d="m70.824 72.797c0.078125 0.011719 0.15625 0.015625 0.23438 0.015625 0.46094 0 0.91016-0.18359 1.2383-0.51172 0.38672-0.38672 0.57031-0.92969 0.49609-1.4727l-1.8086-13.398c0.23047-1.1055 0.97266-4.8672 0.97266-7.5078 0-12.156-9.8867-22.043-22.043-22.043s-22.043 9.8906-22.043 22.043c0 12.156 9.8867 22.043 22.043 22.043 2.6445 0 6.4062-0.74219 7.5078-0.97266zm-13.84-5.2969c-0.042969 0.007812-4.3867 0.95703-7.0664 0.95703-10.223 0-18.539-8.3164-18.539-18.539 0-10.223 8.3164-18.539 18.539-18.539 10.223 0 18.539 8.3164 18.539 18.539 0 2.6797-0.94922 7.0195-0.95703 7.0664-0.042969 0.19922-0.054688 0.40625-0.027344 0.60938l1.5391 11.422-11.418-1.5391c-0.078125-0.011718-0.15625-0.015624-0.23438-0.015624-0.125 0-0.25391 0.011718-0.375 0.039062z"/>
  <path d="m40.363 47.43c-1.375 0-2.4922 1.1172-2.4922 2.4922s1.1172 2.4922 2.4922 2.4922 2.4922-1.1133 2.4922-2.4922-1.1172-2.4922-2.4922-2.4922z"/>
  <path d="m50.344 47.43c-1.375 0-2.4922 1.1172-2.4922 2.4922s1.1172 2.4922 2.4922 2.4922 2.4922-1.1133 2.4922-2.4922-1.1172-2.4922-2.4922-2.4922z"/>
  <path d="m62.812 49.918c0 3.3242-4.9805 3.3242-4.9805 0 0-3.3203 4.9805-3.3203 4.9805 0"/>
 </g>
</svg>
