<?xml version="1.0" encoding="UTF-8"?>
<svg fill="#C4262E" width="100pt" height="100pt" version="1.1" viewBox="0 0 100 100" xmlns="http://www.w3.org/2000/svg">
 <g>
  <path d="m22.863 60.742c-0.019531 1.8906-0.97656 3.9648-2.4453 5.2891-0.65234 0.58594-1.4102 0.89453-2.2422 0.85156-0.73047-0.039062-1.5352-0.58203-2.1445-1.1953-1.3984-1.4141-2.2227-3.5781-2.0586-5.4883 0.17188-1.9922 1.8555-3.5156 3.7617-3.8711 2.6758-0.49609 5.0977 1.793 5.1289 4.4141 0.015625 1.3203 2.0664 1.3242 2.0508 0-0.03125-2.3945-1.332-4.6055-3.4492-5.7461-2.1172-1.1406-4.8086-0.97656-6.7734 0.40234-1.9414 1.3594-3 3.6914-2.7539 6.0469 0.23828 2.2461 1.3203 4.5156 3.0039 6.0312 0.9375 0.84375 2.0781 1.3906 3.3477 1.457 1.3047 0.066406 2.5078-0.57031 3.4844-1.375 1.9219-1.5898 3.1172-4.3477 3.1406-6.8203 0.011719-1.3203-2.0391-1.3164-2.0508 0.003907z"/>
  <path d="m28.371 75.496v4.3867c0.34375-0.34375 0.68359-0.68359 1.0234-1.0234h-13.98-8c0.34375 0.34375 0.68359 0.68359 1.0234 1.0234v-2.4805c0-0.875-0.085938-1.8594 0.066406-2.6992 0.27344-1.5234 1.2578-2.7227 2.6328-3.3984 0.99219-0.48828 2.1211-0.41016 3.2227-0.41016-0.29688-0.16797-0.58984-0.33984-0.88672-0.50781 1.3555 1.8477 2.707 3.6953 4.0625 5.5469 0.47656 0.65234 1.293 0.65625 1.7695 0 1.3438-1.8477 2.6875-3.6953 4.0273-5.5469-0.29688 0.16797-0.58984 0.33984-0.88672 0.50781 1.2734 0 2.4336-0.035156 3.5664 0.58594 1.4688 0.80469 2.3398 2.3672 2.3594 4.0156 0.015625 1.3203 2.0664 1.3242 2.0508 0-0.027344-2.3945-1.2969-4.5859-3.3711-5.7891-0.98828-0.57422-2.1562-0.86719-3.293-0.86719-0.75391 0-1.6914-0.17969-2.1953 0.50781-1.332 1.8359-2.668 3.6719-4 5.5078-0.007812 0.011719-0.015625 0.023437-0.027344 0.035156h1.7695c-1.3398-1.832-2.6836-3.6641-4.0234-5.4922-0.50391-0.6875-1.2227-0.55859-1.9766-0.55859-1.0352 0-2.0195 0.16797-2.9688 0.58203-2.2109 0.96484-3.5977 3.0469-3.9062 5.3984-0.10938 0.84375-0.039063 1.7344-0.039063 2.5781v2.4805c0 0.55859 0.46484 1.0234 1.0234 1.0234h13.98 8c0.55859 0 1.0234-0.46484 1.0234-1.0234v-4.3867c0.003906-1.3164-2.0469-1.3164-2.0469 0.003906z"/>
  <path d="m86.438 60.742c-0.019531 1.8906-0.97656 3.9648-2.4453 5.2891-0.65234 0.58594-1.4102 0.89453-2.2422 0.85156-0.73047-0.039062-1.5352-0.58203-2.1445-1.1953-1.3984-1.4141-2.2227-3.5781-2.0586-5.4883 0.17188-1.9922 1.8555-3.5156 3.7617-3.8711 2.6758-0.49609 5.0977 1.793 5.1289 4.4141 0.015625 1.3203 2.0664 1.3242 2.0508 0-0.03125-2.3945-1.332-4.6055-3.4492-5.7461-2.1172-1.1406-4.8086-0.97656-6.7734 0.40234-1.9414 1.3594-3 3.6914-2.7539 6.0469 0.23828 2.2461 1.3203 4.5156 3.0039 6.0312 0.9375 0.84375 2.0781 1.3906 3.3477 1.457 1.3047 0.066406 2.5078-0.57031 3.4844-1.375 1.9219-1.5898 3.1172-4.3477 3.1406-6.8203 0.011719-1.3203-2.0391-1.3164-2.0508 0.003907z"/>
  <path d="m91.945 75.496v4.3867c0.34375-0.34375 0.68359-0.68359 1.0234-1.0234h-13.98-8c0.34375 0.34375 0.68359 0.68359 1.0234 1.0234v-2.4805c0-0.875-0.085938-1.8594 0.066406-2.6992 0.27344-1.5234 1.2578-2.7227 2.6328-3.3984 0.99219-0.48828 2.1211-0.41016 3.2227-0.41016-0.29688-0.16797-0.58984-0.33984-0.88672-0.50781 1.3555 1.8477 2.707 3.6953 4.0625 5.5469 0.47656 0.65234 1.293 0.65625 1.7695 0 1.3438-1.8477 2.6875-3.6953 4.0273-5.5469-0.29688 0.16797-0.58984 0.33984-0.88672 0.50781 1.2734 0 2.4336-0.035156 3.5664 0.58594 1.4688 0.80469 2.3398 2.3672 2.3594 4.0156 0.015626 1.3203 2.0664 1.3242 2.0508 0-0.027344-2.3945-1.2969-4.5859-3.3711-5.7891-0.98828-0.57422-2.1562-0.86719-3.293-0.86719-0.75391 0-1.6914-0.17969-2.1914 0.50781-1.332 1.8359-2.668 3.6719-4 5.5078-0.007813 0.011719-0.015625 0.023437-0.027344 0.035156h1.7695c-1.3398-1.832-2.6836-3.6641-4.0234-5.4922-0.50391-0.6875-1.2227-0.55859-1.9766-0.55859-1.0352 0-2.0195 0.16797-2.9688 0.58203-2.2109 0.96484-3.5977 3.0469-3.9062 5.3984-0.10937 0.84375-0.039062 1.7344-0.039062 2.5781v2.4805c0 0.55859 0.46484 1.0234 1.0234 1.0234h13.98 8c0.55859 0 1.0234-0.46484 1.0234-1.0234v-4.3867c0-1.3164-2.0508-1.3164-2.0508 0.003906z"/>
  <path d="m54.648 15.527c-0.019532 1.8906-0.97656 3.9648-2.4453 5.2891-0.65234 0.58594-1.4102 0.89453-2.2422 0.85156-0.73047-0.039063-1.5352-0.58203-2.1445-1.1953-1.3984-1.4141-2.2227-3.5781-2.0586-5.4883 0.17188-1.9922 1.8555-3.5156 3.7617-3.8711 2.6758-0.49609 5.0977 1.793 5.1289 4.4141 0.015624 1.3203 2.0664 1.3242 2.0508 0-0.03125-2.3945-1.332-4.6055-3.4492-5.7461-2.1172-1.1445-4.8086-0.97656-6.7734 0.40234-1.9414 1.3594-3 3.6914-2.7539 6.0469 0.23828 2.2461 1.3203 4.5156 3.0039 6.0312 0.9375 0.84375 2.0781 1.3906 3.3477 1.457 1.3047 0.066406 2.5078-0.57031 3.4844-1.375 1.9219-1.5898 3.1172-4.3477 3.1406-6.8203 0.015625-1.3203-2.0352-1.3164-2.0508 0.003906z"/>
  <path d="m60.156 30.281v4.3867l1.0234-1.0234h-13.98-8c0.34375 0.34375 0.68359 0.68359 1.0234 1.0234v-2.4805c0-0.875-0.085937-1.8594 0.066406-2.6992 0.27344-1.5234 1.2578-2.7227 2.6328-3.3984 0.99219-0.48828 2.1211-0.40625 3.2227-0.40625-0.29688-0.16797-0.58984-0.33984-0.88672-0.50781 1.3555 1.8477 2.707 3.6953 4.0625 5.5469 0.47656 0.65234 1.293 0.65625 1.7695 0 1.3438-1.8477 2.6875-3.6953 4.0273-5.5469-0.29688 0.16797-0.58984 0.33984-0.88672 0.50781 1.2734 0 2.4336-0.035156 3.5664 0.58594 1.4727 0.80078 2.3398 2.3633 2.3594 4.0117 0.015625 1.3203 2.0664 1.3242 2.0508 0-0.027343-2.3945-1.2969-4.5859-3.3711-5.7891-0.98828-0.57422-2.1562-0.86719-3.293-0.86719-0.75391 0-1.6914-0.17969-2.1914 0.50781-1.332 1.8359-2.668 3.6719-4 5.5078-0.007812 0.011719-0.015624 0.023437-0.027343 0.035156h1.7695c-1.3398-1.832-2.6836-3.6641-4.0234-5.4922-0.50391-0.6875-1.2227-0.55859-1.9766-0.55859-1.0352 0-2.0195 0.16797-2.9688 0.58203-2.2109 0.96484-3.5977 3.0469-3.9062 5.3984-0.10938 0.84375-0.039062 1.7344-0.039062 2.5781v2.4805c0 0.55859 0.46484 1.0234 1.0234 1.0234h13.98 8c0.55859 0 1.0234-0.46484 1.0234-1.0234v-4.3867c0-1.3164-2.0508-1.3164-2.0508 0.003906z"/>
  <path d="m17.098 48.965c2.0547-9.4766 8.1289-17.703 16.574-22.465 0.21094-0.11719 0.42578-0.23438 0.63672-0.35156 1.1641-0.625 0.12891-2.3945-1.0352-1.7695-8.7109 4.6758-15.227 12.891-17.773 22.441-0.14062 0.52734-0.26562 1.0625-0.38281 1.5977-0.27344 1.2891 1.7031 1.8398 1.9805 0.54688z"/>
  <path d="m66.305 85.785c-9.957 5.3867-22.23 5.3945-32.195 0.019532-0.24219-0.12891-0.48047-0.26563-0.71875-0.40234-1.1523-0.65625-2.1836 1.1172-1.0352 1.7695 4.9688 2.8359 10.543 4.4336 16.254 4.7031 5.7812 0.27344 11.566-0.92188 16.809-3.3516 0.65234-0.30078 1.293-0.62891 1.9258-0.96875 1.1602-0.625 0.125-2.3984-1.0391-1.7695z"/>
  <path d="m65.215 25.707c8.6367 4.332 15.125 12.199 17.652 21.531 0.10547 0.38281 0.19922 0.76953 0.28906 1.1562 0.30078 1.2891 2.2773 0.74219 1.9766-0.54688-2.2539-9.625-8.5352-18.012-17.09-22.949-0.58984-0.33984-1.1875-0.65625-1.793-0.96094-0.5-0.25-1.1055-0.13672-1.4023 0.36719-0.26953 0.46094-0.13281 1.1523 0.36719 1.4023z"/>
  <path d="m65.621 49.613c-0.035156-2.4922-1.6172-4.6172-3.9648-5.418-0.83594-0.28516-1.7109-0.26562-2.5781-0.26562h-7.7188-8.7578-2.0625c-1.9375 0-3.6289 0.91016-4.7656 2.457-0.83984 1.1406-1.0078 2.5078-1.0078 3.8789v3.7891 7.375c0 2.5469 1.6719 4.7578 4.0898 5.5078 0.83594 0.25781 1.7109 0.22656 2.5742 0.22656h2.1094l-1.0234-1.0234v6.3555c0 0.92969 1.1016 1.3086 1.75 0.72656 2.3555-2.1172 4.707-4.2383 7.0625-6.3555-0.24219 0.10156-0.48438 0.19922-0.72656 0.30078h7.2578c1 0 2.043 0.074219 3.0312-0.085938 2.3438-0.375 4.2773-2.3047 4.6523-4.6523 0.12891-0.8125 0.085937-1.6484 0.085937-2.4688v-4.0703c-0.007812-2.0977-0.007812-4.1875-0.007812-6.2773 0-1.3242-2.0508-1.3242-2.0508 0v6.7539 4.0898c0 1.0391 0.015626 1.9648-0.51953 2.8906-0.73828 1.2734-2.0664 1.7617-3.4766 1.7617h-3.8242-4.293-0.85547c-0.46875 0-0.77344 0.33984-1.0898 0.625-2.2344 2.0117-4.4648 4.0195-6.6992 6.0312 0.58203 0.24219 1.168 0.48438 1.75 0.72656v-6.3555c0-0.55859-0.46484-1.0234-1.0234-1.0234-1.1172 0-2.2422 0.039063-3.3594-0.007812-1.875-0.082031-3.3594-1.793-3.3594-3.6328v-6.9453-4.0078c0-1.0977 0.03125-2.0391 0.65625-2.9922 0.70703-1.082 1.9531-1.5469 3.2031-1.5469h2.3945 16.289c0.56641 0 1.0859 0 1.6328 0.15234 1.543 0.43359 2.5625 1.9141 2.5859 3.4805 0.007813 1.3203 2.0586 1.3242 2.0391 0z"/>
  <path d="m50.578 55.793c-0.023437 0.50391-0.75 0.50391-0.77344 0-0.023438-0.50781 0.75-0.50391 0.77344 0 0.0625 1.3164 2.1133 1.3242 2.0508 0-0.066406-1.3711-1.0664-2.3711-2.4375-2.4375-1.3672-0.066407-2.3789 1.1641-2.4375 2.4375-0.066406 1.3672 1.1641 2.3789 2.4375 2.4375 1.3672 0.066406 2.3789-1.1641 2.4375-2.4375 0.0625-1.3242-1.9883-1.3164-2.0508 0z"/>
  <path d="m43.52 55.793c-0.023437 0.50391-0.75 0.50391-0.77344 0-0.027344-0.50781 0.75-0.50391 0.77344 0 0.0625 1.3164 2.1133 1.3242 2.0508 0-0.066406-1.3711-1.0664-2.3711-2.4375-2.4375-1.3672-0.066407-2.3789 1.1641-2.4375 2.4375-0.066406 1.3672 1.1641 2.3789 2.4375 2.4375 1.3672 0.066406 2.3789-1.1641 2.4375-2.4375 0.0625-1.3242-1.9883-1.3164-2.0508 0z"/>
  <path d="m57.641 55.793c-0.023437 0.50391-0.75 0.50391-0.77344 0-0.023438-0.50781 0.75-0.50391 0.77344 0 0.0625 1.3164 2.1133 1.3242 2.0508 0-0.066406-1.3711-1.0664-2.3711-2.4375-2.4375-1.3672-0.066407-2.3789 1.1641-2.4375 2.4375-0.066406 1.3672 1.1641 2.3789 2.4375 2.4375 1.3672 0.066406 2.3789-1.1641 2.4375-2.4375 0.0625-1.3242-1.9883-1.3164-2.0508 0z"/>
 </g>
</svg>
