<?xml version="1.0" encoding="UTF-8"?>
<svg fill="#003F72" width="100pt" height="100pt" version="1.1" viewBox="0 0 100 100" xmlns="http://www.w3.org/2000/svg">
 <g fill-rule="evenodd">
  <path d="m4.043 94h88c2.2109 0 4-1.7891 4-4v-12c0-2.2109-1.7891-4-4-4h-88c-2.207 0-4 1.7891-4 4v12c0 2.2109 1.793 4 4 4zm4-12h80v4h-80z"/>
  <path d="m8.043 82h80c2.2109 0 4-1.7891 4-4v-44c0-2.2109-1.7891-4-4-4h-80c-2.207 0-4 1.7891-4 4v44c0 2.2109 1.793 4 4 4zm4-44h72v36h-72z"/>
  <path d="m16.043 38h16c2.2109 0 4-1.7891 4-4v-12c0-2.2109-1.7891-4-4-4h-16c-2.207 0-4 1.7891-4 4v12c0 2.2109 1.793 4 4 4zm4-8v-4h8v4z"/>
  <path d="m64.043 38h16c2.2109 0 4-1.7891 4-4v-12c0-2.2109-1.7891-4-4-4h-16c-2.207 0-4 1.7891-4 4v12c0 2.2109 1.793 4 4 4zm4-8v-4h8v4z"/>
  <path d="m20.043 58h16c2.2109 0 4-1.7891 4-4s-1.7891-4-4-4h-16c-2.207 0-4 1.7891-4 4s1.793 4 4 4z"/>
  <path d="m60.043 58h16c2.2109 0 4-1.7891 4-4s-1.7891-4-4-4h-16c-2.207 0-4 1.7891-4 4s1.793 4 4 4z"/>
  <path d="m64.043 46v16c0 2.2109 1.793 4 4 4 2.2109 0 4-1.7891 4-4v-16c0-2.2109-1.7891-4-4-4-2.207 0-4 1.7891-4 4z"/>
  <path d="m28.043 34c0 2.2109 1.793 4 4 4h32c2.2109 0 4-1.7891 4-4v-8c2.2109 0 4-1.7891 4-4v-12c0-2.2109-1.7891-4-4-4h-40c-2.207 0-4 1.7891-4 4v12c0 2.2109 1.793 4 4 4zm32-12v8h-24v-8c0-2.2109-1.7891-4-4-4v-4h32v4c-2.207 0-4 1.7891-4 4z"/>
 </g>
</svg>
