<?xml version="1.0" encoding="UTF-8"?>
<svg fill="#0083BE" width="100pt" height="100pt" version="1.1" viewBox="0 0 100 100" xmlns="http://www.w3.org/2000/svg">
 <g>
  <path d="m31.336 21.219c0 0.23438-0.011719 0.46484-0.027344 0.69922-0.007813 0.11719-0.019532 0.23828-0.03125 0.35547-0.042969 0.42187 0.058594-0.39453 0 0.027343-0.078125 0.53906-0.20312 1.0703-0.34766 1.5938-0.14063 0.5-0.3125 0.99219-0.50781 1.4766-0.16406 0.41406 0.14844-0.33203-0.035156 0.078125-0.054688 0.12109-0.10938 0.24219-0.16406 0.35938-0.13281 0.28125-0.27344 0.55469-0.42188 0.82422-0.25391 0.46094-0.53516 0.90625-0.83984 1.3359-0.074219 0.10547-0.15234 0.21094-0.23047 0.31641 0.25781-0.34375-0.003907 0.003906-0.050781 0.0625-0.1875 0.23047-0.38672 0.45312-0.58984 0.66797-0.17188 0.18359-0.35156 0.35547-0.53516 0.52344-0.09375 0.085938-0.6875 0.56641-0.3125 0.28125-0.40625 0.3125-0.84766 0.57813-1.3086 0.80469-0.085938 0.042969-0.45703 0.19531-0.011719 0.011719-0.10547 0.042969-0.21484 0.082031-0.32031 0.11719-0.21484 0.074219-0.43359 0.12891-0.65625 0.17969-0.10937 0.023437-0.22266 0.042968-0.33203 0.058594 0.5-0.078126 0.10938-0.019532 0.003907-0.011719-0.26563 0.019531-0.53125 0.011719-0.79688-0.007813-0.40234-0.03125 0.40234 0.066406 0.003907 0.003906-0.11328-0.019531-0.22266-0.042968-0.33203-0.066406-0.22266-0.050781-0.4375-0.11719-0.65234-0.19141-0.089844-0.03125-0.45703-0.1875-0.015625 0.003906-0.10547-0.046875-0.21094-0.097656-0.3125-0.14844-0.24609-0.12109-0.48047-0.26172-0.71094-0.41016-0.10547-0.066406-0.70703-0.51953-0.33594-0.22656-0.19531-0.15234-0.37891-0.31641-0.55859-0.48438-0.40234-0.37109-0.77344-0.78125-1.1172-1.2109-0.27734-0.33984 0.21484 0.28906-0.046874-0.066407-0.078126-0.10547-0.15234-0.21094-0.22656-0.31641-0.15234-0.21484-0.29297-0.4375-0.42969-0.66016-0.30078-0.48828-0.57031-0.99609-0.8125-1.5156-0.054688-0.12109-0.10938-0.24219-0.16406-0.36328 0.17578 0.39844 0-0.007812-0.027344-0.078124-0.097656-0.24219-0.18359-0.48828-0.26562-0.73828-0.17578-0.52344-0.31641-1.0586-0.42969-1.6016-0.050781-0.24219-0.089844-0.48438-0.125-0.73047 0.070312 0.48438 0.015625 0.070313 0.003906-0.023437-0.011719-0.11719-0.019531-0.23828-0.027344-0.35547-0.039062-0.55469-0.015625-1.1094 0.046875-1.6602-0.050781 0.45313 0.003906 0.007813 0.019532-0.070312 0.023437-0.12891 0.050781-0.25781 0.082031-0.38672 0.058593-0.25391 0.13281-0.50781 0.21094-0.75391 0.039063-0.125 0.085938-0.24609 0.12891-0.36719 0.15234-0.41406-0.15234 0.33203 0.023438-0.070313 0.12109-0.27344 0.26172-0.53906 0.41016-0.80078 0.125-0.22266 0.26562-0.4375 0.41406-0.64453 0.042969-0.0625 0.30859-0.40625 0.039062-0.0625 0.078125-0.10156 0.16016-0.19531 0.24219-0.29297 0.35938-0.41797 0.76172-0.79688 1.1914-1.1406-0.33984 0.27344 0 0.007812 0.0625-0.039063 0.10547-0.074218 0.21094-0.14453 0.31641-0.21484 0.21484-0.14062 0.4375-0.26562 0.66406-0.38281 0.11328-0.058594 0.23047-0.11719 0.34375-0.17188 0.070312-0.035156 0.47656-0.19922 0.066406-0.03125 0.28125-0.11328 0.57031-0.20703 0.86328-0.28906 0.25391-0.074218 0.51172-0.12891 0.76953-0.17969 0.078126-0.015625 0.52734-0.078125 0.070313-0.019531 0.13281-0.015625 0.26562-0.027344 0.40234-0.039063 0.58594-0.050781 1.1758-0.027343 1.7617 0.039063-0.45313-0.050782-0.007813 0.003906 0.070312 0.019531 0.12891 0.023437 0.25781 0.050781 0.38672 0.082031 0.25391 0.058594 0.50781 0.13281 0.75391 0.21094 0.125 0.039062 0.24609 0.085937 0.36719 0.12891 0.41406 0.15234-0.33203-0.15234 0.070313 0.023438 0.27344 0.12109 0.53906 0.26172 0.80078 0.41016 0.22266 0.125 0.4375 0.26562 0.64453 0.41406 0.0625 0.042969 0.40625 0.30859 0.0625 0.039063 0.10156 0.078125 0.19531 0.16016 0.29297 0.24219 0.41797 0.35938 0.79688 0.76172 1.1406 1.1914-0.28516-0.35547 0.125 0.1875 0.17969 0.27344 0.11719 0.17578 0.22656 0.35938 0.33203 0.54688s0.19922 0.37891 0.29297 0.57031c0.035156 0.070312 0.19922 0.47656 0.03125 0.066406 0.046875 0.12109 0.09375 0.24219 0.13672 0.36328 0.14453 0.41016 0.25 0.83594 0.33594 1.2656 0.015625 0.085938 0.03125 0.17578 0.042969 0.26172-0.074219-0.45312-0.003906-0.003907 0.003906 0.078125 0.015625 0.27344 0.023438 0.54297 0.023438 0.81641 0.007812 0.92969 0.77344 1.7109 1.7109 1.7109 0.92578 0 1.7148-0.77734 1.7109-1.7109-0.039062-4.9531-3.6289-9.4297-8.5586-10.305-2.5117-0.44531-5.0938-0.007812-7.2969 1.2891-2.1328 1.2578-3.6797 3.2578-4.5352 5.5625-1.6602 4.4648 0.30859 9.7266 3.2383 13.191 1.3828 1.6367 3.3633 3.0469 5.5273 3.3477 2.4766 0.34375 4.668-0.53516 6.5586-2.1094 1.5547-1.293 2.7578-3.0781 3.5977-4.9062 0.875-1.9062 1.4531-3.9648 1.4688-6.0742 0.007813-0.92969-0.78125-1.7109-1.7109-1.7109-0.9375 0.003906-1.7031 0.78516-1.7109 1.7148z"/>
  <path d="m40.156 45.816v7.0195c0.57031-0.57031 1.1406-1.1406 1.7109-1.7109h-10.871-18.395-5.9258c0.57031 0.57031 1.1406 1.1406 1.7109 1.7109v-6.9102c0-0.21875 0.003906-0.4375 0.015625-0.65234 0.007812-0.13281 0.019531-0.26953 0.03125-0.40234 0.042968-0.45312-0.058594 0.375 0.011718-0.074219 0.046876-0.30469 0.11719-0.60156 0.19531-0.89844 0.066406-0.25 0.14844-0.5 0.23828-0.74219 0.027344-0.074219 0.19531-0.48047 0.019532-0.070312 0.050781-0.11719 0.10547-0.23438 0.16016-0.35156 0.23828-0.5 0.53516-0.96875 0.85938-1.418-0.25781 0.35156-0.003907 0.007813 0.046875-0.054687 0.082031-0.097657 0.16406-0.19141 0.25-0.28906 0.16797-0.1875 0.35156-0.36719 0.53516-0.54297 0.18359-0.17578 0.37891-0.33594 0.57812-0.49609-0.34375 0.27344 0 0.007812 0.0625-0.035156 0.13672-0.097657 0.28125-0.19141 0.42578-0.28125 0.21484-0.13672 0.44141-0.25781 0.66797-0.375 0.11328-0.058594 0.23047-0.11328 0.34766-0.16797 0.39844-0.18359-0.34375 0.13281 0.066407-0.027344 0.52734-0.20703 1.0781-0.35156 1.6328-0.45703 0.085938-0.015625 0.17578-0.03125 0.26172-0.042969-0.45312 0.070313-0.003907 0.003906 0.078125-0.003906 0.26953-0.027344 0.54297-0.035157 0.8125-0.035157h0.54688 1.5586c-0.40234-0.16797-0.80469-0.33203-1.207-0.5 2.168 2.6328 4.3359 5.2656 6.5039 7.9023 0.55078 0.66797 1.8672 0.67578 2.418 0 2.1484-2.6328 4.3008-5.2656 6.4492-7.9023-0.40234 0.16797-0.80469 0.33203-1.207 0.5 0.74609 0 1.4961-0.003906 2.2422 0 0.17969 0 0.36328 0.011719 0.54297 0.023438 0.089844 0.007812 0.68359 0.082031 0.21094 0.011719 0.39062 0.054687 0.77734 0.14453 1.1562 0.25 0.16797 0.046875 0.33203 0.10156 0.49609 0.16016 0.082031 0.027344 0.61719 0.24609 0.19141 0.0625 0.35547 0.15234 0.69531 0.33203 1.0234 0.52734 0.14844 0.085937 0.28906 0.17969 0.42969 0.27344 0.070313 0.046875 0.52734 0.38672 0.16797 0.10938 0.30078 0.23438 0.58203 0.49219 0.85156 0.76172 0.23828 0.23828 0.46094 0.49609 0.67188 0.76172-0.28516-0.35547 0.058593 0.097656 0.10938 0.16797 0.12109 0.17578 0.23047 0.35547 0.33984 0.53906 0.17187 0.29297 0.32422 0.60156 0.46094 0.91406-0.1875-0.42187 0.035156 0.10938 0.0625 0.19141 0.074219 0.20312 0.13672 0.41406 0.19531 0.62109 0.09375 0.33984 0.16406 0.68359 0.21484 1.0312-0.074219-0.47266 0.007813 0.11719 0.011719 0.21094 0.023438 0.23828 0.027344 0.46484 0.03125 0.69141 0.007812 0.92969 0.77344 1.7109 1.7109 1.7109 0.92578 0 1.7148-0.77734 1.7109-1.7109-0.035156-4.957-3.5312-9.4062-8.4023-10.469-0.91797-0.19922-1.8477-0.25391-2.7812-0.25391-0.75781 0-1.8281-0.16406-2.5039 0.23438-0.32422 0.19141-0.51953 0.48047-0.75 0.76562-0.36328 0.44531-0.72266 0.88672-1.0859 1.332-1.6523 2.0234-3.3047 4.0469-4.957 6.0703h2.418c-1.5078-1.8281-3.0117-3.6602-4.5195-5.4883-0.64453-0.78516-1.293-1.5703-1.9375-2.3555-0.52344-0.63672-1.3438-0.55859-2.0742-0.55859-0.69922 0-1.4062-0.019531-2.1016 0.035156-2.4961 0.20312-4.8125 1.25-6.6328 2.9727-1.8125 1.7148-2.8828 4.0508-3.1953 6.5039-0.14453 1.1445-0.082032 2.3281-0.082032 3.4805v4.2852 0.46875c0 0.92969 0.77734 1.7109 1.7109 1.7109h10.871 18.395 5.9258c0.92969 0 1.7109-0.77734 1.7109-1.7109v-7.0195c0-0.92969-0.77734-1.7109-1.7109-1.7109-0.94141 0-1.7188 0.77734-1.7188 1.707z"/>
  <path d="m83.68 56.98c0 0.23438-0.011719 0.46484-0.027344 0.69922-0.007813 0.11719-0.019532 0.23828-0.03125 0.35547-0.042969 0.42188 0.058594-0.39453 0 0.027344-0.078125 0.53906-0.20312 1.0703-0.34766 1.5938-0.14063 0.5-0.3125 0.99219-0.50781 1.4766-0.16406 0.41406 0.14844-0.33203-0.035156 0.078126-0.054688 0.12109-0.10938 0.24219-0.16406 0.35937-0.13281 0.28125-0.27344 0.55469-0.42188 0.82422-0.25391 0.46094-0.53516 0.90625-0.83984 1.3359-0.074219 0.10547-0.15234 0.21094-0.23047 0.31641 0.25781-0.34375-0.003907 0.003906-0.050781 0.0625-0.1875 0.23047-0.38672 0.45312-0.58984 0.66797-0.17188 0.18359-0.35156 0.35547-0.53516 0.52344-0.09375 0.085938-0.6875 0.56641-0.3125 0.28125-0.40625 0.3125-0.84766 0.57812-1.3086 0.80469-0.085938 0.042969-0.45703 0.19531-0.011719 0.011719-0.10547 0.042968-0.21484 0.082031-0.32031 0.11719-0.21484 0.074219-0.43359 0.12891-0.65625 0.17969-0.10937 0.023438-0.22266 0.042969-0.33203 0.058594 0.5-0.078125 0.10938-0.019531 0.003907-0.011718-0.26563 0.019531-0.53125 0.011718-0.79688-0.007813-0.40234-0.03125 0.40234 0.066406 0.003907 0.003906-0.11328-0.019531-0.22266-0.042969-0.33203-0.066406-0.22266-0.050781-0.4375-0.11719-0.65234-0.19141-0.089844-0.03125-0.45703-0.1875-0.015625 0.003906-0.10547-0.046875-0.21094-0.097656-0.3125-0.14844-0.24609-0.12109-0.48047-0.26172-0.71094-0.41016-0.10547-0.066406-0.70703-0.51953-0.33594-0.22656-0.19531-0.15234-0.37891-0.31641-0.55859-0.48438-0.40625-0.37109-0.77344-0.78125-1.1172-1.2109-0.27734-0.33984 0.21484 0.28906-0.046874-0.066406-0.078126-0.10547-0.15234-0.21094-0.22656-0.31641-0.15234-0.21484-0.29297-0.4375-0.42969-0.66016-0.30078-0.48828-0.57031-0.99609-0.8125-1.5156-0.054688-0.12109-0.10938-0.24219-0.16406-0.36328 0.17578 0.39844 0-0.007812-0.027344-0.078125-0.097656-0.24219-0.18359-0.48828-0.26562-0.73828-0.17578-0.52344-0.31641-1.0586-0.42969-1.6016-0.050781-0.24219-0.089844-0.48437-0.125-0.73047 0.070312 0.48438 0.015625 0.070312 0.003906-0.023438-0.011719-0.11719-0.019531-0.23828-0.027344-0.35547-0.039062-0.55469-0.015625-1.1094 0.046875-1.6602-0.050781 0.45312 0.003906 0.007813 0.019532-0.070312 0.023437-0.12891 0.050781-0.25781 0.082031-0.38672 0.058593-0.25391 0.13281-0.50781 0.21094-0.75391 0.039063-0.125 0.085938-0.24609 0.12891-0.36719 0.15234-0.41406-0.15234 0.33203 0.027344-0.070312 0.12109-0.27344 0.26172-0.53906 0.41016-0.80078 0.125-0.22266 0.26563-0.4375 0.41406-0.64453 0.042969-0.0625 0.30859-0.40625 0.039063-0.0625 0.078124-0.10156 0.16016-0.19531 0.24219-0.29297 0.35938-0.41797 0.76172-0.79687 1.1914-1.1406-0.33984 0.27344 0 0.007812 0.0625-0.039063 0.10547-0.074219 0.21094-0.14453 0.31641-0.21484 0.21484-0.14062 0.4375-0.26562 0.66406-0.38281 0.11328-0.058594 0.23047-0.11719 0.34375-0.17188 0.070312-0.035156 0.47656-0.19922 0.066406-0.03125 0.28125-0.11328 0.57031-0.20703 0.86328-0.29297 0.25391-0.074219 0.51172-0.12891 0.76953-0.17969 0.078125-0.015626 0.52734-0.078126 0.070312-0.019532 0.13281-0.015625 0.26562-0.027344 0.40234-0.039062 0.58594-0.050782 1.1758-0.027344 1.7617 0.039062-0.45312-0.050781-0.007813 0.003906 0.070312 0.019532 0.12891 0.023437 0.25781 0.050781 0.38672 0.082031 0.25391 0.058593 0.50781 0.13281 0.75391 0.21094 0.125 0.039063 0.24609 0.085938 0.36719 0.12891 0.41406 0.15234-0.33203-0.15234 0.070312 0.027344 0.27344 0.12109 0.53906 0.26172 0.80078 0.41016 0.22266 0.125 0.4375 0.26563 0.64453 0.41406 0.0625 0.042969 0.40625 0.30859 0.0625 0.039063 0.10156 0.078124 0.19531 0.16016 0.29297 0.24219 0.41797 0.35938 0.79688 0.76172 1.1406 1.1914-0.28516-0.35547 0.125 0.1875 0.17969 0.27344 0.11719 0.17578 0.22656 0.35938 0.33203 0.54688 0.10547 0.1875 0.19922 0.37891 0.29297 0.57031 0.035156 0.070313 0.19922 0.47656 0.03125 0.066406 0.046875 0.12109 0.09375 0.24219 0.13672 0.36328 0.14453 0.41016 0.25 0.83594 0.33594 1.2656 0.015625 0.085937 0.03125 0.17578 0.042969 0.26172-0.074219-0.45313-0.003906-0.003907 0.003906 0.078124 0.011719 0.27344 0.019532 0.54297 0.019532 0.81641 0.007812 0.92969 0.77344 1.7109 1.7109 1.7109 0.92578 0 1.7148-0.77734 1.7109-1.7109-0.039062-4.9531-3.6289-9.4297-8.5586-10.305-2.5117-0.44531-5.0938-0.007812-7.2969 1.2891-2.1328 1.2578-3.6797 3.2578-4.5352 5.5625-1.6602 4.4648 0.30859 9.7266 3.2383 13.191 1.3828 1.6367 3.3633 3.0469 5.5273 3.3477 2.4766 0.34375 4.668-0.53516 6.5586-2.1094 1.5547-1.293 2.7578-3.0781 3.5977-4.9062 0.875-1.9062 1.4531-3.9648 1.4688-6.0742 0.007813-0.92969-0.78125-1.7109-1.7109-1.7109-0.9375 0.003906-1.7031 0.78125-1.7109 1.7148z"/>
  <path d="m92.5 81.578v7.0195c0.57031-0.57031 1.1406-1.1406 1.7109-1.7109h-10.871-18.395-5.9258c0.57031 0.57031 1.1406 1.1406 1.7109 1.7109v-6.9102c0-0.21875 0.003906-0.4375 0.015625-0.65234 0.007812-0.13281 0.019531-0.26953 0.03125-0.40234 0.042968-0.45312-0.058594 0.375 0.011718-0.074218 0.046876-0.30469 0.11719-0.60156 0.19531-0.89844 0.066406-0.25 0.14844-0.5 0.23828-0.74219 0.027344-0.074219 0.19531-0.48047 0.019532-0.070313 0.050781-0.11719 0.10547-0.23438 0.16016-0.35156 0.23828-0.5 0.53516-0.96875 0.85938-1.418-0.25781 0.35156-0.003907 0.007813 0.046875-0.054687 0.082031-0.097657 0.16406-0.19141 0.25-0.28906 0.16797-0.1875 0.35156-0.36719 0.53516-0.54297 0.18359-0.17578 0.37891-0.33594 0.57812-0.49609-0.34375 0.27344 0 0.007813 0.0625-0.035156 0.14062-0.097656 0.28125-0.19141 0.42578-0.28125 0.21484-0.13672 0.44141-0.25781 0.66797-0.375 0.11328-0.058594 0.23047-0.11328 0.34766-0.16797 0.39844-0.18359-0.34375 0.13281 0.066407-0.027344 0.52734-0.20703 1.0781-0.35156 1.6328-0.45703 0.085938-0.015624 0.17578-0.03125 0.26172-0.042968-0.45312 0.070312-0.003907 0.003906 0.078125-0.003906 0.26953-0.027344 0.54297-0.035157 0.8125-0.035157h0.54688 1.5586c-0.40234-0.16797-0.80469-0.33203-1.207-0.5 2.168 2.6328 4.3359 5.2656 6.5039 7.9023 0.55078 0.66797 1.8672 0.67578 2.418 0 2.1484-2.6328 4.3008-5.2656 6.4492-7.9023-0.40234 0.16797-0.80469 0.33203-1.207 0.5 0.74609 0 1.4961-0.003906 2.2422 0 0.17969 0 0.36328 0.011719 0.54297 0.023438 0.089844 0.007812 0.68359 0.082031 0.21094 0.011719 0.39062 0.054687 0.77734 0.14453 1.1562 0.25 0.16797 0.046874 0.33203 0.10156 0.49609 0.16016 0.082031 0.027344 0.61719 0.24609 0.19141 0.0625 0.35547 0.15234 0.69531 0.33203 1.0234 0.52734 0.14844 0.085937 0.28906 0.17969 0.42969 0.27344 0.070313 0.046875 0.52734 0.38672 0.16797 0.10938 0.30078 0.23438 0.58203 0.49219 0.85156 0.76172 0.23828 0.23828 0.46094 0.49609 0.67188 0.76172-0.28516-0.35547 0.058593 0.097656 0.10938 0.16797 0.12109 0.17578 0.23047 0.35547 0.33984 0.53906 0.17187 0.29297 0.32422 0.60156 0.46094 0.91406-0.1875-0.42188 0.035156 0.10938 0.0625 0.19141 0.074219 0.20312 0.13672 0.41406 0.19531 0.62109 0.09375 0.33984 0.16406 0.68359 0.21484 1.0312-0.074219-0.47266 0.003907 0.12109 0.011719 0.21094 0.023438 0.23828 0.027344 0.46484 0.03125 0.69141 0.007812 0.92969 0.77344 1.7109 1.7109 1.7109 0.92578 0 1.7148-0.77734 1.7109-1.7109-0.035156-4.957-3.5312-9.4062-8.4023-10.469-0.91797-0.19922-1.8477-0.25391-2.7812-0.25391-0.75781 0-1.8281-0.16406-2.5039 0.23438-0.32422 0.19141-0.51953 0.48047-0.75 0.76562-0.36328 0.44531-0.72266 0.88672-1.0859 1.332-1.6523 2.0234-3.3047 4.0469-4.957 6.0742h2.418c-1.5078-1.8281-3.0117-3.6602-4.5195-5.4883-0.64453-0.78516-1.293-1.5703-1.9375-2.3555-0.52344-0.63672-1.3438-0.55859-2.0742-0.55859-0.69922 0-1.4062-0.019531-2.1016 0.035156-2.4961 0.20312-4.8125 1.25-6.6328 2.9727-1.8125 1.7148-2.8828 4.0508-3.1953 6.5039-0.14453 1.1445-0.082032 2.3281-0.082032 3.4805v4.2852 0.46875c0 0.92969 0.77734 1.7109 1.7109 1.7109h10.871 18.395 5.9258c0.92969 0 1.7109-0.77734 1.7109-1.7109v-7.0195c0-0.92969-0.77734-1.7109-1.7109-1.7109-0.94141-0.003906-1.7188 0.77344-1.7188 1.7031z"/>
  <path d="m44.559 22.25h11.531 17.539 3.0469c-0.57031-0.57031-1.1406-1.1406-1.7109-1.7109v14.367 5.5c0 0.92969 0.77734 1.7109 1.7109 1.7109 0.92969 0 1.7109-0.77734 1.7109-1.7109v-14.367-5.5c0-0.92969-0.77734-1.7109-1.7109-1.7109h-11.531-17.539-3.0469c-0.92969 0-1.7109 0.77734-1.7109 1.7109 0 0.93359 0.77734 1.7109 1.7109 1.7109z"/>
  <path d="m22.902 60.582v14.191 6.6523c0 0.92969 0.77734 1.7109 1.7109 1.7109h12.934 13.316 0.007813c0.92969 0 1.7109-0.77734 1.7109-1.7109 0-0.92969-0.77734-1.7109-1.7109-1.7109h-12.934-13.316-0.007813c0.57031 0.57031 1.1406 1.1406 1.7109 1.7109v-14.191-6.6523c0-0.92969-0.77734-1.7109-1.7109-1.7109-0.93359 0-1.7109 0.77734-1.7109 1.7109z"/>
  <path d="m44.586 77.441c1.6914 1.7109 3.3828 3.4219 5.0742 5.1328v-2.418c-1.6914 1.6719-3.3828 3.3398-5.0742 5.0117-0.66406 0.65625-0.65625 1.7617 0 2.418 0.66016 0.66016 1.7539 0.65625 2.418 0 1.6914-1.6719 3.3828-3.3398 5.0742-5.0117 0.66406-0.65625 0.65234-1.7578 0-2.418-1.6914-1.7109-3.3828-3.4219-5.0742-5.1328-0.65625-0.66406-1.7617-0.65625-2.418 0-0.66016 0.66016-0.65625 1.7539 0 2.418z"/>
  <path d="m48.422 14.145c-1.6914 1.7109-3.3828 3.4219-5.0742 5.1328-0.65234 0.66016-0.66406 1.7578 0 2.418 1.6914 1.6719 3.3828 3.3398 5.0742 5.0117 0.66406 0.65625 1.7539 0.66016 2.418 0 0.65625-0.65625 0.66406-1.7617 0-2.418-1.6914-1.6719-3.3828-3.3398-5.0742-5.0117v2.418c1.6914-1.7109 3.3828-3.4219 5.0742-5.1328 0.65625-0.66406 0.66016-1.7539 0-2.418-0.65625-0.65625-1.7656-0.66406-2.418 0z"/>
 </g>
</svg>
