<?xml version="1.0" encoding="UTF-8"?>
<svg width="100pt" height="100pt" version="1.1" viewBox="0 0 100 100" xmlns="http://www.w3.org/2000/svg">
 <path d="m95.816 0c-1.0703 0-2.1367 0.40625-2.9531 1.2227l-29.844 29.867v-19.676c0-2.3047-1.8672-4.1758-4.1797-4.1758-2.3086 0-4.1797 1.8711-4.1797 4.1758v29.727c-0.011718 1.082 0.39844 2.168 1.2227 2.9961 0.19141 0.19141 0.39453 0.35547 0.60938 0.5 0.003906 0 0.003906 0.003906 0.007812 0.003906 0.042969 0.027344 0.085938 0.054687 0.12891 0.082031 0.015625 0.011719 0.035156 0.023438 0.050782 0.03125 0.039062 0.023438 0.078124 0.042969 0.11328 0.066406 0.019531 0.011719 0.042969 0.023438 0.0625 0.035157 0.035156 0.019531 0.070312 0.039062 0.10938 0.054687 0.027344 0.011719 0.050781 0.027344 0.078125 0.039063 0.027343 0.011719 0.058593 0.027343 0.085937 0.039062 0.039063 0.015625 0.074219 0.03125 0.11328 0.046875 0.019531 0.007813 0.035156 0.015625 0.054687 0.019532 0.046875 0.019531 0.097656 0.039062 0.14453 0.054687 0.011719 0.003906 0.023438 0.007813 0.035156 0.011719 0.050782 0.019531 0.10547 0.035156 0.15625 0.050781 0.011719 0.003906 0.023438 0.007813 0.035157 0.011719 0.054687 0.015625 0.10938 0.03125 0.16406 0.042968 0.007813 0 0.015625 0.003907 0.019531 0.003907 0.058594 0.015625 0.11719 0.027343 0.17578 0.039062 0.011718 0 0.019531 0.003907 0.03125 0.003907 0.054687 0.011718 0.10938 0.019531 0.16406 0.027343 0.027344 0.003907 0.050782 0.007813 0.078125 0.007813 0.039063 0.003906 0.078125 0.011718 0.11719 0.015625 0.042969 0.003906 0.085937 0.007812 0.12891 0.007812 0.027344 0 0.050781 0.003907 0.078125 0.007813 0.070312 0.003906 0.13672 0.003906 0.20703 0.003906h29.766c2.3086 0 4.1797-1.8711 4.1797-4.1797 0-2.3047-1.8672-4.1797-4.1797-4.1797h-19.684l29.852-29.848c1.6328-1.6367 1.6328-4.2773 0-5.9102-0.81641-0.81641-1.8828-1.2266-2.9531-1.2266zm-91.629 0c-1.0703 0-2.1406 0.41016-2.957 1.2227-1.6328 1.6289-1.6328 4.2734 0 5.9062l29.84 29.871h-19.688c-2.3086 0-4.1797 1.8711-4.1797 4.1797 0 2.3047 1.8672 4.1797 4.1797 4.1797h29.766c0.55859 0 1.0859-0.10938 1.5742-0.30859 0.054688-0.023437 0.10938-0.046875 0.16406-0.070312 0.011719-0.003907 0.023437-0.011719 0.035156-0.015625 0.042969-0.019532 0.089844-0.042969 0.13281-0.066406 0.019531-0.007813 0.039062-0.019532 0.058593-0.027344 0.035157-0.019532 0.074219-0.039063 0.10938-0.0625 0.023438-0.015625 0.046875-0.027344 0.074219-0.042969 0.03125-0.019531 0.058594-0.035156 0.089844-0.054687 0.03125-0.019532 0.0625-0.039063 0.09375-0.058594 0.019531-0.011719 0.035156-0.023438 0.054687-0.039063 0.039063-0.027343 0.078125-0.054687 0.11328-0.082031 0.011718-0.007812 0.023437-0.015625 0.03125-0.023438 0.14844-0.11328 0.29297-0.23437 0.42578-0.37109 0.83203-0.82812 1.2383-1.918 1.2227-3.0039v-29.719c0-2.3047-1.8672-4.1758-4.1797-4.1758-2.3086 0-4.1758 1.8711-4.1758 4.1758v19.68l-29.832-29.867c-0.81641-0.81641-1.8867-1.2266-2.957-1.2266zm54.656 54.641c-1.0703 0-2.1367 0.40625-2.9531 1.2227-0.49609 0.49609-0.83984 1.0859-1.0352 1.7109 0 0.003906 0 0.007812-0.003907 0.011719-0.039062 0.12891-0.070312 0.25391-0.097656 0.38672 0 0.003906 0 0.011719-0.003906 0.015625-0.058594 0.28906-0.085938 0.58203-0.082031 0.87891v29.727c0 2.3047 1.8672 4.1797 4.1797 4.1797 2.3086 0 4.1797-1.8711 4.1797-4.1797v-19.676l29.844 29.867c0.81641 0.81641 1.8828 1.2266 2.9531 1.2266 1.0703 0 2.1406-0.41016 2.9531-1.2266 1.6328-1.6328 1.6328-4.2773 0-5.9102l-29.844-29.867h19.684c2.3086 0 4.1797-1.8711 4.1797-4.1797 0-2.3047-1.8672-4.1797-4.1797-4.1797h-29.68-0.085938zm-47.457 0c-2.3086 0-4.1797 1.8711-4.1797 4.1797 0 2.3047 1.8672 4.1797 4.1797 4.1797h19.691l-29.848 29.871c-1.6328 1.6328-1.6328 4.2773 0 5.9062 0.81641 0.8125 1.8828 1.2188 2.9531 1.2188 1.0703 0 2.1484-0.41016 2.9531-1.2266l29.832-29.863v19.672c0 2.3047 1.8672 4.1797 4.1797 4.1797 2.3086 0 4.1797-1.8711 4.1797-4.1797v-29.715c0.003906-0.23047-0.011719-0.46094-0.046875-0.6875-0.011719-0.066406-0.023438-0.13281-0.035156-0.19922 0-0.011718-0.003906-0.019531-0.007813-0.03125-0.011719-0.058593-0.023437-0.11719-0.039062-0.17187v-0.003907c0-0.003906-0.003907-0.011719-0.003907-0.015625-0.015624-0.054687-0.03125-0.11328-0.046874-0.16797-0.003907-0.015626-0.011719-0.03125-0.015626-0.046876-0.015624-0.050781-0.03125-0.097656-0.050781-0.14844-0.003906-0.011719-0.007812-0.023437-0.015625-0.039063-0.019531-0.050781-0.039062-0.10156-0.058594-0.15234-0.003906-0.015625-0.011718-0.027344-0.019531-0.042969-0.019531-0.046875-0.039062-0.089844-0.0625-0.13672-0.011719-0.019531-0.019531-0.042969-0.03125-0.0625-0.019531-0.039062-0.039062-0.078125-0.058593-0.11719-0.011719-0.023438-0.023438-0.042969-0.035157-0.066406-0.019531-0.035157-0.042969-0.074219-0.0625-0.10938-0.015625-0.023437-0.03125-0.046874-0.046875-0.074218-0.019531-0.03125-0.039062-0.0625-0.058594-0.09375-0.027343-0.039063-0.054687-0.078125-0.082031-0.11719-0.011719-0.015625-0.019531-0.027344-0.03125-0.042968-0.039062-0.054688-0.082031-0.10938-0.125-0.16016-0.76562-0.94141-1.9336-1.543-3.2422-1.543h-29.766z"/>
</svg>
