<?xml version="1.0" encoding="UTF-8"?>
<svg fill="#772432" width="100pt" height="100pt" version="1.1" viewBox="0 0 100 100" xmlns="http://www.w3.org/2000/svg">
 <g fill-rule="evenodd">
  <path d="m91.715 50c0 23.297-11.691 41.668-25 41.668-13.312 0-25-18.371-25-41.668s11.688-41.668 25-41.668c13.309 0 25 18.371 25 41.668zm8.332 0c0-27.328-14.43-50-33.332-50-18.906 0-33.336 22.672-33.336 50s14.43 50 33.336 50c18.902 0 33.332-22.672 33.332-50z"/>
  <path d="m41.715 50c0-23.297 11.688-41.668 25-41.668v-8.332h-33.336c-18.906 0-33.332 22.672-33.332 50s14.426 50 33.332 50h33.336v-8.332c-13.312 0-25-18.371-25-41.668zm-8.3359 41.668c-13.309 0-25-18.371-25-41.668s11.691-41.668 25-41.668h14.758c-9.0039 9.0078-14.758 24.41-14.758 41.668s5.7539 32.66 14.758 41.668z"/>
  <path d="m75.047 50c0 7.3047-1.2305 14.102-3.3242 18.984-1.7461 4.0703-3.7188 6.0156-5.0078 6.0156-1.293 0-3.2656-1.9453-5.0117-6.0156-2.0938-4.8828-3.3242-11.68-3.3242-18.984s1.2305-14.102 3.3242-18.984c1.7461-4.0703 3.7188-6.0156 5.0117-6.0156 1.2891 0 3.2617 1.9453 5.0078 6.0156 2.0938 4.8828 3.3242 11.68 3.3242 18.984zm8.332 0c0-18.176-6.4961-33.332-16.664-33.332-10.172 0-16.668 15.156-16.668 33.332s6.4961 33.332 16.668 33.332c10.168 0 16.664-15.156 16.664-33.332z"/>
  <path d="m19.66 9.5547c-1.6289-1.6289-4.2656-1.6289-5.8945 0-1.625 1.625-1.625 4.2656 0 5.8906l8.3359 8.3359c0.98438 0.98438 2.3945 1.4102 3.7617 1.1367l21.785-4.3555c2.2539-0.45312 3.7188-2.6484 3.2656-4.9062-0.44922-2.2539-2.6445-3.7188-4.9023-3.2656l-19.598 3.918z"/>
  <path d="m11.941 22.121c-1.5898-1.6641-4.2266-1.7227-5.8906-0.13281-1.6641 1.5898-1.7227 4.2266-0.13281 5.8906l11.949 12.5c1.0117 1.0547 2.4961 1.5039 3.9219 1.1875l18.652-4.168c2.2461-0.5 3.6602-2.7266 3.1602-4.9727-0.50391-2.2461-2.7305-3.6602-4.9766-3.1602l-16.359 3.6562z"/>
  <path d="m7.7773 38.789c-1.5938-1.6641-4.2305-1.7227-5.8945-0.13281-1.6602 1.5898-1.7227 4.2266-0.12891 5.8906l11.949 12.5c1.0469 1.0938 2.6055 1.5352 4.0703 1.1484l20.832-5.4688c2.2266-0.58594 3.5547-2.8633 2.9727-5.0898-0.58594-2.2266-2.8633-3.5547-5.0898-2.9727l-18.457 4.8477z"/>
  <path d="m17.84 91.871l24.816-5.7812c2.2422-0.52344 3.6367-2.7617 3.1133-5.0039-0.52344-2.2422-2.7617-3.6367-5.0039-3.1133l-24.816 5.7852c-2.2422 0.51953-3.6328 2.7617-3.1133 5.0039 0.52344 2.2383 2.7617 3.6328 5.0039 3.1094z"/>
  <path d="m8.3008 62.812c-2.1328-0.875-4.5625 0.14453-5.4375 2.2734-0.87109 2.1328 0.14844 4.5664 2.2773 5.4375l10.176 4.1641c0.83984 0.34375 1.7695 0.40625 2.6445 0.17188l20.652-5.4648c2.2227-0.58984 3.5508-2.8711 2.9609-5.0938-0.58984-2.2266-2.8711-3.5508-5.0938-2.9609l-19.301 5.1094z"/>
 </g>
</svg>
