<?xml version="1.0" encoding="UTF-8"?>
<svg fill="#003F72" width="100pt" height="100pt" version="1.1" viewBox="0 0 100 100" xmlns="http://www.w3.org/2000/svg">
 <g>
  <path d="m56 42v4c0 2.3984 1.6016 4 4 4h9.1992l1.6016 5.1992c0.39844 1.6016 2 2.8008 3.6016 2.8008h6.3984c1.6016 0 3.1992-1.1992 4-2.8008l4.8008-16v45.199l-4.8008-12c-0.80078-1.1992-2-2.3984-4-2.3984h-6.3984c-1.6016 0-2.8008 0.80078-3.6016 2l-3.1992 6h-43.203l-4.3984-8.8008v-27.199zm26 45.602c0.80078 1.6016 2 2.3984 3.6016 2.3984h6.3984c2.3984 0 4-1.6016 4-4v-48c0-2.3984-1.6016-4-4-4h-6.3984c-1.6016 0-3.1992 1.1992-4 2.8008l-3.6016 16-2.8008-8c0-1.6016-1.5977-2.8008-3.1992-2.8008h-8v-4c0-2.3984-1.6016-4-4-4h-44c-2 0-4 1.6016-4 4v32c0 0.39844 0 1.1992 0.39844 1.6016l5.6016 12c0.80078 1.5977 2 2.3984 3.6016 2.3984h48.398c1.6016 0 2.8008-0.80078 3.6016-2l3.6016-6h1.1992"/>
  <path d="m4 62h12c2.3984 0 4-1.6016 4-4s-1.6016-4-4-4h-12c-2.3984 0-4 1.6016-4 4s2 4 4 4z"/>
  <path d="m0 50v16c0 2.3984 1.6016 4 4 4s4-1.6016 4-4v-16c0-2.3984-1.6016-4-4-4s-4 1.6016-4 4z"/>
  <path d="m32 42h16c2.3984 0 4-1.6016 4-4v-12c0-2.3984-1.6016-4-4-4h-16c-2 0-4 1.6016-4 4v12c0 2.3984 2 4 4 4zm4-8v-4h8v4z"/>
  <path d="m24 30h32c2.3984 0 4-1.6016 4-4v-12c0-2.3984-1.6016-4-4-4h-32c-2 0-4 1.6016-4 4v12c0 2.3984 2 4 4 4zm4-12h24v4h-24z"/>
 </g>
</svg>
