<?xml version="1.0" encoding="UTF-8"?>
<svg fill="#003F72" width="100pt" height="100pt" version="1.1" viewBox="0 0 100 100" xmlns="http://www.w3.org/2000/svg">
 <path d="m90.617 72.312c-2.6094 0-5.2344-3.2852-5.832-10.52 2.2734-0.046875 4.4297-0.40234 6.2617-1.1055 1.3242-0.51172 2.0859-1.7773 1.8438-3.0898-0.20312-1.0898-1.1797-2.1875-2.9062-2.1875-1.8477 0-3.582-0.17969-5.2188-0.52344 0.089844-1.8672 0.21484-3.7188 0.35156-5.5234 0.21875-2.9023 0.44141-5.9023 0.44141-8.8594 0-8.0859-3.1211-15.281-8.7852-20.27-5.6719-4.9883-13.418-7.2734-21.258-6.2695-10.32 1.3203-17.746 8.5234-18.789 17.863-14.34 0.52734-25.914 12.055-26.512 26.379 0 7.4727-2.5938 12.762-3.6953 14.391-0.41797 0.61719-0.25781 1.457 0.35938 1.875 0.23047 0.15625 0.49219 0.23047 0.75781 0.23047 0.43359 0 0.85547-0.20703 1.1172-0.59375 0.55469-0.82031 1.4414-2.3203 2.25-4.5078 0.29688 2.0898 0.63672 4.1094 0.96094 6.0312 0.51562 3.0469 0.96875 5.7266 1.1055 7.9141h-4.0117c-0.74609 0-1.3516 0.60547-1.3516 1.3516 0 0.74219 0.60547 1.3516 1.3516 1.3516h65.25c0.74609 0 1.3516-0.60547 1.3516-1.3516 0-0.74609-0.60547-1.3516-1.3516-1.3516h-3.9062c0.42188-3.1836 1.4219-12.602 0.10938-21.895 0.050781-0.007813 0.097656-0.003906 0.14453-0.011719 0.48828-0.078125 0.94531-0.23828 1.3594-0.46484 1.3281 8.6406 4.9531 13.266 7.9414 15.66 2.6836 2.1523 5.9453 3.3516 9 3.3516 0.53906 0 1.0703-0.035156 1.5938-0.11328 2.2617-0.32812 3.3047-2.4414 3.1641-4.3633-0.15234-1.9961-1.4219-3.3984-3.0977-3.3984zm-22.965-54.375c2.6914 0.98438 5.1836 2.4375 7.3359 4.332 2.8242 2.4844 4.9375 5.5938 6.2617 9.1172-0.79688 0.17578-1.6133 0.27344-2.4414 0.27344-6.2852 0-11.398-5.1133-11.398-11.398-0.007812-0.78906 0.082032-1.5625 0.24219-2.3242zm-36.547 17.48c1.7617-0.48828 3.6016-0.78906 5.4922-0.87891 0.16016 7.9102 4.7422 14.34 11.551 17.07h-17.043zm0 18.891h21.602v0.44922c0 0.74219-0.60547 1.3516-1.3516 1.3516h-18.902c-0.74219 0-1.3516-0.60547-1.3516-1.3516zm-1.1445 29.254c0.27344-1.7305 1.1562-5.5352 3.8516-9.4258 2.4922 1.0859 5.1602 1.6445 7.8359 1.6445 2.6758 0 5.3438-0.55859 7.8359-1.6445 2.6914 3.8867 3.5781 7.6914 3.8516 9.4258zm36.285-29.738c1.3359 1.7812 3.0742 3.2617 5.0391 4.4492-0.28906 0.41406-0.69531 0.64844-1.0703 0.71094-0.86719 0.14062-1.7227-0.41016-2.2812-1.4805-0.34766-0.66016-1.1641-0.91406-1.8203-0.56641-0.66016 0.34766-0.91406 1.1602-0.56641 1.8203 0.53906 1.0312 1.2852 1.8125 2.1445 2.3125 1.5273 9.543 0.34766 19.785-0.015625 22.484l-11.613 0.003906c-0.23047-1.7695-1.0898-6.125-4.1641-10.684 1.2891-0.78906 2.5117-1.7227 3.6289-2.8359 0.52734-0.52734 0.52734-1.3828 0-1.9102s-1.3828-0.52344-1.9102 0c-6.6016 6.6016-17.34 6.6016-23.938 0-0.52734-0.52344-1.3828-0.52734-1.9102 0-0.52734 0.52734-0.52734 1.3828 0 1.9102 1.1133 1.1133 2.3398 2.0469 3.6289 2.8359-3.0781 4.5586-3.9375 8.9102-4.1641 10.684h-11.48c-0.13672-2.3711-0.58984-5.1602-1.1328-8.3633-0.81641-4.832-1.7422-10.309-1.7422-15.824 0-10.406 6.4336-19.336 15.523-23.035v18.426c0 1.7578 1.1328 3.2422 2.6992 3.8008v1.6016c0 0.74219 0.60547 1.3516 1.3516 1.3516s1.3516-0.60547 1.3516-1.3516v-1.3555h2.0234v1.3516c0 0.74219 0.60547 1.3516 1.3516 1.3516 0.74609 0 1.3516-0.60547 1.3516-1.3516v-1.3516h2.0234v1.3516c0 0.74219 0.60547 1.3516 1.3516 1.3516s1.3516-0.60547 1.3516-1.3516l-0.003906-1.3516h2.0234v1.3516c0 0.74219 0.60547 1.3516 1.3516 1.3516s1.3516-0.60547 1.3516-1.3516v-1.3516h2.0234v1.3516c0 0.74219 0.60547 1.3516 1.3516 1.3516 0.74609 0 1.3516-0.60547 1.3516-1.3516v-1.6016c1.5664-0.55859 2.6992-2.043 2.6992-3.8008v-1.7383c0.09375 0 0.18359 0.011719 0.27734 0.011719 6.0781 0 10.363-2.7188 12.73-8.0781 0.30078-0.68359-0.007812-1.4805-0.6875-1.7812-0.68359-0.30078-1.4805 0.007813-1.7812 0.6875-1.9258 4.3555-5.2812 6.4727-10.266 6.4727-9.3516 0-16.402-6.9766-16.402-16.223 0-9.0312 6.8164-16.211 16.574-17.465 3.1406-0.40234 6.2617-0.22266 9.207 0.49609-0.23047 1.0195-0.35547 2.0625-0.35547 3.1133 0 7.7734 6.3242 14.102 14.102 14.102 1.1055 0 2.1914-0.13672 3.2539-0.38672 0.51562 2.0273 0.78125 4.1719 0.79297 6.3867h-0.44531c-0.74609 0-1.3516 0.60547-1.3516 1.3516 0 0.74609 0.60547 1.3516 1.3516 1.3516h0.39453c-0.015625 0.41406-0.035156 0.82812-0.054687 1.2422l-0.49219-0.039062c-0.75391-0.054688-1.3945 0.49609-1.4531 1.2383-0.058593 0.74219 0.49609 1.3945 1.2383 1.4531l0.53906 0.046875c-0.03125 0.44922-0.066406 0.90234-0.10156 1.3555l-0.52734-0.039063c-0.73047-0.058594-1.3945 0.49219-1.4531 1.2383-0.058594 0.74219 0.49609 1.3945 1.2383 1.4531l0.55078 0.042969c-0.070312 1.0234-0.13281 2.0547-0.1875 3.1016-4.1367-1.4727-7.5117-4.2344-10.207-8.3438-0.41016-0.625-1.2461-0.79688-1.8711-0.38672-0.62109 0.40625-0.79688 1.2461-0.38672 1.8672 4.7148 7.1875 11.562 10.828 20.348 10.828 0.074219 0 0.13281 0.007812 0.17969 0.015624-0.019531 0.015626-0.046875 0.023438-0.078125 0.039063-6.0586 2.3164-17.078 0.17969-21.668-5.9609-0.44531-0.59766-1.293-0.71875-1.8906-0.27344-0.59766 0.44531-0.72266 1.2891-0.27734 1.8867zm23.906 23.594c-2.7461 0.39844-5.9297-0.60156-8.5117-2.6719-2.6992-2.168-6-6.4844-7.0859-14.84 2.4102 0.97656 4.9961 1.5742 7.5195 1.8008 0.71094 9.7227 4.7344 13.305 8.5391 13.305 0.11719 0 0.35547 0.34766 0.39844 0.91016 0.015625 0.13672 0.074219 1.3594-0.85938 1.4961zm-15.059-32.695c1.0625 0 1.9258-0.86328 1.9258-1.9258s-0.86328-1.9258-1.9258-1.9258-1.9258 0.86328-1.9258 1.9258 0.86328 1.9258 1.9258 1.9258z"/>
</svg>
