<?xml version="1.0" encoding="UTF-8"?>
<svg fill="#0083BE" width="100pt" height="100pt" version="1.1" viewBox="0 0 100 100" xmlns="http://www.w3.org/2000/svg">
 <g fill-rule="evenodd">
  <path d="m76.043 26c0 2.207-1.7891 4-4 4-2.207 0-4-1.793-4-4s1.793-4 4-4c2.2109 0 4 1.793 4 4"/>
  <path d="m24.043 66c0 2.207-1.7891 4-4 4-2.207 0-4-1.793-4-4s1.793-4 4-4c2.2109 0 4 1.793 4 4"/>
  <path d="m88.043 26c0 8.8359-7.1641 16-16 16-8.832 0-16-7.1641-16-16s7.168-16 16-16c8.8359 0 16 7.1641 16 16zm8 0c0-13.254-10.746-24-24-24-13.25 0-24 10.746-24 24s10.75 24 24 24c13.254 0 24-10.746 24-24z"/>
  <path d="m32.043 66c0 6.625-5.3711 12-12 12-6.625 0-12-5.375-12-12s5.375-12 12-12c6.6289 0 12 5.375 12 12zm8 0c0-11.047-8.9531-20-20-20-11.043 0-20 8.9531-20 20s8.957 20 20 20c11.047 0 20-8.9531 20-20z"/>
  <path d="m88.043 82c0 4.418-3.5781 8-8 8-4.418 0-8-3.582-8-8s3.582-8 8-8c4.4219 0 8 3.582 8 8zm8 0c0-8.8359-7.1602-16-16-16-8.8359 0-16 7.1641-16 16s7.1641 16 16 16c8.8398 0 16-7.1641 16-16z"/>
  <path d="m88.043 26v56c0 2.2109 1.793 4 4 4 2.2109 0 4-1.7891 4-4v-56c0-2.2109-1.7891-4-4-4-2.207 0-4 1.7891-4 4z"/>
  <path d="m80.828 90.078l-60-12c-2.1641-0.43359-4.2734 0.97266-4.707 3.1367-0.43359 2.168 0.97266 4.2734 3.1406 4.707l60 12c2.1641 0.43359 4.2734-0.97266 4.7031-3.1367 0.43359-2.168-0.96875-4.2734-3.1367-4.707z"/>
  <path d="m12.016 57.078l46.633-40.043c1.6758-1.4375 1.8672-3.9648 0.42969-5.6406-1.4414-1.6758-3.9648-1.8672-5.6406-0.42969l-46.633 40.047c-1.6758 1.4375-1.8672 3.9648-0.42969 5.6406 1.4414 1.6758 3.9648 1.8672 5.6406 0.42578z"/>
 </g>
</svg>
