<?xml version="1.0" encoding="UTF-8"?>
<svg fill="#003F72" width="100pt" height="100pt" version="1.1" viewBox="0 0 100 100" xmlns="http://www.w3.org/2000/svg">
 <path d="m50 8c-23.195 0-42 18.805-42 42s18.805 42 42 42 42-18.805 42-42-18.805-42-42-42zm8.125 66.25c-2.6602 0.92969-5.4062 1.3906-8.1445 1.3906-3.668 0-7.3203-0.82812-10.719-2.4727-5.9375-2.8672-10.402-7.8789-12.574-14.105-4.4805-12.855 2.332-26.957 15.188-31.438 5.4414-1.8984 11.309-1.8164 16.629 0.13672l-1.5625-3.2773c-0.59375-1.2461-0.0625-2.7383 1.1836-3.332 1.25-0.59375 2.7383-0.0625 3.332 1.1797l4.3438 9.1055c0.30078 0.62891 0.32422 1.3516 0.066407 1.9961-0.25781 0.64453-0.76953 1.1562-1.418 1.4062l-9.2891 3.6133c-0.30078 0.11719-0.60547 0.17188-0.90234 0.17188-1.0039 0-1.9453-0.60547-2.332-1.5938-0.5-1.2852 0.13672-2.7344 1.4258-3.2344l3.4453-1.3398c-4.2461-1.5586-8.9219-1.625-13.266-0.11328-10.25 3.5742-15.684 14.82-12.109 25.07 1.7305 4.9648 5.2891 8.9609 10.027 11.246 4.7344 2.2891 10.082 2.5938 15.043 0.86328 10.254-3.5703 15.688-14.82 12.113-25.074-0.45312-1.3047 0.23438-2.7305 1.5391-3.1836 1.3047-0.46094 2.7305 0.23438 3.1836 1.5391 4.4648 12.859-2.3477 26.965-15.203 31.445z"/>
</svg>
