<?xml version="1.0" encoding="UTF-8"?>
<svg fill="#772432" width="100pt" height="100pt" version="1.1" viewBox="0 0 100 100" xmlns="http://www.w3.org/2000/svg">
 <path d="m24.102 58.5c-0.19922 1.6016-0.39844 3.1992-0.39844 4.8984v1.1992c-1.8984-0.60156-3.6992-1.3008-5.3984-2.1992-2.6992 1.3008-5.6992 1.8984-8.8984 1.8984-1.1016 0-2.1992-0.10156-3.3008-0.19922-1.6016-0.19922-2.8008-1.3984-3.1992-2.8984-0.39844-1.6016 0.30078-3.1016 1.6016-4 1.3008-0.80078 2.3008-2 3.1016-3.3984-4.1016-5.1016-6.3984-11.199-6.3984-17.5 0-16.602 15.199-30.102 33.898-30.102 15.199 0 28 8.8984 32.301 21.102-1.1016-0.10156-2.1992-0.10156-3.3984-0.10156-1 0-2 0-3 0.10156-4.1016-8.8984-14.199-15.199-26-15.199-15.398 0-28 10.801-28 24.199 0 5.5 2.1016 10.699 6.1016 15.102l1.1992 1.3008-0.60156 1.6992c-0.5 1.3984-1.1992 2.8008-2.1016 3.8984 1.8984-0.30078 3.6016-0.89844 5.1016-1.8008l1.5-0.89844 1.5 0.80078c1.4883 0.89844 2.8906 1.5977 4.3906 2.0977zm74.598 4.8984c0 7.1992-2.8984 13.801-7.6992 19 0.89844 2.3984 2.5 5.1016 5.5 7.1016 0.69922 0.5 0.5 1.6016-0.39844 1.6992-3.1016 0.39844-8.3008 0.5-13.199-2.3984-5.3984 3.1016-11.898 4.8984-18.801 4.8984-19.102 0-34.602-13.602-34.602-30.301 0-16.699 15.5-30.301 34.602-30.301 19.098 0.003906 34.598 13.602 34.598 30.301zm-47.098 7.3008h-5.8984l-0.003906 6.3008h5.8984zm10.297-13.398h-5.8984v19.699h5.8984zm10.402 6.0977h-5.8984l-0.003906 13.602h5.8984zm10.301-13.5h-5.8984v27h5.8984z"/>
</svg>
