<?xml version="1.0" encoding="UTF-8"?>
<svg fill="#C4262E" width="100pt" height="100pt" version="1.1" viewBox="0 0 100 100" xmlns="http://www.w3.org/2000/svg">
 <g>
  <path d="m85.168 43.5c-3.582 0-6.5 2.918-6.5 6.5s2.918 6.5 6.5 6.5 6.5-2.918 6.5-6.5-2.918-6.5-6.5-6.5zm0 9.832c-1.832 0-3.332-1.5-3.332-3.332s1.5-3.332 3.332-3.332 3.332 1.5 3.332 3.332-1.582 3.332-3.332 3.332z"/>
  <path d="m67.332 73.918c-3.582 0-6.5 2.918-6.5 6.5s2.918 6.5 6.5 6.5 6.5-2.918 6.5-6.5c0-3.5859-2.832-6.5-6.5-6.5zm0 9.832c-1.832 0-3.332-1.5-3.332-3.332s1.5-3.332 3.332-3.332 3.332 1.5 3.332 3.332c0.003907 1.832-1.4961 3.332-3.332 3.332z"/>
  <path d="m14.832 43.5c-3.582 0-6.5 2.918-6.5 6.5s2.918 6.5 6.5 6.5 6.5-2.918 6.5-6.5-2.832-6.5-6.5-6.5zm0 9.832c-1.832 0-3.332-1.5-3.332-3.332s1.5-3.332 3.332-3.332 3.332 1.5 3.332 3.332c0.003907 1.832-1.4961 3.332-3.332 3.332z"/>
  <path d="m32.418 13c-3.582 0-6.5 2.918-6.5 6.5s2.918 6.5 6.5 6.5 6.5-2.918 6.5-6.5-2.918-6.5-6.5-6.5zm0 9.918c-1.832 0-3.332-1.5-3.332-3.332 0-1.832 1.5-3.332 3.332-3.332s3.332 1.5 3.332 3.332c0 1.832-1.5 3.332-3.332 3.332z"/>
  <path d="m67.332 13c-3.582 0-6.5 2.918-6.5 6.5s2.918 6.5 6.5 6.5 6.5-2.918 6.5-6.5-2.832-6.5-6.5-6.5zm0 9.918c-1.832 0-3.332-1.5-3.332-3.332 0-1.832 1.5-3.332 3.332-3.332s3.332 1.5 3.332 3.332c0.003907 1.832-1.4961 3.332-3.332 3.332z"/>
  <path d="m32.418 73.918c-3.582 0-6.5 2.918-6.5 6.5s2.918 6.5 6.5 6.5 6.5-2.918 6.5-6.5c0-3.5859-2.918-6.5-6.5-6.5zm0 9.832c-1.832 0-3.332-1.5-3.332-3.332s1.5-3.332 3.332-3.332 3.332 1.5 3.332 3.332-1.5 3.332-3.332 3.332z"/>
  <path d="m60.75 65.332l5.082-3v-2.4141l-6.1641 3.582z"/>
  <path d="m47.168 70.668l-7.832 4.582c0.41797 0.58203 0.75 1.168 1.082 1.832l8.918-5.168z"/>
  <path d="m69.332 60.332l8.918-5.168c-0.41797-0.58203-0.75-1.168-1.082-1.832l-7.832 4.5z"/>
  <path d="m57.668 67.082l-1.0859-1.832-5.9141 3.418 2.1641 1.1641z"/>
  <path d="m34.168 62.332l5 2.918 1.082-1.832-6.082-3.5z"/>
  <path d="m30.668 57.918l-7.832-4.5c-0.25 0.66797-0.66797 1.25-1.082 1.832l8.918 5.168z"/>
  <path d="m42.168 67l17.25 10c0.25-0.66797 0.66797-1.25 1.082-1.832l-17.25-10z"/>
  <path d="m60.832 34.75l-1.082 1.832 6.082 3.5v-2.4141z"/>
  <path d="m49.25 28.082l-8.832-5.082c-0.25 0.66797-0.66797 1.25-1.082 1.832l7.832 4.5z"/>
  <path d="m57.75 33l-5-2.918-2.082 1.25 6.082 3.5z"/>
  <path d="m69.332 42.082l7.832 4.5c0.25-0.66797 0.66797-1.25 1.082-1.832l-8.918-5.168z"/>
  <path d="m30.668 39.668l-8.918 5.168c0.41797 0.58203 0.75 1.168 1.082 1.832l7.832-4.582z"/>
  <path d="m34.168 37.582v2.418l6-3.418-1.0859-1.832z"/>
  <path d="m43.168 34.832l17.332-10c-0.41797-0.58203-0.75-1.168-1.082-1.832l-17.25 10z"/>
  <path d="m34.168 51.082h13.164l0.58594-1-0.66797-1.1641h-13.082z"/>
  <path d="m52 50.082l0.5 1h13.332v-2.1641h-13.164z"/>
  <path d="m69.332 51.082h7.25c-0.082031-0.33203-0.082031-0.66797-0.082031-1.082 0-0.41797 0-0.66797 0.082031-1.082h-7.25z"/>
  <path d="m30.668 48.918h-7.25c0.082031 0.33203 0.082031 0.66797 0.082031 1.082 0 0.41797 0 0.66797-0.082031 1.082h7.25z"/>
  <path d="m48.332 50.75l-12.5 21.75c0.66797 0.25 1.25 0.66797 1.832 1.082l11.918-20.668z"/>
  <path d="m51.582 49.418l12.586-21.836c-0.66797-0.25-1.25-0.58203-1.832-1l-12.004 20.668z"/>
  <path d="m35.75 27.5l26.418 46c0.58203-0.41797 1.168-0.75 1.832-1.082l-26.418-45.918c-0.58203 0.41797-1.1641 0.75-1.832 1z"/>
  <path d="m41 20.668h17.832c-0.082031-0.33203-0.082031-0.66797-0.082031-1.082 0-0.33203 0-0.66797 0.082031-1.082l-17.832-0.003906c0.082031 0.33203 0.082031 0.66797 0.082031 1.082 0 0.33594-0.082031 0.66797-0.082031 1.0859z"/>
  <path d="m58.832 79.332h-17.832c0.082031 0.33203 0.082031 0.66797 0.082031 1.082 0 0.41797 0 0.66797-0.082031 1.082h17.832c-0.082031-0.33203-0.082031-0.66797-0.082031-1.082 0-0.41406 0-0.66406 0.082031-1.082z"/>
  <path d="m79.918 43.082c0.58203-0.41797 1.168-0.75 1.832-1.082l-9.082-15.668c-0.58203 0.41797-1.168 0.83203-1.832 1.082z"/>
  <path d="m70.918 72.582c0.66797 0.25 1.25 0.66797 1.832 1.082l9.082-15.668c-0.66797-0.25-1.25-0.66797-1.832-1.082z"/>
  <path d="m29.082 27.5c-0.66797-0.25-1.25-0.66797-1.832-1.082l-9 15.664c0.66797 0.25 1.25 0.66797 1.832 1.082z"/>
  <path d="m20.082 56.918c-0.58203 0.41797-1.168 0.75-1.832 1.082l9 15.582c0.58203-0.41797 1.168-0.75 1.832-1.082z"/>
  <path d="m67.332 28.25c-0.25 0-0.58203 0-0.83203-0.082031v43.668c0.25 0 0.58203-0.082032 0.83203-0.082032 0.41797 0 0.83203 0 1.25 0.082032v-43.754c-0.33203 0.085938-0.75 0.16797-1.25 0.16797z"/>
  <path d="m32.418 28.25c-0.33203 0-0.66797 0-1.082-0.082031v43.668c0.33203-0.082032 0.66797-0.082032 1.082-0.082032 0.41797 0 0.66797 0 1.082 0.082032v-43.668c-0.41797 0-0.75 0.082031-1.082 0.082031z"/>
 </g>
</svg>
