<?xml version="1.0" encoding="UTF-8"?>
<svg fill="#0083BE" width="100pt" height="100pt" version="1.1" viewBox="0 0 100 100" xmlns="http://www.w3.org/2000/svg">
 <path d="m63.246 91.762c-4.3398 1.5117-8.8164 2.2656-13.281 2.2656-5.9805 0-11.934-1.3516-17.48-4.0273-9.6836-4.6797-16.965-12.848-20.5-23-7.3008-20.961 3.8086-43.953 24.766-51.262 8.3125-2.8945 17.223-2.9688 25.441-0.35156l-1.418-2.9766c-1.0703-2.2422-0.11719-4.9297 2.125-5.9961 2.2422-1.0742 4.9297-0.11719 5.9961 2.125l6.3594 13.34c0.53906 1.1289 0.58203 2.4336 0.12109 3.5977-0.46094 1.1641-1.3867 2.082-2.5547 2.5352l-13.609 5.2891c-0.53516 0.20703-1.0898 0.30859-1.6289 0.30859-1.8047 0-3.5039-1.0898-4.1953-2.8711-0.89844-2.3164 0.24609-4.9258 2.5625-5.8242l2.8984-1.1289c-6.2148-1.8398-12.898-1.7266-19.145 0.44922-16.27 5.6719-24.895 23.523-19.227 39.801 2.7461 7.8867 8.3984 14.227 15.918 17.855 7.5156 3.6328 15.996 4.1172 23.883 1.3711 16.273-5.6719 24.898-23.527 19.23-39.805-0.81641-2.3477 0.42188-4.9102 2.7695-5.7305 2.3477-0.81641 4.9102 0.42188 5.7305 2.7695 7.3086 20.965-3.8008 43.961-24.762 51.266zm-27.395-40.961c-2.4844 0-4.5 2.0156-4.5 4.5s2.0156 4.5 4.5 4.5h28.297c2.4844 0 4.5-2.0156 4.5-4.5s-2.0156-4.5-4.5-4.5z"/>
</svg>
