<?xml version="1.0" encoding="UTF-8"?>
<svg fill="#003F72" width="100pt" height="100pt" version="1.1" viewBox="0 0 100 100" xmlns="http://www.w3.org/2000/svg">
 <path d="m50 5c-24.812 0-45 20.188-45 45s20.188 45 45 45 45-20.188 45-45-20.188-45-45-45zm0 84c-21.504 0-39-17.496-39-39s17.496-39 39-39 39 17.496 39 39-17.496 39-39 39zm23.785-46.355c4.5703 13.117-2.3828 27.508-15.496 32.078-2.7148 0.94531-5.5195 1.4141-8.3086 1.4141-3.7422 0-7.4688-0.84766-10.938-2.5195-6.0586-2.9297-10.613-8.0391-12.828-14.395-4.5703-13.113 2.3789-27.5 15.492-32.074 5.1719-1.8008 10.711-1.8555 15.828-0.24609l-1.0547-2.207c-0.71484-1.4961-0.078125-3.2852 1.418-4 1.4961-0.71094 3.2852-0.078124 3.9961 1.418l4.3438 9.1055c0.35938 0.75391 0.39062 1.6211 0.082031 2.3945-0.30859 0.77734-0.92578 1.3906-1.7031 1.6914l-9.2891 3.6133c-0.35547 0.14062-0.72656 0.20312-1.0859 0.20312-1.1992 0-2.3359-0.72656-2.7969-1.9141-0.60156-1.543 0.16406-3.2812 1.7109-3.8828l2.1406-0.83203c-3.7734-1.0859-7.8242-1-11.613 0.32031-9.9922 3.4883-15.285 14.449-11.805 24.438 1.6875 4.8398 5.1562 8.7344 9.7695 10.965 4.6133 2.2305 9.8203 2.5273 14.664 0.84375 9.9883-3.4805 15.285-14.445 11.805-24.438-0.54688-1.5625 0.28125-3.2734 1.8477-3.8203 1.5703-0.54297 3.2734 0.27734 3.8203 1.8438z"/>
</svg>
