<?xml version="1.0" encoding="UTF-8"?>
<svg fill="#C4262E" width="100pt" height="100pt" version="1.1" viewBox="0 0 100 100" xmlns="http://www.w3.org/2000/svg">
 <g fill-rule="evenodd">
  <path d="m29.457 61.191c0 1.5938-1.293 2.8828-2.8867 2.8828s-2.8828-1.2891-2.8828-2.8828 1.2891-2.8867 2.8828-2.8867 2.8867 1.293 2.8867 2.8867"/>
  <path d="m40.832 61.191c0 1.5938-1.293 2.8828-2.8828 2.8828-1.5938 0-2.8828-1.2891-2.8828-2.8828s1.2891-2.8867 2.8828-2.8867c1.5898 0 2.8828 1.293 2.8828 2.8867"/>
  <path d="m52.207 61.191c0 1.5938-1.2891 2.8828-2.8828 2.8828-1.5898 0-2.8828-1.2891-2.8828-2.8828s1.293-2.8867 2.8828-2.8867c1.5938 0 2.8828 1.293 2.8828 2.8867"/>
  <path d="m79.176 34.66c-1.5938 0-2.8828-1.293-2.8828-2.8867 0-1.5898 1.2891-2.8789 2.8828-2.8789s2.8828 1.2891 2.8828 2.8789c0 1.5938-1.2891 2.8867-2.8828 2.8867m-11.375 0c-1.5938 0-2.8867-1.293-2.8867-2.8867 0-1.5898 1.293-2.8789 2.8867-2.8789s2.8828 1.2891 2.8828 2.8789c0 1.5938-1.2891 2.8867-2.8828 2.8867m-28.156 44.754c-6.6797 0-12.75-1.5078-18.035-4.4805-0.35156-0.19531-0.77734-0.19141-1.1211 0.007812-0.34766 0.20312-0.55859 0.57031-0.5625 0.96875l-0.042969 8.4023c-3.1406-3.6992-9.1172-11.418-10.25-17.762-0.55859-3.1094-1.2695-11.039 4.1172-17.477 4.9688-5.9336 13.781-8.9453 26.191-8.9453 14.145 0 24.027 7.7109 24.027 18.754 0 9.9531-8.5234 20.531-24.324 20.531m16.777-50.52c1.5938 0 2.8828 1.2891 2.8828 2.8789 0 1.5938-1.2891 2.8867-2.8828 2.8867s-2.8828-1.293-2.8828-2.8867c0-1.5898 1.2891-2.8789 2.8828-2.8789m32.734-6.6719c-5.1211-6.1211-14-9.2227-26.383-9.2227-14.637 0-24.859 8.1797-24.859 19.891 0 1.668 0.23828 3.3477 0.68359 5.0039-12.402 0.21875-21.348 3.4844-26.574 9.7305-6 7.168-5.2266 15.902-4.6133 19.324 1.6641 9.3008 12.316 20.621 12.77 21.098 0.21484 0.23047 0.51562 0.35156 0.81641 0.35156 0.14062 0 0.28125-0.023438 0.41406-0.078126 0.42969-0.17187 0.71094-0.58203 0.71484-1.043l0.046875-9.4961c5.2227 2.582 11.09 3.8906 17.473 3.8906 17.262 0 26.582-11.742 26.582-22.789 0-1.5781-0.17969-3.0938-0.51953-4.5391 5.0039-0.30859 9.8164-1.4727 13.922-3.4062l-1.1406 9.4062c-0.054687 0.48047 0.19922 0.94531 0.63672 1.1523 0.15625 0.074218 0.32031 0.10938 0.48438 0.10938 0.29688 0 0.58984-0.11719 0.80859-0.33984 0.47266-0.48438 11.531-11.957 13.105-20.754 0.57812-3.2422 1.3125-11.504-4.3672-18.289"/>
 </g>
</svg>
