<?xml version="1.0" encoding="UTF-8"?>
<svg fill="#772432" width="100pt" height="100pt" version="1.1" viewBox="0 0 100 100" xmlns="http://www.w3.org/2000/svg">
 <g>
  <path d="m22.18 21.461c-0.003907 0.23828-0.015626 0.47266-0.042969 0.70703 0.050781-0.48438 0.003906-0.0625-0.011719 0.03125-0.023438 0.125-0.050781 0.24609-0.078125 0.37109-0.054687 0.25-0.12891 0.5-0.20703 0.74219-0.039063 0.125-0.085938 0.24609-0.12891 0.37109-0.03125 0.082031-0.0625 0.16406-0.097657 0.24609 0.085938-0.20313 0.09375-0.21875 0.015625-0.042969-0.21875 0.48438-0.48438 0.94531-0.78516 1.3828-0.039062 0.058594-0.30859 0.41406-0.042969 0.074219-0.078125 0.10156-0.16406 0.19922-0.24609 0.29688-0.19141 0.22266-0.40234 0.42969-0.62109 0.625-0.0625 0.058594-0.39453 0.31641-0.035156 0.042969-0.09375 0.074218-0.19531 0.14062-0.29688 0.20312-0.097656 0.066406-0.20312 0.12109-0.30469 0.17969-0.082031 0.046875-0.45312 0.21094-0.011719 0.027344-0.21094 0.089844-0.42969 0.14844-0.65625 0.19922-0.39062 0.085937 0.40625-0.035157 0.003906 0-0.15234 0.011719-0.30469 0.007812-0.45703 0-0.40234-0.019531 0.39844 0.074219 0.003907 0-0.11328-0.019531-0.22266-0.054688-0.33203-0.085938s-0.21875-0.074219-0.32422-0.11328c0.44141 0.17188 0.078124 0.019531-0.011719-0.027344-0.21094-0.10938-0.41016-0.24609-0.60156-0.38281 0.36328 0.26172 0.03125 0.015625-0.035156-0.042969-0.125-0.10938-0.24609-0.22656-0.36328-0.34375-0.17969-0.18359-0.34375-0.37891-0.50781-0.57812 0.26953 0.33594 0-0.015625-0.042968-0.074219-0.074219-0.10938-0.14844-0.21875-0.21875-0.33203-0.14063-0.22266-0.26953-0.45703-0.39063-0.69141-0.0625-0.11719-0.11719-0.23828-0.17187-0.35938-0.078126-0.17578-0.074219-0.16016 0.015624 0.042969-0.035156-0.082032-0.066406-0.16406-0.097656-0.24609-0.18359-0.48047-0.32031-0.97656-0.41797-1.4844-0.019532-0.09375-0.070313-0.51953-0.011719-0.03125-0.015625-0.11719-0.023438-0.23828-0.03125-0.35938-0.019531-0.29688-0.007813-0.59766 0.015625-0.89453-0.039063 0.44531 0 0.011719 0.015625-0.074218 0.023437-0.12891 0.058593-0.25781 0.089843-0.38672 0.03125-0.125 0.074219-0.25 0.11719-0.375 0.14062-0.41797-0.15625 0.32812 0.023438-0.070313 0.10547-0.23437 0.23437-0.45703 0.375-0.67578 0.039062-0.066406 0.29687-0.41406 0.03125-0.070312 0.10547-0.13281 0.21875-0.26172 0.33594-0.38672 0.17578-0.1875 0.36719-0.35547 0.56641-0.51562-0.33594 0.27344 0.003907 0.011719 0.070313-0.03125 0.10547-0.070313 0.21875-0.13672 0.32812-0.19922 0.11328-0.0625 0.22656-0.12109 0.34375-0.17578 0.39453-0.19141-0.33984 0.12891 0.070312-0.023437 0.28906-0.10547 0.58984-0.17578 0.89062-0.23438 0.19531-0.03125 0.17578-0.027343-0.054687 0.007813 0.089843-0.007813 0.17969-0.015625 0.26953-0.019531 0.18359-0.011719 0.36328-0.007813 0.54688 0 0.089844 0.003906 0.17969 0.011718 0.26953 0.019531-0.23047-0.035156-0.25-0.039063-0.054687-0.007813 0.17578 0.027344 0.34375 0.070313 0.51562 0.11719 0.16797 0.042969 0.33203 0.10156 0.49609 0.16406-0.42578-0.15625 0.097656 0.050782 0.17969 0.09375 0.15234 0.078126 0.29688 0.16797 0.44141 0.25781 0.070313 0.046875 0.14062 0.09375 0.21094 0.14453-0.35156-0.24609-0.007813-0.003906 0.054687 0.050782 0.25781 0.21875 0.48828 0.47266 0.70312 0.73828-0.28516-0.35156 0.050781 0.10156 0.10156 0.17578 0.09375 0.14453 0.17188 0.29688 0.25 0.44922 0.039062 0.078125 0.074218 0.15625 0.10938 0.23438-0.089844-0.21094-0.097657-0.22656-0.03125-0.046875 0.058593 0.16406 0.10547 0.33203 0.15234 0.5 0.042969 0.17188 0.074219 0.34375 0.10156 0.51953-0.066406-0.44922 0.007813 0.25391 0.007813 0.36719 0.011718 0.92969 0.76953 1.7109 1.7109 1.7109 0.92188 0 1.7188-0.77734 1.7109-1.7109-0.03125-2.6289-1.4609-5.082-3.7852-6.3359-2.3203-1.2539-5.2969-1.1172-7.4648 0.40234-2.1289 1.4922-3.3672 4.0312-3.0898 6.6367 0.25391 2.4258 1.3789 4.8711 3.207 6.5156 1.0781 0.96875 2.3711 1.582 3.832 1.6562 1.4922 0.078124 2.8555-0.65625 3.9648-1.5781 2.0547-1.7031 3.3125-4.6641 3.3398-7.3047 0.007812-0.92969-0.78516-1.7109-1.7109-1.7109-0.94531 0.011718-1.707 0.78906-1.7148 1.7188z"/>
  <path d="m27.688 38.172v4.3867c0.57031-0.57031 1.1406-1.1406 1.7109-1.7109h-13.98-8c0.57031 0.57031 1.1406 1.1406 1.7109 1.7109v-2.4805-1.543-0.33594c0-0.097657 0.003906-0.19922 0.007813-0.29688 0.003906-0.089844 0.011719-0.17969 0.019531-0.26953 0.039062-0.45312-0.066406 0.37109 0.015625-0.074218 0.03125-0.17188 0.078125-0.34375 0.125-0.51172 0.027344-0.10547 0.28125-0.74219 0.097656-0.32031 0.085938-0.19531 0.1875-0.38281 0.29688-0.57031 0.054688-0.089844 0.44531-0.64062 0.16797-0.28125 0.23438-0.30078 0.50781-0.57031 0.79688-0.81641 0.14453-0.11719 0.13281-0.10938-0.042969 0.03125 0.10156-0.078125 0.21094-0.14453 0.31641-0.21484 0.17969-0.11719 0.37109-0.21484 0.5625-0.30859 0.17187-0.078125 0.15625-0.074218-0.054688 0.015625 0.082031-0.03125 0.16016-0.0625 0.24219-0.089843 0.20703-0.074219 0.41797-0.125 0.62891-0.17578 0.085937-0.019531 0.17188-0.035156 0.25781-0.050781-0.44531 0.082031-0.007812 0.003906 0.078125-0.003906 0.14844-0.011719 0.29297-0.015625 0.44141-0.015625h1.2812c-0.40234-0.16797-0.80469-0.33203-1.207-0.5 1.3555 1.5234 2.707 3.0469 4.0625 4.5703 0.58984 0.66406 1.8281 0.66797 2.418 0 1.3438-1.5234 2.6875-3.0469 4.0273-4.5703-0.40234 0.16797-0.80469 0.33203-1.207 0.5h1.3086c0.18359 0 0.36719 0.011718 0.55078 0.027344 0.19531 0.023437 0.17969 0.019531-0.058593-0.007813 0.12891 0.019531 0.25781 0.050781 0.38672 0.078125 0.21094 0.046875 0.41797 0.11719 0.625 0.19141 0.41406 0.14844-0.32813-0.15625 0.066406 0.027344 0.11719 0.054688 0.23047 0.11719 0.33984 0.17969 0.1875 0.10156 0.36328 0.22266 0.53516 0.34375-0.36719-0.25781 0.16016 0.14453 0.23828 0.22266 0.15625 0.14453 0.29688 0.30469 0.43359 0.46484 0.28125 0.32812-0.21094-0.29297 0.042969 0.058593 0.074218 0.10547 0.14062 0.21484 0.20703 0.32031 0.11328 0.18359 0.20703 0.375 0.29688 0.57031-0.19141-0.41406 0.0625 0.21484 0.097656 0.32031 0.0625 0.21094 0.10938 0.42578 0.14844 0.64062-0.082032-0.44531-0.003907-0.007813 0.003906 0.078125 0 0.13672 0.003906 0.27344 0.003906 0.41016 0.011719 0.92969 0.76953 1.7109 1.7109 1.7109 0.92187 0 1.7188-0.77734 1.7109-1.7109-0.03125-2.5625-1.3398-4.8672-3.4883-6.25-1.0664-0.68359-2.3242-1.0078-3.5781-1.082-0.63281-0.039063-1.4297-0.11328-2.043 0.054687-0.59766 0.16406-0.92969 0.63672-1.3125 1.0742-0.46484 0.52734-0.92578 1.0508-1.3906 1.5781-0.69141 0.78516-1.3867 1.5703-2.0781 2.3555h2.418c-0.74219-0.83594-1.4844-1.668-2.2266-2.5039-0.46875-0.52734-0.9375-1.0547-1.4062-1.582-0.47656-0.53906-0.87891-0.98438-1.7109-0.98438-0.84375 0-1.668-0.011719-2.5039 0.11719-1.3008 0.20312-2.4297 0.80859-3.4531 1.6094-1.7539 1.3594-2.6328 3.6133-2.6328 5.7812v4.2188c0 0.92969 0.77734 1.7109 1.7109 1.7109h13.98 8c0.92969 0 1.7109-0.77734 1.7109-1.7109v-4.3867c0-0.92969-0.77734-1.7109-1.7109-1.7109-0.92969 0-1.707 0.77734-1.707 1.7109z"/>
  <path d="m85.754 21.461c-0.003906 0.23828-0.015625 0.47266-0.042968 0.70703 0.050781-0.48438 0.003906-0.0625-0.011719 0.03125-0.023438 0.125-0.050781 0.24609-0.078125 0.37109-0.054688 0.25-0.12891 0.5-0.20703 0.74219-0.039062 0.125-0.085937 0.24609-0.12891 0.37109-0.03125 0.082031-0.0625 0.16406-0.097656 0.24609 0.085938-0.20313 0.09375-0.21875 0.015625-0.042969-0.21875 0.48438-0.48438 0.94531-0.78516 1.3828-0.039063 0.058594-0.30859 0.41406-0.042969 0.074219-0.078125 0.10156-0.16406 0.19922-0.24609 0.29688-0.19141 0.22266-0.40234 0.42969-0.62109 0.625-0.0625 0.058594-0.39453 0.31641-0.035156 0.042969-0.09375 0.074218-0.19531 0.14062-0.29688 0.20312-0.097656 0.066406-0.20312 0.12109-0.30469 0.17969-0.082032 0.046875-0.45312 0.21094-0.011719 0.027344-0.21094 0.089844-0.42969 0.14844-0.65625 0.19922-0.39062 0.085937 0.40625-0.035157 0.003906 0-0.15234 0.011719-0.30469 0.007812-0.45703 0-0.40234-0.019531 0.39844 0.074219 0.003906 0-0.11328-0.019531-0.22266-0.054688-0.33203-0.085938s-0.21875-0.074219-0.32422-0.11328c0.44141 0.17188 0.078125 0.019531-0.011718-0.027344-0.21094-0.10938-0.41016-0.24609-0.60156-0.38281 0.36328 0.26172 0.03125 0.015625-0.035156-0.042969-0.125-0.10938-0.24609-0.22656-0.36328-0.34375-0.17969-0.18359-0.34375-0.37891-0.50781-0.57812 0.26953 0.33594 0-0.015625-0.042969-0.074219-0.074218-0.10938-0.14844-0.21875-0.21875-0.33203-0.14062-0.22266-0.26953-0.45703-0.39062-0.69141-0.0625-0.11719-0.11719-0.23828-0.17188-0.35938-0.078125-0.17578-0.074218-0.16016 0.015625 0.042969-0.035156-0.082032-0.066406-0.16406-0.097656-0.24609-0.18359-0.48047-0.32031-0.97656-0.41797-1.4844-0.019531-0.09375-0.070312-0.51953-0.011718-0.03125-0.015626-0.11719-0.023438-0.23828-0.03125-0.35938-0.019532-0.29688-0.007813-0.59766 0.015624-0.89453-0.039062 0.44531 0 0.011719 0.015626-0.074218 0.023437-0.12891 0.058593-0.25781 0.089843-0.38672 0.03125-0.125 0.074219-0.25 0.11719-0.375 0.14062-0.41797-0.15625 0.32812 0.023437-0.070313 0.10547-0.23437 0.23438-0.45703 0.375-0.67578 0.042969-0.066406 0.29688-0.41406 0.03125-0.070312 0.10547-0.13281 0.21875-0.26172 0.33594-0.38672 0.17578-0.1875 0.36719-0.35547 0.56641-0.51562-0.33594 0.27344 0.003906 0.011719 0.070312-0.03125 0.10547-0.070313 0.21875-0.13672 0.32813-0.19922 0.11328-0.0625 0.22656-0.12109 0.34375-0.17578 0.39453-0.19141-0.33984 0.12891 0.070312-0.023437 0.28906-0.10547 0.58984-0.17578 0.89062-0.23438 0.19531-0.03125 0.17578-0.027343-0.054687 0.007813 0.089843-0.007813 0.17969-0.015625 0.26953-0.019531 0.18359-0.011719 0.36328-0.007813 0.54688 0 0.089844 0.003906 0.17969 0.011718 0.26953 0.019531-0.23047-0.035156-0.25-0.039063-0.054687-0.007813 0.17578 0.027344 0.34375 0.070313 0.51562 0.11719 0.16797 0.042969 0.33203 0.10156 0.49609 0.16406-0.42578-0.15625 0.097656 0.050782 0.17969 0.09375 0.15234 0.078126 0.29688 0.16797 0.44141 0.25781 0.070312 0.046875 0.14062 0.09375 0.21094 0.14453-0.35156-0.24609-0.007813-0.003906 0.054687 0.050782 0.25781 0.21875 0.48828 0.47266 0.70312 0.73828-0.28516-0.35156 0.050781 0.10156 0.10156 0.17578 0.09375 0.14453 0.17188 0.29688 0.25 0.44922 0.039063 0.078125 0.074219 0.15625 0.10938 0.23438-0.089844-0.21094-0.097657-0.22656-0.027344-0.046875 0.058594 0.16406 0.10547 0.33203 0.15234 0.5 0.042968 0.17188 0.074218 0.34375 0.10156 0.51953-0.070312-0.44922 0.003906 0.25391 0.003906 0.36719 0.011719 0.92969 0.76953 1.7109 1.7109 1.7109 0.92188 0 1.7188-0.77734 1.7109-1.7109-0.03125-2.6289-1.4609-5.082-3.7852-6.3359-2.3203-1.2539-5.2969-1.1172-7.4648 0.40234-2.1289 1.4922-3.3672 4.0312-3.0898 6.6367 0.25391 2.4258 1.3789 4.8711 3.207 6.5156 1.0781 0.96875 2.3711 1.582 3.832 1.6562 1.4922 0.078124 2.8555-0.65625 3.9648-1.5781 2.0547-1.6992 3.3125-4.6641 3.3398-7.3047 0.007812-0.92969-0.78516-1.7109-1.7109-1.7109-0.94531 0.011718-1.707 0.78906-1.7148 1.7188z"/>
  <path d="m91.262 38.172v4.3867c0.57031-0.57031 1.1406-1.1406 1.7109-1.7109h-13.98-8c0.57031 0.57031 1.1406 1.1406 1.7109 1.7109v-2.4805-1.543-0.33594c0-0.097657 0.003906-0.19922 0.007813-0.29688 0.003906-0.089844 0.011718-0.17969 0.019531-0.26953 0.039062-0.45312-0.066407 0.37109 0.015625-0.074218 0.03125-0.17188 0.078125-0.34375 0.125-0.51172 0.027344-0.10547 0.28125-0.74219 0.097656-0.32031 0.085938-0.19531 0.1875-0.38281 0.29688-0.57031 0.054687-0.089844 0.44531-0.64062 0.16797-0.28125 0.23438-0.30078 0.50781-0.57031 0.79688-0.81641 0.14453-0.11719 0.13281-0.10938-0.042969 0.03125 0.10156-0.078125 0.21094-0.14453 0.31641-0.21484 0.17969-0.11719 0.37109-0.21484 0.5625-0.30859 0.17188-0.078125 0.15625-0.074218-0.054687 0.015625 0.082031-0.03125 0.16016-0.0625 0.24219-0.089843 0.20703-0.074219 0.41797-0.125 0.62891-0.17578 0.085938-0.019531 0.17188-0.035156 0.25781-0.050781-0.44531 0.082031-0.007813 0.003906 0.078125-0.003906 0.14844-0.011719 0.29297-0.015625 0.44141-0.015625h1.2812c-0.40234-0.16797-0.80469-0.33203-1.207-0.5 1.3555 1.5234 2.707 3.0469 4.0625 4.5703 0.58984 0.66406 1.8281 0.66797 2.418 0 1.3438-1.5234 2.6875-3.0469 4.0273-4.5703-0.40234 0.16797-0.80469 0.33203-1.207 0.5h1.3086c0.18359 0 0.36719 0.011718 0.55078 0.027344 0.19531 0.023437 0.17969 0.019531-0.058593-0.007813 0.12891 0.019531 0.25781 0.050781 0.38672 0.078125 0.21094 0.046875 0.41797 0.11719 0.625 0.19141 0.41406 0.14844-0.32812-0.15625 0.066406 0.027344 0.11719 0.054688 0.23047 0.11719 0.33984 0.17969 0.1875 0.10156 0.36328 0.22266 0.53516 0.34375-0.36719-0.25781 0.16016 0.14453 0.23828 0.22266 0.15625 0.14453 0.29688 0.30469 0.43359 0.46484 0.28125 0.32812-0.21094-0.29297 0.042968 0.058593 0.074219 0.10547 0.14062 0.21484 0.20703 0.32031 0.11328 0.18359 0.20703 0.375 0.29687 0.57031-0.19141-0.41406 0.0625 0.21484 0.097657 0.32031 0.0625 0.21094 0.10938 0.42578 0.14844 0.64062-0.082031-0.44531-0.003906-0.007813 0.003906 0.078125 0 0.13672 0.003907 0.27344 0.003907 0.41016 0.011719 0.92969 0.76953 1.7109 1.7109 1.7109 0.92188 0 1.7188-0.77734 1.7109-1.7109-0.03125-2.5625-1.3398-4.8672-3.4883-6.25-1.0664-0.68359-2.3242-1.0078-3.5781-1.082-0.63281-0.039063-1.4297-0.11328-2.043 0.054687-0.59766 0.16406-0.92969 0.63672-1.3125 1.0742-0.46484 0.52734-0.92578 1.0508-1.3906 1.5781-0.69141 0.78516-1.3867 1.5703-2.0781 2.3555h2.418c-0.74219-0.83594-1.4844-1.668-2.2266-2.5039-0.46875-0.52734-0.9375-1.0547-1.4062-1.582-0.47656-0.53906-0.87891-0.98438-1.7109-0.98438-0.84375 0-1.668-0.011719-2.5039 0.11719-1.3008 0.20312-2.4297 0.80859-3.4531 1.6094-1.7461 1.3594-2.625 3.6133-2.625 5.7812v4.2188c0 0.92969 0.77734 1.7109 1.7109 1.7109h13.98 8c0.92969 0 1.7109-0.77734 1.7109-1.7109v-4.3867c0-0.92969-0.77734-1.7109-1.7109-1.7109-0.9375 0-1.7148 0.77734-1.7148 1.7109z"/>
  <path d="m53.965 67.75c-0.003906 0.23828-0.015625 0.47266-0.042969 0.70703 0.050781-0.48438 0.003906-0.0625-0.011719 0.03125-0.023437 0.125-0.050781 0.24609-0.078125 0.37109-0.054687 0.25-0.12891 0.5-0.20703 0.74219-0.039062 0.125-0.085938 0.24609-0.12891 0.37109-0.03125 0.082032-0.0625 0.16406-0.097656 0.24609 0.085937-0.20312 0.09375-0.21875 0.015624-0.042969-0.21875 0.48438-0.48437 0.94531-0.78516 1.3828-0.039062 0.058594-0.30859 0.41406-0.042968 0.074218-0.078126 0.10156-0.16406 0.19922-0.24609 0.29688-0.19141 0.22266-0.40234 0.42969-0.62109 0.625-0.0625 0.054687-0.39453 0.31641-0.035156 0.042968-0.09375 0.074219-0.19531 0.14062-0.29688 0.20312-0.097657 0.066407-0.20312 0.12109-0.30469 0.17969-0.082031 0.046875-0.45312 0.21094-0.011719 0.027343-0.21094 0.089844-0.42969 0.14844-0.65625 0.19922-0.39062 0.085938 0.40625-0.035156 0.003907 0-0.15234 0.011719-0.30469 0.007813-0.45703 0-0.40234-0.019531 0.39844 0.074219 0.003906 0-0.11328-0.019531-0.22266-0.050781-0.33203-0.085937-0.10937-0.03125-0.21875-0.074219-0.32422-0.11328 0.44141 0.17188 0.078125 0.019532-0.011719-0.027343-0.21094-0.10938-0.41016-0.24609-0.60156-0.38281 0.36328 0.26172 0.03125 0.015625-0.035156-0.042968-0.125-0.10938-0.24609-0.22656-0.36328-0.34766-0.17969-0.18359-0.34375-0.37891-0.50781-0.57812 0.26953 0.33594 0-0.015625-0.042968-0.074218-0.074219-0.10938-0.14844-0.21875-0.21875-0.33203-0.14062-0.22266-0.26953-0.45703-0.39062-0.69141-0.0625-0.11719-0.11719-0.23828-0.17188-0.35938-0.078125-0.17578-0.074219-0.16016 0.015625 0.042969-0.035157-0.082032-0.066407-0.16406-0.097657-0.24609-0.18359-0.48047-0.32031-0.97656-0.41797-1.4844-0.019532-0.09375-0.070313-0.51953-0.011719-0.03125-0.015625-0.11719-0.023437-0.23828-0.03125-0.35938-0.019531-0.29688-0.007813-0.59766 0.015625-0.89453-0.039062 0.44531 0 0.011719 0.015625-0.074219 0.023437-0.12891 0.058594-0.25781 0.089844-0.38672 0.03125-0.125 0.074219-0.25 0.11719-0.375 0.14062-0.41797-0.15625 0.32812 0.023438-0.070312 0.10547-0.23438 0.23438-0.45703 0.375-0.67578 0.039062-0.066407 0.29688-0.41406 0.03125-0.070313 0.10547-0.13281 0.21875-0.26172 0.33594-0.38672 0.17578-0.1875 0.36719-0.35547 0.56641-0.51562-0.33594 0.27344 0.003906 0.011719 0.070312-0.03125 0.10547-0.070312 0.21875-0.13672 0.32812-0.19922 0.11328-0.0625 0.22656-0.12109 0.34375-0.17578 0.39453-0.19141-0.33984 0.12891 0.070313-0.023437 0.28906-0.10547 0.58984-0.17578 0.89062-0.23438 0.19531-0.03125 0.17578-0.027344-0.054687 0.007812 0.089844-0.007812 0.17969-0.015625 0.26953-0.019531 0.18359-0.011719 0.36328-0.007812 0.54688 0 0.089844 0.003906 0.17969 0.011719 0.26953 0.019531-0.23047-0.035156-0.25-0.039062-0.054687-0.007812 0.17578 0.027343 0.34375 0.070312 0.51562 0.11719 0.16797 0.042969 0.33203 0.10156 0.49609 0.16406-0.42578-0.15625 0.097656 0.050781 0.17969 0.09375 0.15234 0.078125 0.29688 0.16797 0.44141 0.25781 0.070312 0.046875 0.14062 0.09375 0.21094 0.14453-0.35156-0.24609-0.007813-0.003906 0.054687 0.050782 0.25781 0.21875 0.48828 0.47266 0.70313 0.73828-0.28516-0.35156 0.050781 0.10156 0.10156 0.17578 0.09375 0.14453 0.17188 0.29688 0.25 0.44922 0.039062 0.078125 0.074219 0.15625 0.10938 0.23438-0.089844-0.21094-0.097656-0.22656-0.027344-0.046875 0.058594 0.16406 0.10547 0.33203 0.15234 0.5 0.042969 0.17188 0.074219 0.34375 0.10156 0.51953-0.066407-0.44531 0.003906 0.25781 0.003906 0.37109 0.011718 0.92969 0.76953 1.7109 1.7109 1.7109 0.92188 0 1.7188-0.77734 1.7109-1.7109-0.03125-2.6289-1.4609-5.082-3.7852-6.3359-2.3203-1.2539-5.2969-1.1172-7.4648 0.40234-2.1289 1.4922-3.3672 4.0312-3.0898 6.6367 0.25391 2.4258 1.3789 4.8711 3.207 6.5156 1.0781 0.96875 2.3711 1.582 3.832 1.6562 1.4922 0.078125 2.8555-0.65625 3.9648-1.5781 2.0547-1.6992 3.3125-4.6641 3.3398-7.3047 0.007813-0.92969-0.78516-1.7109-1.7109-1.7109-0.94141 0.011719-1.7031 0.78906-1.7148 1.7188z"/>
  <path d="m59.473 84.461v4.3867c0.57031-0.57031 1.1406-1.1406 1.7109-1.7109h-13.98-8c0.57031 0.57031 1.1406 1.1406 1.7109 1.7109v-2.4805-1.543-0.33594c0-0.097656 0.003907-0.19922 0.007813-0.29688 0.003906-0.089844 0.011719-0.17969 0.019531-0.26953 0.039063-0.45312-0.066406 0.37109 0.015625-0.074219 0.03125-0.17188 0.078125-0.34375 0.125-0.51172 0.027344-0.10547 0.28125-0.74219 0.097657-0.32031 0.085937-0.19531 0.1875-0.38281 0.29687-0.57031 0.054688-0.089843 0.44531-0.64062 0.16797-0.28125 0.23438-0.30078 0.50781-0.57031 0.79688-0.81641 0.14453-0.11719 0.13281-0.10938-0.042968 0.03125 0.10156-0.074218 0.21094-0.14453 0.31641-0.21484 0.17969-0.11719 0.37109-0.21484 0.5625-0.30859 0.17188-0.078125 0.15625-0.074219-0.054688 0.015625 0.082032-0.03125 0.16016-0.0625 0.24219-0.089844 0.20703-0.074219 0.41797-0.12891 0.62891-0.17578 0.085938-0.019531 0.17188-0.035157 0.25781-0.050781-0.44531 0.082031-0.007812 0.003906 0.078126-0.003907 0.14844-0.011719 0.29297-0.015625 0.44141-0.015625h1.2812c-0.40234-0.16797-0.80469-0.33203-1.207-0.5 1.3555 1.5234 2.707 3.0469 4.0625 4.5703 0.58984 0.66406 1.8281 0.66797 2.418 0 1.3438-1.5234 2.6875-3.0469 4.0273-4.5703-0.40234 0.16797-0.80469 0.33203-1.207 0.5h1.3086c0.18359 0 0.36719 0.011719 0.55078 0.027344 0.19531 0.023438 0.17969 0.019531-0.058594-0.007812 0.12891 0.019531 0.25781 0.050781 0.38672 0.078124 0.21094 0.046876 0.41797 0.11719 0.625 0.19141 0.41406 0.14844-0.32812-0.15625 0.066406 0.027343 0.11719 0.054688 0.23047 0.11719 0.33984 0.17969 0.1875 0.10156 0.36328 0.22266 0.53516 0.34375-0.36719-0.25781 0.16016 0.14453 0.23828 0.22266 0.15625 0.14453 0.29688 0.30469 0.43359 0.46484 0.28125 0.32812-0.21094-0.29297 0.042969 0.058594 0.074218 0.10547 0.14062 0.21484 0.20703 0.32031 0.11328 0.18359 0.20703 0.375 0.29688 0.57031-0.19141-0.41406 0.0625 0.21484 0.097656 0.32031 0.0625 0.21094 0.10938 0.42578 0.14844 0.64062-0.082032-0.44531-0.003906-0.007812 0.003906 0.078125 0.003906 0.13672 0.003906 0.27344 0.003906 0.41016 0.011719 0.92969 0.76953 1.7109 1.7109 1.7109 0.92188 0 1.7188-0.77734 1.7109-1.7109-0.03125-2.5625-1.3398-4.8672-3.4883-6.25-1.0664-0.68359-2.3242-1.0078-3.5781-1.082-0.63281-0.039062-1.4297-0.11328-2.043 0.054688-0.59766 0.16406-0.92969 0.63672-1.3125 1.0742-0.46484 0.52734-0.92578 1.0508-1.3906 1.5781-0.69141 0.78516-1.3867 1.5703-2.0781 2.3555h2.418c-0.74219-0.83594-1.4844-1.668-2.2266-2.5039-0.46875-0.52734-0.9375-1.0547-1.4062-1.582-0.47656-0.53906-0.87891-0.98438-1.7109-0.98438-0.84375 0-1.668-0.011719-2.5039 0.11719-1.3008 0.20312-2.4297 0.80859-3.4531 1.6094-1.7461 1.3594-2.625 3.6133-2.625 5.7812v4.2188c0 0.92969 0.77734 1.7109 1.7109 1.7109h13.98 8c0.92969 0 1.7109-0.77734 1.7109-1.7109v-4.3867c0-0.92969-0.77734-1.7109-1.7109-1.7109-0.9375 0-1.7148 0.77734-1.7148 1.7109z"/>
  <path d="m31.297 19.762c1.0977-0.76172 2.2383-1.4648 3.4141-2.1016 0.56641-0.30859 1.1445-0.59375 1.7305-0.86719 0.29297-0.13672 0.58984-0.26953 0.88281-0.39844 0.48828-0.21484-0.30469 0.125 0.1875-0.078125 0.19922-0.082031 0.40234-0.16406 0.60156-0.24219 1.2695-0.49609 2.5703-0.91016 3.8867-1.25 0.64062-0.16797 1.2852-0.30859 1.9336-0.4375 0.32812-0.066407 0.65234-0.12109 0.98047-0.17969 0.16406-0.027343 0.32813-0.054687 0.49609-0.078125 0.058594-0.007812 0.71484-0.097656 0.375-0.054687 5.6953-0.73828 10.91-0.10547 16.242 1.9102 0.30469 0.11719 0.60938 0.23828 0.91016 0.36328-0.32422-0.13281 0.17188 0.074219 0.19141 0.082032 0.14844 0.066406 0.29688 0.13281 0.44531 0.19922 0.59375 0.26562 1.1758 0.55469 1.75 0.85156 1.1445 0.59766 2.2539 1.2656 3.3242 1.9844 0.77344 0.51953 1.8906 0.15234 2.3398-0.61328 0.49219-0.84375 0.16016-1.8203-0.61328-2.3398-9.4883-6.3789-21.82-7.8828-32.562-3.9648-2.918 1.0625-5.6953 2.4922-8.2461 4.2617-0.76172 0.53125-1.1133 1.4883-0.61328 2.3398 0.44922 0.75781 1.5781 1.1445 2.3438 0.61328z"/>
  <path d="m34.469 75.504c-1.043-0.57422-2.0586-1.1992-3.0391-1.875-0.46875-0.32422-0.92969-0.66016-1.3828-1.0078 0.31641 0.24219-0.0625-0.050782-0.10156-0.082032-0.11328-0.089843-0.22266-0.17969-0.33203-0.26562-0.25781-0.21094-0.51172-0.42188-0.76562-0.64063-0.89844-0.77344-1.7539-1.5938-2.5703-2.4531-0.39062-0.41406-0.76953-0.83594-1.1406-1.2695-0.1875-0.21484-0.36719-0.43359-0.54688-0.65625-0.089844-0.10938-0.17969-0.22266-0.26953-0.33203-0.058593-0.074219-0.11719-0.14844-0.17578-0.22266 0.12109 0.16016 0.125 0.16016 0.007813 0.007812-1.4492-1.8945-2.6875-3.9453-3.7148-6.0938-0.125-0.25781-0.24219-0.52344-0.35938-0.78516-0.058594-0.13281-0.11719-0.26562-0.17188-0.39453-0.19141-0.44141 0.13281 0.32422-0.050781-0.125-0.23828-0.58203-0.46094-1.168-0.66797-1.7617-0.40234-1.1484-0.73438-2.3242-1.0117-3.5078-0.13281-0.57422-0.25-1.1562-0.35547-1.7344-0.054687-0.29297-0.10156-0.58594-0.14453-0.87891-0.023437-0.14844-0.042969-0.29688-0.0625-0.44141 0.058594 0.41797-0.023437-0.21484-0.035156-0.28906-0.10938-0.92578-0.69531-1.7109-1.7109-1.7109-0.84766 0-1.8203 0.78125-1.7109 1.7109 0.59766 5.0508 2.168 9.9062 4.7422 14.305 2.5078 4.2852 5.9062 7.9648 9.8828 10.922 1.2617 0.9375 2.5898 1.7812 3.9688 2.5391 0.81641 0.44922 1.8594 0.20703 2.3398-0.61328 0.45312-0.79297 0.19531-1.8945-0.62109-2.3438z"/>
  <path d="m82.863 50.234c-0.03125 0.29688-0.066406 0.59375-0.10156 0.89062 0.050781-0.41406-0.011719 0.078125-0.019531 0.13672-0.019532 0.14844-0.042969 0.29297-0.066407 0.44141-0.10156 0.63281-0.22266 1.2617-0.35547 1.8867-0.25781 1.1914-0.58594 2.3633-0.96484 3.5195-0.17969 0.55078-0.37891 1.0938-0.58984 1.6328-0.10547 0.26953-0.21484 0.53516-0.32422 0.80078 0.15625-0.37109-0.03125 0.070312-0.054687 0.12109-0.078125 0.17578-0.15625 0.35156-0.23438 0.52344-0.49609 1.0859-1.0547 2.1406-1.6602 3.1719-0.60156 1.0234-1.2656 2.0117-1.9688 2.9688-0.085938 0.11328-0.17188 0.22656-0.25781 0.33984-0.28516 0.37891 0.21094-0.26953-0.082031 0.10547-0.17578 0.22266-0.35547 0.44531-0.53516 0.66406-0.39063 0.47656-0.79688 0.9375-1.2109 1.3906-0.80078 0.87109-1.6484 1.6992-2.5312 2.4844-0.42578 0.37891-0.85938 0.74219-1.3008 1.0977-0.10938 0.089844-0.22266 0.17578-0.33594 0.26562 0.3125-0.24609-0.0625 0.046875-0.10547 0.078125-0.26562 0.19922-0.53125 0.39453-0.80469 0.58984-1.082 0.77344-2.2148 1.4805-3.3789 2.125-0.8125 0.44922-1.0742 1.5508-0.61328 2.3398 0.48047 0.81641 1.5234 1.0625 2.3398 0.61328 8.6523-4.7852 15.105-13.07 17.605-22.641 0.47266-1.8203 0.78125-3.6797 0.97656-5.5469 0.097657-0.92969-0.85156-1.7109-1.7109-1.7109-1.0117 0.003906-1.6172 0.78516-1.7148 1.7109z"/>
 </g>
</svg>
