<?xml version="1.0" encoding="UTF-8"?>
<svg fill="#003F72" width="100pt" height="100pt" version="1.1" viewBox="0 0 100 100" xmlns="http://www.w3.org/2000/svg">
 <path d="m7.7344 74.539l40.625 25c1.0039 0.61719 2.2695 0.61719 3.2734 0l40.625-25c0.92578-0.56641 1.4922-1.5781 1.4922-2.6641v-43.75c0-1.0859-0.55859-2.0938-1.4844-2.6641l-40.625-25c-1.0039-0.61719-2.2695-0.61719-3.2734 0l-40.625 25c-0.92578 0.56641-1.4922 1.5781-1.4922 2.6641v43.75c0 1.0859 0.55859 2.0938 1.4844 2.6641zm4.7656-44.664l37.5-23.078 37.5 23.078v40.25l-37.5 23.078-37.5-23.078z"/>
</svg>
