<?xml version="1.0" encoding="UTF-8"?>
<svg fill="#772432" width="100pt" height="100pt" version="1.1" viewBox="0 0 100 100" xmlns="http://www.w3.org/2000/svg">
 <path d="m50 90.105c-10.637 0-20.836-4.2266-28.359-11.746-7.5195-7.5234-11.746-17.723-11.746-28.359s4.2266-20.836 11.746-28.359c7.5234-7.5195 17.723-11.746 28.359-11.746s20.836 4.2266 28.359 11.746c7.5195 7.5234 11.746 17.723 11.746 28.359-0.011719 10.633-4.2422 20.828-11.762 28.344-7.5156 7.5195-17.711 11.75-28.344 11.762zm3.9531-76.289v-0.003906c-10.055-1.0977-20.109 2.0391-27.758 8.6523-7.6523 6.6133-12.207 16.109-12.57 26.215-0.36719 10.105 3.4844 19.91 10.637 27.059 7.1484 7.1523 16.953 11.004 27.059 10.637 10.105-0.36328 19.602-4.918 26.215-12.57 6.6133-7.6484 9.75-17.703 8.6523-27.758-0.91016-8.2344-4.5977-15.918-10.457-21.777s-13.543-9.5469-21.777-10.457zm4.6367 59.176l-17.18-0.003907v-14.398h-14.398v-17.18h14.398v-14.398h17.18v14.398h14.398v17.18h-14.398v14.398zm-14.398-2.7852h11.617v-14.398h14.395v-11.617h-14.395v-14.398h-11.617v14.398h-14.398v11.617h14.398z"/>
</svg>
