<?xml version="1.0" encoding="UTF-8"?>
<svg fill="#0083BE" width="100pt" height="100pt" version="1.1" viewBox="0 0 100 100" xmlns="http://www.w3.org/2000/svg">
 <g>
  <path d="m50 98.125l-41.562-24.062v-48.125l41.562-24.062 41.562 24.062v48.125l-9.6875 5.625-0.625-3.4375c-0.9375-7.1875-7.1875-12.5-14.375-12.5-8.125 0-14.688 6.5625-14.688 14.688 0 4.375 1.875 8.75 5.625 11.562l2.8125 2.1875zm-36.875-26.875l36.875 21.25 2.5-1.5625c-3.125-3.4375-4.6875-8.125-4.6875-12.812 0-10.625 8.75-19.375 19.375-19.375 8.4375 0 15.625 5.625 18.438 13.125l1.5625-0.9375v-42.188l-37.188-21.25-36.875 21.25z"/>
  <path d="m66.875 97.812c-4.375 0-8.75-1.5625-12.188-4.375-4.6875-3.75-7.1875-9.0625-7.1875-15 0-10.625 8.75-19.375 19.375-19.375 9.375 0 17.812 7.1875 19.062 16.562 0.3125 0.9375 0.3125 1.875 0.3125 2.8125 0 10.625-8.4375 19.375-19.375 19.375zm0-34.062c-8.125 0-14.688 6.5625-14.688 14.688 0 4.375 1.875 8.75 5.625 11.562 2.5 2.1875 5.625 3.125 9.0625 3.125 8.125 0 14.688-6.5625 14.688-14.688 0-0.625 0-1.5625-0.3125-2.1875-0.9375-7.1875-7.1875-12.5-14.375-12.5z"/>
  <path d="m63.75 87.812l-6.875-6.875 3.4375-3.4375 3.4375 3.75 10.625-10.625 3.125 3.4375z"/>
 </g>
</svg>
