<?xml version="1.0" encoding="UTF-8"?>
<svg fill="#772432" width="100pt" height="100pt" version="1.1" viewBox="0 0 100 100" xmlns="http://www.w3.org/2000/svg">
 <g>
  <path d="m12.5 9.375v-3.125h-3.125v68.75h3.125v-3.125h34.375v-18.75h-34.375v-3.125h56.25v-18.75h-56.25v-3.125h78.125v-18.75zm31.25 46.875v12.5h-31.25v-12.5zm21.875-21.875v12.5h-53.125v-12.5zm21.875-9.375h-75v-12.5h75z"/>
  <path d="m82.812 75h-65.625c-4.3086 0-7.8125 3.5039-7.8125 7.8125s3.5039 7.8125 7.8125 7.8125h65.625c4.3086 0 7.8125-3.5039 7.8125-7.8125s-3.5039-7.8125-7.8125-7.8125zm0 12.5h-65.625c-2.5859 0-4.6875-2.1016-4.6875-4.6875s2.1016-4.6875 4.6875-4.6875h65.625c2.5859 0 4.6875 2.1016 4.6875 4.6875s-2.1016 4.6875-4.6875 4.6875z"/>
  <path d="m37.5 82.812c0-2.5859-2.1016-4.6875-4.6875-4.6875s-4.6875 2.1016-4.6875 4.6875 2.1016 4.6875 4.6875 4.6875 4.6875-2.1016 4.6875-4.6875zm-4.6875 1.5625c-0.86328 0-1.5625-0.69922-1.5625-1.5625s0.69922-1.5625 1.5625-1.5625 1.5625 0.69922 1.5625 1.5625-0.69922 1.5625-1.5625 1.5625z"/>
 </g>
</svg>
