<?xml version="1.0" encoding="UTF-8"?>
<svg fill="#003F72" width="100pt" height="100pt" version="1.1" viewBox="0 0 100 100" xmlns="http://www.w3.org/2000/svg">
 <g fill-rule="evenodd">
  <path d="m52.082 43.75c4.6055 0 8.3359-3.7305 8.3359-8.332 0-4.6055-3.7305-8.3359-8.3359-8.3359-4.6016 0-8.332 3.7305-8.332 8.3359 0 4.6016 3.7305 8.332 8.332 8.332zm0-4.168c2.3008 0 4.168-1.8633 4.168-4.1641s-1.8672-4.168-4.168-4.168-4.1641 1.8672-4.1641 4.168 1.8633 4.1641 4.1641 4.1641z"/>
  <path d="m18.75 81.25c4.6016 0 8.332-3.7305 8.332-8.332 0-4.6055-3.7305-8.3359-8.332-8.3359s-8.332 3.7305-8.332 8.3359c0 4.6016 3.7305 8.332 8.332 8.332zm0-4.168c2.3008 0 4.168-1.8633 4.168-4.1641s-1.8672-4.168-4.168-4.168-4.168 1.8672-4.168 4.168 1.8672 4.1641 4.168 4.1641z"/>
  <path d="m85.418 60.418c4.6016 0 8.332-3.7305 8.332-8.3359 0-4.6016-3.7305-8.332-8.332-8.332-4.6055 0-8.3359 3.7305-8.3359 8.332 0 4.6055 3.7305 8.3359 8.3359 8.3359zm0-4.168c2.3008 0 4.1641-1.8672 4.1641-4.168s-1.8633-4.1641-4.1641-4.1641-4.168 1.8633-4.168 4.1641 1.8672 4.168 4.168 4.168z"/>
  <path d="m60.418 72.918c4.6016 0 8.332-3.7305 8.332-8.3359 0-4.6016-3.7305-8.332-8.332-8.332-4.6055 0-8.3359 3.7305-8.3359 8.332 0 4.6055 3.7305 8.3359 8.3359 8.3359zm0-4.168c2.3008 0 4.1641-1.8672 4.1641-4.168s-1.8633-4.1641-4.1641-4.1641-4.168 1.8633-4.168 4.1641 1.8672 4.168 4.168 4.168z"/>
  <path d="m22.918 56.25c4.6016 0 8.332-3.7305 8.332-8.332 0-4.6055-3.7305-8.3359-8.332-8.3359-4.6055 0-8.3359 3.7305-8.3359 8.3359 0 4.6016 3.7305 8.332 8.3359 8.332zm0-4.168c2.3008 0 4.1641-1.8633 4.1641-4.1641s-1.8633-4.168-4.1641-4.168-4.168 1.8672-4.168 4.168 1.8672 4.1641 4.168 4.1641z"/>
  <path d="m89.582 31.25c4.6055 0 8.3359-3.7305 8.3359-8.332 0-4.6055-3.7305-8.3359-8.3359-8.3359-4.6016 0-8.332 3.7305-8.332 8.3359 0 4.6016 3.7305 8.332 8.332 8.332zm0-4.168c2.3008 0 4.168-1.8633 4.168-4.1641s-1.8672-4.168-4.168-4.168-4.1641 1.8672-4.1641 4.168 1.8633 4.1641 4.1641 4.1641z"/>
  <path d="m24.016 70.129l25.754-28.973-3.1406-2.7383-25.824 29.055z"/>
  <path d="m65.637 60.758l22.742-32.484-3.543-2.2031-22.699 32.422z"/>
  <path d="m56.195 60.426l-27.164-12.07-1.5234 3.8828 26.898 11.953z"/>
  <path d="m81.457 47.773l-23.57-11.785-1.793 3.7656 23.234 11.613z"/>
  <path d="m0 0h4.168v95.832h95.832v4.168h-100z"/>
 </g>
</svg>
