<?xml version="1.0" encoding="UTF-8"?>
<svg fill="#C4262E" width="100pt" height="100pt" version="1.1" viewBox="0 0 100 100" xmlns="http://www.w3.org/2000/svg">
 <path d="m99.531 29.688l-19.375-18.438c-0.46875-0.3125-0.9375-0.46875-1.5625-0.3125l-25 7.3438-18.75-17.812c-0.46875-0.3125-0.9375-0.46875-1.5625-0.3125l-25.625 7.5c-0.46875 0.15625-0.9375 0.625-1.0938 1.25l-6.5625 26.094c-0.15625 0.46875 0 1.0938 0.46875 1.5625l18.75 17.812-6.25 25.312c-0.15625 0.46875 0 1.0938 0.46875 1.5625l19.375 18.438c0.3125 0.3125 0.625 0.46875 1.0938 0.46875h0.46875l25.781-7.6562c0.46875-0.15625 0.9375-0.625 1.0938-1.0938l6.25-25.312 25-7.3438c0.46875-0.15625 0.9375-0.625 1.0938-1.0938l6.4062-26.406c0.15625-0.625 0-1.0938-0.46875-1.5625zm-96.25 5.1562l6.0938-24.375 24.062-7.1875 17.969 17.188-6.0938 24.375-24.062 7.1875zm55 54.688l-24.062 7.1875-17.969-17.188 6.0938-24.375 24.062-7.1875 17.969 17.188zm32.344-33.75l-24.062 7.1875-18.125-17.344 6.0938-24.375 24.062-7.1875 17.969 17.188z"/>
</svg>
