<?xml version="1.0" encoding="UTF-8"?>
<svg fill="#0083BE" width="100pt" height="100pt" version="1.1" viewBox="0 0 100 100" xmlns="http://www.w3.org/2000/svg">
 <g>
  <path d="m76.137 35.844v0.10547c0.14062 1.832-0.63281 3.2969-2.1836 4.3164-2.043 1.3203-4.4414 0.86328-6.2891-1.0938-0.19531-0.19531-0.95312-0.67188-1.25-0.61719-0.33594 0.070312-0.54687 0.58203-0.63281 1.0039-0.015625 0.14062-0.035156 0.26562-0.035156 0.35156 0.015625 1.3906 0.125 2.7852 0.19531 4.1758 0 0.19531 0.015625 0.37109 0.015625 0.5625 0.035157 1.1992 0.015625 2.4141 0 3.6641v0.75781c-0.33594-0.015624-0.70312-0.035156-1.0742-0.054687-2.1484-0.10547-4.3008-0.21094-6.4492-0.28125-0.54688-0.015625-1.1094-0.035156-1.6562-0.054687-0.070313 0-0.17578 0-0.26562 0.035156-0.35156 0.070312-0.75781 0.28125-0.8125 0.47656-0.21094 0.93359 0.89844 1.7617 1.375 2.3984 0.54688 0.72266 0.91406 1.5156 0.98828 2.4297 0.10547 1.4258-0.45703 2.8555-1.5156 3.8242-2.0078 1.832-5.0938 1.6016-6.8359-0.47656-1.6914-2.0273-1.3555-4.793 0.72266-6.7656 0.72266-0.67187 0.65234-1.5-0.035156-1.7969-0.17578-0.070313-0.40625-0.125-0.67188-0.125-0.49219 0-0.98828 0.015624-1.4805 0.035156-0.75781 0.035156-1.5 0.085937-2.2539 0.10547-1.7812 0.035157-3.5586 0.015626-5.4453 0.015626 0-0.15625 0.015625-0.35156 0.015625-0.52734 0.015625-0.42188 0.054688-0.89844 0.070312-1.3555 0.070313-1.5312 0.15625-3.0859 0.23047-4.6172 0.015625-0.61719 0.30078-1.9727 0.10547-2.8555-0.070312-0.33594-0.19531-0.59766-0.42188-0.74219-1.0039-0.65234-2.7656 1.6211-3.6836 1.957-1.3906 0.49219-2.9609 0.33594-4.1953-0.47656-1.4609-0.96875-2.2188-2.6445-2.0977-4.3359 0.035157-0.54687 0.17578-1.1094 0.42188-1.6562 1.0039-2.1133 3.4531-3.2422 5.6719-2.4297 0.86328 0.33594 1.5703 1.0938 2.3789 1.6211 1.0586 0.65234 1.7812 0.63281 1.9023-0.75781 0.015626-0.125 0.015626-0.23047 0.015626-0.35156 0.015624-0.63281-0.054688-1.2695-0.10547-1.9023-0.10547-2.2891-0.21094-4.5625-0.30078-6.9414 2.6797-0.14062 5.2148-0.30078 7.7344-0.40625 0.21094-0.015625 0.42188-0.015625 0.63281-0.035156 0.47656-0.015626 1.0234-0.19531 1.4609-0.054688 0.23047 0.054688 0.42188 0.21094 0.5625 0.51172 0.47656 0.96875-0.51172 1.2695-0.98828 1.7812-1.4258 1.4805-1.8164 3.5938-0.95312 5.4102 0.88281 1.9023 2.7148 2.9258 4.8828 2.7148 1.9375-0.17578 3.543-1.5703 4.0547-3.5234 0.54688-2.0625-0.17578-3.6641-1.6914-5.0586-0.70703-0.62891-0.69141-1.4922 0.24609-1.7266 0.16016-0.054687 0.33594-0.070313 0.45703-0.070313 0.49219 0 0.98828 0 1.4805 0.035157 0.74219 0.035156 1.5 0.085937 2.2383 0.14062 1.7266 0.085937 3.4531 0.19531 5.2695 0.28125h0.17578c-0.054688 1.4453-0.125 2.8555-0.19531 4.2461-0.070313 1.3906-0.10547 2.7656-0.14062 4.1562 0 0.10547-0.015625 0.23047-0.015625 0.38672 0 0.72266 0.070313 1.7812 0.79297 1.832 0.5625 0.035156 1.1641-0.8125 1.5312-1.1445 1.4102-1.3555 3.0469-1.7617 4.8828-1.1289 1.8945 0.66406 2.9727 2.0742 3.1641 4.0312z"/>
  <path d="m91.344 31.828c-2.7969-13.453-10.898-22.883-24.078-28.027-7.8711-3.0664-16.582-3.5391-25.832-1.3945-7.9219 1.8398-13.586 5.3125-18.379 11.258-4.7695 5.9297-7.125 12.508-7 19.574 0.023437 1.0625 0.10937 2.1367 0.25 3.1914-0.10938 0.38281-0.28906 0.77734-0.54688 1.2031-0.10937 0.17188-0.21484 0.35938-0.30078 0.53516-0.77734 1.3984-1.5391 2.7812-2.3164 4.1914-1.4258 2.5977-2.8984 5.2852-4.3633 7.918-0.89844 1.6211-1.0898 3.4062-0.54688 5.3672 0.29688 1 0.77344 1.9141 1.4727 2.7734 0.96875 1.1484 2.2773 1.9883 3.9844 2.5625-0.54688 1.4141-0.46875 2.7031 0.22656 3.8242-0.023437 0.11328-0.039062 0.23437-0.058593 0.35937-0.27344 2.0312 0.39844 3.7734 1.9453 5.0547-1.0664 4.0664 0.44141 8.5156 3.7422 10.914 1 0.71484 2.0859 1.3281 3.2969 1.8477 0.50391 0.20703 1.0742 0.44141 1.6914 0.63281 3.8828 1.2656 7.8359 1.7539 11.652 2.2266l0.80078 0.097656c5.2031 0.6875 7.5156 5.25 9.8047 10.691 0.58594 1.3906 1.9336 2.2852 3.4414 2.2852 0.58984 0 1.1758-0.14062 1.6992-0.41016 1.6953-0.87109 7.8516-4.043 12.977-6.6836l3.668-1.8906c3.6719-1.9062 7.4688-3.875 11.285-5.8438l0.40234-0.20703 0.41797-0.39453c0.73047-0.72656 1.5-2.0117 1.0156-4.0039-0.58594-2.4609-0.98828-4.3516-0.84766-6.2773 0.19922-2.6641 0.98047-5.3516 2.457-8.4453 0.76562-1.6172 1.5859-3.2578 2.375-4.8438l0.046874-0.10156c0.97266-1.9492 1.9766-3.9609 2.9336-6.0195 3.3242-7.1484 4.2266-14.543 2.6836-21.965zm-16.461 47.418c-2.5898 1.3359-5.1562 2.668-7.6719 3.9727l-15.582 8.0391c-2.1836-4.6953-5.9844-10.816-13.805-11.852l-0.83984-0.10547c-3.6758-0.45312-7.1484-0.88281-10.461-1.9648-0.35938-0.11328-0.75-0.27344-1.1758-0.44922-0.69922-0.30469-1.3633-0.67578-1.9648-1.1055-1.0938-0.80078-1.6094-2.5039-1.2031-3.9453l0.050781-0.15625c0.070312-0.22656 0.15234-0.48047 0.22656-0.76563 0.55469-2.1055-0.13672-4.0859-1.8516-5.3594 0.38281-1.0625 0.28906-2.1133-0.27734-3.1328 0.36328-0.71875 1.0273-2.2109 0.59375-3.9531-0.45703-1.793-1.7969-2.9531-3.9844-3.4414l-0.71875-0.16406c-0.75781-0.21094-1.2578-0.44141-1.4609-0.66797-0.09375-0.12109-0.16016-0.24609-0.20312-0.39062-0.070313-0.25-0.046876-0.29297-0.023438-0.33594 1.4727-2.6445 2.9492-5.3359 4.3867-7.957l0.36328-0.66016c0.64844-1.1758 1.2969-2.3516 1.9609-3.5469l0.12891-0.23438c0.80859-1.3281 1.3086-2.6445 1.5234-4.0234l0.078125-0.50781-0.078125-0.50781c-0.14844-0.96484-0.23438-1.9531-0.26172-2.9453-0.09375-5.5312 1.7188-10.535 5.5469-15.297 3.8555-4.7812 8.2617-7.4648 14.738-8.9727 7.9531-1.8398 15.312-1.4688 21.949 1.1133 10.973 4.2852 17.707 12.102 20.023 23.234 1.25 6.0078 0.50781 12.016-2.2031 17.852-0.91016 1.9531-1.8984 3.9336-2.8594 5.8672-0.82031 1.6445-1.668 3.3477-2.4766 5.0469-1.8359 3.8516-2.8164 7.2812-3.0781 10.789-0.17188 2.4141 0.21875 4.7266 0.60937 6.5273z"/>
 </g>
</svg>
