<?xml version="1.0" encoding="UTF-8"?>
<svg fill="#C4262E" width="100pt" height="100pt" version="1.1" viewBox="0 0 100 100" xmlns="http://www.w3.org/2000/svg">
 <g>
  <path d="m31.398 37.371c3.0352 0 5.8125-1.0938 7.9727-2.9023-3.2695-2.7656-5.3555-6.8906-5.3555-11.5 0-3.4023 1.1484-6.5352 3.0586-9.0625-1.7031-0.87891-3.6289-1.3828-5.6758-1.3828-6.8594 0-12.422 5.5625-12.422 12.422 0 6.8633 5.5625 12.426 12.422 12.426z"/>
  <path d="m38.371 42.074c-3.5938-3.25-7.0391-3.2578-7.0391-3.2578s-15.051 0-15.051 29.609c0 31.113 6.8555 15.023 15.031 15.031 0.16406 0 0.32812 0.007813 0.48828 0.019531-0.47656-3.3828-0.6875-7.8828-0.6875-13.723 0-14.789 3.4141-23.055 7.2578-27.68z"/>
  <path d="m60.793 34.477c2.1562 1.8047 4.9336 2.8945 7.9648 2.8945 6.8594 0 12.422-5.5625 12.422-12.422s-5.5625-12.422-12.422-12.422c-2.043 0-3.9688 0.50391-5.668 1.3789 1.9141 2.5273 3.0625 5.6602 3.0625 9.0664 0 4.6094-2.0859 8.7383-5.3594 11.504z"/>
  <path d="m68.691 38.816s-3.4492 0.007813-7.0469 3.2578c0.69141 0.83594 1.3711 1.793 2.0195 2.8828 9.0195 1.1172 16.004 8.7969 16.004 18.117 0 7.543-4.5703 14.016-11.094 16.805-0.10156 1.293-0.23047 2.5-0.39453 3.5977 0.16406-0.011718 0.32812-0.019531 0.49609-0.019531 8.3164 0.007813 15.051 15.355 15.051-15.051-0.003906-29.59-15.035-29.59-15.035-29.59z"/>
  <path d="m43.121 63.074c0-9.8008 7.7227-17.773 17.41-18.23-0.36719-0.54688-0.74219-1.0625-1.125-1.5273-3.2578-3.9844-6.8008-5.0469-8.4453-5.3242-0.59375-0.10156-0.94531-0.10156-0.94531-0.10156s-0.33984 0.003906-0.91016 0.097656c-1.6328 0.26953-5.207 1.3164-8.4922 5.3281-3.5703 4.3594-6.793 12.223-6.793 26.434 0 6.3672 0.26953 10.891 0.76172 14.051 0.78125 5.0117 2.1289 6.5938 3.8828 6.5938 2.9531 0 7.0586-4.4688 11.527-4.4688h0.003906c4.4961 0.003907 8.5625 4.1758 11.496 4.1758 1.7539 0 3.1055-1.4961 3.8984-6.2656 0.14844-0.89063 0.27344-1.9062 0.38281-3.0352-1.4023 0.34375-2.8633 0.55078-4.375 0.55078-10.098-0.003906-18.277-8.1875-18.277-18.277z"/>
  <path d="m41.586 33.289c2.0391 1.6836 4.5938 2.7617 7.3867 2.9922 0.36719 0.03125 0.73828 0.054688 1.1133 0.054688 0.33984 0 0.66797-0.027344 1-0.050782 2.832-0.21094 5.4219-1.2891 7.4883-2.9922 2.9766-2.4531 4.875-6.1641 4.875-10.324 0-3.0898-1.0586-5.9258-2.8164-8.1875-2.4453-3.1445-6.2578-5.1797-10.551-5.1797-4.2969 0-8.1094 2.0352-10.555 5.1836-1.7578 2.2617-2.8125 5.0977-2.8125 8.1836 0.003906 4.1602 1.8984 7.8711 4.8711 10.32z"/>
  <path d="m59.141 65.711h-7.2773c-1.3828 0-2.5-1.1172-2.5-2.5 0-1.3828 1.1172-2.5 2.5-2.5h19.555c1.3828 0 2.5 1.1172 2.5 2.5 0 1.3828-1.1172 2.5-2.5 2.5z"/>
 </g>
</svg>
