<?xml version="1.0" encoding="UTF-8"?>
<svg fill="#003F72" width="100pt" height="100pt" version="1.1" viewBox="0 0 100 100" xmlns="http://www.w3.org/2000/svg">
 <path d="m77.5 40.293h-8.457l-14.453-15.469c-1.0352-1.1133-2.7734-1.1719-3.8867-0.13672s-1.1719 2.7734-0.13672 3.8867l10.938 11.699h-33.945v-3.3398c0-1.5234-1.2305-2.7539-2.7539-2.7539-1.5234 0-2.7539 1.2305-2.7539 2.7539v3.3398h-11.777c-5.4492 0.019531-9.8828 4.4336-9.8828 9.8828v15.234c0 1.5234 1.2305 2.7539 2.7539 2.7539h5.4688c1.2109 4.5508 5.3711 7.9102 10.293 7.9102s9.0625-3.3594 10.293-7.9102h41.641c1.2109 4.5508 5.3711 7.9102 10.293 7.9102 4.9219 0 9.0625-3.3594 10.293-7.9102h5.4688c1.5234 0 2.7539-1.2305 2.7539-2.7539v-9.5117c-0.039063-9.5117-14.551-15.586-22.148-15.586zm-58.594 30.254c-2.832 0-5.1562-2.3047-5.1562-5.1562 0-2.832 2.3047-5.1562 5.1562-5.1562s5.1562 2.3047 5.1562 5.1562c-0.019531 2.8516-2.3242 5.1562-5.1562 5.1562zm62.207 0c-2.832 0-5.1562-2.3047-5.1562-5.1562 0-2.832 2.3047-5.1562 5.1562-5.1562 2.832 0 5.1562 2.3047 5.1562 5.1562-0.019531 2.8516-2.3242 5.1562-5.1562 5.1562zm12.988-7.9102h-2.7148c-1.2109-4.5508-5.3711-7.9102-10.293-7.9102s-9.0625 3.3594-10.293 7.9102h-41.621c-1.2109-4.5508-5.3711-7.9102-10.293-7.9102s-9.0625 3.3594-10.293 7.9102h-2.6953v-12.48c0-2.4023 1.9531-4.3555 4.3555-4.3555h67.227c6.5625 0 16.602 5.4102 16.602 10.078v6.7578z"/>
</svg>
