<?xml version="1.0" encoding="UTF-8"?>
<svg fill="#0083BE" width="100pt" height="100pt" version="1.1" viewBox="0 0 100 100" xmlns="http://www.w3.org/2000/svg">
 <path d="m50.688 6c-0.79688 0.042969-1.543 0.39844-2.0742 0.98828-0.53516 0.59375-0.8125 1.3711-0.76953 2.168 0.039062 0.79688 0.39844 1.543 0.98828 2.0742 0.59375 0.53516 1.3711 0.8125 2.168 0.76953 21.023 0 38 16.977 38 38s-16.977 38-38 38-38-16.977-38-38c0-7.9531 2.3281-15.234 6.4688-21.312 0.52734-0.65234 0.75781-1.4922 0.63672-2.3242-0.12109-0.82812-0.58203-1.5703-1.2734-2.043-0.69141-0.47266-1.5508-0.63281-2.3672-0.44531s-1.5195 0.71094-1.9336 1.4375c-4.8047 7.0586-7.5312 15.551-7.5312 24.688 0 24.266 19.734 44 44 44s44-19.734 44-44-19.734-44-44-44c-0.10547-0.003906-0.20703-0.003906-0.3125 0zm-26.844 10c-0.13672 0.011719-0.27344 0.03125-0.40625 0.0625l-16 3c-0.83203 0.09375-1.5859 0.52734-2.0859 1.1992-0.49609 0.67578-0.6875 1.5234-0.53125 2.3477 0.15625 0.82031 0.65234 1.5391 1.3594 1.9844 0.71094 0.44141 1.5742 0.56641 2.3828 0.34375l12.875-2.4062 1.5938 12.844c0.042969 0.83203 0.43359 1.6094 1.0703 2.1445 0.64063 0.53516 1.4766 0.77734 2.3008 0.67188 0.82812-0.10156 1.5742-0.54688 2.0625-1.2227 0.48438-0.67578 0.66797-1.5273 0.50391-2.3438l-2-16c-0.19531-1.5586-1.5586-2.7031-3.125-2.625zm24.125 5.9375c-0.80078 0.007812-1.5664 0.33594-2.125 0.91016-0.55469 0.57812-0.85938 1.3516-0.84375 2.1523v28c0 1.6562 1.3438 3 3 3h22c0.80469 0.011719 1.5781-0.30078 2.1484-0.86328 0.57422-0.5625 0.89453-1.332 0.89453-2.1367s-0.32031-1.5742-0.89453-2.1367c-0.57031-0.5625-1.3438-0.875-2.1484-0.86328h-19v-25c0.015625-0.8125-0.29688-1.5977-0.86719-2.1719-0.57031-0.57812-1.3516-0.89844-2.1641-0.89062z"/>
</svg>
