<?xml version="1.0" encoding="UTF-8"?>
<svg fill="#003F72" width="100pt" height="100pt" version="1.1" viewBox="0 0 100 100" xmlns="http://www.w3.org/2000/svg">
 <g fill="none" stroke="#003F72" stroke-linejoin="round" stroke-miterlimit="11.2">
  <path transform="matrix(1.5625 0 0 1.5625 0 -1544.3)" d="m61.258 1020.4c0 7.76-3.0825 15.2-8.57 20.688s-12.928 8.57-20.688 8.57c-7.76 0-15.2-3.0825-20.688-8.57s-8.57-12.928-8.57-20.688c0-7.76 3.0825-15.2 8.57-20.688s12.928-8.57 20.688-8.57c7.76 0 15.2 3.0825 20.688 8.57s8.57 12.928 8.57 20.688z" stroke-linecap="square" stroke-width="5.486"/>
  <path transform="matrix(1.5625 0 0 1.5625 -1.0385 -1539.6)" d="m11.667 1016.8v0c0.395-3.63 1.6525-6.9325 3.545-9.3175 1.8925-2.3825 4.3-3.6925 6.7875-3.6925s4.895 1.31 6.7875 3.695 3.15 5.6875 3.5425 9.3175" stroke-linecap="round" stroke-width="4"/>
  <path transform="matrix(1.5625 0 0 1.5625 -1.0385 -1539.6)" d="m53.045 1017.4v0c-0.3925 3.63-1.65 6.935-3.5425 9.3175-1.895 2.385-4.3 3.695-6.7875 3.695-2.4875 0-4.895-1.31-6.7875-3.695-1.895-2.385-3.15-5.6875-3.545-9.32" stroke-linecap="round" stroke-width="4"/>
 </g>
</svg>
