<?xml version="1.0" encoding="UTF-8"?>
<svg fill="#772432" width="100pt" height="100pt" version="1.1" viewBox="0 0 100 100" xmlns="http://www.w3.org/2000/svg">
 <path d="m75 10c-8.25 0-15 6.75-15 15 0 1.3438 0.19531 2.6328 0.53125 3.875l-23.75 11.875c-2.7539-3.4961-7.0156-5.75-11.781-5.75-8.25 0-15 6.75-15 15s6.75 15 15 15c4.7773 0 9.0273-2.2734 11.781-5.7812l23.781 11.875c-0.34375 1.2539-0.5625 2.5508-0.5625 3.9062 0 8.25 6.75 15 15 15s15-6.75 15-15-6.75-15-15-15c-4.7656 0-9.0273 2.2539-11.781 5.75l-23.75-11.906c0.33203-1.2344 0.53125-2.5117 0.53125-3.8438 0-1.3438-0.19531-2.6328-0.53125-3.875l23.75-11.875c2.7539 3.4961 7.0156 5.75 11.781 5.75 8.25 0 15-6.75 15-15s-6.75-15-15-15zm0 6c5.0078 0 9 3.9922 9 9s-3.9922 9-9 9-9-3.9922-9-9 3.9922-9 9-9zm-50 25c5.0078 0 9 3.9922 9 9s-3.9922 9-9 9-9-3.9922-9-9 3.9922-9 9-9zm50 25c5.0078 0 9 3.9922 9 9s-3.9922 9-9 9-9-3.9922-9-9 3.9922-9 9-9z"/>
</svg>
