<?xml version="1.0" encoding="UTF-8"?>
<svg fill="#003F72" width="100pt" height="100pt" version="1.1" viewBox="0 0 100 100" xmlns="http://www.w3.org/2000/svg">
 <path d="m75 12c-7.168 0-13 5.832-13 13 0 1.7305 0.32031 3.3906 0.9375 4.9062l-26.781 13.406c-2.2773-3.7852-6.4297-6.3125-11.156-6.3125-7.168 0-13 5.832-13 13s5.832 13 13 13c4.7266 0 8.8789-2.5273 11.156-6.3125l26.781 13.375c-0.625 1.5195-0.9375 3.1953-0.9375 4.9375 0 7.168 5.832 13 13 13s13-5.832 13-13-5.832-13-13-13c-4.7227 0-8.8438 2.5352-11.125 6.3125l-26.812-13.406c0.61719-1.5156 0.9375-3.1758 0.9375-4.9062s-0.32031-3.3906-0.9375-4.9062l26.812-13.406c2.2812 3.7773 6.4023 6.3125 11.125 6.3125 7.168 0 13-5.832 13-13s-5.832-13-13-13zm0 2c6.0859 0 11 4.9141 11 11s-4.9141 11-11 11-11-4.9141-11-11 4.9141-11 11-11zm-50 25c6.0859 0 11 4.9141 11 11s-4.9141 11-11 11-11-4.9141-11-11 4.9141-11 11-11zm50 25c6.0859 0 11 4.9141 11 11s-4.9141 11-11 11-11-4.9141-11-11 4.9141-11 11-11z"/>
</svg>
