<?xml version="1.0" encoding="UTF-8"?>
<svg fill="#772432" width="100pt" height="100pt" version="1.1" viewBox="0 0 100 100" xmlns="http://www.w3.org/2000/svg">
 <g>
  <path d="m86.574 27.871l-35.699-20.605c-0.54297-0.3125-1.2109-0.3125-1.7539 0l-35.695 20.605c-0.54297 0.3125-0.875 0.89062-0.875 1.5195v41.219c0 0.625 0.33203 1.2031 0.875 1.5195l35.699 20.609c0.26953 0.15625 0.57422 0.23438 0.875 0.23438 0.30469 0 0.60547-0.078125 0.875-0.23438l35.699-20.609c0.54297-0.3125 0.875-0.89062 0.875-1.5195v-41.219c0-0.625-0.33203-1.2031-0.875-1.5195zm-2.6289 41.727l-33.945 19.598-33.945-19.598v-39.195l33.945-19.598 33.945 19.598z"/>
  <path d="m48.332 23.141l-5.5391 17.047h-17.922c-0.75781 0-1.4336 0.48828-1.668 1.2109-0.23438 0.72266 0.023437 1.5117 0.63672 1.9609l14.5 10.535-5.5391 17.047c-0.23438 0.72266 0.023438 1.5117 0.63672 1.9609 0.61328 0.44531 1.4453 0.44922 2.0586 0l14.504-10.539 14.5 10.535c0.30859 0.22266 0.66797 0.33594 1.0312 0.33594 0.35938 0 0.72266-0.10938 1.0312-0.33594 0.61328-0.44531 0.87109-1.2383 0.63672-1.9609l-5.5391-17.047 14.496-10.531c0.61328-0.44531 0.87109-1.2383 0.63672-1.9609-0.23438-0.72266-0.90625-1.2109-1.668-1.2109h-17.922l-5.5391-17.047c-0.23437-0.72266-0.90625-1.2109-1.668-1.2109-0.75391 0-1.4297 0.48828-1.6641 1.2109zm5.9336 19.34c0.23438 0.72266 0.90625 1.2109 1.668 1.2109h13.801l-11.168 8.1133c-0.61328 0.44531-0.87109 1.2383-0.63672 1.9609l4.2656 13.125-11.164-8.1133c-0.30859-0.22266-0.66797-0.33594-1.0312-0.33594-0.35938 0-0.72266 0.10938-1.0312 0.33594l-11.164 8.1133 4.2656-13.125c0.23438-0.72266-0.023437-1.5117-0.63672-1.9609l-11.168-8.1133h13.801c0.75781 0 1.4336-0.48828 1.668-1.2109l4.2656-13.125z"/>
 </g>
</svg>
