<?xml version="1.0" encoding="UTF-8"?>
<svg fill="#003F72" width="100pt" height="100pt" version="1.1" viewBox="0 0 100 100" xmlns="http://www.w3.org/2000/svg">
 <g>
  <path d="m45.129 59.262c-0.011718 0.80078-0.30078 1.4609-0.79688 1.9844-0.085937 0.09375-0.18359 0.17969-0.27734 0.26172-0.32031 0.28906 0.29297-0.20312-0.058594 0.046876-0.21094 0.14844-0.4375 0.27344-0.66797 0.38281 0.39062-0.1875 0.007813-0.007812-0.074219 0.019531-0.125 0.042969-0.25 0.074219-0.37891 0.10938-0.078125 0.019532-0.52344 0.09375-0.070312 0.03125-0.17969 0.023438-0.36328 0.03125-0.54297 0.03125-0.13672 0.003906-0.27344-0.007812-0.41016-0.019531-0.45312-0.035156 0.36719 0.066406-0.074218-0.015625-0.25781-0.050781-0.50781-0.13281-0.75391-0.22656 0.40625 0.15625 0.011718-0.007813-0.0625-0.046876-0.11328-0.058593-0.22266-0.12891-0.33203-0.19531-0.066406-0.042969-0.40625-0.30469-0.066406-0.035156-0.10156-0.078125-0.19141-0.16797-0.28516-0.25781-0.09375-0.085937-0.17969-0.18359-0.26172-0.27734-0.28906-0.32031 0.20312 0.29297-0.046875-0.058594-0.14844-0.21094-0.27344-0.4375-0.38281-0.66797 0.1875 0.39062 0.007812 0.007813-0.019532-0.074219-0.042968-0.125-0.074218-0.25-0.10938-0.37891-0.019531-0.078125-0.09375-0.52344-0.03125-0.070312-0.023437-0.17969-0.03125-0.36328-0.03125-0.54297-0.003906-0.13672 0.007813-0.27344 0.019531-0.41016 0.035157-0.45312-0.066406 0.36719 0.015626-0.074218 0.050781-0.25781 0.13281-0.50781 0.22656-0.75391-0.15625 0.40625 0.007812 0.011718 0.046875-0.0625 0.058594-0.11328 0.12891-0.22266 0.19531-0.33203 0.042968-0.066406 0.30469-0.40625 0.035156-0.066406 0.078125-0.10156 0.16797-0.19141 0.25391-0.28516s0.18359-0.17969 0.27734-0.26172c0.32031-0.28906-0.29297 0.20312 0.058594-0.046875 0.21094-0.14844 0.4375-0.27344 0.66797-0.38281-0.39062 0.1875-0.007812 0.007812 0.074219-0.019532 0.125-0.042968 0.25-0.074218 0.37891-0.10938 0.078125-0.019531 0.52344-0.09375 0.070313-0.03125 0.17969-0.023437 0.36328-0.03125 0.54297-0.03125 0.13672-0.003906 0.27344 0.007813 0.41016 0.019531 0.45312 0.035157-0.36719-0.066406 0.074219 0.015626 0.25781 0.050781 0.50781 0.13281 0.75391 0.22656-0.40625-0.15625-0.011719 0.007812 0.0625 0.046875 0.11328 0.058594 0.22266 0.12891 0.33203 0.19531 0.066406 0.042968 0.40625 0.30469 0.066406 0.035156 0.10156 0.078125 0.19141 0.16797 0.28516 0.25391s0.17969 0.18359 0.26172 0.27734c0.28906 0.32031-0.20312-0.29297 0.046875 0.058594 0.14844 0.21094 0.27344 0.4375 0.38281 0.66797-0.1875-0.39062-0.007813-0.007812 0.019531 0.074219 0.042969 0.125 0.074219 0.25 0.10938 0.37891 0.019531 0.078125 0.09375 0.52344 0.03125 0.070313 0.027344 0.18359 0.03125 0.36719 0.035156 0.54688 0.015625 0.92969 0.76562 1.7109 1.7109 1.7109 0.92188 0 1.7227-0.77734 1.7109-1.7109-0.042969-2.8008-1.8516-5.1914-4.5117-6.0352-2.6914-0.85156-5.5703 0.40234-7.0938 2.6797-1.582 2.3594-1.1133 5.4805 0.65234 7.5703 1.8398 2.1758 4.9688 2.5352 7.457 1.418 2.1562-0.96875 3.4609-3.3281 3.4961-5.6289 0.015625-0.92969-0.78906-1.7109-1.7109-1.7109-0.94531 0-1.6992 0.77734-1.7109 1.707z"/>
  <path d="m61 50.062c0 0.10156-0.078125 0.67969 0 0.21484-0.035156 0.21484-0.10156 0.42188-0.17578 0.62891 0.15234-0.41797-0.10938 0.17188-0.17578 0.27344-0.10938 0.15234-0.09375 0.14062 0.042968-0.039063-0.078125 0.10156-0.16797 0.19141-0.25391 0.28125-0.066406 0.070313-0.5 0.40234-0.14062 0.14062-0.17188 0.125-0.35938 0.22656-0.55078 0.32031 0.39844-0.19531-0.20703 0.046876-0.32812 0.078126-0.19141 0.035156-0.17188 0.035156 0.0625 0.003906-0.13281 0.015625-0.26953 0.019531-0.40625 0.023437-0.10156 0-0.67578-0.078125-0.21484 0-0.21484-0.035156-0.42188-0.10156-0.625-0.17578 0.41797 0.15234-0.17188-0.10938-0.27344-0.17578-0.15234-0.10938-0.14063-0.09375 0.039062 0.042969-0.10156-0.078126-0.19141-0.16797-0.28125-0.25391-0.070312-0.066406-0.40234-0.5-0.14062-0.14062-0.125-0.17188-0.22656-0.35938-0.32031-0.55078 0.19531 0.39844-0.046874-0.20703-0.078124-0.32812-0.035157-0.19141-0.035157-0.17188-0.003907 0.0625-0.015625-0.13281-0.019531-0.26953-0.023437-0.40625 0-0.10156 0.078125-0.67578 0-0.21484 0.035156-0.21484 0.10156-0.42188 0.17578-0.625-0.15234 0.41797 0.10938-0.17188 0.17578-0.27344 0.10938-0.15234 0.09375-0.14062-0.042968 0.039062 0.078124-0.10156 0.16797-0.19141 0.25391-0.28125 0.066406-0.070312 0.5-0.40234 0.14062-0.14062 0.17188-0.125 0.35938-0.22656 0.55078-0.32031-0.39844 0.19531 0.20703-0.046875 0.32812-0.078125 0.19141-0.035157 0.17188-0.035157-0.0625-0.003907 0.13281-0.015624 0.26953-0.019531 0.40625-0.023437 0.10156 0 0.67578 0.078125 0.21484 0 0.21484 0.035156 0.42188 0.10156 0.62891 0.17578-0.41797-0.15234 0.17188 0.10938 0.27344 0.17578 0.15234 0.10937 0.14063 0.09375-0.039062-0.042969 0.10156 0.078125 0.19141 0.16797 0.28125 0.25391 0.070312 0.066406 0.40234 0.5 0.14062 0.14062 0.125 0.17188 0.22656 0.35938 0.32031 0.55078-0.19531-0.39844 0.046874 0.20703 0.078124 0.32812 0.035157 0.19141 0.035157 0.17188 0.003907-0.0625 0.015625 0.13281 0.015625 0.26953 0.019531 0.40234 0.015625 0.92969 0.76562 1.7109 1.7109 1.7109 0.91797 0 1.7266-0.77734 1.7109-1.7109-0.054687-2.9453-2.3984-5.2891-5.3398-5.3398-2.9453-0.054687-5.2891 2.4805-5.3398 5.3398-0.054688 2.9453 2.4805 5.2891 5.3398 5.3398 2.9453 0.054687 5.2891-2.4805 5.3398-5.3398 0.015625-0.92969-0.78906-1.7109-1.7109-1.7109-0.94531 0.003907-1.6953 0.78125-1.7109 1.7109z"/>
  <path d="m61 68.465c0 0.10156-0.078125 0.67969 0 0.21484-0.035156 0.21484-0.10156 0.42187-0.17578 0.62891 0.15234-0.41797-0.10938 0.17188-0.17578 0.27344-0.10938 0.15234-0.09375 0.14062 0.042968-0.039062-0.078125 0.10156-0.16797 0.19141-0.25391 0.28125-0.066406 0.070312-0.5 0.40234-0.14062 0.14062-0.17188 0.125-0.35938 0.22656-0.55078 0.32031 0.39844-0.19531-0.20703 0.046875-0.32812 0.078125-0.19141 0.035157-0.17188 0.035157 0.0625 0.003907-0.13281 0.015624-0.26953 0.019531-0.40625 0.023437-0.10156 0-0.67578-0.078125-0.21484 0-0.21484-0.035156-0.42188-0.10156-0.625-0.17578 0.41797 0.15234-0.17188-0.10938-0.27344-0.17578-0.15234-0.10937-0.14063-0.09375 0.039062 0.042969-0.10156-0.078125-0.19141-0.16797-0.28125-0.25391-0.070312-0.066406-0.40234-0.5-0.14062-0.14062-0.125-0.17188-0.22656-0.35938-0.32031-0.55078 0.19531 0.39844-0.046874-0.20703-0.078124-0.32812-0.035157-0.19141-0.035157-0.17188-0.003907 0.0625-0.015625-0.13281-0.019531-0.26953-0.023437-0.40625 0-0.10156 0.078125-0.67578 0-0.21484 0.035156-0.21484 0.10156-0.42188 0.17578-0.62891-0.15234 0.41797 0.10938-0.17188 0.17578-0.27344 0.10938-0.15234 0.09375-0.14062-0.042968 0.039063 0.078124-0.10156 0.16797-0.19141 0.25391-0.28125 0.066406-0.070313 0.5-0.40234 0.14062-0.14062 0.17188-0.125 0.35938-0.22656 0.55078-0.32031-0.39844 0.19531 0.20703-0.046875 0.32812-0.078125 0.19141-0.035156 0.17188-0.035156-0.0625-0.003906 0.13281-0.015625 0.26953-0.019531 0.40625-0.023438 0.10156 0 0.67578 0.078126 0.21484 0 0.21484 0.035157 0.42188 0.10156 0.62891 0.17578-0.41797-0.15234 0.17188 0.10938 0.27344 0.17578 0.15234 0.10938 0.14063 0.09375-0.039062-0.042969 0.10156 0.078125 0.19141 0.16797 0.28125 0.25391 0.070312 0.066407 0.40234 0.5 0.14062 0.14063 0.125 0.17187 0.22656 0.35937 0.32031 0.55078-0.19531-0.39844 0.046874 0.20703 0.078124 0.32812 0.035157 0.19141 0.035157 0.17188 0.003907-0.0625 0.015625 0.13281 0.015625 0.26953 0.019531 0.40625 0.015625 0.92969 0.76562 1.7109 1.7109 1.7109 0.91797 0 1.7266-0.77734 1.7109-1.7109-0.054687-2.9453-2.3984-5.2891-5.3398-5.3398-2.9453-0.054688-5.2891 2.4805-5.3398 5.3398-0.054688 2.9453 2.4805 5.2891 5.3398 5.3398 2.9453 0.054687 5.2891-2.4805 5.3398-5.3398 0.015625-0.92969-0.78906-1.7109-1.7109-1.7109-0.94531 0-1.6953 0.77734-1.7109 1.7109z"/>
  <path d="m47.016 57.551c3.1328-1.4609 6.2656-2.9219 9.3945-4.3828 0.84375-0.39453 1.0508-1.5898 0.61328-2.3398-0.50391-0.85938-1.4922-1.0078-2.3398-0.61328-3.1328 1.4609-6.2656 2.9219-9.3945 4.3828-0.84375 0.39453-1.0508 1.5898-0.61328 2.3398 0.50391 0.85938 1.4961 1.0078 2.3398 0.61328z"/>
  <path d="m45.293 63.93c3.1328 1.4609 6.2656 2.9219 9.3945 4.3828 0.84375 0.39453 1.8359 0.24609 2.3398-0.61328 0.4375-0.74609 0.23047-1.9453-0.61328-2.3398-3.1328-1.4609-6.2656-2.9219-9.3945-4.3828-0.84375-0.39453-1.8359-0.24609-2.3398 0.61328-0.4375 0.74609-0.23047 1.9453 0.61328 2.3398z"/>
  <path d="m22.18 60.059c-0.003907 0.23828-0.015626 0.47266-0.042969 0.70703 0.050781-0.48438 0.003906-0.0625-0.011719 0.03125-0.023438 0.125-0.050781 0.24609-0.078125 0.37109-0.054687 0.25-0.12891 0.5-0.20703 0.74219-0.039063 0.125-0.085938 0.24609-0.12891 0.37109-0.03125 0.082031-0.0625 0.16406-0.097657 0.24609 0.085938-0.20312 0.09375-0.21875 0.015625-0.042969-0.21875 0.48438-0.48438 0.94531-0.78516 1.3828-0.039062 0.058593-0.30859 0.41406-0.042969 0.074218-0.078125 0.10156-0.16406 0.19922-0.24609 0.29688-0.19141 0.22266-0.40234 0.42969-0.62109 0.625-0.0625 0.058594-0.39453 0.31641-0.035156 0.042969-0.09375 0.074219-0.19531 0.14062-0.29688 0.20312-0.097656 0.066406-0.20312 0.12109-0.30469 0.17969-0.082031 0.046876-0.45312 0.21094-0.011719 0.027344-0.21094 0.089844-0.42969 0.14844-0.65625 0.19922-0.39062 0.085937 0.40625-0.035156 0.003906 0-0.15234 0.011719-0.30469 0.007813-0.45703 0-0.40234-0.019531 0.39844 0.074219 0.003907 0-0.11328-0.019531-0.22266-0.050781-0.33203-0.085937-0.10938-0.03125-0.21875-0.074219-0.32422-0.11328 0.44141 0.17188 0.078124 0.019532-0.011719-0.027344-0.21094-0.10937-0.41016-0.24609-0.60156-0.38281 0.36328 0.26172 0.03125 0.015625-0.035156-0.042969-0.125-0.10938-0.24609-0.22656-0.36328-0.34375-0.17969-0.18359-0.34375-0.37891-0.50781-0.57812 0.26953 0.33594 0-0.015625-0.042968-0.074218-0.074219-0.10938-0.14844-0.21875-0.21875-0.33203-0.14063-0.22266-0.26953-0.45703-0.39063-0.69141-0.0625-0.11719-0.11719-0.23828-0.17187-0.35938-0.078126-0.17578-0.074219-0.16016 0.015624 0.042969-0.035156-0.082032-0.066406-0.16406-0.097656-0.24609-0.18359-0.48047-0.32031-0.97656-0.41797-1.4844-0.019532-0.09375-0.070313-0.51953-0.011719-0.03125-0.015625-0.11719-0.023438-0.23828-0.03125-0.35938-0.019531-0.29688-0.007813-0.59766 0.015625-0.89453-0.039063 0.44531 0 0.011719 0.015625-0.074219 0.023437-0.12891 0.058593-0.25781 0.089843-0.38672 0.03125-0.125 0.074219-0.25 0.11719-0.375 0.14062-0.41797-0.15625 0.32812 0.023438-0.070312 0.10547-0.23438 0.23437-0.45703 0.375-0.67578 0.039062-0.066407 0.29687-0.41406 0.03125-0.070313 0.10547-0.13281 0.21875-0.26172 0.33594-0.38672 0.17578-0.1875 0.36719-0.35547 0.56641-0.51562-0.33594 0.27344 0.003907 0.011719 0.070313-0.03125 0.10547-0.070312 0.21875-0.13672 0.32812-0.19922 0.11328-0.0625 0.22656-0.12109 0.34375-0.17578 0.39453-0.19141-0.33984 0.12891 0.070312-0.023437 0.28906-0.10547 0.58984-0.17578 0.89062-0.23438 0.19531-0.03125 0.17578-0.027344-0.054687 0.007812 0.089843-0.007812 0.17969-0.015625 0.26953-0.019531 0.18359-0.011719 0.36328-0.007812 0.54688 0 0.089844 0.003906 0.17969 0.011719 0.26953 0.019531-0.23047-0.035156-0.25-0.039062-0.054687-0.007812 0.17578 0.027343 0.34375 0.070312 0.51562 0.11719 0.16797 0.042969 0.33203 0.10156 0.49609 0.16406-0.42578-0.15625 0.097656 0.050781 0.17969 0.09375 0.15234 0.078125 0.29688 0.16797 0.44141 0.25781 0.070313 0.046875 0.14062 0.09375 0.21094 0.14453-0.35156-0.24609-0.007813-0.003906 0.054687 0.050782 0.25781 0.21875 0.48828 0.47266 0.70312 0.73828-0.28516-0.35156 0.050781 0.10156 0.10156 0.17578 0.09375 0.14453 0.17188 0.29688 0.25 0.44922 0.039062 0.078125 0.074218 0.15625 0.10938 0.23438-0.089844-0.21094-0.097657-0.22656-0.03125-0.046875 0.058593 0.16406 0.10547 0.33203 0.15234 0.5 0.042969 0.17188 0.074219 0.34375 0.10156 0.51953-0.066406-0.45312 0.007813 0.25391 0.007813 0.36719 0.011718 0.92969 0.76953 1.7109 1.7109 1.7109 0.92188 0 1.7188-0.77734 1.7109-1.7109-0.03125-2.6289-1.4609-5.082-3.7852-6.3359-2.3203-1.2539-5.2969-1.1172-7.4648 0.40234-2.1289 1.4922-3.3672 4.0312-3.0898 6.6367 0.25391 2.4258 1.3789 4.8711 3.207 6.5156 1.0781 0.96875 2.3711 1.582 3.832 1.6562 1.4922 0.078125 2.8555-0.65625 3.9648-1.5781 2.0547-1.6992 3.3125-4.6641 3.3398-7.3047 0.007812-0.92969-0.78516-1.7109-1.7109-1.7109-0.94531 0.007812-1.707 0.78516-1.7148 1.7188z"/>
  <path d="m27.688 76.766v4.3867c0.57031-0.57031 1.1406-1.1406 1.7109-1.7109h-13.98-8c0.57031 0.57031 1.1406 1.1406 1.7109 1.7109v-2.4805-1.543-0.33594c0-0.097657 0.003906-0.19922 0.007813-0.29688 0.003906-0.089844 0.011719-0.17969 0.019531-0.26953 0.039062-0.45312-0.066406 0.37109 0.015625-0.074218 0.03125-0.17188 0.078125-0.34375 0.125-0.51172 0.027344-0.10547 0.28125-0.74219 0.097656-0.32031 0.085938-0.19531 0.1875-0.38281 0.29688-0.57031 0.054688-0.089844 0.44531-0.64062 0.16797-0.28125 0.23438-0.30078 0.50781-0.57031 0.79688-0.81641 0.14453-0.11719 0.13281-0.10938-0.042969 0.03125 0.10156-0.074219 0.21094-0.14453 0.31641-0.21484 0.17969-0.11719 0.37109-0.21484 0.5625-0.30859 0.17187-0.078125 0.15625-0.074218-0.054688 0.015625 0.082031-0.03125 0.16016-0.0625 0.24219-0.089843 0.20703-0.074219 0.41797-0.12891 0.62891-0.17578 0.085937-0.019531 0.17188-0.035156 0.25781-0.050781-0.44531 0.082031-0.007812 0.003906 0.078125-0.003906 0.14844-0.011719 0.29297-0.015625 0.44141-0.015625h1.2812c-0.40234-0.16797-0.80469-0.33203-1.207-0.5 1.3555 1.5234 2.707 3.0469 4.0625 4.5703 0.58984 0.66406 1.8281 0.66797 2.418 0 1.3438-1.5234 2.6875-3.0469 4.0273-4.5703-0.40234 0.16797-0.80469 0.33203-1.207 0.5h1.3086c0.18359 0 0.36719 0.011718 0.55078 0.027344 0.19531 0.023437 0.17969 0.019531-0.058593-0.007813 0.12891 0.019531 0.25781 0.050781 0.38672 0.078125 0.21094 0.046875 0.41797 0.11719 0.625 0.19141 0.41406 0.14844-0.32813-0.15625 0.066406 0.027344 0.11719 0.054688 0.23047 0.11719 0.33984 0.17969 0.1875 0.10156 0.36328 0.22266 0.53516 0.34375-0.36719-0.25781 0.16016 0.14453 0.23828 0.22266 0.15625 0.14453 0.29688 0.30469 0.43359 0.46484 0.28125 0.32812-0.21094-0.29297 0.042969 0.058593 0.074218 0.10547 0.14062 0.21484 0.20703 0.32031 0.11328 0.18359 0.20703 0.375 0.29688 0.57031-0.19141-0.41406 0.0625 0.21484 0.097656 0.32031 0.0625 0.21094 0.10938 0.42578 0.14844 0.64062-0.082032-0.44531-0.003907-0.007813 0.003906 0.078125 0 0.14062 0.003906 0.27734 0.003906 0.41016 0.011719 0.92969 0.76953 1.7109 1.7109 1.7109 0.92187 0 1.7188-0.77734 1.7109-1.7109-0.03125-2.5625-1.3398-4.8672-3.4883-6.25-1.0664-0.68359-2.3242-1.0078-3.5781-1.082-0.63281-0.039063-1.4297-0.11328-2.043 0.054687-0.59766 0.16406-0.92969 0.63672-1.3125 1.0742-0.46484 0.52734-0.92578 1.0508-1.3906 1.5781-0.69141 0.78516-1.3867 1.5703-2.0781 2.3555h2.418c-0.74219-0.83594-1.4844-1.668-2.2266-2.5039-0.46875-0.52734-0.9375-1.0547-1.4062-1.582-0.47656-0.53906-0.87891-0.98438-1.7109-0.98438-0.84375 0-1.668-0.011719-2.5039 0.11719-1.3008 0.20312-2.4297 0.80859-3.4531 1.6094-1.7461 1.3594-2.625 3.6133-2.625 5.7812v4.2188c0 0.92969 0.77734 1.7109 1.7109 1.7109h13.98 8c0.92969 0 1.7109-0.77734 1.7109-1.7109v-4.3867c0-0.92969-0.77734-1.7109-1.7109-1.7109-0.9375 0.003906-1.7148 0.78125-1.7148 1.7109z"/>
  <path d="m85.754 60.059c-0.003906 0.23828-0.015625 0.47266-0.042968 0.70703 0.050781-0.48438 0.003906-0.0625-0.011719 0.03125-0.023438 0.125-0.050781 0.24609-0.078125 0.37109-0.054688 0.25-0.12891 0.5-0.20703 0.74219-0.039062 0.125-0.085937 0.24609-0.12891 0.37109-0.03125 0.082031-0.0625 0.16406-0.097656 0.24609 0.085938-0.20312 0.09375-0.21875 0.015625-0.042969-0.21875 0.48438-0.48438 0.94531-0.78516 1.3828-0.039063 0.058593-0.30859 0.41406-0.042969 0.074218-0.078125 0.10156-0.16406 0.19922-0.24609 0.29688-0.19141 0.22266-0.40234 0.42969-0.62109 0.625-0.0625 0.058594-0.39453 0.31641-0.035156 0.042969-0.097656 0.074219-0.19531 0.14062-0.29688 0.20312-0.097656 0.066406-0.20312 0.12109-0.30469 0.17969-0.082032 0.046876-0.45312 0.21094-0.011719 0.027344-0.21094 0.089844-0.43359 0.14844-0.65625 0.19922-0.39062 0.085937 0.40625-0.035156 0.003906 0-0.15234 0.011719-0.30469 0.007813-0.45703 0-0.40234-0.019531 0.39844 0.074219 0.003906 0-0.11328-0.019531-0.22266-0.050781-0.33203-0.085937-0.10938-0.03125-0.21875-0.074219-0.32422-0.11328 0.44141 0.17188 0.078125 0.019532-0.011718-0.027344-0.21094-0.10937-0.41016-0.24609-0.60156-0.38281 0.36328 0.26172 0.03125 0.015625-0.035156-0.042969-0.125-0.10938-0.24609-0.22656-0.36328-0.34375-0.17969-0.18359-0.34375-0.37891-0.50781-0.57812 0.26953 0.33594 0-0.015625-0.042969-0.074218-0.074218-0.10938-0.14844-0.21875-0.21875-0.33203-0.14062-0.22266-0.26953-0.45703-0.39062-0.69141-0.0625-0.11719-0.11719-0.23828-0.17188-0.35938-0.078125-0.17578-0.074218-0.16016 0.015625 0.042969-0.035156-0.082032-0.066406-0.16406-0.097656-0.24609-0.18359-0.48047-0.32031-0.97656-0.41797-1.4844-0.019531-0.09375-0.070312-0.51953-0.011718-0.03125-0.015626-0.11719-0.023438-0.23828-0.03125-0.35938-0.019532-0.29688-0.007813-0.59766 0.015624-0.89453-0.039062 0.44531 0 0.011719 0.015626-0.074219 0.023437-0.12891 0.058593-0.25781 0.089843-0.38672 0.03125-0.125 0.074219-0.25 0.11719-0.375 0.14062-0.41797-0.15625 0.32812 0.023437-0.070312 0.10547-0.23438 0.23438-0.45703 0.375-0.67578 0.042969-0.066407 0.29688-0.41406 0.03125-0.070313 0.10547-0.13281 0.21875-0.26172 0.33594-0.38672 0.17578-0.1875 0.36719-0.35547 0.56641-0.51562-0.33594 0.27344 0.003906 0.011719 0.070312-0.03125 0.10547-0.070312 0.21875-0.13672 0.32813-0.19922 0.11328-0.0625 0.22656-0.12109 0.34375-0.17578 0.39453-0.19141-0.33984 0.12891 0.070312-0.023437 0.28906-0.10547 0.58984-0.17578 0.89062-0.23438 0.19531-0.03125 0.17578-0.027344-0.054687 0.007812 0.089843-0.007812 0.17969-0.015625 0.26953-0.019531 0.18359-0.011719 0.36328-0.007812 0.54688 0 0.089844 0.003906 0.17969 0.011719 0.26953 0.019531-0.23047-0.035156-0.25-0.039062-0.054687-0.007812 0.17578 0.027343 0.34375 0.070312 0.51562 0.11719 0.16797 0.042969 0.33203 0.10156 0.49609 0.16406-0.42578-0.15625 0.097656 0.050781 0.17969 0.09375 0.15234 0.078125 0.29688 0.16797 0.44141 0.25781 0.070312 0.046875 0.14062 0.09375 0.21094 0.14453-0.35156-0.24609-0.007813-0.003906 0.054687 0.050782 0.25781 0.21875 0.48828 0.47266 0.70312 0.73828-0.28516-0.35156 0.050781 0.10156 0.10156 0.17578 0.09375 0.14453 0.17188 0.29688 0.25 0.44922 0.039063 0.078125 0.074219 0.15625 0.10938 0.23438-0.089844-0.21094-0.097657-0.22656-0.027344-0.046875 0.058594 0.16406 0.10547 0.33203 0.15234 0.5 0.042968 0.17188 0.074218 0.34375 0.10156 0.51953-0.070312-0.45312 0.003906 0.25391 0.003906 0.36719 0.011719 0.92969 0.76953 1.7109 1.7109 1.7109 0.92188 0 1.7188-0.77734 1.7109-1.7109-0.03125-2.6289-1.4609-5.082-3.7852-6.3359-2.3203-1.25-5.2969-1.1172-7.4648 0.40234-2.1289 1.4922-3.3672 4.0312-3.0898 6.6367 0.25391 2.4258 1.3789 4.8711 3.207 6.5156 1.0781 0.96875 2.3711 1.582 3.832 1.6562 1.4922 0.078125 2.8555-0.65625 3.9648-1.5781 2.0547-1.6992 3.3125-4.6641 3.3398-7.3047 0.007812-0.92969-0.78516-1.7109-1.7109-1.7109-0.94531 0.007812-1.707 0.78516-1.7148 1.7188z"/>
  <path d="m91.262 76.766v4.3867c0.57031-0.57031 1.1406-1.1406 1.7109-1.7109h-13.98-8c0.57031 0.57031 1.1406 1.1406 1.7109 1.7109v-2.4805-1.543-0.33594c0-0.097657 0.003906-0.19922 0.007813-0.29688 0.003906-0.089844 0.011718-0.17969 0.019531-0.26953 0.039062-0.45312-0.066407 0.37109 0.015625-0.074218 0.03125-0.17188 0.078125-0.34375 0.125-0.51172 0.027344-0.10547 0.28125-0.74219 0.097656-0.32031 0.085938-0.19531 0.1875-0.38281 0.29688-0.57031 0.054687-0.089844 0.44531-0.64062 0.16797-0.28125 0.23438-0.30078 0.50781-0.57031 0.79688-0.81641 0.14453-0.11719 0.13281-0.10938-0.042969 0.03125 0.10156-0.074219 0.21094-0.14453 0.31641-0.21484 0.17969-0.11719 0.37109-0.21484 0.5625-0.30859 0.17188-0.078125 0.15625-0.074218-0.054687 0.015625 0.082031-0.03125 0.16016-0.0625 0.24219-0.089843 0.20703-0.074219 0.41797-0.12891 0.62891-0.17578 0.085938-0.019531 0.17188-0.035156 0.25781-0.050781-0.44531 0.082031-0.007813 0.003906 0.078125-0.003906 0.14844-0.011719 0.29297-0.015625 0.44141-0.015625h1.2812c-0.40234-0.16797-0.80469-0.33203-1.207-0.5 1.3555 1.5234 2.707 3.0469 4.0625 4.5703 0.58984 0.66406 1.8281 0.66797 2.418 0 1.3438-1.5234 2.6875-3.0469 4.0273-4.5703-0.40234 0.16797-0.80469 0.33203-1.207 0.5h1.3086c0.18359 0 0.36719 0.011718 0.55078 0.027344 0.19531 0.023437 0.17969 0.019531-0.058593-0.007813 0.12891 0.019531 0.25781 0.050781 0.38672 0.078125 0.21094 0.046875 0.41797 0.11719 0.625 0.19141 0.41406 0.14844-0.32812-0.15625 0.066406 0.027344 0.11719 0.054688 0.23047 0.11719 0.33984 0.17969 0.1875 0.10156 0.36328 0.22266 0.53516 0.34375-0.36719-0.25781 0.16016 0.14453 0.23828 0.22266 0.15625 0.14453 0.29688 0.30469 0.43359 0.46484 0.28125 0.32812-0.21094-0.29297 0.042968 0.058593 0.074219 0.10547 0.14062 0.21484 0.20703 0.32031 0.11328 0.18359 0.20703 0.375 0.29687 0.57031-0.19141-0.41406 0.0625 0.21484 0.097657 0.32031 0.0625 0.21094 0.10938 0.42578 0.14844 0.64062-0.082031-0.44531-0.003906-0.007813 0.003906 0.078125 0 0.14062 0.003907 0.27734 0.003907 0.41016 0.011719 0.92969 0.76953 1.7109 1.7109 1.7109 0.92188 0 1.7188-0.77734 1.7109-1.7109-0.03125-2.5625-1.3398-4.8672-3.4883-6.25-1.0664-0.68359-2.3242-1.0078-3.5781-1.082-0.63281-0.039063-1.4297-0.11328-2.043 0.054687-0.59766 0.16406-0.92969 0.63672-1.3125 1.0742-0.46484 0.52734-0.92578 1.0508-1.3906 1.5781-0.69141 0.78516-1.3867 1.5703-2.0781 2.3555h2.418c-0.74219-0.83594-1.4844-1.668-2.2266-2.5039-0.46875-0.52734-0.9375-1.0547-1.4062-1.582-0.47656-0.53906-0.87891-0.98438-1.7109-0.98438-0.84375 0-1.668-0.011719-2.5039 0.11719-1.3008 0.20312-2.4297 0.80859-3.4531 1.6094-1.7461 1.3594-2.625 3.6133-2.625 5.7812v4.2188c0 0.92969 0.77734 1.7109 1.7109 1.7109h13.98 8c0.92969 0 1.7109-0.77734 1.7109-1.7109v-4.3867c0-0.92969-0.77734-1.7109-1.7109-1.7109-0.9375 0.003906-1.7148 0.78125-1.7148 1.7109z"/>
  <path d="m53.965 13.574c-0.003906 0.23828-0.015625 0.47266-0.042969 0.70703 0.050781-0.48438 0.003906-0.0625-0.011719 0.03125-0.023437 0.125-0.050781 0.24609-0.078125 0.37109-0.054687 0.25-0.12891 0.5-0.20703 0.74219-0.039062 0.125-0.085938 0.24609-0.12891 0.37109-0.03125 0.082031-0.0625 0.16406-0.097656 0.24609 0.085937-0.20312 0.09375-0.21875 0.015624-0.042969-0.21875 0.48438-0.48437 0.94531-0.78516 1.3828-0.039062 0.058594-0.30859 0.41406-0.042968 0.074219-0.078126 0.10156-0.16406 0.19922-0.24609 0.29688-0.19141 0.22266-0.40234 0.42969-0.62109 0.625-0.0625 0.058594-0.39453 0.31641-0.035156 0.042969-0.09375 0.074219-0.19531 0.14062-0.29688 0.20312-0.097657 0.066406-0.20312 0.12109-0.30469 0.17969-0.082031 0.046874-0.45312 0.21094-0.011719 0.027343-0.21094 0.089844-0.42969 0.14844-0.65625 0.19922-0.39062 0.085938 0.40625-0.035156 0.003907 0-0.15234 0.011719-0.30469 0.007812-0.45703 0-0.40234-0.019531 0.39844 0.074219 0.003906 0-0.11328-0.019531-0.22266-0.054688-0.33203-0.085938-0.10937-0.03125-0.21875-0.074218-0.32422-0.11328 0.44141 0.17188 0.078125 0.019531-0.011719-0.027343-0.21094-0.10938-0.41016-0.24609-0.60156-0.38281 0.36328 0.26172 0.03125 0.015625-0.035156-0.042969-0.125-0.10938-0.24609-0.22656-0.36328-0.34375-0.17969-0.18359-0.34375-0.37891-0.50781-0.57812 0.26953 0.33594 0-0.015625-0.042968-0.074219-0.074219-0.10937-0.14844-0.21875-0.21875-0.33203-0.14062-0.22266-0.26953-0.45703-0.39062-0.69141-0.0625-0.11719-0.11719-0.23828-0.17188-0.35938-0.078125-0.17578-0.074219-0.16016 0.015625 0.042969-0.035157-0.082031-0.066407-0.16406-0.097657-0.24609-0.18359-0.48047-0.32031-0.97656-0.41797-1.4844-0.019532-0.09375-0.070313-0.51953-0.011719-0.03125-0.015625-0.11719-0.023437-0.23828-0.03125-0.35938-0.019531-0.29688-0.007813-0.59766 0.015625-0.89453-0.039062 0.44531 0 0.011718 0.015625-0.074219 0.023437-0.12891 0.058594-0.25781 0.089844-0.38672 0.03125-0.125 0.074219-0.25 0.11719-0.375 0.14062-0.41797-0.15625 0.32812 0.023438-0.070312 0.10547-0.23438 0.23438-0.45703 0.375-0.67578 0.039062-0.066406 0.29688-0.41406 0.03125-0.070312 0.10547-0.13281 0.21875-0.26172 0.33594-0.38672 0.17578-0.1875 0.36719-0.35547 0.56641-0.51562-0.33594 0.27344 0.003906 0.011719 0.070312-0.03125 0.10547-0.070312 0.21875-0.13672 0.32812-0.19922 0.11328-0.0625 0.22656-0.12109 0.34375-0.17578 0.39453-0.19141-0.33984 0.12891 0.070313-0.023437 0.28906-0.10547 0.58984-0.17578 0.89062-0.23438 0.19531-0.03125 0.17578-0.027344-0.054687 0.007812 0.089844-0.007812 0.17969-0.015625 0.26953-0.019531 0.18359-0.011719 0.36328-0.007813 0.54688 0 0.089844 0.003906 0.17969 0.011719 0.26953 0.019531-0.23047-0.035156-0.25-0.039062-0.054687-0.007812 0.17578 0.027344 0.34375 0.070312 0.51562 0.11719 0.16797 0.042969 0.33203 0.10156 0.49609 0.16406-0.42578-0.15625 0.097656 0.050781 0.17969 0.09375 0.15234 0.078125 0.29688 0.16797 0.44141 0.25781 0.070312 0.046875 0.14062 0.09375 0.21094 0.14453-0.35156-0.24609-0.007813-0.003907 0.054687 0.050781 0.25781 0.21875 0.48828 0.47266 0.70313 0.73828-0.28516-0.35156 0.050781 0.10156 0.10156 0.17578 0.09375 0.14453 0.17188 0.29688 0.25 0.44922 0.039062 0.078125 0.074219 0.15625 0.10938 0.23438-0.089844-0.21094-0.097656-0.22656-0.027344-0.046875 0.058594 0.16406 0.10547 0.33203 0.15234 0.5 0.042969 0.17188 0.074219 0.34375 0.10156 0.51953-0.066407-0.45312 0.003906 0.25391 0.003906 0.36719 0.011718 0.92969 0.76953 1.7109 1.7109 1.7109 0.92188 0 1.7188-0.77734 1.7109-1.7109-0.03125-2.6289-1.4609-5.082-3.7852-6.3359-2.3203-1.2539-5.2969-1.1172-7.4648 0.40234-2.1289 1.4922-3.3672 4.0312-3.0898 6.6367 0.25391 2.4258 1.3789 4.8711 3.207 6.5156 1.0781 0.96875 2.3711 1.582 3.832 1.6562 1.4922 0.078125 2.8555-0.65625 3.9648-1.5781 2.0547-1.6992 3.3125-4.6641 3.3398-7.3047 0.007813-0.92969-0.78516-1.7109-1.7109-1.7109-0.94141 0.007812-1.7031 0.78516-1.7148 1.7188z"/>
  <path d="m59.473 30.281v4.3867l1.7109-1.7109h-13.98-8c0.57031 0.57031 1.1406 1.1406 1.7109 1.7109v-2.4805-1.543-0.33594c0-0.097656 0.003907-0.19922 0.007813-0.29688 0.003906-0.089844 0.011719-0.17969 0.019531-0.26953 0.039063-0.45313-0.066406 0.37109 0.015625-0.074219 0.03125-0.17188 0.078125-0.34375 0.125-0.51172 0.027344-0.10547 0.28125-0.74219 0.097657-0.32031 0.085937-0.19531 0.1875-0.38281 0.29687-0.57031 0.054688-0.089844 0.44531-0.64062 0.16797-0.28125 0.23438-0.30078 0.50781-0.57031 0.79688-0.81641 0.14453-0.11719 0.13281-0.10938-0.042968 0.03125 0.10156-0.078125 0.21094-0.14453 0.31641-0.21484 0.17969-0.11719 0.37109-0.21484 0.5625-0.30859 0.17188-0.078125 0.15625-0.074219-0.054688 0.015625 0.082032-0.03125 0.16016-0.0625 0.24219-0.089844 0.20703-0.074218 0.41797-0.125 0.62891-0.17578 0.085938-0.019531 0.17188-0.035156 0.25781-0.050781-0.44531 0.082031-0.007812 0.003906 0.078126-0.003906 0.14844-0.011719 0.29297-0.015625 0.44141-0.015625h1.2812c-0.40234-0.16797-0.80469-0.33203-1.207-0.5 1.3555 1.5234 2.707 3.0469 4.0625 4.5703 0.58984 0.66406 1.8281 0.66797 2.418 0 1.3438-1.5234 2.6875-3.0469 4.0273-4.5703-0.40234 0.16797-0.80469 0.33203-1.207 0.5h1.3086c0.18359 0 0.36719 0.011719 0.55078 0.027343 0.19531 0.023438 0.17969 0.019532-0.058594-0.007812 0.12891 0.019531 0.25781 0.050781 0.38672 0.078125 0.21094 0.046875 0.41797 0.11719 0.625 0.19141 0.41406 0.14844-0.32812-0.15625 0.066406 0.027344 0.11719 0.054687 0.23047 0.11719 0.33984 0.17969 0.1875 0.10156 0.36328 0.22266 0.53516 0.34375-0.36719-0.25781 0.16016 0.14453 0.23828 0.22266 0.15625 0.14453 0.29688 0.30469 0.43359 0.46484 0.28125 0.32813-0.21094-0.29297 0.042969 0.058594 0.074218 0.10547 0.14062 0.21484 0.20703 0.32031 0.11328 0.18359 0.20703 0.375 0.29688 0.57031-0.19141-0.41406 0.0625 0.21484 0.097656 0.32031 0.0625 0.21094 0.10938 0.42578 0.14844 0.64062-0.082032-0.44531-0.003906-0.007813 0.003906 0.078125 0.003906 0.14062 0.003906 0.27734 0.003906 0.41016 0.011719 0.92969 0.76953 1.7109 1.7109 1.7109 0.92188 0 1.7188-0.77734 1.7109-1.7109-0.03125-2.5625-1.3398-4.8672-3.4883-6.25-1.0664-0.68359-2.3242-1.0078-3.5781-1.082-0.63281-0.039063-1.4297-0.11328-2.043 0.054687-0.59766 0.16406-0.92969 0.63672-1.3125 1.0742-0.46484 0.52734-0.92578 1.0508-1.3906 1.5781-0.69141 0.78516-1.3867 1.5703-2.0781 2.3555h2.418c-0.74219-0.83594-1.4844-1.668-2.2266-2.5039-0.46875-0.52734-0.9375-1.0547-1.4062-1.582-0.47656-0.53906-0.87891-0.98438-1.7109-0.98438-0.84375 0-1.668-0.011718-2.5039 0.11719-1.3008 0.20312-2.4297 0.80859-3.4531 1.6094-1.7461 1.3594-2.625 3.6133-2.625 5.7812v4.2188c0 0.92969 0.77734 1.7109 1.7109 1.7109h13.98 8c0.92969 0 1.7109-0.77734 1.7109-1.7109v-4.3867c0-0.92969-0.77734-1.7109-1.7109-1.7109-0.9375 0.003907-1.7148 0.78125-1.7148 1.7109z"/>
  <path d="m17.758 49.148c0.26172-1.2109 0.58594-2.4102 0.97266-3.5859 0.18359-0.55859 0.38672-1.1133 0.59766-1.6641 0.10547-0.27344 0.21484-0.54688 0.32812-0.81641-0.15234 0.36719 0.039062-0.085937 0.058594-0.13281 0.078125-0.17969 0.16016-0.35547 0.23828-0.53516 1.0039-2.207 2.25-4.2969 3.6914-6.2461 0.085938-0.11719 0.17188-0.23047 0.26172-0.34766 0.29297-0.38281-0.21094 0.26953 0.085938-0.11328 0.17969-0.22656 0.35937-0.45312 0.54297-0.67578 0.39844-0.48438 0.8125-0.95312 1.2344-1.4141 0.8125-0.88672 1.6797-1.7266 2.582-2.5234 0.43359-0.38281 0.87891-0.75391 1.3281-1.1133 0.11328-0.089844 0.22656-0.17969 0.33984-0.26953-0.30859 0.24219 0.074219-0.054688 0.11328-0.085938 0.26953-0.20312 0.54297-0.40234 0.82031-0.59766 0.98438-0.69922 2.0117-1.3438 3.0664-1.9375 0.21094-0.11719 0.42578-0.23438 0.63672-0.35156 0.82031-0.44141 1.0703-1.5586 0.61328-2.3398-0.48438-0.82422-1.5156-1.0547-2.3398-0.61328-8.8594 4.7539-15.496 13.137-18.09 22.852-0.14062 0.52734-0.26562 1.0625-0.38281 1.5977-0.19531 0.91016 0.25781 1.8438 1.1953 2.1016 0.86328 0.24219 1.9102-0.27734 2.1055-1.1875z"/>
  <path d="m65.961 85.195c-0.58203 0.31641-1.1758 0.61719-1.7734 0.89844-0.30078 0.14453-0.60547 0.27734-0.91016 0.41406-0.011719 0.003907-0.51562 0.21875-0.20312 0.089844-0.20703 0.085938-0.41406 0.16797-0.61719 0.25-1.3047 0.51562-2.6406 0.94141-3.9961 1.293-0.65625 0.17188-1.3242 0.31641-1.9883 0.44922-0.33594 0.066406-0.67188 0.125-1.0117 0.18359-0.16797 0.027343-0.33984 0.054687-0.50781 0.082031-0.11328 0.015625-0.22656 0.035156-0.33984 0.050781 0.16797-0.023438 0.14844-0.019531-0.058593 0.007812-1.4453 0.18359-2.9023 0.26563-4.3594 0.26953-1.4531 0.003906-2.9062-0.09375-4.3477-0.26953-0.5625-0.070312 0.33203 0.046876-0.22656-0.03125-0.16797-0.023437-0.33984-0.050781-0.50781-0.078124-0.33594-0.054688-0.67578-0.11328-1.0078-0.17578-0.72266-0.13672-1.4414-0.30078-2.1523-0.48047-1.3555-0.34375-2.6836-0.78125-3.9883-1.2852-0.15625-0.058593-0.30859-0.12109-0.46484-0.18359-0.011719-0.003907-0.51562-0.21875-0.20703-0.085938-0.30469-0.12891-0.60938-0.26562-0.91016-0.40625-0.65234-0.30078-1.2891-0.625-1.9219-0.96484-0.24219-0.12891-0.48047-0.26562-0.71875-0.40234-0.80859-0.46094-1.8633-0.19531-2.3398 0.61328-0.46875 0.79688-0.19531 1.8789 0.61328 2.3398 5.0742 2.8945 10.766 4.5234 16.598 4.7969 5.9062 0.27734 11.801-0.96484 17.152-3.4453 0.65234-0.30078 1.293-0.62891 1.9258-0.96875 0.82031-0.44141 1.0703-1.5547 0.61328-2.3398-0.48828-0.83203-1.5234-1.0625-2.3438-0.62109z"/>
  <path d="m64.871 26.297c1.082 0.54297 2.1367 1.1406 3.1602 1.7891 0.48828 0.30859 0.96875 0.63672 1.4414 0.96875 0.23438 0.16797 0.46875 0.33594 0.70312 0.51172 0.11719 0.085938 0.23047 0.17578 0.34375 0.26172-0.3125-0.23828 0.16797 0.13672 0.22266 0.17969 1.8828 1.5 3.5977 3.2031 5.1328 5.0508 0.18359 0.22266 0.36328 0.44922 0.54297 0.67578 0.29688 0.37891-0.20703-0.27344 0.085937 0.11328 0.085938 0.11328 0.17188 0.23047 0.26172 0.34766 0.375 0.50391 0.73047 1.0195 1.0781 1.543 0.66797 1.0078 1.2773 2.0547 1.8359 3.1289 0.26953 0.51562 0.52344 1.043 0.76562 1.5742 0.12109 0.26562 0.23828 0.53516 0.35547 0.80078-0.15625-0.36719 0.035157 0.085937 0.054688 0.13281 0.074219 0.17969 0.14453 0.36328 0.21484 0.54688 0.44531 1.1484 0.82422 2.3203 1.1445 3.5078 0.10547 0.38281 0.19922 0.76953 0.28906 1.1562 0.21094 0.90625 1.2305 1.4336 2.1016 1.1953 0.92188-0.25391 1.4062-1.1953 1.1953-2.1016-2.293-9.7891-8.7031-18.336-17.406-23.359-0.58984-0.33984-1.1875-0.65625-1.793-0.96094-0.83203-0.41797-1.8438-0.22656-2.3398 0.61328-0.45312 0.75391-0.22266 1.9102 0.60938 2.3242z"/>
 </g>
</svg>
