<?xml version="1.0" encoding="UTF-8"?>
<svg fill="#003F72" width="100pt" height="100pt" version="1.1" viewBox="0 0 100 100" xmlns="http://www.w3.org/2000/svg">
 <g>
  <path d="m10 21.5h38.5v6c0 2.207 1.793 4 4 4h5c2.207 0 4-1.793 4-4v-6h28.5c0.82812 0 1.5-0.67188 1.5-1.5s-0.67188-1.5-1.5-1.5h-28.5v-6c0-2.207-1.793-4-4-4h-5c-2.207 0-4 1.793-4 4v6h-38.5c-0.82812 0-1.5 0.67188-1.5 1.5s0.67188 1.5 1.5 1.5zm41.5-9c0-0.55078 0.44922-1 1-1h5c0.55078 0 1 0.44922 1 1v15c0 0.55078-0.44922 1-1 1h-5c-0.55078 0-1-0.44922-1-1z"/>
  <path d="m90 48.5h-53.5v-6c0-2.207-1.793-4-4-4h-5c-2.207 0-4 1.793-4 4v6h-13.5c-0.82812 0-1.5 0.67188-1.5 1.5s0.67188 1.5 1.5 1.5h13.5v6c0 2.207 1.793 4 4 4h5c2.207 0 4-1.793 4-4v-6h53.5c0.82812 0 1.5-0.67188 1.5-1.5s-0.67188-1.5-1.5-1.5zm-56.5 9c0 0.55078-0.44922 1-1 1h-5c-0.55078 0-1-0.44922-1-1v-15c0-0.55078 0.44922-1 1-1h5c0.55078 0 1 0.44922 1 1z"/>
  <path d="m90 78.5h-33.5v-6c0-2.207-1.793-4-4-4h-5c-2.207 0-4 1.793-4 4v6h-33.5c-0.82812 0-1.5 0.67188-1.5 1.5s0.67188 1.5 1.5 1.5h33.5v6c0 2.207 1.793 4 4 4h5c2.207 0 4-1.793 4-4v-6h33.5c0.82812 0 1.5-0.67188 1.5-1.5s-0.67188-1.5-1.5-1.5zm-36.5 9c0 0.55078-0.44922 1-1 1h-5c-0.55078 0-1-0.44922-1-1v-15c0-0.55078 0.44922-1 1-1h5c0.55078 0 1 0.44922 1 1z"/>
 </g>
</svg>
