<?xml version="1.0" encoding="UTF-8"?>
<svg fill="#003F72" width="100pt" height="100pt" version="1.1" viewBox="0 0 100 100" xmlns="http://www.w3.org/2000/svg">
 <g>
  <path d="m-35.145 176.53c0.17969 0.51953 0.77344 0.94531 1.3242 0.94531h3.5c0.55078 0 0.71094 0.34375 0.35156 0.76172l-9.707 11.445c-0.35547 0.41797-0.94531 0.42578-1.3086 0.015624l-10.172-11.473c-0.36328-0.41016-0.21484-0.74609 0.33594-0.74609h4c0.55078 0 0.83594-0.41797 0.63281-0.92969l-10.27-26.137c-0.19922-0.51172 0.085937-0.92969 0.63281-0.92969h9c0.55078 0 0.83594-0.41797 0.63281-0.92969l-10.27-26.137c-0.19922-0.51172 0.085938-0.92969 0.63281-0.92969h14.5c0.55078 0 1.1289 0.43359 1.2812 0.96094l11.188 38.082c0.15625 0.52734-0.16797 0.96094-0.71875 0.96094h-9.75c-0.55078 0-0.85547 0.42578-0.67578 0.94531z"/>
  <path d="m-139.09 142.89c1.7383 2.0273 2.8164 5.8398 2.8164 9.9492 0 3.918-0.96094 7.5234-2.5742 9.6445l2.4336 1.8477c2-2.6328 3.1953-6.9297 3.1953-11.492 0-4.8789-1.3281-9.3398-3.5508-11.938z"/>
  <path d="m-129.13 133.31l-2.3203 1.9883c3.1211 3.6445 5.0625 10.414 5.0625 17.668 0 6.9102-1.7227 13.305-4.6055 17.102l2.4336 1.8477c3.2734-4.3086 5.2305-11.395 5.2305-18.949 0-8.0703-2.168-15.418-5.8008-19.656z"/>
  <path d="m-121.01 126.3l-2.3203 1.9883c4.4023 5.1367 7.1367 14.637 7.1367 24.793 0 9.6719-2.4258 18.637-6.4844 23.984l2.4336 1.8477c4.4492-5.8555 7.1055-15.516 7.1055-25.832 0.003906-11.016-2.9414-21.027-7.8711-26.781z"/>
  <path d="m-164.22 138.43c-2.0898 2.0703-6.5117 4.5469-11.441 4.5469v0.003907c-2.4648 0.082031-4.5312 4.3555-4.5312 9.6211 0 5.2656 2.0664 9.5391 4.5312 9.6211v0.003906c4.9297 0 9.418 2.5039 11.5 4.5703-1.707-3.7227-2.7383-8.6992-2.7383-14.246 0-5.4844 1.0078-10.414 2.6797-14.121z"/>
  <path d="m-152.6 128.72c-5.6328 0-10.195 10.473-10.195 23.391s4.5664 23.391 10.195 23.391c5.6328 0 10.195-10.473 10.195-23.391 0.003906-12.918-4.5625-23.391-10.195-23.391zm-4.1172 31.23c-0.98828-1.7383-1.6836-4.4609-1.6836-7.7969 0-3.3359 0.69531-6.0547 1.6836-7.7969 2.9375 0.023437 5.3164 3.5039 5.3164 7.7969 0 4.293-2.3789 7.7734-5.3164 7.7969z"/>
  <path d="m-207.99 143.39c1.7383 2.0273 2.8164 5.8398 2.8164 9.9492 0 3.918-0.96094 7.5234-2.5742 9.6445l2.4336 1.8477c2-2.6328 3.1953-6.9297 3.1953-11.492 0-4.8789-1.3281-9.3398-3.5508-11.938z"/>
  <path d="m-198.04 133.81l-2.3203 1.9883c3.1211 3.6445 5.0625 10.414 5.0625 17.668 0 6.9102-1.7227 13.305-4.6055 17.102l2.4336 1.8477c3.2734-4.3086 5.2305-11.395 5.2305-18.949 0-8.0703-2.168-15.418-5.8008-19.656z"/>
  <path d="m-233.12 138.93c-2.0898 2.0703-6.5117 4.5469-11.441 4.5469v0.003907c-2.4648 0.082031-4.5312 4.3555-4.5312 9.6211 0 5.2656 2.0664 9.5391 4.5312 9.6211v0.003906c4.9297 0 9.418 2.5039 11.5 4.5703-1.707-3.7227-2.7383-8.6992-2.7383-14.246 0-5.4844 1.0039-10.414 2.6797-14.121z"/>
  <path d="m-221.5 129.22c-5.6328 0-10.195 10.473-10.195 23.391s4.5664 23.391 10.195 23.391c5.6328 0 10.195-10.473 10.195-23.391s-4.5625-23.391-10.195-23.391zm-4.1172 31.23c-0.98828-1.7383-1.6836-4.4609-1.6836-7.7969 0-3.3359 0.69531-6.0547 1.6836-7.7969 2.9375 0.023437 5.3164 3.5039 5.3164 7.7969-0.003907 4.293-2.3789 7.7734-5.3164 7.7969z"/>
  <path d="m37.145 150.02c1.7383 2.0273 2.8164 5.8398 2.8164 9.9492 0 3.918-0.96094 7.5234-2.5742 9.6445l2.4336 1.8477c2-2.6328 3.1953-6.9297 3.1953-11.492 0-4.8789-1.3281-9.3398-3.5508-11.938z"/>
  <path d="m12.008 145.56c-2.0898 2.0703-6.5117 4.5469-11.441 4.5469v0.003906c-2.4648 0.082031-4.5312 4.3555-4.5312 9.6211s2.0664 9.5391 4.5312 9.6211v0.003907c4.9297 0 9.418 2.5039 11.5 4.5703-1.707-3.7227-2.7383-8.6992-2.7383-14.246-0.003906-5.4805 1.0039-10.414 2.6797-14.121z"/>
  <path d="m23.633 135.85c-5.6328 0-10.195 10.473-10.195 23.391 0 12.918 4.5664 23.391 10.195 23.391 5.6328 0 10.195-10.473 10.195-23.391 0-12.918-4.5625-23.391-10.195-23.391zm-4.1172 31.23c-0.98828-1.7383-1.6836-4.4609-1.6836-7.7969 0-3.3359 0.69531-6.0547 1.6836-7.7969 2.9375 0.023438 5.3164 3.5039 5.3164 7.7969-0.003906 4.2891-2.3789 7.7695-5.3164 7.7969z"/>
  <path d="m284.76 158.47c-4.7773 0-8.7852 7.543-9.8945 17.719l14.812-14.812c-1.4531-1.8477-3.1328-2.9062-4.918-2.9062z"/>
  <path d="m285.38 178.4c0.36328 1.0547 0.57422 2.2422 0.57422 3.5 0 4.2891-2.3789 7.7695-5.3164 7.7969-0.69922-1.2305-1.2461-2.9609-1.5117-5.0469l-4.1133 4.1133c1.2852 9.5469 5.1602 16.484 9.7422 16.484 5.6328 0 10.195-10.473 10.195-23.391 0-4.2539-0.49609-8.2344-1.3633-11.672z"/>
  <path d="m283.84 175.7l8.7656-8.7695 7.5117-7.5117-2.1211-2.1211-46 46 2.1211 2.1211 24.883-24.883z"/>
  <path d="m270.5 180.56c0.1875-4.7852 1.1445-9.0742 2.6406-12.387-2.0898 2.0703-6.5117 4.5469-11.441 4.5469v0.003906c-2.4648 0.082032-4.5312 4.3555-4.5312 9.6211 0 3.9258 1.1484 7.2969 2.7539 8.793z"/>
  <path d="m269.71 194.07c1.4531 0.77344 2.6562 1.6562 3.4805 2.4727-0.60547-1.3203-1.1211-2.8047-1.5391-4.4102z"/>
  <path d="m330.84 167.68c-2.0898 2.0703-6.5117 4.5469-11.441 4.5469v0.003907c-2.4648 0.082031-4.5312 4.3555-4.5312 9.6211 0 5.2656 2.0664 9.5391 4.5312 9.6211v0.003906c4.9297 0 9.418 2.5039 11.5 4.5703-1.707-3.7227-2.7383-8.6992-2.7383-14.246-0.003906-5.4844 1.0039-10.414 2.6797-14.121z"/>
  <path d="m348.57 193.03l-4.9492-4.9492 6.7188-6.7188-6.7188-6.7188 4.9492-4.9492 3.4414 3.4414c-1.4492-8.8594-5.1758-15.164-9.5469-15.164-5.6328 0-10.195 10.473-10.195 23.391s4.5664 23.391 10.195 23.391c4.3672 0 8.0938-6.3047 9.5469-15.164zm-10.223-3.8281c-0.98828-1.7383-1.6836-4.4609-1.6836-7.7969 0-3.3359 0.69531-6.0547 1.6836-7.7969 2.9375 0.023437 5.3164 3.5039 5.3164 7.7969-0.003907 4.293-2.3789 7.7734-5.3164 7.7969z"/>
  <path d="m364.13 174.64l-2.125-2.1211-6.7148 6.7188-6.7188-6.7188-2.1211 2.1211 6.7188 6.7188-6.7188 6.7148 2.1211 2.1211 6.7188-6.7148 6.7148 6.7148 2.125-2.1211-6.7188-6.7148z"/>
  <path d="m532.91 169.59v-0.47656c5.3789-0.73438 9.5352-5.3477 9.5352-10.922 0-6.0859-4.9492-11.035-11.035-11.035-6.0859 0-11.035 4.9492-11.035 11.035 0 5.5742 4.1602 10.188 9.5352 10.922v0.47656c-5.1094 0.33203-9.7656 2.3359-13.43 5.4688l-1.3867-1.3867 0.625-0.625c0.39062-0.39062 0.39062-1.0234 0-1.4141l-4.3594-4.3594c-0.39062-0.39062-1.0234-0.39062-1.4141 0l-3.3711 3.3711c-0.39062 0.39062-0.39062 1.0234 0 1.4141l4.3594 4.3594c0.39062 0.39062 1.0234 0.39062 1.4141 0l0.625-0.625 1.3555 1.3555c-3.6836 4.082-5.9297 9.4805-5.9297 15.398 0 12.688 10.324 23.012 23.012 23.012s23.012-10.324 23.012-23.012c0-12.184-9.5195-22.18-21.512-22.957zm-9.5352-11.395c0-4.4336 3.6055-8.0352 8.0352-8.0352 4.4336 0 8.0352 3.6055 8.0352 8.0352 0 3.918-2.8203 7.1836-6.5352 7.8906v-2.8086h0.88672c0.55078 0 1-0.44922 1-1v-6.168c0-0.55078-0.44922-1-1-1h-4.7695c-0.55078 0-1 0.44922-1 1v6.168c0 0.55078 0.44922 1 1 1h0.88281v2.8086c-3.7148-0.70703-6.5352-3.9727-6.5352-7.8906zm8.0352 54.363c-11.035 0-20.012-8.9766-20.012-20.012 0-11.035 8.9766-20.012 20.012-20.012 11.035 0 20.012 8.9766 20.012 20.012 0 11.035-8.9805 20.012-20.012 20.012z"/>
  <path d="m531.41 175.54c-0.23828 0-0.47266 0.027344-0.70703 0.035157v10.273c0.23438-0.023437 0.46875-0.039062 0.70703-0.039062 3.7148 0 6.7383 3.0234 6.7383 6.7383 0 0.17578-0.007813 0.35156-0.019532 0.52734l7.9453 8.0547c1.4844-2.5234 2.3477-5.4492 2.3477-8.582 0-9.375-7.6328-17.008-17.012-17.008z"/>
  <path d="m535.15 192.55c0-2.0664-1.6758-3.7383-3.7383-3.7383s-3.7383 1.6758-3.7383 3.7383c0 2.0664 1.6758 3.7383 3.7383 3.7383 0.43359 0 0.84766-0.089843 1.2344-0.22656l9.5781 9.7148 2.1367-2.1055-9.5156-9.6484c0.19531-0.45313 0.30469-0.94922 0.30469-1.4727z"/>
  <path d="m612.77 174.99c-0.17188-0.40625-0.35547-0.80859-0.55078-1.2031-0.042969-0.085937-0.089844-0.17187-0.13281-0.25781-0.15234-0.30078-0.30859-0.59766-0.47266-0.88672-0.0625-0.10938-0.125-0.21875-0.1875-0.32422-0.16406-0.27734-0.33203-0.55078-0.50391-0.82422-0.058594-0.09375-0.11719-0.1875-0.17969-0.28125-0.23047-0.34766-0.46875-0.69141-0.71875-1.0273-0.003907-0.007812-0.007813-0.011719-0.011719-0.015625-0.26172-0.35156-0.53516-0.69531-0.81641-1.0312-0.054687-0.066406-0.10937-0.12891-0.16406-0.19141-0.22266-0.26172-0.45312-0.51953-0.69141-0.77344-0.078125-0.085937-0.16016-0.16797-0.24219-0.25391-0.23047-0.23828-0.46484-0.46875-0.70312-0.69531-0.074219-0.070312-0.14844-0.14453-0.22266-0.21484-0.63672-0.58984-1.3047-1.1484-2.0078-1.6641-0.054687-0.039062-0.10547-0.074218-0.16016-0.11328-0.29688-0.21484-0.59766-0.42188-0.90234-0.62109-0.089843-0.058593-0.17578-0.11328-0.26562-0.17188-0.28906-0.18359-0.58594-0.36328-0.88281-0.53516-0.082031-0.046875-0.16016-0.09375-0.24219-0.14062-0.76953-0.42969-1.5664-0.82031-2.3867-1.1602-0.046875-0.019531-0.09375-0.035157-0.13672-0.054688-0.35938-0.14453-0.72266-0.28125-1.0898-0.41016-0.09375-0.03125-0.1875-0.0625-0.28125-0.09375-0.33984-0.11328-0.67969-0.21875-1.0234-0.31641-0.089844-0.023438-0.17578-0.050781-0.26562-0.074219-1.9219-0.52344-3.9414-0.80469-6.0273-0.80469s-4.1055 0.28125-6.0273 0.80469c-0.089844 0.023438-0.17578 0.050781-0.26562 0.074219-0.34375 0.097656-0.6875 0.20312-1.0234 0.31641-0.09375 0.03125-0.1875 0.0625-0.28125 0.09375-0.36719 0.12891-0.73047 0.26562-1.0898 0.41016-0.046875 0.019531-0.09375 0.035157-0.13672 0.054688-0.82031 0.34375-1.6172 0.73047-2.3867 1.1602-0.082031 0.046875-0.16016 0.09375-0.24219 0.14062-0.30078 0.17188-0.59375 0.35156-0.88281 0.53516-0.089843 0.054688-0.17578 0.11328-0.26562 0.17188-0.30469 0.19922-0.60547 0.40625-0.90234 0.62109-0.054688 0.039063-0.10938 0.074219-0.16016 0.11328-0.69922 0.51562-1.3711 1.0742-2.0078 1.6641-0.074219 0.070312-0.14844 0.14062-0.22266 0.21484-0.23828 0.22656-0.47266 0.46094-0.70312 0.69531-0.082032 0.085937-0.16016 0.16797-0.24219 0.25391-0.23438 0.25391-0.46484 0.50781-0.69141 0.77344-0.054688 0.0625-0.10938 0.125-0.16406 0.19141-0.28125 0.33594-0.55469 0.67969-0.81641 1.0312-0.003906 0.007813-0.007812 0.011719-0.011719 0.015625-0.25 0.33594-0.48828 0.67969-0.71875 1.0273-0.0625 0.09375-0.12109 0.1875-0.17969 0.28125-0.17578 0.26953-0.34375 0.54688-0.50391 0.82422-0.0625 0.10938-0.125 0.21484-0.1875 0.32422-0.16406 0.29297-0.32031 0.58984-0.47266 0.88672-0.042968 0.085938-0.089843 0.17188-0.13281 0.25781-0.19531 0.39453-0.37891 0.79688-0.55078 1.1992-1.1562 2.7461-1.8008 5.7656-1.8008 8.9258 0 12.727 10.355 23.07 23.07 23.07s23.07-10.344 23.07-23.07c0-3.1562-0.64453-6.1758-1.8008-8.9219zm-1.1758 8.9258c0 11.078-9.0156 20.094-20.094 20.094s-20.094-9.0156-20.094-20.094c0-2.582 0.50781-5.043 1.3984-7.3125 0.14844-0.375 0.30859-0.74219 0.47656-1.1055 0.035156-0.074219 0.070312-0.14453 0.10547-0.21875 0.32812-0.6875 0.69141-1.3516 1.0977-1.9961 0.023437-0.035156 0.046875-0.074218 0.066406-0.11328 0.21094-0.33203 0.42969-0.65625 0.66016-0.97266 0.046874-0.0625 0.09375-0.125 0.14062-0.1875 0-0.003907 0.003907-0.003907 0.003907-0.007813 0.42578-0.57422 0.875-1.1211 1.3555-1.6445 0.011718-0.011719 0.019531-0.023437 0.03125-0.035156 0.054687-0.0625 0.10937-0.12109 0.16406-0.18359 0.25781-0.27344 0.51953-0.53516 0.79297-0.79688 0.054687-0.054688 0.11328-0.10156 0.17188-0.15625 0.015625-0.011719 0.027344-0.027344 0.042968-0.039062 0.49609-0.45703 1.0117-0.88672 1.5508-1.293 0.10938-0.082031 0.21484-0.16406 0.32422-0.24219 0.29688-0.21484 0.59375-0.41797 0.89844-0.61328 0.082031-0.054688 0.16797-0.10156 0.25391-0.15234 0.56641-0.35156 1.1523-0.67578 1.7539-0.96875 0.042969-0.019531 0.089844-0.042968 0.13281-0.0625 0.09375-0.046875 0.1875-0.089844 0.28125-0.13672 0.32812-0.15234 0.66016-0.30078 1-0.43359 0.0625-0.023438 0.12891-0.046875 0.19141-0.070313 0.65234-0.25391 1.3242-0.46875 2.0078-0.65234 0.12891-0.035157 0.25781-0.066407 0.38672-0.10156 0.03125-0.007813 0.066407-0.019531 0.097657-0.027344 0.35547-0.085937 0.70703-0.16797 1.0703-0.23438 1.1836-0.21875 2.3945-0.34766 3.6406-0.34766 1.2422 0 2.457 0.12891 3.6406 0.34766 0.35938 0.066406 0.71484 0.14844 1.0703 0.23438 0.03125 0.007813 0.066406 0.015625 0.097656 0.027344 0.12891 0.03125 0.25781 0.066406 0.38672 0.10156 0.68359 0.18359 1.3555 0.39844 2.0078 0.65234 0.0625 0.023438 0.12891 0.046875 0.19141 0.070313 0.33984 0.13672 0.67187 0.28125 1 0.43359 0.09375 0.042968 0.1875 0.089843 0.28125 0.13672 0.042968 0.019532 0.089843 0.042969 0.13281 0.0625 0.60156 0.29688 1.1875 0.61719 1.7539 0.96875 0.085938 0.050782 0.17188 0.10156 0.25391 0.15234 0.30859 0.19531 0.60547 0.40234 0.89844 0.61328 0.10938 0.078125 0.21875 0.16016 0.32422 0.24219 0.53906 0.40625 1.0547 0.83594 1.5508 1.293 0.035156 0.03125 0.070312 0.0625 0.10547 0.09375 0.035156 0.035156 0.074219 0.066406 0.10938 0.10156 0.27344 0.25781 0.53516 0.52344 0.79297 0.79688 0.054688 0.058594 0.10938 0.12109 0.16406 0.18359 0.011719 0.011719 0.019531 0.023437 0.03125 0.035156 0.48047 0.52344 0.93359 1.0703 1.3555 1.6445 0 0.003906 0.003906 0.003906 0.003906 0.007813 0.046875 0.0625 0.09375 0.125 0.14062 0.1875 0.23047 0.31641 0.44922 0.64062 0.66016 0.97266 0.023438 0.035156 0.046875 0.074219 0.066407 0.11328 0.40234 0.64062 0.76562 1.3086 1.0977 1.9961 0.035156 0.070312 0.070312 0.14453 0.10547 0.21875 0.16797 0.36328 0.32813 0.73047 0.47656 1.1055 0.88281 2.2695 1.3906 4.7305 1.3906 7.3125z"/>
  <path d="m605.76 155.74c-2.9219 0-5.5742 1.1523-7.5273 3.0234 7.3477 1.9688 13.426 7.0703 16.695 13.785 1.0977-1.6992 1.7422-3.7227 1.7422-5.9023 0-6.0234-4.8867-10.906-10.91-10.906z"/>
  <path d="m602.51 171.21l-9.6523 9.6523c-0.41797-0.1875-0.875-0.29688-1.3633-0.29688-0.51562 0-1 0.125-1.4375 0.33594l-5.9531-5.6797-2.0547 2.1523 6.1641 5.8789c-0.042969 0.21484-0.066406 0.43359-0.066406 0.66016 0 1.8477 1.5 3.3477 3.3477 3.3477s3.3477-1.5 3.3477-3.3477c0-0.25781-0.035156-0.50391-0.089844-0.74219l9.8594-9.8594z"/>
  <path d="m584.77 158.76c-1.957-1.8711-4.6055-3.0234-7.5273-3.0234-6.0234 0-10.91 4.8828-10.91 10.91 0 2.1758 0.64062 4.1992 1.7422 5.9023 3.2734-6.7188 9.3516-11.824 16.695-13.789z"/>
  <path d="m-88.66 165.33l17.91-17.852 14.23-14.18-2.1172-2.125-13.078 13.031-18.141 18.078-14.941 14.891 2.1172 2.125z"/>
  <path d="m-84.891 149.47h-9c-0.55078 0-0.83594 0.41797-0.63281 0.92969l3.4727 8.8398 18.379-18.312-5.4336-18.496c-0.15625-0.52734-0.73047-0.96094-1.2812-0.96094h-14.5c-0.55078 0-0.83594 0.41797-0.63281 0.92969l10.27 26.141c0.19531 0.51172-0.089844 0.92969-0.64062 0.92969z"/>
  <path d="m-69.789 150.76l-17.676 17.617 3.2109 8.168c0.19922 0.51172-0.085938 0.92969-0.63281 0.92969h-4c-0.55078 0-0.69922 0.33594-0.33594 0.74609l10.172 11.473c0.36328 0.41016 0.95312 0.40625 1.3086-0.015625l9.707-11.445c0.35547-0.41797 0.19531-0.76172-0.35156-0.76172h-3.5c-0.55078 0-1.1445-0.42578-1.3242-0.94531l-4.8516-14.109c-0.17969-0.51953 0.125-0.94531 0.67578-0.94531h9.75c0.55078 0 0.87109-0.43359 0.71875-0.96094z"/>
  <path d="m667.28 152.61h-29.566c-1.2266 0-2.2188 1.1289-2.2188 2.5195v52.465c0 1.3906 0.99219 2.5195 2.2188 2.5195h29.566c1.2266 0 2.2188-1.1289 2.2188-2.5195v-52.469c0-1.3906-0.99219-2.5156-2.2188-2.5156zm-14.781 47c-5.2383 0-9.5-4.2617-9.5-9.5s4.2617-9.5 9.5-9.5 9.5 4.2617 9.5 9.5-4.2617 9.5-9.5 9.5zm0-38.457c1.9062 0 3.4531 1.5508 3.4531 3.4531 0 1.9062-1.5508 3.4531-3.4531 3.4531-1.9062 0-3.4531-1.5508-3.4531-3.4531s1.5469-3.4531 3.4531-3.4531z"/>
  <path d="m657.45 190.11c0 6.6055-9.9062 6.6055-9.9062 0 0-6.6094 9.9062-6.6094 9.9062 0"/>
  <path d="m740.4 182.58c0-15.109-12.293-27.402-27.402-27.402s-27.402 12.293-27.402 27.402c0 1.8008 0.17578 3.6055 0.54297 5.4375l2.7109 10.727c0.19141 2.3086 1.7969 4.3555 4.1641 4.9883 0.96875 0.26172 1.9453 0.24609 2.8555 0.015625l0.42188 1.5703c0.42969 1.6016 2.0742 2.5508 3.6758 2.1211l4.1875-1.1211c1.6016-0.42969 2.5508-2.0742 2.1211-3.6758l-4.1406-15.453c-0.42969-1.6016-2.0742-2.5508-3.6758-2.1211l-4.1875 1.1211c-1.6016 0.42969-2.5508 2.0742-2.1211 3.6758l0.79688 2.9766c-0.80859 0.23047-1.5625 0.63281-2.1953 1.1836l-1.6836-6.668c-0.30859-1.5625-0.46875-3.1719-0.46875-4.7773 0-13.453 10.945-24.402 24.402-24.402 13.453 0 24.402 10.945 24.402 24.402 0 1.6523-0.16797 3.3086-0.48047 4.8516l-1.6875 6.6562c-0.60938-0.55469-1.3477-0.97656-2.1875-1.2266l0.80469-2.9961c0.42969-1.6016-0.51953-3.2461-2.1211-3.6758l-4.1875-1.1211c-1.6016-0.42969-3.2461 0.51953-3.6758 2.1211l-4.1406 15.453c-0.42969 1.6016 0.51953 3.2461 2.1211 3.6758l4.1875 1.1211c1.6016 0.42969 3.2461-0.51953 3.6758-2.1211l0.41797-1.5547c2.957 0.71094 5.9531-1.0508 6.7617-3.9961v-0.003906c0.003907-0.007813 0.007813-0.019531 0.007813-0.027344l0.011718-0.046875 2.9336-11.586c0.36719-1.8086 0.55469-3.668 0.55469-5.5234z"/>
  <path d="m783.05 181.5c3.8906-4.3086 3.8828-8.7148 3.8047-9.4766-0.039063-1.2695-0.60938-13.344-13.25-13.344-10.621 0-13.43 8.7812-13.43 13.328-0.011719 0.25-0.33984 6.0703 3.4609 10.34 1.2695 1.4297 0.66016 2.8906-0.94141 5.6484-1.1602 1.9883-2.6562 4.5898-1.8164 6.6719 1.0586 2.6289 3.1289 3.6289 5.1172 3.6797h0.10938c2.9297 0 5.8008-3.0898 8.7695-9.4492 1.8203-3.8906 2.25-6.6406 1.3516-8.6914-1.0391-2.3711-3.5195-3.1484-5.9219-3.8984-3.5312-1.1211-7.4648-2.5508-6.6406-7.3398 0.87891-3.0781 3.2891-7.2891 9.9414-7.2891 10.262 0 10.555 9.9844 10.578 10.41 0 0 0.71875 4.875-2.2383 8.4102z"/>
  <path d="m773.61 152.12c-19.77 0-19.188 19.801-19.188 20h1.375c0-0.050782 0.62109-4.3086 2.75-8.5664 2.7891-5.5898 8.0039-8.4336 15.062-8.4336 16.75 0 17 16.309 17 17 0 9.1719-4.2383 12.969-9.1602 17.379-1.9609 1.7617-3.5 4.5195-5.1289 7.4297-2.9414 5.2617-5.9219 10.977-11.504 10.977-3.4023 0-4.3125-0.39844-6.207-2.293-2.3516-2.3594-2.793-6.1055-2.793-6.1445l-1.4141-0.019532c0 0.19922 0 4.9141 3.125 8.2891 1.8867 2.0391 3.9141 2.8711 7.2344 2.8711 7.3398 0 10.969-6.4883 14.172-12.211 1.5117-2.6914 2.9414-5.2383 4.5312-6.6719 4.9883-4.4805 10.148-9.1094 10.148-19.609-0.003906-0.19531-0.23438-19.996-20.004-19.996z"/>
  <path d="m804.91 201.53l7.8594-8 12.695-12.926 13.43-13.676 1.1133-1.1328 7.1719-7.3008-2.1406-2.1016-5.1406 5.2305-2.1719 2.2109-2.832 2.8828-2.1602 2.2031-14.16 14.418-8.6914 8.8477-10.844 11.043 2.1406 2.1016 2.75-2.8008z"/>
  <path d="m839.6 170.49c0.10156 0.90234 0.10938 1.5039 0.10938 1.625 0 9.1719-4.2383 12.969-9.1602 17.379-1.9609 1.7617-3.5 4.5195-5.1289 7.4297-2.9414 5.2617-5.9219 10.977-11.504 10.977-3.4023 0-4.3125-0.39844-6.207-2.293-0.44922-0.45312-0.83203-0.95703-1.1523-1.4766l-1.4453 1.4727c0.39844 0.73047 0.89453 1.457 1.5156 2.1289 1.8867 2.0391 3.9141 2.8711 7.2344 2.8711 7.3398 0 10.969-6.4883 14.172-12.211 1.5117-2.6914 2.9414-5.2383 4.5312-6.6719 4.9883-4.4805 10.148-9.1094 10.148-19.609 0-0.058593-0.023438-1.8047-0.54688-4.2344z"/>
  <path d="m804.89 172.12c0-0.050782 0.62109-4.3086 2.75-8.5664 2.7891-5.5898 8.0039-8.4336 15.062-8.4336 6.8906 0 10.984 2.7617 13.422 6.0586l2.1016-2.1406c-2.8945-3.7852-7.6602-6.9219-15.523-6.9219-19.77 0-19.188 19.801-19.188 20z"/>
  <path d="m822.71 161.69c4.6328 0 7.2305 2.0352 8.6914 4.3086l2.0586-2.0977c-1.8555-2.7852-5.0898-5.2109-10.75-5.2109-10.621 0-13.43 8.7812-13.43 13.328-0.011719 0.25-0.33984 6.0703 3.4609 10.34 0.54688 0.61719 0.73047 1.2461 0.64844 1.9805l7.4258-7.5586c-0.46484-0.16016-0.93359-0.3125-1.4023-0.46094-3.5312-1.1211-7.4648-2.5508-6.6406-7.3398 0.87891-3.0781 3.2891-7.2891 9.9375-7.2891z"/>
  <path d="m832.16 181.5c2.3711-2.625 3.2891-5.2812 3.6328-7.1328l-3.0781 3.1328c-0.34766 1.0195-0.87109 2.0586-1.6602 3.0039z"/>
  <path d="m815.1 198.36h0.10938c2.9297 0 5.8008-3.0898 8.7695-9.4492 0.70313-1.5039 1.1953-2.8359 1.4844-4.0234l-12.691 12.922c0.74609 0.35547 1.543 0.53516 2.3281 0.55078z"/>
  <path d="m857.5 157.36v48h68.75v-48zm13.617 27.375v-25.375h3.2852v25.375h2.125v18.625h-7.5352v-18.625zm7.4102 0h2.125v-25.375h5.4102v44h-7.5352zm9.5391-25.375h5.4102v25.375h2.125v18.625h-7.5352zm9.5352 25.375h2.125v-25.375h3.2852v25.375h2.125v18.625h-7.5352zm9.5352 0h2.125v-25.375h3.2852v25.375h2.125v18.625h-7.5352zm-47.637-25.375h5.3672v25.375h2.125v18.625h-7.4922zm64.75 44h-7.5781v-18.625h2.125v-25.375h5.4531z"/>
  <path d="m-422.05 180.48l-4.5625-15.547-3.2891 10.395-4.625-8.1602-2.8828 4.5391-6.3047-7.4375 2.168-2.125 3.8047 4.4883 3.3555-5.2812 3.7266 6.5742 4.1484-13.125 4.1953 14.289 3.957-16.297 5.1953 14.566 3.6367-7.1094 4.9805 7.5 3.668-6.2031 4.3984 5.9375-2.293 1.9688-1.8359-2.4766-3.793 6.4219-4.8047-7.2305-4.4336 8.6719-4.1875-11.742z"/>
  <path d="m-705.62 179.22l-10.012-24.078 2.7734-1.1523 7.4492 17.922 8.6289-17.781 8.7305 18 8.8438-18.215 10.02 24.074-2.7734 1.1523-7.457-17.922-8.6328 17.781-8.7305-17.996z"/>
  <path d="m-577.83 181.64l-17.746-24.801 2.4375-1.7461 12.309 17.199-0.003907-17.637 14.258 18v-18.535l17.121 24.996-2.4727 1.6953-11.648-17.004v17.469l-14.258-18z"/>
  <path d="m73 63.5c-3.5391 0-4.6602-5.832-6.0742-13.219-0.67188-3.5078-1.9141-9.9844-3.1289-10.758-1.2148 0.77344-2.457 7.25-3.1289 10.758-1.4141 7.3867-2.5312 13.219-6.0742 13.219-3.5391 0-4.6562-5.832-6.0703-13.219-0.67188-3.5078-1.9141-9.9805-3.125-10.758-1.2148 0.77734-2.4531 7.25-3.1289 10.758-1.4141 7.3867-2.5312 13.219-6.0742 13.219-3.5391 0-4.6562-5.832-6.0703-13.219-0.68359-3.5703-1.957-10.219-3.1914-10.793l0.066406-2.9883c3.5391 0 4.6562 5.832 6.0703 13.219 0.67188 3.5078 1.9141 9.9805 3.125 10.758 1.2148-0.77734 2.4531-7.25 3.125-10.758 1.4141-7.3867 2.5312-13.219 6.0742-13.219 3.5391 0 4.6562 5.832 6.0703 13.219 0.67188 3.5078 1.9102 9.9805 3.125 10.758 1.2148-0.77344 2.457-7.25 3.1289-10.758 1.4141-7.3867 2.5352-13.219 6.0742-13.219 3.5391 0 4.6602 5.832 6.0742 13.219 0.68359 3.5703 1.9609 10.223 3.1953 10.793z"/>
  <path d="m-362.19 157.03h6.332v19.086h-6.332z"/>
  <path d="m-351.91 143.36h6.332v32.75h-6.332z"/>
  <path d="m-341.64 130.11h6.332v46h-6.332z"/>
  <path d="m-331.36 148.71h6.332v27.402h-6.332z"/>
  <path d="m-321.08 137.94h6.332v38.172h-6.332z"/>
  <path d="m-310.8 162.41h6.332v13.703h-6.332z"/>
  <path d="m-300.52 157.03h6.332v19.086h-6.332z"/>
  <path d="m-1020.1-86.387c5.1719-3.4414 11.793-3.9336 17.395-1.4297l-2.8516 3.2109 11.723 2.4062-3.7773-11.352-3.0156 3.3945c-6.7031-3.3672-14.844-2.9141-21.141 1.2773-8.1367 5.418-11.492 15.965-7.9805 25.074l2.8008-1.0781c-3.0078-7.8164-0.12891-16.855 6.8477-21.504z"/>
  <path d="m-989.96-78.352l-2.8008 1.0781c3.0117 7.8086 0.13672 16.852-6.8438 21.496-5.1719 3.4414-11.793 3.9336-17.395 1.4297l2.8516-3.2109-11.723-2.4062 3.7773 11.352 3.0156-3.3945c2.9688 1.4922 6.2188 2.2344 9.4648 2.2344 4.0859 0 8.168-1.1758 11.672-3.5117 8.1367-5.4102 11.492-15.957 7.9805-25.066z"/>
  <path d="m-499.45 137.5c-16.637 0-30.172 13.535-30.172 30.172s13.535 30.172 30.172 30.172 30.172-13.535 30.172-30.172c0.003906-16.637-13.535-30.172-30.172-30.172zm0 57.348c-14.984 0-27.172-12.188-27.172-27.172 0-14.984 12.188-27.172 27.172-27.172s27.172 12.188 27.172 27.172c0.003906 14.98-12.188 27.172-27.172 27.172z"/>
  <path d="m-493.95 144.5v5.3477h-11v-5.3477c-10.508 2.4844-18.328 11.918-18.328 23.184 0 13.16 10.668 23.828 23.828 23.828 13.16 0 23.828-10.668 23.828-23.828 0-11.27-7.8203-20.699-18.328-23.184zm-22.016 25.109l-0.26562 0.12891-3.9102 1.875-1.0352-2.1602 3.9102-1.875 0.26562-0.12891 0.015625-0.29687c0.0625-1.1094 0.71484-2.0938 1.7031-2.5664 0.40625-0.19531 0.83984-0.29297 1.2852-0.29297 0.62891 0 1.2617 0.20313 1.7812 0.57422l0.23828 0.17188 0.26562-0.12891 3.9102-1.875 1.0352 2.1602-3.9102 1.875-0.26562 0.12891-0.015625 0.29688c-0.0625 1.1094-0.71484 2.0938-1.7031 2.5664-0.40625 0.19531-0.83984 0.29297-1.2852 0.29297-0.62891 0-1.2617-0.20312-1.7812-0.57422zm9.2852 5.9805c0.43359 1.0234 0.28516 2.1953-0.39062 3.0547-0.57031 0.73047-1.4375 1.1484-2.3789 1.1484-0.16406 0-0.33594-0.011718-0.49609-0.039062l-0.28906-0.046875-0.18359 0.23047-2.6758 3.4141-1.8867-1.4766 2.6758-3.4141 0.18359-0.23047-0.11328-0.27344c-0.43359-1.0234-0.28516-2.1953 0.39062-3.0547 0.57031-0.73047 1.4375-1.1484 2.3789-1.1484 0.16406 0 0.33594 0.011719 0.49609 0.039062l0.28906 0.046876 0.18359-0.23047 2.6758-3.4141 1.8867 1.4766-2.6758 3.4141-0.18359 0.23047zm8.6875 8.6875l-0.25781 0.14453v4.6367h-2.3945v-4.6367l-0.25781-0.14453c-0.97266-0.53906-1.5781-1.5508-1.5781-2.6445s0.60547-2.1055 1.5781-2.6445l0.25781-0.14453v-4.6367h2.3945v4.6367l0.25781 0.14453c0.97266 0.53906 1.5781 1.5508 1.5781 2.6445s-0.60547 2.1094-1.5781 2.6445zm12.188-0.92578l-2.6758-3.4141-0.18359-0.23047-0.28906 0.046875c-0.16406 0.027344-0.33203 0.039062-0.49609 0.039062-0.9375 0-1.8047-0.41797-2.3789-1.1484-0.67578-0.85938-0.82422-2.0312-0.39062-3.0547l0.11328-0.27344-0.18359-0.23047-2.6758-3.4141 1.8867-1.4766 2.6758 3.4141 0.18359 0.23047 0.28906-0.046876c0.16406-0.027343 0.33203-0.039062 0.49609-0.039062 0.9375 0 1.8047 0.41797 2.3789 1.1484 0.67578 0.85937 0.82422 2.0312 0.39063 3.0547l-0.11328 0.27344 0.18359 0.23047 2.6758 3.4141zm3.1406-13.613l-0.26563-0.12891-0.23828 0.17188c-0.51953 0.37109-1.1523 0.57422-1.7812 0.57422-0.44531 0-0.87891-0.097656-1.2852-0.29297-0.98438-0.47266-1.6406-1.457-1.7031-2.5664l-0.015625-0.29688-0.26562-0.12891-3.9102-1.875 1.0352-2.1602 3.9102 1.875 0.26562 0.12891 0.23828-0.17188c0.51953-0.37109 1.1523-0.57422 1.7812-0.57422 0.44531 0 0.87891 0.097657 1.2852 0.29297 0.98438 0.47266 1.6406 1.457 1.7031 2.5664l0.015625 0.29687 0.26562 0.12891 3.9102 1.875-1.0352 2.1602z"/>
  <path d="m-640.41 180.3h-11.305v-24h-5.2734v-3h8.2734v24h5.3047v-24h11.129v23.5h5.8125v-23.5h11.129v23.5h4.6016v3h-7.6016v-23.5h-5.1289v23.5h-11.812v-23.5h-5.1289z"/>
  <path d="m-833.96-52.234c-5.5156 0-9.7266-3.4648-12.172-10.023-1.1836-3.1719-1.6719-6.3125-1.8672-8.0742h-20.625c-3.0078 0-5.5547-1.0547-7.5625-3.1289-3.9844-4.1211-4.7148-11.203-4.832-14.383-19.441 1.5625-19.672 33.773-19.672 34.109h-3c0-0.37109 0.27734-37.168 24.152-37.168h1.5469l-0.050781 1.5508c-0.003906 0.09375-0.24609 9.418 4.0078 13.809 1.4414 1.4883 3.2109 2.2109 5.4023 2.2109h23.43l0.066406 1.4297c0.007813 0.16797 0.91406 16.668 11.164 16.668z"/>
  <path d="m-748.53-54.648l-0.37891 1.9648c0.69531 0.13281 1.4297 0.20312 2.1797 0.20312v-2c-0.625-0.003906-1.2305-0.058593-1.8008-0.16797z"/>
  <path d="m-759.41-65.352c0.35938 1.4336 0.80078 2.7812 1.3047 4.0039l1.8477-0.76562c-0.46875-1.1328-0.87891-2.3867-1.2148-3.7266z"/>
  <path d="m-754.44-58.73l-1.6367 1.1484c0.89844 1.2812 1.9297 2.3398 3.0586 3.1406l1.1562-1.6328c-0.94141-0.66406-1.8086-1.5625-2.5781-2.6562z"/>
  <path d="m-758.39-71.629l-0.046875-0.95312h-2.9531v2h1.0742c0.03125 0.30859 0.070312 0.6875 0.12891 1.1172l1.9844-0.26172c-0.15234-1.1523-0.1875-1.8945-0.1875-1.9023z"/>
  <path d="m-788.61-76.883l-1.7227 1.0195c0.74219 1.2539 1.6211 2.3008 2.6133 3.1133l1.2695-1.5469c-0.81641-0.66797-1.5391-1.5352-2.1602-2.5859z"/>
  <path d="m-790.87-83.586l-1.9727 0.33203c0.22656 1.3438 0.53125 2.6133 0.90625 3.7734l1.9023-0.61719c-0.34375-1.0664-0.625-2.2383-0.83594-3.4883z"/>
  <path d="m-783.54-72.832l-0.48438 1.9414c0.82812 0.20703 1.7148 0.3125 2.6328 0.3125h1.3203v-2h-1.3203c-0.75391-0.003906-1.4766-0.085937-2.1484-0.25391z"/>
  <path d="m-776.34-72.582h3.7344v2h-3.7344z"/>
  <path d="m-768.87-72.582h3.7344v2h-3.7344z"/>
  <path d="m-791.27-87.625c-0.0625-1.1562 0-3.0195 0-3.0273l-1.0391 0.011719v-0.011719c-0.10547 0-0.20312 0.015625-0.30859 0.015625l-0.69531 0.007813v0.027344c-22.863 1.0352-23.148 36.75-23.148 37.117h3c0-0.33984 0.25-33.586 20.648-34.141z"/>
  <path d="m-721.1-82.176l1.6133 1.1836c0.75781-1.0352 1.5781-1.9766 2.4375-2.7969l-1.3789-1.4453c-0.94141 0.89453-1.8438 1.9258-2.6719 3.0586z"/>
  <path d="m-715.18-87.742l1.0391 1.707c1.043-0.63672 2.1602-1.1484 3.3164-1.5273l-0.62109-1.9023c-1.3008 0.42578-2.5586 1.0039-3.7344 1.7227z"/>
  <path d="m-727.28-67.535l1.9492 0.44531c0.29297-1.2734 0.625-2.5195 0.98438-3.6992l-1.9102-0.58594c-0.375 1.2266-0.71875 2.5195-1.0234 3.8398z"/>
  <path d="m-728.59-59.73l1.9883 0.21875c0.14062-1.2852 0.31641-2.5664 0.52344-3.8125l-1.9727-0.32812c-0.21094 1.2852-0.39062 2.6016-0.53906 3.9219z"/>
  <path d="m-724.93-75.129l1.8555 0.75c0.49219-1.2148 1.0312-2.3711 1.6016-3.4336l-1.7617-0.94531c-0.60547 1.1211-1.1758 2.3438-1.6953 3.6289z"/>
  <path d="m-728.98-53.734h2c0-0.015625 0-0.72656 0.066406-1.9414l-1.9961-0.10547c-0.074219 1.293-0.070312 2.0469-0.070312 2.0469z"/>
  <path d="m-661.55-54.898l-0.37891 1.9648c0.69922 0.13281 1.4336 0.20312 2.1797 0.20312v-2c-0.62109-0.003906-1.2305-0.058593-1.8008-0.16797z"/>
  <path d="m-667.45-58.977l-1.6367 1.1484c0.89844 1.2812 1.9297 2.3398 3.0586 3.1406l1.1562-1.6328c-0.94141-0.66797-1.8125-1.5625-2.5781-2.6562z"/>
  <path d="m-672.43-65.598c0.35938 1.4375 0.80078 2.7852 1.3047 4.0039l1.8477-0.76562c-0.46875-1.1289-0.875-2.3828-1.2148-3.7266z"/>
  <path d="m-671.41-71.875l-0.046876-0.95312h-2.9531v2h1.0742c0.03125 0.30859 0.070313 0.6875 0.12891 1.1172l1.9805-0.26172c-0.14844-1.1562-0.18359-1.8945-0.18359-1.9023z"/>
  <path d="m-688.81-72.828h3.6016v2h-3.6016z"/>
  <path d="m-681.61-72.828h3.6016v2h-3.6016z"/>
  <path d="m-699.82-75.543c-4.2578-4.3945-4.1836-14.766-4.1797-14.859l-1.3281 0.023438v-0.019532c-0.71094 0-0.82422-0.015624-1.5078 0.054688-0.015625 0.43359-0.28516 11.574 4.8555 16.887 2.0117 2.0781 5.668 3.1289 9.5625 3.1289v-2.8086c-3.1445 0.30859-5.9609-0.91797-7.4023-2.4062z"/>
  <path d="m-614.29-76.949l-1.7031 1.0508c0.78125 1.2695 1.7109 2.3164 2.7617 3.1172l1.2109-1.5938c-0.85156-0.64844-1.6133-1.5156-2.2695-2.5742z"/>
  <path d="m-616.65-83.773l-1.9727 0.33984c0.23438 1.3789 0.55469 2.6758 0.94531 3.8555l1.8984-0.62891c-0.35547-1.0859-0.64844-2.2852-0.87109-3.5664z"/>
  <path d="m-617.09-89.367l0.03125-1.0312h-1.0312c-0.71094 0-1.4141 0.035157-2.0977 0.10156l0.19531 1.9883c0.29688-0.027344 0.59766-0.050781 0.90234-0.066406 0.007812 0.29297 0.019531 0.63672 0.039062 1.0273l1.9961-0.10547c-0.058594-1.1602-0.035156-1.9062-0.035156-1.9141z"/>
  <path d="m-627.95-87.742l1.0391 1.707c1.043-0.63672 2.1562-1.1484 3.3125-1.5273l-0.62109-1.9023c-1.2969 0.42578-2.5547 1.0039-3.7305 1.7227z"/>
  <path d="m-633.86-82.176l1.6133 1.1836c0.75781-1.0352 1.5781-1.9766 2.4375-2.7969l-1.3828-1.4453c-0.94141 0.89844-1.8438 1.9258-2.668 3.0586z"/>
  <path d="m-637.7-75.129l1.8555 0.74609c0.48828-1.2109 1.0273-2.3672 1.6016-3.4336l-1.7617-0.94531c-0.60938 1.1328-1.1797 2.3555-1.6953 3.6328z"/>
  <path d="m-641.36-59.73l1.9883 0.22266c0.14453-1.293 0.32031-2.5742 0.52734-3.8125l-1.9727-0.32813c-0.21094 1.2695-0.39453 2.5898-0.54297 3.918z"/>
  <path d="m-640.05-67.535l1.9492 0.44531c0.28906-1.2695 0.62109-2.5156 0.98438-3.6992l-1.9102-0.58594c-0.375 1.2305-0.71875 2.5234-1.0234 3.8398z"/>
  <path d="m-641.75-53.734h2c0-0.015625 0-0.72656 0.066406-1.9414l-1.9961-0.10547c-0.070313 1.293-0.070313 2.0469-0.070313 2.0469z"/>
  <path d="m-574.32-54.898l-0.37891 1.9648c0.69922 0.13281 1.4336 0.20312 2.1797 0.20312v-2c-0.62109-0.003906-1.2266-0.058593-1.8008-0.16797z"/>
  <path d="m-580.22-58.98l-1.6367 1.1484c0.89844 1.2812 1.9297 2.3398 3.0586 3.1406l1.1562-1.6328c-0.94141-0.66406-1.8086-1.5586-2.5781-2.6562z"/>
  <path d="m-585.2-65.602c0.35938 1.4375 0.80078 2.7852 1.3047 4.0039l1.8477-0.76562c-0.46875-1.1289-0.875-2.3828-1.2148-3.7266z"/>
  <path d="m-584.04-70.332c-0.15234-1.1562-0.22656-2.9922-0.22656-3h-24.691l-0.5625 3z"/>
  <path d="m-527.17-77.383l-1.7227 1.0195c0.74219 1.2539 1.6211 2.3008 2.6133 3.1094l1.2695-1.5469c-0.80859-0.66016-1.5391-1.5312-2.1602-2.582z"/>
  <path d="m-522.1-73.332l-0.48438 1.9414c0.82812 0.20703 1.7148 0.3125 2.6328 0.3125h1.3203v-2h-1.3203c-0.75781-0.003906-1.4805-0.085937-2.1484-0.25391z"/>
  <path d="m-529.43-84.086l-1.9727 0.33594c0.23047 1.3477 0.53516 2.6172 0.91016 3.7734l1.9023-0.61719c-0.34375-1.0625-0.625-2.2383-0.83984-3.4922z"/>
  <path d="m-507.42-73.082h3.7344v2h-3.7344z"/>
  <path d="m-514.89-73.082h3.7344v2h-3.7344z"/>
  <path d="m-529.86-89.617l0.03125-1.0312h-1.0312c-0.71094 0-1.4141 0.035157-2.0977 0.10156l0.19531 1.9883c0.29688-0.027344 0.59766-0.050781 0.90234-0.066406 0.007812 0.29297 0.019531 0.63672 0.039062 1.0273l1.9961-0.10547c-0.058594-1.1602-0.035156-1.9062-0.035156-1.9141z"/>
  <path d="m-552.81-67.785l1.9492 0.44531c0.28906-1.2695 0.62109-2.5156 0.98438-3.6992l-1.9102-0.58594c-0.37891 1.2305-0.72266 2.5234-1.0234 3.8398z"/>
  <path d="m-554.12-59.98l1.9883 0.22266c0.14453-1.293 0.32031-2.5742 0.52734-3.8125l-1.9727-0.32813c-0.21484 1.2695-0.39453 2.5898-0.54297 3.918z"/>
  <path d="m-550.47-75.379l1.8555 0.74609c0.48828-1.2109 1.0273-2.3672 1.6016-3.4336l-1.7617-0.94531c-0.60937 1.1328-1.1797 2.3555-1.6953 3.6328z"/>
  <path d="m-546.63-82.426l1.6133 1.1836c0.75781-1.0352 1.5781-1.9766 2.4375-2.7969l-1.3828-1.4453c-0.94141 0.89844-1.8398 1.9258-2.668 3.0586z"/>
  <path d="m-540.72-87.992l1.0391 1.707c1.043-0.63672 2.1562-1.1484 3.3125-1.5273l-0.62109-1.9023c-1.2969 0.42578-2.5547 1.0039-3.7305 1.7227z"/>
  <path d="m-554.52-53.984h2c0-0.015625 0-0.72656 0.066406-1.9414l-1.9961-0.10547c-0.070313 1.293-0.070313 2.0469-0.070313 2.0469z"/>
  <path d="m-496.51-73.082h-2.9336c0.007812 0.19531 0.23828 5.8828 1.9883 10.57 2.4453 6.5586 6.6562 10.023 12.172 10.023v-3c-10.559 0.054687-11.219-17.426-11.227-17.594z"/>
  <path d="m-941.89-94.262l2.2227 3.8516c7.8438 3.1172 13.41 10.77 13.41 19.711 0 11.699-9.5195 21.223-21.219 21.223-11.699 0-21.219-9.5195-21.219-21.223 0-8.9414 5.5664-16.594 13.41-19.711l2.2227-3.8516c-10.672 2.5312-18.633 12.133-18.633 23.562 0 13.355 10.863 24.223 24.219 24.223 13.355 0 24.219-10.863 24.219-24.223 0-11.43-7.9648-21.031-18.633-23.562z"/>
  <path d="m-965-70.699c0 9.6797 7.8477 17.527 17.527 17.527 9.6797 0 17.527-7.8477 17.527-17.527 0-7.4609-4.6719-13.816-11.238-16.348l-6.2891-10.891-6.2891 10.891c-6.5664 2.5312-11.238 8.8867-11.238 16.348zm30.09 0c0 6.9375-5.6211 12.559-12.559 12.559s-12.559-5.6211-12.559-12.559 5.6211-12.559 12.559-12.559 12.559 5.625 12.559 12.559z"/>
  <path d="m-1097.1-64.348c-0.011719 0-0.023438-0.003906-0.039062-0.003906v18.078h2v-18.078c-0.011719 0-0.023438 0.003906-0.039063 0.003906z"/>
  <path d="m-1095.1-84.859c0.011719 0 0.023438 0.003906 0.039063 0.003906v-7.332h-2v7.332c0.011718 0 0.023437-0.003906 0.039062-0.003906z"/>
  <path d="m-1083.6-73.859c0.011719 0 0.023438 0.003906 0.039063 0.003906v-18.328h-2v18.328c0.011718 0 0.023437-0.003906 0.039062-0.003906z"/>
  <path d="m-1085.6-53.348c-0.011719 0-0.023438-0.003906-0.039062-0.003906v7.0781h2v-7.0781c-0.011719 0-0.023438 0.003906-0.039063 0.003906z"/>
  <path d="m-1074.1-60.348c-0.011719 0-0.023438-0.003906-0.039062-0.003906v14.078h2v-14.078c-0.011719 0-0.023438 0.003906-0.039063 0.003906z"/>
  <path d="m-1072.1-80.859c0.011719 0 0.023438 0.003906 0.039063 0.003906v-11.332h-2v11.332c0.011718 0 0.023437-0.003906 0.039062-0.003906z"/>
  <path d="m-1062.6-56.348c-0.011719 0-0.023438-0.003906-0.039062-0.003906v10.078h2v-10.078c-0.011719 0-0.023438 0.003906-0.039063 0.003906z"/>
  <path d="m-1060.6-76.859c0.011719 0 0.023438 0.003906 0.039063 0.003906v-15.328h-2v15.328c0.011718 0 0.023437-0.003906 0.039062-0.003906z"/>
  <path d="m-1049.1-79.488c0.011719 0 0.023438 0.003906 0.039063 0.003906v-12.703h-2v12.703c0.011718 0 0.023437-0.003906 0.039062-0.003906z"/>
  <path d="m-1051.1-58.973c-0.011719 0-0.023438-0.003906-0.039062-0.003906v12.703h2v-12.703c-0.011719 0-0.023438 0.003906-0.039063 0.003906z"/>
  <path d="m-1095.1-81.855c-0.011719 0-0.023438-0.003906-0.039063-0.003906h-1.9258c-0.011719 0-0.023438 0.003906-0.039063 0.003906-1.0664 0.019531-1.9258 0.89062-1.9258 1.9609v10.586c0 1.0703 0.85938 1.9414 1.9258 1.9609 0.011719 0 0.023438 0.003906 0.039063 0.003906h1.9258c0.011719 0 0.023437-0.003906 0.039063-0.003906 1.0664-0.019532 1.9258-0.89062 1.9258-1.9609v-10.586c0-1.0742-0.85938-1.9414-1.9258-1.9609z"/>
  <path d="m-1083.6-70.855c-0.011719 0-0.023438-0.003906-0.039063-0.003906h-1.9258c-0.011719 0-0.023438 0.003906-0.039063 0.003906-1.0664 0.019531-1.9258 0.89062-1.9258 1.9609v10.586c0 1.0703 0.85938 1.9414 1.9258 1.9609 0.011719 0 0.023438 0.003906 0.039063 0.003906h1.9258c0.011719 0 0.023437-0.003906 0.039063-0.003906 1.0664-0.019532 1.9258-0.89062 1.9258-1.9609v-10.586c0-1.0742-0.85938-1.9414-1.9258-1.9609z"/>
  <path d="m-1072.1-77.855c-0.011719 0-0.023438-0.003906-0.039063-0.003906h-1.9258c-0.011719 0-0.023438 0.003906-0.039063 0.003906-1.0664 0.019531-1.9258 0.89062-1.9258 1.9609v10.586c0 1.0703 0.85938 1.9414 1.9258 1.9609 0.011719 0 0.023438 0.003906 0.039063 0.003906h1.9258c0.011719 0 0.023437-0.003906 0.039063-0.003906 1.0664-0.019532 1.9258-0.89062 1.9258-1.9609v-10.586c0-1.0742-0.85938-1.9414-1.9258-1.9609z"/>
  <path d="m-1060.6-73.855c-0.011719 0-0.023438-0.003906-0.039063-0.003906h-1.9258c-0.011719 0-0.023438 0.003906-0.039063 0.003906-1.0664 0.019531-1.9258 0.89062-1.9258 1.9609v10.586c0 1.0703 0.85938 1.9414 1.9258 1.9609 0.011719 0 0.023438 0.003906 0.039063 0.003906h1.9258c0.011719 0 0.023437-0.003906 0.039063-0.003906 1.0664-0.019532 1.9258-0.89062 1.9258-1.9609v-10.586c0-1.0742-0.85938-1.9414-1.9258-1.9609z"/>
  <path d="m-1049.1-76.484c-0.011719 0-0.023438-0.003906-0.039063-0.003906h-1.9258c-0.011719 0-0.023438 0.003906-0.039063 0.003906-1.0664 0.019531-1.9258 0.89062-1.9258 1.9609v10.586c0 1.0703 0.85938 1.9414 1.9258 1.9609 0.011719 0 0.023438 0.003906 0.039063 0.003906h1.9258c0.011719 0 0.023437-0.003906 0.039063-0.003906 1.0664-0.019532 1.9258-0.89063 1.9258-1.9609v-10.586c0-1.0703-0.85938-1.9375-1.9258-1.9609z"/>
 </g>
</svg>
