<?xml version="1.0" encoding="UTF-8"?>
<svg fill="#C4262E" width="100pt" height="100pt" version="1.1" viewBox="0 0 100 100" xmlns="http://www.w3.org/2000/svg">
 <g>
  <path d="m86.574 27.875l-35.699-20.609c-0.54297-0.3125-1.2109-0.3125-1.7539 0l-35.695 20.605c-0.54297 0.3125-0.875 0.89062-0.875 1.5195v41.219c0 0.625 0.33594 1.2031 0.875 1.5195l35.695 20.609c0.26953 0.15625 0.57422 0.23438 0.875 0.23438 0.30469 0 0.60547-0.078125 0.875-0.23438l35.699-20.609c0.54297-0.3125 0.875-0.89062 0.875-1.5195l0.003907-41.219c0-0.625-0.33203-1.2031-0.875-1.5156zm-2.6289 41.723l-33.945 19.598-33.945-19.598v-39.195l33.945-19.598 33.945 19.598z"/>
  <path d="m49.117 25.359c-7.2812 4.25-13.297 6.9336-20.785 7.1641-0.94531 0.027343-1.6992 0.80469-1.6992 1.75 0 13.266 2.9453 36.812 22.66 45.512 0.22656 0.097656 0.46484 0.14844 0.70703 0.14844s0.48047-0.050782 0.70703-0.14844c19.715-8.6953 22.66-32.246 22.66-45.512 0-0.94531-0.75-1.7227-1.6992-1.75-7.4883-0.23047-13.504-2.9141-20.785-7.1641-0.54687-0.32031-1.2227-0.32031-1.7656 0zm20.727 10.574c-0.23828 12.449-3.3398 32.523-19.844 40.324-16.508-7.7969-19.605-27.875-19.844-40.324 7.8789-0.62109 14.133-3.7422 19.844-7.0352 5.7109 3.293 11.965 6.4141 19.844 7.0352z"/>
  <path d="m57.012 63.789c0.29297 0.1875 0.62109 0.27734 0.94141 0.27734 0.57812 0 1.1445-0.28516 1.4766-0.80859 2.5859-4.0508 4.4805-9.0625 5.6289-14.895 0.1875-0.94922-0.43359-1.8711-1.3828-2.0586-0.95312-0.19531-1.8711 0.42969-2.0586 1.3828-1.0625 5.3984-2.793 10.004-5.1445 13.68-0.51562 0.81641-0.27344 1.9023 0.53906 2.4219z"/>
 </g>
</svg>
