<?xml version="1.0" encoding="UTF-8"?>
<svg fill="#0083BE" width="100pt" height="100pt" version="1.1" viewBox="0 0 100 100" xmlns="http://www.w3.org/2000/svg">
 <path d="m75 13c-6.6289 0-12 5.3711-12 12 0 1.0742 0.14062 2.1016 0.40625 3.0938l-28.75 14.812c-2.1836-2.9727-5.6836-4.9062-9.6562-4.9062-6.6289 0-12 5.3711-12 12s5.3711 12 12 12c3.9727 0 7.4727-1.9336 9.6562-4.9062l28.75 14.812c-0.26562 0.99219-0.40625 2.0195-0.40625 3.0938 0 6.6289 5.3711 12 12 12s12-5.3711 12-12-5.3711-12-12-12c-4.125 0-7.7461 2.0781-9.9062 5.25l-28.625-14.719c0.34375-1.1172 0.53125-2.3008 0.53125-3.5312s-0.1875-2.4141-0.53125-3.5312l28.625-14.719c2.1602 3.1719 5.7812 5.25 9.9062 5.25 6.6289 0 12-5.3711 12-12s-5.3711-12-12-12z"/>
</svg>
