<?xml version="1.0" encoding="UTF-8"?>
<svg fill="#772432" width="100pt" height="100pt" version="1.1" viewBox="0 0 100 100" xmlns="http://www.w3.org/2000/svg">
 <g fill-rule="evenodd">
  <path d="m50 100c-27.57 0-50-22.43-50-50s22.43-50 50-50 50 22.43 50 50-22.43 50-50 50zm0-96.551c-25.668 0-46.551 20.883-46.551 46.551s20.883 46.551 46.551 46.551 46.551-20.883 46.551-46.551-20.883-46.551-46.551-46.551z"/>
  <path d="m50 89.656c-21.867 0-39.656-17.789-39.656-39.656s17.789-39.656 39.656-39.656 39.656 17.789 39.656 39.656-17.789 39.656-39.656 39.656zm0-75.863c-19.965 0-36.207 16.242-36.207 36.207s16.242 36.207 36.207 36.207 36.207-16.242 36.207-36.207-16.242-36.207-36.207-36.207z"/>
  <path d="m82.145 70.773c-3.457-1.8711-6.25-4.7969-8.3086-8.6953-1.6211-3.0742-1.8203-6.6797-0.55469-9.8906 1.2539-3.1875 3.8398-5.668 7.0859-6.7969 2.1602-0.75391 4.582-1.3516 7.207-1.7852l0.5625 3.4023c-2.4297 0.40234-4.6641 0.95313-6.6328 1.6406-2.3008 0.79687-4.1289 2.5508-5.0156 4.8047-0.89844 2.2773-0.75391 4.832 0.39844 7.0156 1.7305 3.2852 4.0547 5.7344 6.8984 7.2734l-1.6406 3.0312"/>
  <path d="m71.449 81.191c-2.7891-4.7578-10.199-17.398-21.449-17.398-10.027 0-18.238 12.168-21.305 17.398l-2.9766-1.7461c3.3672-5.7422 12.473-19.102 24.281-19.102 13.227 0 21.363 13.879 24.426 19.102l-2.9766 1.7461"/>
  <path d="m18.145 70.773l-1.6406-3.0312c2.8359-1.5352 5.1562-3.9844 6.8906-7.2734 1.1484-2.1758 1.293-4.7266 0.39453-7-0.89062-2.2617-2.7227-4.0195-5.0273-4.8203-1.9531-0.67969-4.1953-1.2344-6.6719-1.6406l0.55859-3.4023c2.6719 0.4375 5.1094 1.043 7.2461 1.7852 3.2539 1.1328 5.8438 3.6133 7.1055 6.8125 1.2656 3.207 1.0625 6.8086-0.55469 9.8711-2.0586 3.9062-4.8516 6.8359-8.3008 8.6992"/>
  <path d="m82.621 32.324c-4.3477-0.31641-17.578-1.2891-32.621-1.2891-12.957 0-25.906 0.80859-32.469 1.2891l-0.25391-3.4375c6.6094-0.48438 19.652-1.3008 32.723-1.3008 15.168 0 28.496 0.98047 32.875 1.3008l-0.25391 3.4375"/>
  <path d="m50 56.898c-5.707 0-10.344-4.6445-10.344-10.348s4.6367-10.344 10.344-10.344 10.344 4.6406 10.344 10.344-4.6367 10.348-10.344 10.348zm0-17.242c-3.8047 0-6.8984 3.0938-6.8984 6.8945 0 3.8047 3.0938 6.8984 6.8984 6.8984s6.8984-3.0938 6.8984-6.8984c0-3.8008-3.0938-6.8945-6.8984-6.8945z"/>
 </g>
</svg>
