<?xml version="1.0" encoding="UTF-8"?>
<svg fill="#003F72" width="100pt" height="100pt" version="1.1" viewBox="0 0 100 100" xmlns="http://www.w3.org/2000/svg">
 <g>
  <path d="m13.277 72.215l35.844 20.695c0.27344 0.16016 0.57422 0.23828 0.87891 0.23828s0.60938-0.078126 0.87891-0.23828l35.84-20.691c0.54297-0.31641 0.87891-0.89453 0.87891-1.5234l0.003906-41.387c0-0.62891-0.33594-1.2109-0.87891-1.5234l-35.844-20.695c-0.54297-0.3125-1.2148-0.3125-1.7578 0l-35.844 20.691c-0.54297 0.31641-0.87891 0.89453-0.87891 1.5234v41.387c0 0.62891 0.33594 1.2109 0.87891 1.5234zm2.6406-41.891l34.082-19.68 34.082 19.676v39.355l-34.082 19.68-34.082-19.68z"/>
  <path d="m60.996 30.277c0.85938 0.45312 1.9219 0.12891 2.3789-0.73047 0.45312-0.85938 0.12891-1.9219-0.73047-2.3789-10.078-5.3359-22.273-3.5-30.344 4.5703-7.0547 7.0508-9.3438 17.273-6.2383 26.465l-1.4492-0.60938c-0.89453-0.375-1.9258 0.046875-2.3047 0.94141-0.375 0.89453 0.046875 1.9258 0.94141 2.3047l5.4023 2.2656c0.22266 0.09375 0.45312 0.13672 0.67969 0.13672 0.6875 0 1.3398-0.40625 1.625-1.0781l2.2656-5.4023c0.375-0.89453-0.046875-1.9258-0.94141-2.3047-0.89453-0.375-1.9297 0.046875-2.3008 0.94141l-0.63672 1.5117c-2.5938-7.8945-0.60547-16.637 5.4453-22.688 6.9727-6.9688 17.504-8.5547 26.207-3.9453z"/>
  <path d="m73.938 41.797l1.4492 0.60938c0.89844 0.375 1.9297-0.046875 2.3008-0.94141 0.375-0.89453-0.046875-1.9258-0.94141-2.3047l-5.4023-2.2656c-0.89844-0.375-1.9258 0.046875-2.3008 0.94141l-2.2656 5.4023c-0.375 0.89453 0.046875 1.9258 0.94141 2.3008 0.22266 0.09375 0.45312 0.13672 0.67969 0.13672 0.6875 0 1.3398-0.40625 1.625-1.0781l0.63281-1.5117c2.5938 7.8945 0.60547 16.637-5.4453 22.684-6.9727 6.9727-17.504 8.5586-26.207 3.9492-0.85938-0.45312-1.9258-0.12891-2.3789 0.73047s-0.12891 1.9219 0.73047 2.3789c3.8438 2.0352 7.9961 3.0273 12.113 3.0273 6.668 0 13.238-2.6094 18.23-7.5977 7.0547-7.0508 9.3438-17.27 6.2383-26.461z"/>
 </g>
</svg>
