<?xml version="1.0" encoding="UTF-8"?>
<svg fill="#003F72" width="100pt" height="100pt" version="1.1" viewBox="0 0 100 100" xmlns="http://www.w3.org/2000/svg">
 <path d="m47.43 44.664c0.14062 0.80078-0.39063 1.5586-1.1914 1.6992s-1.5586-0.39062-1.6992-1.1914l-4.8203-22.066c-0.14062-0.80078 0.39453-1.5586 1.1914-1.6992 0.80078-0.14062 1.5586 0.39062 1.6992 1.1914zm-12.727-19.895c-0.27734-0.76172-1.1211-1.1562-1.8828-0.87891-0.76172 0.27734-1.1562 1.1211-0.87891 1.8828l8.5781 20.895c0.27734 0.76172 1.1211 1.1562 1.8828 0.87891 0.76172-0.27734 1.1562-1.1211 0.87891-1.8828zm-7.2891 3.8789c-0.40625-0.70313-1.3047-0.94141-2.0078-0.53906-0.70312 0.40625-0.94141 1.3047-0.53516 2.0078l12.078 19.086c0.40625 0.70312 1.3047 0.94141 2.0078 0.53906 0.70312-0.40625 0.94141-1.3047 0.53906-2.0078zm-6.4102 5.4805c-0.51953-0.62109-1.4492-0.70312-2.0703-0.17969-0.62109 0.52344-0.70312 1.4492-0.17969 2.0703l15.211 16.699c0.51953 0.62109 1.4492 0.70312 2.0703 0.17969 0.62109-0.52344 0.70312-1.4492 0.17969-2.0703zm-5.3008 6.2891c-0.62109-0.51953-1.5469-0.44141-2.0703 0.17969-0.52344 0.62109-0.44141 1.5469 0.17969 2.0703l17.879 13.805c0.62109 0.51953 1.5469 0.44141 2.0703-0.17969 0.52344-0.62109 0.44141-1.5469-0.17969-2.0703zm-3.2969 7.3086c-0.70312-0.40625-1.6016-0.16406-2.0078 0.53516-0.40625 0.70312-0.16406 1.6016 0.53906 2.0078l20.004 10.492c0.70312 0.40625 1.6016 0.16406 2.0078-0.53906s0.16406-1.6016-0.53906-2.0078zm-2.3555 7.4922c-0.76172-0.27734-1.6055 0.11328-1.8828 0.87891-0.27734 0.76172 0.11328 1.6055 0.87891 1.8828l21.523 6.8594c0.76172 0.27734 1.6055-0.11328 1.8828-0.87891 0.27734-0.76172-0.11719-1.6055-0.87891-1.8828zm-0.98828 8.0977c-0.80078-0.14062-1.5625 0.39453-1.6992 1.1914-0.14062 0.80078 0.39062 1.5586 1.1914 1.6992l22.387 3.0156c0.80078 0.14062 1.5586-0.39453 1.6992-1.1914 0.14062-0.80078-0.39062-1.5586-1.1914-1.6992zm-2.1797 15.094c0 0.75781 0.63672 1.375 1.4258 1.375h23.391c0.78516 0 1.4258-0.61719 1.4258-1.375v-6.5078c0-0.75781-0.63672-1.375-1.4258-1.375h-23.395c-0.78516 0-1.4258 0.61328-1.4258 1.375zm41.59-34.156c0 0.8125 0.65625 1.4688 1.4688 1.4688s1.4688-0.65625 1.4688-1.4688l0.91406-22.57c0-0.8125-0.65625-1.4688-1.4688-1.4688s-1.4688 0.65625-1.4688 1.4688zm4.0977 0.41016c-0.14062 0.80078 0.39063 1.5586 1.1914 1.6992s1.5586-0.39062 1.6992-1.1914l4.8203-22.066c0.14062-0.80078-0.39453-1.5586-1.1914-1.6992-0.80078-0.14062-1.5586 0.39062-1.6992 1.1914zm4.1445 1c-0.27734 0.76172 0.11719 1.6055 0.87891 1.8828s1.6055-0.11328 1.8828-0.87891l8.5781-20.895c0.27734-0.76172-0.11328-1.6055-0.87891-1.8828-0.76172-0.27734-1.6055 0.11328-1.8828 0.87891zm3.793 2.0703c-0.40625 0.70312-0.16406 1.6016 0.53906 2.0078s1.6016 0.16406 2.0078-0.53906l12.078-19.086c0.40625-0.70313 0.16406-1.6016-0.53516-2.0078-0.70312-0.40625-1.6016-0.16406-2.0078 0.53906zm3.2812 3.0938c-0.51953 0.62109-0.44141 1.5469 0.17969 2.0703 0.62109 0.51953 1.5469 0.44141 2.0703-0.17969l15.211-16.699c0.51953-0.62109 0.44141-1.5469-0.17969-2.0703-0.62109-0.51953-1.5469-0.44141-2.0703 0.17969zm2.6289 3.3945c-0.62109 0.51953-0.70312 1.4492-0.17969 2.0703 0.51953 0.62109 1.4453 0.70312 2.0703 0.17969l17.879-13.805c0.62109-0.52344 0.70312-1.4492 0.17969-2.0703-0.51953-0.62109-1.4492-0.70312-2.0703-0.17969zm1.1719 3.9961c-0.70312 0.40625-0.94141 1.3047-0.53906 2.0078 0.40625 0.70313 1.3047 0.94141 2.0078 0.53906l20.004-10.496c0.70312-0.40625 0.94141-1.3047 0.53516-2.0078s-1.3047-0.94141-2.0078-0.53516zm0.83984 3.8594c-0.76172 0.27734-1.1562 1.1211-0.87891 1.8828 0.27734 0.76172 1.1211 1.1562 1.8828 0.87891l21.523-6.8594c0.76172-0.27734 1.1562-1.1211 0.87891-1.8828-0.27734-0.76172-1.1211-1.1562-1.8828-0.87891zm0.12109 4.2578c-0.80078 0.14062-1.332 0.90234-1.1914 1.6992 0.14062 0.80078 0.90234 1.332 1.6992 1.1914l22.387-3.0156c0.80078-0.14063 1.332-0.90234 1.1914-1.6992-0.14062-0.80078-0.90234-1.332-1.6992-1.1914zm24.566 5.5664c0-0.75781-0.63672-1.375-1.4258-1.375h-23.387c-0.78516 0-1.4258 0.61328-1.4258 1.375v6.5078c0 0.75781 0.63672 1.375 1.4258 1.375h23.391c0.78516 0 1.4258-0.61719 1.4258-1.375z"/>
</svg>
