<?xml version="1.0" encoding="UTF-8"?>
<svg fill="#0083BE" width="100pt" height="100pt" version="1.1" viewBox="0 0 100 100" xmlns="http://www.w3.org/2000/svg">
 <g>
  <path d="m55 51.668l-4.5352 11.344 2.1289 5.3242 1.4141 3.5352c0.32031-0.10156 0.64063-0.20312 0.99609-0.20312 1.8438 0 3.332 1.4883 3.332 3.332s-1.4883 3.332-3.332 3.332v10h3.332v-6.668h20v6.668h6.668v-6.668h3.332v-13.332l-6.668-16.668zm26.664 26.668c-1.8438 0-3.332-1.4883-3.332-3.332s1.4883-3.332 3.332-3.332 3.332 1.4883 3.332 3.332c0.003906 1.8398-1.4883 3.332-3.332 3.332zm-23.332-23.336h20l3.332 10h-26.664z"/>
  <path d="m18.336 58.336l-6.668 16.668v13.332h3.332v6.668h6.668v-6.668h20v6.668h6.668v-6.668h3.332v-13.332l-6.668-16.668zm0 26.664c-1.8438 0-3.332-1.4883-3.332-3.332s1.4883-3.332 3.332-3.332 3.332 1.4883 3.332 3.332-1.4922 3.332-3.332 3.332zm0-13.332l3.332-10h20l3.332 10zm29.996 10c0 1.8438-1.4883 3.332-3.332 3.332s-3.332-1.4883-3.332-3.332 1.4883-3.332 3.332-3.332 3.332 1.4883 3.332 3.332z"/>
  <path d="m28.336 45h6.668v-6.668h20v6.668h6.668v-6.668h3.332v-13.332l-6.668-16.668h-26.664l-6.668 16.668v13.332h3.332zm33.332-13.332c0 1.8438-1.4883 3.332-3.332 3.332s-3.332-1.4883-3.332-3.332 1.4883-3.332 3.332-3.332c1.8398 0 3.332 1.4883 3.332 3.332zm-26.668-20h20l3.332 10h-26.664zm-3.332 16.668c1.8438 0 3.332 1.4883 3.332 3.332s-1.4883 3.332-3.332 3.332-3.332-1.4883-3.332-3.332 1.4883-3.332 3.332-3.332z"/>
  <path d="m99.961 97.992l-20-96.664c-0.1875-0.90234-1.0859-1.4883-1.9688-1.293-0.90234 0.1875-1.4805 1.0664-1.293 1.9687l20 96.664c0.16406 0.78516 0.85547 1.3281 1.625 1.3281 0.11328 0 0.22656-0.011719 0.34375-0.035156 0.90234-0.17969 1.4844-1.0625 1.293-1.9688z"/>
  <path d="m22.008 0.039062c-0.88281-0.19922-1.7852 0.38672-1.9688 1.293l-20 96.664c-0.19141 0.90234 0.39063 1.7852 1.293 1.9688 0.11328 0.027344 0.22656 0.035156 0.34375 0.035156 0.76953 0 1.4648-0.53906 1.625-1.3281l20-96.664c0.1875-0.90234-0.39453-1.7852-1.293-1.9687z"/>
 </g>
</svg>
