<?xml version="1.0" encoding="UTF-8"?>
<svg fill="#772432" width="100pt" height="100pt" version="1.1" viewBox="0 0 100 100" xmlns="http://www.w3.org/2000/svg">
 <path d="m46.875 12.492c-0.86328 0-1.5625 0.70312-1.5625 1.5625v1.582h-4.9805c-0.65234-1.8086-2.375-3.125-4.3945-3.125-2.5703 0-4.6875 2.1172-4.6875 4.6875 0 2.5703 2.1172 4.6875 4.6875 4.6875 2.0195 0 3.7422-1.3164 4.3945-3.125h4.9805v1.543c0 0.86328 0.69922 1.5625 1.5625 1.5625h1.5625v3.1445h-1.5625c-0.86328 0-1.5625 0.69922-1.5625 1.5625v4.6875h-2.3438c-3.0039 0-5.4688 2.4648-5.4688 5.4688v0.78125h-15.324c-5.3555 0-9.6758 4.4453-9.6758 9.8633v10.449c0 0.86328 0.69922 1.5625 1.5625 1.5625h9.375c0.86328 0 1.5625-0.69922 1.5625-1.5625v-5.4688c0-1.3242 1.0195-2.3438 2.3438-2.3438h10.156v0.78125c0 3.0039 2.4648 5.4688 5.4688 5.4688h14.062c3.0039 0 5.4688-2.4648 5.4688-5.4688v-0.78125h12.5v7.8125c0 0.86328 0.69922 1.5625 1.5625 1.5625h9.375c0.86328 0 1.5625-0.69922 1.5625-1.5625v-28.125c0-0.86328-0.69922-1.5625-1.5625-1.5625h-9.375c-0.86328 0-1.5625 0.69922-1.5625 1.5625v7.8125h-12.5v-0.78125c0-3.0039-2.4648-5.4688-5.4688-5.4688h-2.3438v-4.6875c0-0.86328-0.69922-1.5625-1.5625-1.5625h-1.5625v-3.1445h1.5625c0.86328 0 1.5625-0.69922 1.5625-1.5625v-1.543h4.9805c0.65234 1.8086 2.375 3.125 4.3945 3.125 2.5703 0 4.6875-2.1172 4.6875-4.6875 0-2.5703-2.1172-4.6875-4.6875-4.6875-2.0195 0-3.7422 1.3164-4.3945 3.125h-4.9805v-1.582c0-0.85938-0.69922-1.5625-1.5625-1.5625zm1.5625 3.125h3.125v3.125h-3.125zm-12.5 0.019531c0.88281 0 1.5625 0.68359 1.5625 1.5625 0 0.88281-0.67969 1.5625-1.5625 1.5625s-1.5625-0.67969-1.5625-1.5625c0-0.87891 0.67969-1.5625 1.5625-1.5625zm28.125 0c0.88281 0 1.5625 0.68359 1.5625 1.5625 0 0.88281-0.67969 1.5625-1.5625 1.5625s-1.5625-0.67969-1.5625-1.5625c0-0.87891 0.67969-1.5625 1.5625-1.5625zm-15.625 12.5h1.3242c0.15234 0.023437 0.30469 0.023437 0.45703 0h1.3438v3.125h-3.125zm29.688 3.125h6.25v25h-6.25v-7.5664c0.027344-0.16797 0.027344-0.33594 0-0.50391v-8.8711c0.027344-0.16797 0.027344-0.33594 0-0.50391zm-35.156 3.125h3.668c0.15234 0.023437 0.30469 0.023437 0.45703 0h5.793c0.15234 0.023437 0.30469 0.023437 0.45703 0h3.6875c1.3242 0 2.3438 1.0195 2.3438 2.3438v14.062c0 1.3242-1.0195 2.3438-2.3438 2.3438h-14.062c-1.3242 0-2.3438-1.0195-2.3438-2.3438v-14.062c0-1.3242 1.0195-2.3438 2.3438-2.3438zm-20.793 6.25h15.324v6.25h-10.156c-3.0039 0-5.4688 2.4648-5.4688 5.4688v3.9062h-6.25v-8.8867c0-3.7773 2.9141-6.7383 6.5508-6.7383zm40.324 0h12.5v6.25h-12.5zm-43.695 23.012c-0.050782 0-0.10547 0-0.16016 0.003906-0.40234 0.027344-0.78125 0.21094-1.0547 0.51562 0 0-2 2.207-4.0078 4.9844-1.0078 1.3906-2.0195 2.9219-2.8086 4.4453-0.78906 1.5195-1.3984 3.0078-1.3984 4.5586 0 5.1523 4.2188 9.3555 9.375 9.3555s9.375-4.2031 9.375-9.3555c0-1.5508-0.60938-3.0391-1.3984-4.5586-0.78906-1.5234-1.8008-3.0547-2.8086-4.4453-2.0078-2.7773-4.0078-4.9844-4.0078-4.9844-0.28125-0.31641-0.68359-0.50391-1.1055-0.51953zm-0.054688 4.0508c0.68359 0.78906 1.3242 1.4648 2.6445 3.2852 0.94531 1.3086 1.8867 2.7383 2.5625 4.0469 0.67578 1.3047 1.043 2.5195 1.043 3.125 0 3.4609-2.7773 6.2305-6.25 6.2305s-6.25-2.7695-6.25-6.2305c0-0.60547 0.36719-1.8203 1.043-3.125 0.67578-1.3086 1.6172-2.7383 2.5625-4.0469 1.3203-1.8203 1.9609-2.4961 2.6445-3.2852z"/>
</svg>
