<?xml version="1.0" encoding="UTF-8"?>
<svg fill="#C4262E" width="100pt" height="100pt" version="1.1" viewBox="0 0 100 100" xmlns="http://www.w3.org/2000/svg">
 <path d="m77.922 71.762c0.82812-1.0703 1.2109-2.418 1.0781-3.7617-0.47656-2.957-2.8164-5.2617-5.7812-5.6992-1.7695 0.20703-3.3711 1.1641-4.3906 2.6289-0.96484 1.3711-1.3281 3.0781-1 4.7188 0.39453 2.1055 1.75 3.9102 3.6602 4.8711 0.53906 0.26172 1.0156 0.63281 1.4023 1.0898 0.41016 0.45312 0.66406 1.0234 0.73047 1.6289 0.078125 0.66797-0.30078 1.3047-0.92188 1.5508-0.83984 0.33984-1.7695 0.39063-2.6406 0.14063-3.7344-0.93359-6.6562-3.8398-7.6094-7.5703-0.96875-3.7852 0.17969-7.7969 3-10.5 0.85547-0.81641 1.8359-1.4883 2.9023-2 2.0586-1.2109 4.4688-1.6914 6.8398-1.3594 2.3672 0.32812 4.5586 1.4375 6.2305 3.1484 1.6406 1.6914 2.6758 3.8789 2.9375 6.2227 0.26562 2.2539-0.21484 4.5352-1.3594 6.5-0.90234 1.543-2.3164 2.7227-4 3.3281-1.4492 0.53516-3.0547 0.44922-4.4414-0.23828-0.72266-0.27734-1.0938-1.082-0.82812-1.8125 0.14844-0.39063 0.5-0.92188 0.73047-1 1.3633-0.12109 2.6172-0.80469 3.4609-1.8867zm8.5117 10.109h-0.003906c-1.0898-0.45703-2.25-0.71875-3.4297-0.76953l-2.6992-0.10156c-0.62891-0.035156-1.2422 0.18359-1.7109 0.60156l-0.19141 0.17188c-1.6406 1.4727-3.2578 2.9727-4.8516 4.5-0.53906-0.48828-1.0703-1-1.6211-1.4688l-2.0586-2.2617-0.86719-0.96484c-0.48828-0.51562-1.1602-0.81641-1.8711-0.83984h-0.19922l-2.2617-0.070312h-1.4219l0.003906 0.003906c-0.52734 0.042969-1.0547 0.125-1.5703 0.25-2.0898 0.49219-3.9727 1.6367-5.3711 3.2695-0.69141 0.81641-1.2578 1.7383-1.668 2.7305-0.39453 0.98047-0.63672 2.0195-0.71094 3.0781v0.78906 0.60156l0.070312 1.1797 0.19141 2.25c0.17969 1.8281 0.87891 3.3516 2.2695 3.2109 1.3906-0.14062 2.1992-1.4219 2.3516-3.3008l0.1875-2.5312 0.089844-1.2617v0.003906c0.035156-0.28516 0.09375-0.56641 0.17188-0.83984 0.3125-1.0781 0.9375-2.0391 1.7969-2.7617 0.66406-0.55859 1.4609-0.94531 2.3125-1.1211 0.21484-0.046875 0.4375-0.078125 0.66016-0.089844h2l2.3789 2.1484 1.5898 1.3438 0.78906 0.71094 0.39063 0.35938 0.19922 0.17969c0.16797 0.15625 0.34766 0.29688 0.54297 0.41797 0.94922 0.68359 2.1914 0.79297 3.25 0.28906 0.26953-0.125 0.51953-0.28516 0.75-0.47656l0.28125-0.21094 0.5-0.37109c0.66797-0.49219 1.3125-0.99609 1.9414-1.5117 0.92969-0.76172 1.8398-1.5391 2.7383-2.3398h1.3789 0.46094l-0.003906 0.003906c0.125-0.015625 0.25-0.015625 0.37109 0 0.23828 0.035156 0.47656 0.089844 0.71094 0.15625 0.93359 0.30078 1.75 0.89062 2.3281 1.6836 0.27734 0.39453 0.48438 0.83203 0.60938 1.2969 0.066407 0.23438 0.11328 0.47266 0.13281 0.71094v0.99219c0 1.6484 0 3.3008-0.089844 4.9492 0.09375 0.55469 0.41406 1.043 0.89062 1.3477 0.73828 0.42969 1.3789-0.12891 1.8594-1 0.78906-1.4141 1.3789-2.9297 1.75-4.5078 0.10156-0.39844 0.1875-0.80859 0.26172-1.2188l-0.003907-0.003906c0.046876-0.23438 0.078126-0.46875 0.089844-0.70703 0.023438-0.26562 0.023438-0.52734 0-0.79297-0.03125-1.0898-0.29688-2.1602-0.77734-3.1367-1.0508-2.0547-2.793-3.6719-4.9219-4.5625zm-58.105-8.1719c-0.23047 0-0.57812 0.57031-0.73047 1h0.003906c-0.26562 0.73047 0.10547 1.5352 0.82813 1.8125 1.3828 0.6875 2.9922 0.77344 4.4414 0.23828 1.6797-0.60547 3.0977-1.7852 4-3.3281 1.1641-1.9688 1.6562-4.2617 1.3984-6.5312-0.26172-2.3438-1.2969-4.5312-2.9414-6.2188-1.668-1.7148-3.8594-2.8242-6.2266-3.1523-2.3711-0.33203-4.7812 0.14844-6.8398 1.3594-1.0664 0.51172-2.0469 1.1836-2.9023 2-2.8203 2.7031-3.9688 6.7148-3 10.5 0.95312 3.7305 3.875 6.6367 7.6094 7.5703 0.87109 0.25 1.8008 0.19922 2.6406-0.14062 0.62109-0.24609 1-0.88281 0.92188-1.5469-0.066406-0.60938-0.32031-1.1797-0.73047-1.6328-0.38672-0.45703-0.86328-0.82812-1.4023-1.0898-1.9102-0.96094-3.2656-2.7617-3.6602-4.8672-0.32812-1.6445 0.035157-3.3516 1-4.7227 1.0234-1.4609 2.6211-2.4141 4.3906-2.6211 2.9336 0.45703 5.2383 2.7461 5.7227 5.6719 0.16797 1.3477-0.19141 2.7109-1 3.8008-0.85547 1.1016-2.1328 1.793-3.5234 1.8984zm12 8.1797c-1.0938-0.45703-2.2617-0.71875-3.4492-0.76953l-2.6797-0.10938c-0.625-0.035156-1.2422 0.18359-1.7109 0.60156l-0.19141 0.17188c-1.6406 1.4727-3.2578 2.9727-4.8516 4.5-0.53906-0.48828-1.0703-1-1.6211-1.4688l-2.0586-2.2617-0.89062-0.94141h0.003906c-0.48438-0.52734-1.1641-0.83594-1.8789-0.86328h-0.19922l-2.2617-0.070312h-1.4219l0.003906 0.003906c-0.53125 0.042969-1.0547 0.125-1.5703 0.25-2.0938 0.49219-3.9727 1.6367-5.3711 3.2695-0.69531 0.81641-1.2578 1.7383-1.668 2.7305-0.39062 0.98438-0.62109 2.0234-0.69141 3.0781v0.78906 0.60156l0.078126 1.1289 0.19141 2.25c0.17969 1.8281 0.87891 3.3516 2.2695 3.2109s2.1992-1.4219 2.3516-3.3008l0.19922-2.5391 0.089844-1.1992c0.035156-0.28516 0.09375-0.56641 0.17188-0.83984 0.32031-1.082 0.95703-2.043 1.8281-2.7617 0.66406-0.55859 1.457-0.94531 2.3086-1.1211 0.21875-0.046875 0.4375-0.078125 0.66016-0.089844h2l2.3789 2.1484 1.5781 1.4297 0.78906 0.71094 0.39062 0.35938 0.19922 0.17969 0.003906 0.003907c0.16797 0.15625 0.34766 0.29687 0.54297 0.41797 0.94922 0.68359 2.1914 0.79297 3.25 0.29297 0.26953-0.12891 0.51953-0.28906 0.75-0.48047l0.28125-0.21094 0.5-0.37109c0.66797-0.49219 1.3125-0.99609 1.9414-1.5117 0.92969-0.76172 1.8398-1.5391 2.7383-2.3398h1.3789 0.46094l-0.003906 0.003907c0.125-0.015625 0.25-0.015625 0.37109 0 0.24219 0.035156 0.47656 0.089843 0.71094 0.16016 0.93359 0.29688 1.75 0.88672 2.3281 1.6797 0.27734 0.39453 0.48438 0.83203 0.61328 1.2969 0.066406 0.23437 0.10938 0.47266 0.12891 0.71094v0.99219c0 1.6484 0 3.3008-0.089843 4.9492 0.09375 0.55469 0.41406 1.043 0.89062 1.3477 0.73828 0.42969 1.3789-0.12891 1.8594-1 0.78906-1.4141 1.3789-2.9297 1.75-4.5078 0.10156-0.39844 0.1875-0.80859 0.26172-1.2188h-0.003906c0.046875-0.23438 0.078125-0.47266 0.089844-0.71094 0.023437-0.26563 0.023437-0.52734 0-0.78906-0.03125-1.0938-0.29688-2.1641-0.77734-3.1406-1.0391-2.0938-2.7969-3.7461-4.9531-4.6523zm12.672-40.188c-0.19531-0.14453-0.375-0.30469-0.53906-0.48047-0.67578 1.1094-1.625 2.0273-2.75 2.668-0.60938 0.34766-1.2617 0.60547-1.9414 0.76953-0.32812 0.082031-0.66406 0.14062-1 0.17969h-7.4492l-11.211 8.8633-0.10938 0.10938-0.089844 0.070313c-0.875 0.67188-2.0586 0.78516-3.043 0.28906-0.98438-0.5-1.5977-1.5156-1.5781-2.6211l0.12891-7h-4.8594-0.78125c-0.26172 0-0.57812-0.070312-0.87109-0.12109l0.003906 0.003906c-2.3516-0.48047-4.3359-2.0586-5.332-4.2422-0.25391-0.50781-0.44531-1.0469-0.57812-1.6016-0.054688-0.28906-0.089844-0.58203-0.10938-0.87891v-2.8984c0-5.7734 0.046875-11.543 0.14062-17.309l0.070312-4.3203v-3.9336c0.011719-0.28125 0.046876-0.5625 0.097657-0.83984 0.63281-3.4453 3.668-5.9297 7.1719-5.8672h2.1602l17.27 0.35156c2.4297 0 4.8516 0.12109 7.2383 0.23828h0.92188c0.41406 0.023437 0.82422 0.082031 1.2305 0.17969 0.78906 0.18359 1.5312 0.52344 2.1875 1 0.21875 0.16406 0.42578 0.34375 0.62109 0.53906 0.15625-0.21875 0.32812-0.42578 0.51172-0.62109 0.96094-0.98438 2.2188-1.6328 3.5781-1.8477 0.33203-0.054688 0.66406-0.089844 1-0.10156h0.62109l1.2891 0.058594 2.4688-0.089844 4.9492-0.14062c3.332-0.078125 6.6367-0.125 9.9102-0.12891h8.8828c0.68359 0.050781 1.3555 0.19531 2 0.42969 2.668 0.93359 4.5938 3.2734 5 6.0703 0.046874 0.33203 0.074218 0.66797 0.078124 1v4.3906l-0.28906 6.3008c0.16016 5.3516 0.19922 10.691 0.17188 16v1c0 0.55078-0.058594 1.1016-0.17188 1.6406-0.24219 1.0625-0.71094 2.0586-1.3789 2.918-1.3555 1.7422-3.4141 2.7891-5.6211 2.8516h-5.5195l-0.19141 7v0.12891c-0.027343 0.89453-0.5625 1.6914-1.3789 2.0547-0.81641 0.36719-1.7656 0.23047-2.4492-0.34375l-6.6211-5.6211c-1.6484-1.3984-3.2617-2.8281-4.7891-4.2695-2-0.17969-4-0.41016-5.8281-0.71094-0.53906-0.089844-1-0.16016-1.6406-0.30078l-0.003906 0.003907c-0.57031-0.17188-1.1094-0.45312-1.5781-0.82031zm-2.5117-15.82c0.39844-0.16016 0.81641-0.24609 1.2422-0.26172h0.76172-0.003907c0.42188 0.035156 0.83594 0.14453 1.2227 0.32031 0.17578 0.082031 0.34766 0.17578 0.50781 0.28125l0.23047 0.16016 0.078125 0.058594h0.003906c0.14844 0.11719 0.30469 0.22656 0.46875 0.32031 0.3125 0.17969 0.64844 0.31641 1 0.39844 0.75 0.17578 1.5391 0.12109 2.2617-0.14844 0.73438-0.28516 1.3672-0.78516 1.8164-1.4297 0.21875-0.30859 0.39062-0.64453 0.51172-1 0.11328-0.39453 0.17969-0.80078 0.19141-1.2109-0.023438-1.6133-0.71484-3.1445-1.9102-4.2305-1-1-2-1.4609-2.1602-2.1211-0.10156-0.35156 0.10156-0.64844 0.64844-0.87891 0.82422-0.25781 1.707-0.25781 2.5312 0 1.3281 0.35156 2.5273 1.082 3.4492 2.1016 1.1641 1.3047 1.8633 2.957 2 4.6992 0.10938 1.1523-0.003906 2.3125-0.33984 3.4219-0.375 1.1484-0.98828 2.207-1.8008 3.1094-1.6367 1.8438-3.9648 2.9297-6.4297 3-1.082 0.019531-2.1602-0.16016-3.1797-0.53125v5.8828-0.003906c0.13281 0.0625 0.25391 0.14844 0.35938 0.25 0.1875 0.27344 0.46484 0.47656 0.78125 0.57031 0.078125 0.027344 0.16016 0.046875 0.23828 0.0625h0.42969 7.3906c0.68359-0.003906 1.3477 0.23047 1.8828 0.66016l7.2305 5.7617v-3.4219l-0.003906 0.007813c0.046874-1.625 1.375-2.918 3-2.918l5.8984 0.10156h1.9883l0.003906-0.003906c0.09375 0.011719 0.1875 0.011719 0.28125 0 0.37891-0.066406 0.72656-0.24609 1-0.51953 0.29688-0.29688 0.49219-0.67578 0.55859-1.0898 0.015625-0.19922 0.015625-0.39844 0-0.59766v-0.73047l0.089844-1.4688c0.12109-1.9531 0.26562-3.9023 0.44141-5.8516l-0.16016-16.68v-2.0898-0.23828-0.125c0.007812-0.082031 0.007812-0.16406 0-0.25-0.035156-0.16016-0.089844-0.31641-0.16016-0.46875-0.28906-0.60156-0.83984-1.0391-1.4883-1.1914-0.16016-0.035156-0.32031-0.050781-0.48047-0.046875h-7.2695c-3.4609 0-6.9414 0-10.41-0.14844l-10.293-0.3125c-1.0195 0.058594-1.9883 0.45703-2.7578 1.1289l-0.30078 0.26172c0.03125 0.33203 0.03125 0.66797 0 1 0 0.37109 0 0.58984-0.070313 0.89062l-0.12891 1.6484c-0.12109 1.1133-0.25391 2.2109-0.39844 3.2891l-0.24219 1.6328c-0.078125 0.57812-0.19922 0.92188 0.058594 1.3281 0.125 0.19922 0.30859 0.35547 0.51953 0.44922 0.23828 0.089843 0.48828 0.14453 0.74219 0.16016 0.27734 0.011719 0.55469-0.050781 0.80078-0.17969 0.21484-0.10156 0.44141-0.19141 0.66797-0.26953 0.80859-0.32422 1.7109-0.30078 2.5 0.058594 0.46875 0.28906 0.46094 0.64062 0.089844 1-0.19141 0.19922-0.53125 0.48047-0.82812 0.78125l-0.44141 0.44922-0.19922 0.21094h-0.050781l-0.26953 0.19922c-0.20312 0.13672-0.41797 0.25391-0.64062 0.35156-0.5 0.21875-1.0391 0.34766-1.5898 0.36719h-0.98047c-1.8555-0.21094-3.375-1.5703-3.8008-3.3867-0.070313-0.32812-0.10938-0.66406-0.10938-1v-7.6016-0.37109c0.003906-0.070312 0.003906-0.14453 0-0.21875-0.03125-0.14844-0.089844-0.28906-0.16797-0.42188-0.15625-0.26562-0.39062-0.48438-0.67188-0.61719-0.13281-0.070313-0.27734-0.11719-0.42969-0.14063l-0.19922-0.070312h-27.648c-0.074218-0.007812-0.14844-0.007812-0.22266 0-0.14453 0.027344-0.28516 0.074219-0.41797 0.14062-0.27344 0.13672-0.50391 0.34766-0.66016 0.60938-0.078125 0.12891-0.13672 0.26562-0.17188 0.41016-0.003906 0.074219-0.003906 0.14844 0 0.21875 0.003906 0.042969 0.003906 0.082032 0 0.12109v0.28125c0 3.5273-0.054687 7.0508-0.16016 10.57 11.148 10.039 11.02 13.59-0.39062 10.648l-0.23828 5.25-0.089844 1.1406c-0.007812 0.23047 0.019531 0.46484 0.078125 0.6875 0.12891 0.47656 0.38672 0.90234 0.75 1.2305 0.03125 0.10547 0.078125 0.20703 0.13281 0.30078-0.050782-0.097656-0.09375-0.19531-0.13281-0.30078 0.41406 0.29688 0.90625 0.46094 1.4102 0.47266h2.5586l5.3281-0.078125 0.003906-0.003906c0.55469-0.007813 1.0898 0.20703 1.4883 0.58984 0.39844 0.38672 0.625 0.91797 0.63281 1.4727v0.058593l0.070312 5 8.4102-6.9297c0.41797-0.34766 0.94531-0.53516 1.4883-0.53906h7.8711c0.39844-0.03125 0.77734-0.18359 1.0898-0.42969 0.47266-0.35547 0.76953-0.89453 0.82031-1.4805v-0.19922-0.39844-2.7305l0.050781-3.6289v-1.1562c0.003907-0.21094 0.023438-0.42188 0.058594-0.62891 0.23047-1.2812 1.1094-2.3516 2.3203-2.8281z"/>
</svg>
