<?xml version="1.0" encoding="UTF-8"?>
<svg fill="#0083BE" width="100pt" height="100pt" version="1.1" viewBox="0 0 100 100" xmlns="http://www.w3.org/2000/svg">
 <g>
  <path d="m75.383 60.922c-4.3086 0-7.8477 3.5391-7.8477 7.8477 0 4.3086 3.5391 7.8477 7.8477 7.8477 4.3086 0 7.8477-3.5391 7.8477-7.8477 0.15234-4.3086-3.3828-7.8477-7.8477-7.8477zm0 13.539c-3.0781 0-5.6914-2.4609-5.6914-5.6914 0-3.0781 2.4609-5.6914 5.6914-5.6914 3.0781 0 5.6914 2.4609 5.6914 5.6914 0.003906 3.2305-2.457 5.6914-5.6914 5.6914z"/>
  <path d="m75.383 50.617c-9.8477 0-18.152 5.6914-22.152 14l-21.078-9.2305c0.61719-1.8477 1.0781-3.8477 1.0781-5.8477 0-1.6914-0.30859-3.5391-0.76953-5.0781l26.152-14c3.5391 5.5391 9.6914 9.2305 16.77 9.2305 10.922 0 19.848-8.9219 19.848-19.848 0-10.922-8.9219-19.535-19.848-19.535-10.922 0-19.844 8.9219-19.844 19.844 0 3.0781 0.76953 6 2 8.4609l-25.848 13.848c-2.6172-5.5391-8.4609-9.3828-14.922-9.3828-9.2305 0-16.77 7.3828-16.77 16.613 0 9.2305 7.5391 16.617 16.617 16.617 6.3086 0 11.848-3.5391 14.617-8.7695l21.078 9.2305c-0.92188 2.6172-1.5391 5.3828-1.5391 8.4609 0 13.539 11.078 24.617 24.617 24.617s24.617-11.078 24.617-24.617c-0.007812-13.539-11.086-24.613-24.625-24.613zm-10.613-16.617v-3.2305c0-3.0781 2.3086-5.6914 5.3828-6l3.5391 6.6172h3.3828l3.5391-6.6172c3.0781 0.30859 5.3828 2.9219 5.3828 6v3.2305c-2.9219 2.3086-6.6172 3.6914-10.617 3.6914-3.9961 0-7.6875-1.3828-10.609-3.6914zm10.613-31.383c9.6914 0 17.539 7.8477 17.539 17.539 0 4.6172-1.6914 8.6172-4.6172 11.848l0.003906-1.2344c0-4.6172-3.6914-8.3086-8.3086-8.3086h-0.61719l-3.5352 6.7695h-0.61719l-3.5391-6.6172-0.92188 0.003907c-4.6172 0-8.3086 3.6914-8.3086 8.3086v1.0781c-2.7695-3.0781-4.6172-7.2305-4.6172-11.848 0.003906-9.6953 7.8477-17.539 17.539-17.539zm-67.383 58.461v-2.4609c0-2.4609 1.8477-4.4609 4.1523-4.7695l2.9219 5.5391h3.0781l2.9219-5.5391c2.3086 0.30859 4.1523 2.3086 4.1523 4.7695v2.4609c-2.4609 1.8477-5.3828 2.9219-8.6172 2.9219-3.2266 0-6.1484-1.0781-8.6094-2.9219zm19.539-2.1562v-0.30859c0-3.8477-3.2305-7.0781-7.0781-7.0781h-0.61719l-2.9219 5.5391h-0.30859l-2.9219-5.5391-0.92188 0.003906c-3.8477 0-7.0781 3.2305-7.0781 7.0781v0.30859c-2.1523-2.4609-3.3828-5.6914-3.3828-9.2305 0-7.8477 6.4609-14.309 14.309-14.309 7.8477 0 14.309 6.4609 14.309 14.309 0.15234 3.5352-1.2344 6.7656-3.3867 9.2266zm34.309 33.848v-4.1523c0-4.1523 3.2305-7.5391 7.2305-7.8477l4.4609 8.3086h4l4.4609-8.3086c4 0.30859 7.2305 3.6914 7.2305 7.8477v4.1523c-3.8477 2.9219-8.4609 4.7695-13.691 4.7695-5.2305-0.15625-10-1.8477-13.691-4.7695zm29.535-2v-2c0-5.5391-4.6172-10.152-10.152-10.152h-0.61719l-4.4609 8.3086h-1.2305l-4.6133-8.4648h-0.61719c-5.5391 0-10.152 4.6172-10.152 10.152v2.1562c-3.8477-4-6.3086-9.5391-6.3086-15.539 0-12.309 10-22.309 22.309-22.309 12.309 0 22.309 10 22.309 22.309-0.15625 6-2.6172 11.387-6.4648 15.539z"/>
  <path d="m16.617 39.848c-3.0781 0-5.6914 2.4609-5.6914 5.6914 0 3.0781 2.4609 5.6914 5.6914 5.6914 3.2305 0 5.6914-2.4609 5.6914-5.6914 0-3.2305-2.6172-5.6914-5.6914-5.6914zm0 8.9219c-1.8477 0-3.3828-1.5391-3.3828-3.3828 0-1.8477 1.5391-3.3828 3.3828-3.3828 1.8477 0 3.3828 1.5391 3.3828 3.3828 0 1.9961-1.5391 3.3828-3.3828 3.3828z"/>
  <path d="m75.383 21.539c3.5391 0 6.6172-2.9219 6.6172-6.6172 0-3.5391-2.9219-6.6172-6.6172-6.6172-3.5391 0-6.6172 2.9219-6.6172 6.6172 0.15625 3.6953 3.082 6.6172 6.6172 6.6172zm0-10.77c2.3086 0 4.3086 1.8477 4.3086 4.3086 0 2.3086-1.8477 4.3086-4.3086 4.3086-2.3086 0-4.3086-1.8477-4.3086-4.3086 0.15625-2.4609 2.0039-4.3086 4.3086-4.3086z"/>
 </g>
</svg>
