<?xml version="1.0" encoding="UTF-8"?>
<svg fill="#C4262E" width="100pt" height="100pt" version="1.1" viewBox="0 0 100 100" xmlns="http://www.w3.org/2000/svg">
 <g>
  <path d="m98.984 17.812c-0.3125 0-0.625 0.23438-0.625 0.625v10.234c0 0.3125 0.23438 0.625 0.625 0.625 0.3125 0 0.625-0.23438 0.625-0.625v-10.312c0-0.3125-0.23438-0.54688-0.625-0.54688z"/>
  <path d="m98.984 31.406c-0.3125 0-0.625 0.23438-0.625 0.625v3.2812c0 0.3125 0.23438 0.625 0.625 0.625 0.3125 0 0.625-0.23438 0.625-0.625v-3.2812c0-0.39062-0.23438-0.625-0.625-0.625z"/>
  <path d="m23.281 72.734c-0.15625-0.078125-0.3125 0-0.46875 0.078125s-0.23438 0.23438-0.23438 0.39062c-0.3125 2.5781-2.9688 4.4531-6.1719 4.4531s-5.8594-1.9531-6.1719-4.4531c0-0.15625-0.15625-0.3125-0.23438-0.39062-0.15625-0.078125-0.3125-0.078125-0.46875-0.078125-5.4688 1.7969-8.9062 6.875-8.5156 12.422l0.70312 11.172c0 0.3125 0.3125 0.54688 0.625 0.54688h27.969c0.3125 0 0.54688-0.23438 0.625-0.54688l0.70312-11.172c0.39062-5.5469-3.0469-10.625-8.3594-12.422zm7.1875 12.344l-0.70312 10.625h-26.875l-0.70312-10.625c-0.3125-4.7656 2.5-9.2188 6.875-10.938 0.78125 2.8125 3.75 4.7656 7.2656 4.7656s6.4844-2.0312 7.2656-4.7656c4.375 1.7188 7.1875 6.1719 6.875 10.938z"/>
  <path d="m16.328 72.188c4.8438 0 8.75-4.1406 8.75-9.2969s-3.9062-9.2969-8.75-9.2969-8.75 4.1406-8.75 9.2969c0 5.0781 3.9062 9.2969 8.75 9.2969zm0-17.422c4.1406 0 7.5781 3.6719 7.5781 8.125s-3.3594 8.125-7.5781 8.125-7.5781-3.6719-7.5781-8.125c0-4.5312 3.4375-8.125 7.5781-8.125z"/>
  <path d="m64.297 78.828c0.3125 0 0.54688-0.23438 0.625-0.54688l0.70312-11.172c0.39062-5.5469-3.0469-10.625-8.3594-12.344-0.15625-0.078125-0.3125 0-0.46875 0.078125s-0.23438 0.23438-0.23438 0.39062c-0.3125 2.5781-2.9688 4.4531-6.1719 4.4531s-5.8594-1.9531-6.1719-4.4531c0-0.15625-0.15625-0.3125-0.23438-0.39062-0.15625-0.078125-0.3125-0.078125-0.46875-0.078125-5.2344 1.7188-8.6719 6.875-8.3594 12.344l0.70312 11.172c0 0.3125 0.3125 0.54688 0.625 0.54688zm-21.25-22.734c0.78125 2.8125 3.75 4.7656 7.2656 4.7656s6.4844-2.0312 7.2656-4.7656c4.375 1.7969 7.1875 6.1719 6.875 10.938l-0.70312 10.625h-26.875l-0.70312-10.625c-0.3125-4.7656 2.5-9.2188 6.875-10.938z"/>
  <path d="m50.312 35.547c-4.8438 0-8.75 4.1406-8.75 9.2969s3.9062 9.2969 8.75 9.2969 8.75-4.1406 8.75-9.2969-3.9062-9.2969-8.75-9.2969zm0 17.422c-4.1406 0-7.5781-3.6719-7.5781-8.125s3.3594-8.125 7.5781-8.125 7.5781 3.6719 7.5781 8.125-3.4375 8.125-7.5781 8.125z"/>
  <path d="m91.25 36.719c-0.15625-0.078125-0.3125 0-0.46875 0.078125s-0.23438 0.23438-0.23438 0.39062c-0.3125 2.5781-2.9688 4.4531-6.1719 4.4531s-5.8594-1.9531-6.1719-4.4531c0-0.15625-0.15625-0.3125-0.23438-0.39062-0.15625-0.078125-0.3125-0.078125-0.46875-0.078125-5.2344 1.7188-8.6719 6.875-8.3594 12.344l0.70312 11.172c0 0.3125 0.3125 0.54688 0.625 0.54688h27.969c0.3125 0 0.54688-0.23438 0.625-0.54688l0.70312-11.172c0.15625-5.4688-3.2812-10.625-8.5156-12.344zm7.1875 12.344l-0.70312 10.625h-26.875l-0.70312-10.625c-0.3125-4.7656 2.5-9.2188 6.875-10.938 0.78125 2.8125 3.75 4.7656 7.2656 4.7656s6.4844-2.0312 7.2656-4.7656c4.375 1.7188 7.1875 6.0938 6.875 10.938z"/>
  <path d="m75.547 26.797c0 5.1562 3.9062 9.2969 8.75 9.2969s8.75-4.1406 8.75-9.2969-3.9062-9.2969-8.75-9.2969-8.75 4.2188-8.75 9.2969zm8.75-8.125c4.1406 0 7.5781 3.6719 7.5781 8.125s-3.3594 8.125-7.5781 8.125c-4.1406 0-7.5781-3.6719-7.5781-8.125s3.3594-8.125 7.5781-8.125z"/>
  <path d="m17.734 44.766c0.3125 0.39062 0.46875 2.7344 0.3125 5.0781 0 0.15625 0.078125 0.3125 0.15625 0.46875s0.23438 0.15625 0.39062 0.15625c0.70312 0 1.5625-0.9375 3.4375-3.125 0.78125-0.9375 1.9531-2.3438 2.2656-2.5 10.234-1.4844 17.969-10.391 17.969-20.781 0.078125-11.484-9.2969-20.938-20.859-20.938-11.641 0-21.016 9.4531-21.016 21.016 0 10.234 7.2656 18.906 17.344 20.625zm3.6719-40.469c10.938 0 19.844 8.9062 19.844 19.844 0 9.7656-7.2656 18.203-16.953 19.609-0.625 0.078125-1.3281 0.9375-3.0469 2.8906-0.54688 0.70312-1.3281 1.5625-1.875 2.1094 0.078125-3.2031-0.3125-4.9219-1.3281-5.0781-9.5312-1.6406-16.406-9.8438-16.406-19.531-0.078125-10.938 8.8281-19.844 19.766-19.844z"/>
  <path d="m10.859 29.297l-2.8906 1.7188c-0.3125 0.15625-0.39062 0.54688-0.23438 0.78125 0.078125 0.15625 0.3125 0.3125 0.46875 0.3125 0.078125 0 0.23438 0 0.3125-0.078125l2.8906-1.7188c1.4844 2.2656 3.75 3.9844 6.4062 4.7656l-0.85938 3.2812c-0.078125 0.3125 0.078125 0.625 0.39062 0.70312h0.15625c0.23438 0 0.46875-0.15625 0.54688-0.46875l0.85938-3.2812c0.78125 0.15625 1.5625 0.23438 2.3438 0.23438 1.9531 0 3.8281-0.46875 5.5469-1.4062l1.7188 2.8906c0.078125 0.15625 0.3125 0.3125 0.46875 0.3125 0.078125 0 0.23438 0 0.3125-0.078125 0.3125-0.15625 0.39062-0.54688 0.23438-0.78125l-1.5625-2.8906c2.1875-1.4844 3.9062-3.6719 4.7656-6.4062l3.2812 0.85938h0.15625c0.23438 0 0.46875-0.15625 0.54688-0.46875s-0.078125-0.625-0.39062-0.70312l-3.2812-0.85938c0.54688-2.7344 0.15625-5.4688-1.1719-7.8906l2.8906-1.7188c0.3125-0.15625 0.39062-0.54688 0.23438-0.78125-0.15625-0.3125-0.54688-0.39062-0.78125-0.23438l-2.9688 1.7969c-1.4844-2.2656-3.75-3.9844-6.4062-4.7656l0.85938-3.2812c0.078125-0.3125-0.078125-0.625-0.39062-0.70312s-0.625 0.078125-0.70312 0.39062l-0.85938 3.2812c-2.7344-0.54688-5.4688-0.15625-7.8906 1.1719l-1.7969-2.9688c-0.15625-0.3125-0.54688-0.39062-0.78125-0.23438-0.3125 0.15625-0.39062 0.54688-0.23438 0.78125l1.7188 2.8906c-2.2656 1.4844-3.9844 3.75-4.7656 6.4062l-3.2812-0.85938c-0.3125-0.078125-0.625 0.078125-0.70312 0.39062s0.078125 0.625 0.39062 0.70312l3.2812 0.85938c-0.46875 2.8125-0.078125 5.5469 1.1719 8.0469zm5.0781-14.766c1.6406-1.0156 3.5156-1.4844 5.4688-1.4844 0.85938 0 1.7969 0.078125 2.6562 0.3125 2.7344 0.70312 5.0781 2.4219 6.5625 4.9219 1.4844 2.4219 1.875 5.3125 1.1719 8.125-1.4844 5.625-7.3438 9.1406-13.047 7.6562-2.7344-0.70312-5.0781-2.4219-6.5625-4.9219-1.4844-2.4219-1.875-5.3125-1.1719-8.125 0.70312-2.7344 2.4219-5 4.9219-6.4844z"/>
  <path d="m19.688 30.312c0.54688 0.15625 1.0938 0.23438 1.7188 0.23438 3.0469 0 5.8594-2.0312 6.6406-5.1562 0.9375-3.6719-1.25-7.3438-4.9219-8.2812-1.7969-0.46875-3.5938-0.15625-5.1562 0.78125s-2.6562 2.4219-3.125 4.2188-0.15625 3.5938 0.78125 5.1562c0.78125 1.4844 2.2656 2.6562 4.0625 3.0469zm-3.8281-7.9688c0.39062-1.4844 1.3281-2.6562 2.5781-3.4375 0.85938-0.54688 1.875-0.78125 2.8906-0.78125 0.46875 0 0.9375 0.078125 1.4062 0.15625 3.0469 0.78125 4.8438 3.8281 4.0625 6.875s-3.8281 4.8438-6.875 4.0625c-1.4844-0.39062-2.6562-1.3281-3.4375-2.5781-0.70312-1.3281-0.9375-2.8906-0.625-4.2969z"/>
  <path d="m93.828 77.969c0.3125 0 0.625-0.23438 0.625-0.625v-9.8438c0-0.3125-0.23438-0.625-0.625-0.625-0.3125 0-0.625 0.23438-0.625 0.625v9.8438c0 0.39062 0.3125 0.625 0.625 0.625z"/>
  <path d="m93.203 83.828c0 0.3125 0.23438 0.625 0.625 0.625 0.3125 0 0.625-0.23438 0.625-0.625v-3.2031c0-0.3125-0.23438-0.625-0.625-0.625-0.3125 0-0.625 0.23438-0.625 0.625z"/>
  <path d="m46.562 84.922l-1.3281-1.3281c-0.23438-0.23438-0.625-0.23438-0.85938 0s-0.23438 0.625 0 0.85938l1.3281 1.3281c0.078125 0.078125 0.23438 0.15625 0.39062 0.15625s0.3125-0.078125 0.39062-0.15625c0.3125-0.23438 0.3125-0.625 0.078125-0.85938z"/>
  <path d="m49.531 87.969c-0.23438-0.23438-0.625-0.23438-0.85938 0s-0.23438 0.625 0 0.85938l1.3281 1.3281c0.078125 0.078125 0.23438 0.15625 0.39062 0.15625s0.3125-0.078125 0.39062-0.15625c0.23438-0.23438 0.23438-0.625 0-0.85938z"/>
  <path d="m45.703 87.969l-1.3281 1.3281c-0.23438 0.23438-0.23438 0.625 0 0.85938 0.078125 0.078125 0.23438 0.15625 0.39062 0.15625s0.3125-0.078125 0.39062-0.15625l1.3281-1.3281c0.23438-0.23438 0.23438-0.625 0-0.85938-0.15625-0.23438-0.54688-0.23438-0.78125 0z"/>
  <path d="m50.938 83.594c-0.23438-0.23438-0.625-0.23438-0.85938 0l-1.3281 1.3281c-0.23438 0.23438-0.23438 0.625 0 0.85938 0.078125 0.078125 0.23438 0.15625 0.39062 0.15625s0.3125-0.078125 0.39062-0.15625l1.3281-1.3281c0.3125-0.3125 0.3125-0.70312 0.078125-0.85938z"/>
  <path d="m61.875 25.938l-1.3281-1.3281c-0.23438-0.23438-0.625-0.23438-0.85938 0s-0.23438 0.625 0 0.85938l1.3281 1.3281c0.078125 0.078125 0.23438 0.15625 0.39062 0.15625s0.3125-0.078125 0.39062-0.15625c0.3125-0.23438 0.3125-0.625 0.078125-0.85938z"/>
  <path d="m64.922 28.984c-0.23438-0.23438-0.625-0.23438-0.85938 0s-0.23438 0.625 0 0.85938l1.3281 1.3281c0.078125 0.078125 0.23438 0.15625 0.39062 0.15625s0.3125-0.078125 0.39062-0.15625c0.23438-0.23438 0.23438-0.625 0-0.85938z"/>
  <path d="m61.016 28.984l-1.3281 1.3281c-0.23438 0.23438-0.23438 0.625 0 0.85938 0.078125 0.078125 0.23438 0.15625 0.39062 0.15625s0.3125-0.078125 0.39062-0.15625l1.3281-1.3281c0.23438-0.23438 0.23438-0.625 0-0.85938-0.15625-0.23438-0.54688-0.23438-0.78125 0z"/>
  <path d="m66.25 24.609c-0.23438-0.23438-0.625-0.23438-0.85938 0l-1.3281 1.3281c-0.23438 0.23438-0.23438 0.625 0 0.85938 0.078125 0.078125 0.23438 0.15625 0.39062 0.15625s0.3125-0.078125 0.39062-0.15625l1.3281-1.3281c0.3125-0.3125 0.3125-0.625 0.078125-0.85938z"/>
  <path d="m43.594 7.8125c0.078125 0.078125 0.23438 0.15625 0.39062 0.15625s0.3125-0.078125 0.39062-0.15625c0.23438-0.23438 0.23438-0.625 0-0.85938l-1.3281-1.3281c-0.23438-0.23438-0.625-0.23438-0.85938 0s-0.23438 0.625 0 0.85938z"/>
  <path d="m47.969 12.188c0.078125 0.078125 0.23438 0.15625 0.39062 0.15625s0.3125-0.078125 0.39062-0.15625c0.23438-0.23438 0.23438-0.625 0-0.85938l-1.3281-1.3281c-0.23438-0.23438-0.625-0.23438-0.85938 0s-0.23438 0.625 0 0.85938z"/>
  <path d="m42.656 12.422c0.15625 0 0.3125-0.078125 0.39062-0.15625l1.3281-1.3281c0.23438-0.23438 0.23438-0.625 0-0.85938s-0.625-0.23438-0.85938 0l-1.3281 1.3281c-0.23438 0.23438-0.23438 0.625 0 0.85938 0.15625 0.078125 0.3125 0.15625 0.46875 0.15625z"/>
  <path d="m47.031 8.0469c0.15625 0 0.3125-0.078125 0.39062-0.15625l1.3281-1.3281c0.23438-0.23438 0.23438-0.625 0-0.85938s-0.625-0.23438-0.85938 0l-1.25 1.3281c-0.23438 0.23438-0.23438 0.625 0 0.85938 0.078125 0.078125 0.23438 0.15625 0.39062 0.15625z"/>
  <path d="m4.6875 45.781c-1.5625 0-2.8906 1.3281-2.8906 2.8906s1.3281 2.8906 2.8906 2.8906 2.8906-1.3281 2.8906-2.8906c0-1.6406-1.25-2.8906-2.8906-2.8906zm0 4.5312c-0.9375 0-1.7188-0.78125-1.7188-1.7188s0.78125-1.7188 1.7188-1.7188 1.7188 0.78125 1.7188 1.7188c0 1.0156-0.78125 1.7188-1.7188 1.7188z"/>
  <path d="m92.5 13.359c1.5625 0 2.8906-1.3281 2.8906-2.8906s-1.3281-2.8906-2.8906-2.8906-2.8906 1.3281-2.8906 2.8906 1.25 2.8906 2.8906 2.8906zm0-4.6094c0.9375 0 1.7188 0.78125 1.7188 1.7188s-0.78125 1.7188-1.7188 1.7188-1.7188-0.78125-1.7188-1.7188 0.78125-1.7188 1.7188-1.7188z"/>
  <path d="m89.531 91.484c0-0.3125-0.23438-0.625-0.625-0.625h-10.703c-0.3125 0-0.625 0.23438-0.625 0.625s0.23438 0.625 0.625 0.625h10.703c0.39062 0 0.625-0.23438 0.625-0.625z"/>
  <path d="m95.938 90.938h-3.4375c-0.3125 0-0.625 0.23438-0.625 0.625s0.23438 0.625 0.625 0.625h3.4375c0.3125 0 0.625-0.23438 0.625-0.625s-0.3125-0.625-0.625-0.625z"/>
  <path d="m95.938 94.609h-7.4219c-0.3125 0-0.625 0.23438-0.625 0.625 0 0.3125 0.23438 0.625 0.625 0.625h7.4219c0.3125 0 0.625-0.23438 0.625-0.625s-0.3125-0.625-0.625-0.625z"/>
  <path d="m85.312 94.609h-2.4219c-0.3125 0-0.625 0.23438-0.625 0.625 0 0.3125 0.23438 0.625 0.625 0.625h2.4219c0.3125 0 0.625-0.23438 0.625-0.625-0.078125-0.39062-0.3125-0.625-0.625-0.625z"/>
  <path d="m87.266 71.25c0.078125 0.15625 0.3125 0.3125 0.54688 0.3125 0.078125 0 0.15625 0 0.3125-0.078125 0.3125-0.15625 0.39062-0.54688 0.23438-0.78125l-3.125-5.7031c-0.15625-0.3125-0.54688-0.39062-0.78125-0.23438l-5.7031 3.125c-0.3125 0.15625-0.39062 0.54688-0.23438 0.78125 0.15625 0.3125 0.54688 0.39062 0.78125 0.23438l4.4531-2.4219c-0.78125 3.2031-4.2969 13.125-13.047 20.391-8.8281 7.3438-20.234 10.078-33.906 8.125-0.3125-0.078125-0.625 0.15625-0.70312 0.46875s0.15625 0.625 0.46875 0.70312c2.9688 0.46875 5.7812 0.625 8.5156 0.625 10.312 0 19.062-3.0469 26.25-8.9844 8.9062-7.4219 12.5-17.266 13.438-20.938z"/>
  <path d="m47.031 31.797c0.078125 0.15625 0.3125 0.3125 0.54688 0.3125 0.078125 0 0.15625 0 0.3125-0.078125l3.6719-2.0312c0.3125-0.15625 0.39062-0.54688 0.23438-0.78125-0.15625-0.3125-0.54688-0.39062-0.78125-0.23438l-2.5781 1.3281c0.70312-2.4219 2.9688-8.125 8.2031-12.5 5.625-4.6875 12.891-6.4062 21.562-5.1562 0.3125 0.078125 0.625-0.15625 0.70312-0.46875s-0.15625-0.625-0.46875-0.70312c-9.0625-1.3281-16.641 0.46875-22.5 5.3906-5.3906 4.5312-7.7344 10.312-8.5156 13.047l-1.3281-2.4219c-0.15625-0.3125-0.54688-0.39062-0.78125-0.23438-0.3125 0.15625-0.39062 0.54688-0.23438 0.78125z"/>
 </g>
</svg>
