<?xml version="1.0" encoding="UTF-8"?>
<svg fill="#772432" width="100pt" height="100pt" version="1.1" viewBox="0 0 100 100" xmlns="http://www.w3.org/2000/svg">
 <g fill-rule="evenodd">
  <path d="m75 91.668h16.668v-83.336h-16.668zm20.832 8.332h-25c-2.3047 0-4.1641-1.8672-4.1641-4.168v-91.664c0-2.3008 1.8594-4.168 4.1641-4.168h25c2.3047 0 4.168 1.8672 4.168 4.168v91.664c0 2.3008-1.8633 4.168-4.168 4.168z"/>
  <path d="m45.832 58.332h20.836v-16.664h-20.836zm25 8.3359h-29.164c-2.3047 0-4.168-1.8672-4.168-4.168v-25c0-2.3008 1.8633-4.168 4.168-4.168h29.164c2.3047 0 4.168 1.8672 4.168 4.168v25c0 2.3008-1.8633 4.168-4.168 4.168z"/>
  <path d="m29.168 51.59l8.332 4.168v-11.516l-8.332 4.1641zm12.5 15.074c-0.64062 0-1.2773-0.14453-1.8633-0.4375l-16.668-8.332c-1.4102-0.70703-2.3047-2.1484-2.3047-3.7305v-8.332c0-1.5781 0.89453-3.0195 2.3047-3.7227l16.668-8.3359c1.2852-0.64453 2.8203-0.57813 4.0508 0.18359 1.2266 0.75781 1.9766 2.0977 1.9766 3.543v25c0 1.4453-0.75 2.7852-1.9766 3.5469-0.66797 0.41016-1.4258 0.61719-2.1875 0.61719z"/>
  <path d="m8.9844 25.785c-0.55469 0.42188-0.625 0.72266-0.64844 0.99219-0.13281 1.3008 0.96484 4.0859 4.4258 7.9961 2.7383 3.0938 4.2461 7.0547 4.2461 11.152v8.1484c0 4.0977-1.5078 8.0586-4.2461 11.152-3.4609 3.9102-4.5586 6.6953-4.4258 7.9961 0.023437 0.26953 0.09375 0.57031 0.64844 0.99219 0.65234 0.49609 1.668 0.78516 2.7812 0.78516h6.2891c1.4805 0 2.7812-0.92188 2.7812-1.9766v-46.047c0-1.0547-1.3008-1.9766-2.7812-1.9766h-6.2891c-1.1133 0-2.1289 0.28516-2.7812 0.78516m9.0703 57.547h-6.2891c-2.9453 0-5.7266-0.88281-7.8359-2.4922-2.2812-1.7383-3.625-4.0938-3.8906-6.8047-0.41016-4.1797 1.7695-9.0078 6.4844-14.332 1.3867-1.5703 2.1523-3.5664 2.1523-5.6289v-8.1484c0-2.0625-0.76562-4.0586-2.1523-5.6289-4.7148-5.3242-6.8945-10.152-6.4844-14.332 0.26563-2.7109 1.6094-5.0664 3.8906-6.8047 2.1094-1.6094 4.8906-2.4922 7.8359-2.4922h6.2891c6.125 0 11.113 4.625 11.113 10.309v46.047c0 5.6836-4.9883 10.309-11.113 10.309"/>
 </g>
</svg>
