<?xml version="1.0" encoding="UTF-8"?>
<svg width="100pt" height="100pt" version="1.1" viewBox="0 0 100 100" xmlns="http://www.w3.org/2000/svg">
 <path d="m4.207 0c-0.48828 0-0.97656 0.085938-1.4414 0.25781-0.55469 0.20313-1.0742 0.52344-1.5195 0.96875-0.82812 0.82813-1.2344 1.9141-1.2227 3v29.777c0 2.3086 1.8711 4.1836 4.1836 4.1836s4.1836-1.875 4.1836-4.1836v-19.711l29.895 29.918c0.81641 0.81641 1.8867 1.2266 2.9609 1.2266 1.0703 0 2.1445-0.40625 2.957-1.2266 1.6367-1.6367 1.6367-4.2852 0-5.9219l-29.895-29.918h19.719c2.3125 0 4.1836-1.875 4.1836-4.1836s-1.8711-4.1836-4.1836-4.1836h-29.73-0.085937zm61.762 0.0039062c-2.3125 0-4.1836 1.875-4.1836 4.1836s1.8711 4.1836 4.1836 4.1836h19.73l-29.898 29.926c-1.6367 1.6367-1.6367 4.2852 0 5.918 0.81641 0.8125 1.8867 1.2227 2.957 1.2227 1.0664 0 2.1484-0.40625 2.957-1.2266l29.887-29.91v19.703c0 2.3086 1.8711 4.1836 4.1836 4.1836s4.1836-1.875 4.1836-4.1836v-29.613c0.054688-1.1367-0.35156-2.293-1.2227-3.1641-0.14453-0.14453-0.29688-0.27734-0.45703-0.39453l-0.003906-0.003906c-0.042968-0.03125-0.085937-0.0625-0.12891-0.089844-0.015625-0.007812-0.027344-0.019531-0.039062-0.027343-0.03125-0.023438-0.066407-0.042969-0.10156-0.0625-0.027344-0.015626-0.054687-0.035157-0.082031-0.050782-0.023438-0.015625-0.050782-0.027344-0.074219-0.042968-0.035156-0.019532-0.070313-0.039063-0.10547-0.058594-0.019531-0.011719-0.039062-0.019532-0.058594-0.027344-0.046874-0.023438-0.09375-0.046875-0.14453-0.070312-0.003906 0-0.007812-0.003907-0.011719-0.003907-0.058593-0.027343-0.11719-0.050781-0.17578-0.078125-0.48828-0.19922-1.0195-0.30859-1.5781-0.30859h-29.82zm-24.723 54.559c-1.0703 0-2.1406 0.40625-2.957 1.2266l-29.895 29.918v-19.711c0-2.3086-1.8711-4.1836-4.1836-4.1836s-4.1836 1.875-4.1836 4.1836v29.777c-0.011719 1.0859 0.39844 2.1719 1.2266 3.0039 0.23047 0.23047 0.48438 0.42969 0.75391 0.59375 0.015626 0.011718 0.03125 0.019531 0.050782 0.03125 0.039062 0.023437 0.078125 0.042968 0.11719 0.066406 0.019531 0.011719 0.042969 0.023438 0.0625 0.035156 0.035157 0.019532 0.070313 0.039063 0.10938 0.054688 0.027344 0.011718 0.050782 0.027344 0.078125 0.039062 0.027344 0.015625 0.058594 0.027344 0.089844 0.039063 0.035156 0.015625 0.070313 0.03125 0.10938 0.046875 0.023438 0.007812 0.042969 0.015625 0.066406 0.023437 0.042969 0.015625 0.085938 0.035157 0.12891 0.050781 0.015626 0.007813 0.035157 0.011719 0.050782 0.015626 0.046875 0.015624 0.097656 0.03125 0.14844 0.046874 0.011719 0.003907 0.027344 0.007813 0.039063 0.011719 0.054687 0.015625 0.10547 0.03125 0.16016 0.042969 0.007812 0.003906 0.019531 0.003906 0.027344 0.007812 0.058594 0.015626 0.11328 0.027344 0.17188 0.039063 0.007812 0 0.015625 0.003906 0.023437 0.003906 0.054688 0.011719 0.11328 0.019531 0.16797 0.027344 0.023437 0.003906 0.046875 0.003906 0.066406 0.007813 0.042969 0.007812 0.089844 0.011718 0.13281 0.015624 0.03125 0.003907 0.0625 0.003907 0.09375 0.007813 0.035156 0.003906 0.074218 0.007813 0.10938 0.007813 0.070312 0.003906 0.13672 0.003906 0.20703 0.003906h29.816c2.3125 0 4.1836-1.875 4.1836-4.1836s-1.8711-4.1836-4.1836-4.1836h-19.719l29.895-29.918c1.6367-1.6406 1.6367-4.2852 0-5.9219-0.81641-0.81641-1.8906-1.2266-2.9609-1.2266zm17.516 0c-1.0703 0-2.1406 0.41016-2.957 1.2266-1.6367 1.6328-1.6367 4.2812 0 5.918l29.891 29.922h-19.723c-2.3125 0-4.1836 1.875-4.1836 4.1836s1.8711 4.1836 4.1836 4.1836h29.82c0.62109 0 1.2109-0.13672 1.7422-0.37891 0.011719-0.003907 0.023438-0.007813 0.03125-0.015626 0.046875-0.019531 0.089844-0.042968 0.13281-0.066406 0.019531-0.007812 0.039062-0.019531 0.058593-0.027344 0.039063-0.019531 0.078126-0.042968 0.11719-0.066406 0.019531-0.011718 0.039062-0.023437 0.0625-0.035156 0.035156-0.019531 0.070312-0.042969 0.10156-0.066406 0.027344-0.015625 0.054688-0.03125 0.078126-0.050782 0.023437-0.015624 0.050781-0.035156 0.074218-0.050781 0.03125-0.023437 0.0625-0.042969 0.09375-0.066406 0.015625-0.011719 0.035156-0.027344 0.050782-0.039063 0.14453-0.10937 0.28125-0.23047 0.41406-0.35937 0.82812-0.82813 1.2383-1.9141 1.2266-3v-29.781c0-2.3086-1.8711-4.1836-4.1836-4.1836s-4.1836 1.875-4.1836 4.1836v19.711l-29.887-29.914c-0.81641-0.82031-1.8867-1.2305-2.957-1.2305z"/>
</svg>
