<?xml version="1.0" encoding="UTF-8"?>
<svg fill="#772432" width="100pt" height="100pt" version="1.1" viewBox="0 0 100 100" xmlns="http://www.w3.org/2000/svg">
 <path d="m81.816 18.18c-8.4961-8.4961-19.797-13.18-31.816-13.18s-23.32 4.6797-31.82 13.18c-8.5 8.4961-13.18 19.797-13.18 31.82s4.6797 23.324 13.18 31.82c8.5 8.5 19.801 13.18 31.82 13.18s23.32-4.6797 31.816-13.18c8.5-8.5 13.184-19.797 13.184-31.82s-4.6836-23.324-13.184-31.82zm-4.7148 58.926c-7.2383 7.2383-16.863 11.227-27.102 11.227s-19.867-3.9883-27.109-11.227c-7.2383-7.2383-11.223-16.863-11.223-27.105s3.9883-19.867 11.227-27.105 16.867-11.227 27.105-11.227 19.863 3.9883 27.102 11.227c7.2461 7.2383 11.23 16.863 11.23 27.105s-3.9844 19.867-11.23 27.105zm8.4375-29.465c-9.375-9.375-21.789-14.582-35.012-14.719-0.17578-0.003906-0.34766-0.027344-0.52734-0.027344-0.17578 0-0.35156 0.019531-0.52734 0.027344-13.219 0.13672-25.637 5.3438-35.012 14.719l-2.3555 2.3594 2.3594 2.3594c9.3672 9.3672 21.773 14.574 34.98 14.715 0.1875 0.007812 0.37109 0.027343 0.55859 0.027343s0.37109-0.019531 0.55859-0.027343c13.207-0.14453 25.613-5.3516 34.98-14.715l2.3516-2.3594zm-25.105 2.3594c0 5.582-4.4062 10.141-9.9219 10.41-0.17188 0.003906-0.33984 0.011719-0.51172 0.011719s-0.33984-0.007813-0.50781-0.011719c-5.5156-0.26953-9.9258-4.8281-9.9258-10.41 0-5.5898 4.4258-10.156 9.9531-10.41 0.16016 0 0.32031-0.011719 0.48047-0.011719s0.32031 0.007813 0.48047 0.011719c5.5312 0.25391 9.9531 4.8203 9.9531 10.41zm-25.691-7.6797c-1.168 2.3125-1.8438 4.918-1.8438 7.6797 0 2.7656 0.67578 5.3672 1.8438 7.6797-4.7188-1.7578-9.1172-4.3438-13.02-7.6797 3.9023-3.3359 8.3047-5.9219 13.02-7.6797zm30.516 15.359c1.168-2.3125 1.8438-4.9141 1.8438-7.6797 0-2.7617-0.67578-5.3672-1.8438-7.6797 4.7148 1.7617 9.1133 4.3438 13.016 7.6797-3.8984 3.3359-8.2969 5.918-13.016 7.6797z"/>
</svg>
