<?xml version="1.0" encoding="UTF-8"?>
<svg fill="#003F72" width="100pt" height="100pt" version="1.1" viewBox="0 0 100 100" xmlns="http://www.w3.org/2000/svg">
 <g>
  <path d="m79.855 43.312l-9.9219 52.164h-42.449l-10.18-52.164h-3.6992l10.883 55.797h48.453l10.609-55.797z"/>
  <path d="m54.086 32.906h-10.754v-7.0508c0-7.6914 6.2539-13.945 13.945-13.945h23.047v10.754h-23.047c-1.7617 0-3.1914 1.4297-3.1914 3.1953z"/>
  <path d="m79.02 0.86328h-22.812v5.0938h8.4688v3.5898h5.8672v-3.5898h8.4766z"/>
  <path d="m70.637 51.254c-3.6172 0-5.3672-3.7227-5.668-4.4492h-0.09375c-0.23438 0.71875-1.6289 4.4492-5.2031 4.4492-3.6719 0-5.4805-3.9336-5.7266-4.5039l-0.046874-0.003906c-0.070313 0.33203-0.44141 1.7773-1.5195 2.9297v-14.461h-2.2422v14.652c0.41406-0.26172 0.92188-0.37109 1.4141-0.23828 0.96875 0.25391 1.5469 1.2461 1.2891 2.2148-0.21094 0.80859-0.94531 1.3633-1.7539 1.3633-0.16016 0-0.30078-0.023437-0.46094-0.070312-0.89453-0.23438-1.4258-1.1016-1.3047-1.9961-0.14062 0.011719-0.28125 0.027344-0.43359 0.027344-0.30078 0-0.57812-0.042969-0.85156-0.089844 0.042969 0.25 0.042969 0.50391-0.023437 0.76562-0.20703 0.80859-0.94531 1.3633-1.7539 1.3633-0.16016 0-0.30078-0.023437-0.46094-0.070312-0.96875-0.25391-1.5469-1.2461-1.293-2.2148 0.25391-0.94531 1.2695-1.5469 2.2148-1.293 0.26172 0.070313 0.48828 0.19922 0.6875 0.36328l-0.003906-14.777h-2.2422v14.496c-1.4375-1.2617-2.0859-2.8945-2.1289-3.0156h-0.007812c-0.015626 0.19922-0.37891 4.5586-5.2695 4.5586-5 0-5.7305-4.5781-5.7305-4.5781s-1.3789 4.6641-5.4883 4.6641c-3.0195 0-4.5703-2.5117-5.1836-3.8477l8.625 44.949h37.406l8.4805-45.348c-0.45312 1.1367-1.9688 4.1602-5.2266 4.1602zm-26.184 5.3281c0.25391-0.94531 1.2695-1.5469 2.2148-1.293 0.96875 0.25391 1.5469 1.2461 1.293 2.2148-0.21094 0.80859-0.94531 1.3633-1.7539 1.3633-0.16016 0-0.30078-0.023438-0.46094-0.070313-0.96875-0.25391-1.5469-1.2461-1.293-2.2148zm3.5586 6.5586c-0.20703 0.80859-0.94531 1.3594-1.7539 1.3594-0.16016 0-0.30078-0.019531-0.46094-0.066406-0.96875-0.25781-1.5469-1.2461-1.293-2.2148 0.25391-0.94531 1.2695-1.5469 2.2148-1.293 0.96875 0.25391 1.5469 1.2461 1.293 2.2148zm4.832 5.707c-0.21094 0.80469-0.94531 1.3594-1.7539 1.3594-0.16016 0-0.30078-0.023437-0.46094-0.070312-0.96875-0.25-1.5469-1.2422-1.293-2.2109 0.25391-0.94922 1.2695-1.5469 2.2148-1.293 0.96875 0.25 1.5469 1.2422 1.293 2.2148zm0-5.707c-0.21094 0.80859-0.94531 1.3594-1.7539 1.3594-0.16016 0-0.30078-0.019531-0.46094-0.066406-0.96875-0.25781-1.5469-1.2461-1.293-2.2148 0.25391-0.94531 1.2695-1.5469 2.2148-1.293 0.96875 0.25391 1.5469 1.2461 1.293 2.2148zm0-5.6367c-0.21094 0.80859-0.94531 1.3633-1.7539 1.3633-0.16016 0-0.30078-0.023438-0.46094-0.070313-0.96875-0.25391-1.5469-1.2461-1.293-2.2148 0.25391-0.94531 1.2695-1.5469 2.2148-1.293 0.96875 0.25391 1.5469 1.2461 1.293 2.2148z"/>
 </g>
</svg>
