<?xml version="1.0" encoding="utf-8"?>
<!-- Generator: Adobe Illustrator 21.1.0, SVG Export Plug-In . SVG Version: 6.00 Build 0)  -->
<svg version="1.1" id="Layer_1" xmlns="http://www.w3.org/2000/svg" xmlns:xlink="http://www.w3.org/1999/xlink" x="0px" y="0px"
	 viewBox="0 0 432 255" style="enable-background:new 0 0 432 255;" xml:space="preserve">
<style type="text/css">
	.st0{enable-background:new    ;}
	.st1{fill:#0083BE;}
	.st2{fill:none;stroke:#0083BE;stroke-miterlimit:10;}
	.st3{fill:none;stroke:#C4262E;stroke-width:8;stroke-miterlimit:10;}
	.st4{fill:#C4262E;}
</style>
<g class="st0">
	<path class="st1" d="M73.8,88.2c0-12.3-0.4-23.2-0.8-31.7h28.7l1.3,11.6h0.8c3.4-4.6,11.6-13.7,27.6-13.7c12,0,21.3,5.5,25.3,14.8
		h0.4c3.8-4.8,8-8.5,12.9-11c4.8-2.5,10.3-3.8,16.5-3.8c20.1,0,31.7,14.6,31.7,40.5V150h-33.3v-50c0-11.6-3.4-18.2-11-18.2
		c-5.5,0-8.9,3.6-10.5,8c-0.8,1.9-1,4.9-1,6.8V150h-33.2V99.1c0-10.5-3.2-17.3-10.8-17.3c-6.3,0-9.1,4.6-10.4,7.8
		c-1,2.1-1,4.6-1,6.8V150H73.8V88.2z"/>
	<path class="st1" d="M275.4,29.9v26.6h19.4v25.1h-19.4v26.8c0,11.2,2.7,15.8,10.8,15.8c4,0,5.3,0,8.2-0.8v26
		c-4,1.3-11.6,2.7-20.3,2.7c-10.1,0-18.4-3.6-23.4-8.5c-5.7-5.7-8.7-15-8.7-29.3V81.6h-11.6V56.5h11.6V38.8L275.4,29.9z"/>
	<path class="st1" d="M310.7,15.1h34.2V150h-34.2V15.1z"/>
</g>
<g class="st0">
	<path class="st2" d="M73.8,88.2c0-12.3-0.4-23.2-0.8-31.7h28.7l1.3,11.6h0.8c3.4-4.6,11.6-13.7,27.6-13.7c12,0,21.3,5.5,25.3,14.8
		h0.4c3.8-4.8,8-8.5,12.9-11c4.8-2.5,10.3-3.8,16.5-3.8c20.1,0,31.7,14.6,31.7,40.5V150h-33.3v-50c0-11.6-3.4-18.2-11-18.2
		c-5.5,0-8.9,3.6-10.5,8c-0.8,1.9-1,4.9-1,6.8V150h-33.2V99.1c0-10.5-3.2-17.3-10.8-17.3c-6.3,0-9.1,4.6-10.4,7.8
		c-1,2.1-1,4.6-1,6.8V150H73.8V88.2z"/>
	<path class="st2" d="M275.4,29.9v26.6h19.4v25.1h-19.4v26.8c0,11.2,2.7,15.8,10.8,15.8c4,0,5.3,0,8.2-0.8v26
		c-4,1.3-11.6,2.7-20.3,2.7c-10.1,0-18.4-3.6-23.4-8.5c-5.7-5.7-8.7-15-8.7-29.3V81.6h-11.6V56.5h11.6V38.8L275.4,29.9z"/>
	<path class="st2" d="M310.7,15.1h34.2V150h-34.2V15.1z"/>
</g>
<g>
	<g>
		<line class="st3" x1="17" y1="164" x2="413" y2="164"/>
		<g>
			<polygon class="st4" points="392.6,189 388.3,184.4 410.8,163.5 388.3,142.6 392.6,138 420,163.5 			"/>
		</g>
	</g>
</g>
<g class="st0">
	<path d="M49.2,212.4c0-4.3-0.2-8.3-0.4-12H56l0.5,7.6h0.2c2.6-4.3,6.9-8.6,15.1-8.6c6.5,0,11.3,4.1,13.3,9.5h0.2
		c1.4-2.6,3.2-4.5,5.1-5.8c2.9-2.3,6-3.6,10.7-3.6c5.8,0,15.7,3.6,15.7,20.1V244h-8v-23.8c0-9.4-3.9-14.1-10.5-14.1
		c-5.1,0-8.9,3.6-10.4,7.3c-0.5,1.2-0.8,2.6-0.8,4V244h-8v-25.3c0-7.6-3.8-12.6-10-12.6c-5.7,0-9.5,4.4-11.1,8.2
		c-0.5,1.2-0.6,2.6-0.6,4V244h-8V212.4z"/>
	<path d="M140.3,190v10.4h12.3v6.3h-12.3v22.6c0,5.4,1.4,9,6.5,9c2.4,0,3.9-0.3,5.1-0.7l0.5,6.2c-1.7,0.7-4.4,1.3-7.7,1.3
		c-4,0-7.2-1.3-9.2-3.6c-2.2-2.5-3.1-6.7-3.1-11.5v-23.2H125v-6.3h7.3v-8.3L140.3,190z"/>
	<path d="M162.6,179.6h8.2V244h-8.2V179.6z"/>
	<path d="M187.4,245.1c-3.2,0-5.6-2.6-5.5-5.8c0-3.4,2.3-5.8,5.7-5.8c3.3,0,5.5,2.4,5.6,5.8C193.1,242.5,190.9,245.1,187.4,245.1
		L187.4,245.1z"/>
	<path d="M203.3,179.6h8.2V208h0.2c1.4-2.4,3.6-4.8,6.3-6.2c2.6-1.4,5.8-2.4,8.9-2.4c6,0,16.8,3.3,16.8,19.7V244h-8.2v-24
		c0-7.6-3.2-13.8-11.4-13.8c-5.8,0-10.3,4-12.1,8.2c-0.4,1.2-0.5,2.3-0.5,4V244h-8.2V179.6z"/>
	<path d="M301.3,221.7c0,15.9-12.2,23.4-24,23.4c-13.1,0-23.1-9.1-23.1-22.4c0-14.1,10.3-23.3,23.9-23.3
		C292.1,199.4,301.3,209.1,301.3,221.7z M262.5,222.4c0,10.3,6.8,16.6,15.1,16.6c8.1,0,15.3-6.1,15.3-17c0-7.6-4.6-16.6-15-16.6
		C267.6,205.5,262.5,213.6,262.5,222.4z"/>
	<path d="M314.4,200.4l6.4,22.4c1.4,4.9,2.6,9.4,3.6,13.9h0.2c1-4.3,2.6-9,4.2-13.9l7.8-22.4h7.1l7.5,22.1c1.7,5.2,3.1,9.8,4.1,14.1
		h0.2c0.9-4.3,2.2-9,3.7-14.1l6.9-22.1h8.1L359.1,244h-7.7l-7.1-20.6c-1.8-5.1-3.2-9.6-4.4-14.8h-0.2c-1.2,5.3-2.7,10-4.4,14.8
		l-7.6,20.6H320l-14-43.6H314.4z"/>
</g>
</svg>
