<svg id="Layer_1" data-name="Layer 1" xmlns="http://www.w3.org/2000/svg" viewBox="0 0 191.65 134"><defs><style>.cls-1{fill:#0582bd;stroke:#0582bd;}.cls-1,.cls-2{stroke-miterlimit:10;}.cls-2{fill:none;stroke:#c3272e;stroke-width:3px;}.cls-3{fill:#c3272e;}</style></defs><title>mtl_how (1)</title><path class="cls-1" d="M38.42,43.15c0-4.93-.16-9.26-.31-12.67H49.52L50,35.11h.31A13.09,13.09,0,0,1,61.3,29.64c4.75,0,8.45,2.2,10,5.92h.15a15.7,15.7,0,0,1,5.14-4.4,13.91,13.91,0,0,1,6.57-1.52c8,0,12.61,5.85,12.61,16.16v22H82.59V47.85c0-4.63-1.36-7.28-4.38-7.28a4.32,4.32,0,0,0-4.15,3.18,8.64,8.64,0,0,0-.38,2.74V67.8H60.47V47.47c0-4.17-1.29-6.9-4.31-6.9A4.43,4.43,0,0,0,52,43.68a6.61,6.61,0,0,0-.38,2.73V67.8H38.42Z"/><path class="cls-1" d="M118.53,19.86V30.48h7.71v10h-7.71v10.7c0,4.48,1.06,6.3,4.31,6.3a16.35,16.35,0,0,0,3.25-.31v10.4a28.68,28.68,0,0,1-8.08,1,13.12,13.12,0,0,1-9.29-3.33c-2.27-2.28-3.48-6-3.48-11.69v-13h-4.6v-10h4.6V22.89Z"/><path class="cls-1" d="M132.58,13.94h13.59V67.8H132.58Z"/><line class="cls-2" x1="13.86" y1="73.2" x2="171.49" y2="73.2"/><polygon class="cls-3" points="163.74 82.77 162.14 81.05 170.59 73.2 162.14 65.34 163.74 63.63 174.03 73.2 163.74 82.77"/><path d="M61.18,105.34c.07-1.26.14-2.91.14-4.6V79.61h3.26V91h.07c1.14-2,3.4-3.48,6.65-3.48,4.83,0,8.16,3.77,8.16,8.87,0,6.22-4.4,9.38-8.66,9.38a7.13,7.13,0,0,1-6.58-3.49h-.07L64,105.34Zm3.4-7.26a6,6,0,0,0,.11,1.19,5.61,5.61,0,0,0,5.43,3.91c3.69,0,6-2.58,6-6.68,0-3.49-2.11-6.43-5.87-6.43a5.61,5.61,0,0,0-5.47,4.13,4,4,0,0,0-.21,1.36Z"/><path d="M83.72,79.61H87v25.73H83.72Z"/><path d="M108.47,100.56c0,1.8,0,3.38.14,4.78h-2.9l-.18-3.2h-.07a7.14,7.14,0,0,1-6.4,3.63c-2.61,0-6.55-1.26-6.55-7.94V88h3.26v9.27c0,3.52,1.21,5.86,4.4,5.86a5.28,5.28,0,0,0,4.72-3.1,4.61,4.61,0,0,0,.32-1.65V88h3.26Z"/><path d="M115.87,97.33c.07,3.91,3,5.89,6.55,5.89a13.32,13.32,0,0,0,5.43-1l.57,2.33a16.27,16.27,0,0,1-6.43,1.19c-5.69,0-9.23-3.59-9.23-8.8s3.33-9.45,8.9-9.45c6.34,0,7.84,5.39,7.84,8.37a4.81,4.81,0,0,1-.15,1.44ZM126.35,95c0-1.51-.68-5.17-4.94-5.17-3.68,0-5.22,3-5.5,5.17Z"/></svg>