<svg id="Layer_1" data-name="Layer 1" xmlns="http://www.w3.org/2000/svg" viewBox="0 0 200 138"><defs><style>.cls-1{fill:#0582bd;stroke:#0582bd;}.cls-1,.cls-2{stroke-miterlimit:10;}.cls-2{fill:none;stroke:#c3272e;stroke-width:3px;}.cls-3{fill:#c3272e;}</style></defs><title>mtl_how (1)</title><path class="cls-1" d="M43.91,48.15c0-4.93-.15-9.26-.3-12.67H55l.53,4.63h.3a13.11,13.11,0,0,1,11-5.47c4.76,0,8.46,2.2,10,5.92H77a15.9,15.9,0,0,1,5.14-4.4,14,14,0,0,1,6.57-1.52c8,0,12.61,5.85,12.61,16.16v22H88.09V52.85c0-4.63-1.36-7.28-4.38-7.28a4.34,4.34,0,0,0-4.16,3.18,8.64,8.64,0,0,0-.38,2.74V72.8H66V52.47c0-4.17-1.28-6.9-4.3-6.9a4.43,4.43,0,0,0-4.16,3.11,6.61,6.61,0,0,0-.38,2.73V72.8H43.91Z"/><path class="cls-1" d="M124,24.86V35.48h7.7v10H124v10.7c0,4.48,1,6.3,4.3,6.3a16.27,16.27,0,0,0,3.25-.31v10.4a28.68,28.68,0,0,1-8.08,1,13.14,13.14,0,0,1-9.29-3.33c-2.26-2.28-3.47-6-3.47-11.69v-13h-4.61v-10h4.61V27.89Z"/><path class="cls-1" d="M138.07,18.94h13.6V72.8h-13.6Z"/><line class="cls-2" x1="19.36" y1="78.2" x2="176.98" y2="78.2"/><polygon class="cls-3" points="169.23 87.77 167.63 86.05 176.09 78.2 167.63 70.34 169.23 68.63 179.52 78.2 169.23 87.77"/><path d="M61.45,110.34,52.76,86.12h3.51l4.22,12.14c1.18,3.42,2.14,6.22,2.86,8.95h.07c.79-2.69,1.89-5.64,3.15-8.87l4.65-12.22h3.47l-9.63,24.22Z"/><path d="M80.41,87.92a2,2,0,0,1-2.11,2,2,2,0,0,1-2-2,2.06,2.06,0,0,1,4.11,0Zm-3.68,22.42V93H80v17.39Z"/><path d="M102.08,84.61v21.13c0,1.69,0,3.34.15,4.6H99.29l-.17-3.27H99a7.09,7.09,0,0,1-6.61,3.7c-4.58,0-8.19-3.7-8.19-8.8,0-5.68,3.86-9.45,8.62-9.45a6.69,6.69,0,0,1,5.9,2.83h.07V84.61Zm-3.25,15.6a6.38,6.38,0,0,0-.18-1.44A5.24,5.24,0,0,0,93.43,95c-3.58,0-5.9,2.77-5.9,6.72,0,3.49,2,6.4,5.86,6.4a5.43,5.43,0,0,0,5.26-4.06,6,6,0,0,0,.18-1.44Z"/><path d="M109.49,102.33c.07,3.91,3,5.89,6.55,5.89a13.32,13.32,0,0,0,5.43-1l.57,2.33a16.27,16.27,0,0,1-6.43,1.19c-5.69,0-9.23-3.59-9.23-8.8s3.32-9.45,8.9-9.45c6.34,0,7.84,5.39,7.84,8.37a4.81,4.81,0,0,1-.15,1.44ZM120,100c0-1.51-.68-5.17-4.94-5.17-3.68,0-5.22,3-5.5,5.17Z"/><path d="M144.69,101.43c0,6.36-4.87,9.34-9.55,9.34-5.23,0-9.2-3.63-9.2-9,0-5.64,4.12-9.3,9.52-9.3C141,92.52,144.69,96.4,144.69,101.43Zm-15.42.28c0,4.1,2.72,6.65,6,6.65s6.08-2.44,6.08-6.79c0-3-1.82-6.61-6-6.61S129.27,98.19,129.27,101.71Z"/></svg>