<svg id="Layer_1" data-name="Layer 1" xmlns="http://www.w3.org/2000/svg" viewBox="0 0 200 138"><defs><style>.cls-1{fill:#0582bd;stroke:#0582bd;}.cls-1,.cls-2{stroke-miterlimit:10;}.cls-2{fill:none;stroke:#c3272e;stroke-width:3px;}.cls-3{fill:#c3272e;}</style></defs><title>mtl_how (1)</title><path class="cls-1" d="M46.4,47.15c0-4.93-.15-9.26-.3-12.67H57.5L58,39.11h.3a13.11,13.11,0,0,1,11-5.47c4.76,0,8.46,2.2,10,5.92h.15a15.8,15.8,0,0,1,5.14-4.4,14,14,0,0,1,6.57-1.52c8,0,12.61,5.85,12.61,16.16v22H90.58V51.85c0-4.63-1.36-7.28-4.38-7.28A4.34,4.34,0,0,0,82,47.75a8.64,8.64,0,0,0-.38,2.74V71.8H68.45V51.47c0-4.17-1.28-6.9-4.31-6.9A4.43,4.43,0,0,0,60,47.68a6.61,6.61,0,0,0-.38,2.73V71.8H46.4Z"/><path class="cls-1" d="M126.52,23.86V34.48h7.7v10h-7.7v10.7c0,4.48,1.06,6.3,4.3,6.3a16.27,16.27,0,0,0,3.25-.31v10.4a28.68,28.68,0,0,1-8.08,1,13.14,13.14,0,0,1-9.29-3.33c-2.26-2.28-3.47-6-3.47-11.69v-13h-4.61v-10h4.61V26.89Z"/><path class="cls-1" d="M140.56,17.94h13.59V71.8H140.56Z"/><line class="cls-2" x1="21.85" y1="77.2" x2="179.47" y2="77.2"/><polygon class="cls-3" points="171.72 86.77 170.12 85.05 178.57 77.2 170.12 69.34 171.72 67.63 182.01 77.2 171.72 86.77"/><path d="M32.77,85.12H47v2.66H36v7.94H46.15v2.66H36v11H32.77Z"/><path d="M60.6,109.34l-.29-2.3H60.2a7.37,7.37,0,0,1-5.9,2.73c-3.9,0-5.68-2.66-5.68-5,0-4.17,3.82-6.62,11.4-6.54V98c0-1.12-.32-4.06-4.32-4a9.51,9.51,0,0,0-5.05,1.4l-.75-2.15a12.07,12.07,0,0,1,6.26-1.65c5.9,0,7.12,4.09,7.12,7.43v6.15a24.92,24.92,0,0,0,.29,4.24Zm-.5-8.84c-4.08-.11-8.16.65-8.16,3.84a2.91,2.91,0,0,0,3.22,3,5,5,0,0,0,4.76-3,3.51,3.51,0,0,0,.18-1Z"/><path d="M82.42,108.66a14.86,14.86,0,0,1-5.69,1.11c-5.69,0-9.37-3.74-9.37-8.91,0-5.46,4-9.34,10.08-9.34a11.82,11.82,0,0,1,5,1.07l-.75,2.48a8.69,8.69,0,0,0-4.26-1c-4.36,0-6.83,2.88-6.8,6.54,0,4,2.9,6.51,6.66,6.51a10.37,10.37,0,0,0,4.47-1Z"/><path d="M90.21,86.92a2,2,0,0,1-2.11,2,2,2,0,0,1-2-2,2.06,2.06,0,0,1,4.11,0Zm-3.68,22.42V92h3.25v17.39Z"/><path d="M95.47,83.61h3.26v25.73H95.47Z"/><path d="M108.1,86.92a2,2,0,0,1-2.11,2,2,2,0,0,1-2-2,2.06,2.06,0,0,1,4.12,0Zm-3.69,22.42V92h3.26v17.39Z"/><path d="M117.25,86.84V92h4.9v2.51h-4.9v9c0,2.16.54,3.6,2.58,3.6a6.61,6.61,0,0,0,2-.29l.18,2.48a8.47,8.47,0,0,1-3.08.5,4.75,4.75,0,0,1-3.65-1.44,7,7,0,0,1-1.25-4.6V94.46h-2.9V92h2.9V87.67Z"/><path d="M136.6,109.34l-.28-2.3h-.11a7.37,7.37,0,0,1-5.9,2.73c-3.9,0-5.69-2.66-5.69-5,0-4.17,3.83-6.62,11.41-6.54V98c0-1.12-.32-4.06-4.32-4a9.51,9.51,0,0,0-5.05,1.4l-.75-2.15a12,12,0,0,1,6.26-1.65c5.9,0,7.12,4.09,7.12,7.43v6.15a26.06,26.06,0,0,0,.28,4.24Zm-.5-8.84c-4.07-.11-8.15.65-8.15,3.84a2.91,2.91,0,0,0,3.22,3,5,5,0,0,0,4.76-3,3.48,3.48,0,0,0,.17-1Z"/><path d="M148.59,86.84V92h4.9v2.51h-4.9v9c0,2.16.53,3.6,2.57,3.6a6.61,6.61,0,0,0,2-.29l.18,2.48a8.43,8.43,0,0,1-3.08.5,4.72,4.72,0,0,1-3.64-1.44,6.93,6.93,0,0,1-1.26-4.6V94.46h-2.89V92h2.89V87.67Z"/><path d="M159,101.33c.07,3.91,3,5.89,6.55,5.89a13.32,13.32,0,0,0,5.43-1l.58,2.33a16.38,16.38,0,0,1-6.44,1.19c-5.69,0-9.23-3.59-9.23-8.8s3.33-9.45,8.91-9.45c6.33,0,7.83,5.39,7.83,8.37a5.24,5.24,0,0,1-.14,1.44ZM169.44,99c0-1.51-.68-5.17-4.94-5.17-3.68,0-5.22,3-5.5,5.17Z"/></svg>