<svg id="Layer_1" data-name="Layer 1" xmlns="http://www.w3.org/2000/svg" viewBox="0 0 200 138"><defs><style>.cls-1{fill:#0582bd;stroke:#0582bd;}.cls-1,.cls-2{stroke-miterlimit:10;}.cls-2{fill:none;stroke:#c3272e;stroke-width:3px;}.cls-3{fill:#c3272e;}</style></defs><title>mtl_how (1)</title><path class="cls-1" d="M45.94,48.15c0-4.93-.15-9.26-.3-12.67H57l.53,4.63h.31a13.08,13.08,0,0,1,10.95-5.47c4.75,0,8.45,2.2,10,5.92H79a15.77,15.77,0,0,1,5.13-4.4,14,14,0,0,1,6.57-1.52c8,0,12.61,5.85,12.61,16.16v22H90.12V52.85c0-4.63-1.36-7.28-4.38-7.28a4.32,4.32,0,0,0-4.15,3.18,8.64,8.64,0,0,0-.38,2.74V72.8H68V52.47c0-4.17-1.28-6.9-4.3-6.9a4.42,4.42,0,0,0-4.15,3.11,6.61,6.61,0,0,0-.38,2.73V72.8H45.94Z"/><path class="cls-1" d="M126.06,24.86V35.48h7.71v10h-7.71v10.7c0,4.48,1.06,6.3,4.31,6.3a16.15,16.15,0,0,0,3.24-.31v10.4a28.58,28.58,0,0,1-8.08,1,13.11,13.11,0,0,1-9.28-3.33c-2.27-2.28-3.48-6-3.48-11.69v-13h-4.6v-10h4.6V27.89Z"/><path class="cls-1" d="M140.11,18.94H153.7V72.8H140.11Z"/><line class="cls-2" x1="21.39" y1="78.2" x2="179.02" y2="78.2"/><polygon class="cls-3" points="171.26 87.77 169.67 86.05 178.12 78.2 169.67 70.34 171.26 68.63 181.56 78.2 171.26 87.77"/><path d="M77.31,98.7c0-2.27,0-4-.14-5.75H80l.15,3.66h.1a5.6,5.6,0,0,1,5.23-4.09,4.28,4.28,0,0,1,1,.1v3a6.6,6.6,0,0,0-1.25-.11c-2.36,0-4,1.73-4.51,4.21a9.21,9.21,0,0,0-.1,1.44v9.16H77.31Z"/><path d="M91.33,102.33c.07,3.91,3,5.89,6.55,5.89a13.32,13.32,0,0,0,5.43-1l.58,2.33a16.38,16.38,0,0,1-6.44,1.19c-5.69,0-9.23-3.59-9.23-8.8s3.33-9.45,8.91-9.45c6.33,0,7.83,5.39,7.83,8.37a5.24,5.24,0,0,1-.14,1.44ZM101.81,100c0-1.51-.68-5.17-4.93-5.17-3.69,0-5.23,3-5.51,5.17Z"/><path d="M125.63,84.61v21.13c0,1.69,0,3.34.15,4.6h-2.94l-.17-3.27h-.08a7.09,7.09,0,0,1-6.61,3.7c-4.58,0-8.19-3.7-8.19-8.8,0-5.68,3.86-9.45,8.62-9.45a6.69,6.69,0,0,1,5.9,2.83h.07V84.61Zm-3.25,15.6a6.38,6.38,0,0,0-.18-1.44A5.24,5.24,0,0,0,117,95c-3.58,0-5.9,2.77-5.9,6.72,0,3.49,2,6.4,5.86,6.4a5.43,5.43,0,0,0,5.26-4.06,6,6,0,0,0,.18-1.44Z"/></svg>